<svg width="484" height="417" viewBox="0 0 484 417" fill="none" xmlns="http://www.w3.org/2000/svg">
<path d="M327.176 82.146H16.3271V389.352H327.176V82.146Z" fill="white" stroke="#263238" stroke-linecap="round" stroke-linejoin="round"/>
<path d="M160.242 114.495H140.722V136.726H160.242V114.495Z" fill="white" stroke="#263238" stroke-linecap="round" stroke-linejoin="round"/>
<path d="M153.387 114.495H140.722V136.726H153.387V114.495Z" fill="white" stroke="#263238" stroke-linecap="round" stroke-linejoin="round"/>
<path d="M151.812 123.938H142.144V134.373H151.812V123.938Z" fill="#0D7377" stroke="#263238" stroke-linecap="round" stroke-linejoin="round"/>
<path d="M143.75 114.495H124.23V136.726H143.75V114.495Z" fill="white" stroke="#263238" stroke-linecap="round" stroke-linejoin="round"/>
<path d="M136.896 114.495H124.23V136.726H136.896V114.495Z" fill="white" stroke="#263238" stroke-linecap="round" stroke-linejoin="round"/>
<path d="M135.32 123.938H125.652V134.373H135.32V123.938Z" fill="#0D7377" stroke="#263238" stroke-linecap="round" stroke-linejoin="round"/>
<path d="M128.107 104.009H108.587V136.726H128.107V104.009Z" fill="#0D7377" stroke="#263238" stroke-linecap="round" stroke-linejoin="round"/>
<path d="M121.253 104.009H108.587V136.726H121.253V104.009Z" fill="white" stroke="#263238" stroke-linecap="round" stroke-linejoin="round"/>
<path d="M119.677 117.912H110.009V133.268H119.677V117.912Z" fill="#0D7377" stroke="#263238" stroke-linecap="round" stroke-linejoin="round"/>
<path d="M111.616 104.009H92.0954V136.726H111.616V104.009Z" fill="#0D7377" stroke="#263238" stroke-linecap="round" stroke-linejoin="round"/>
<path d="M104.761 104.009H92.0954V136.726H104.761V104.009Z" fill="#0D7377" stroke="#263238" stroke-linecap="round" stroke-linejoin="round"/>
<path d="M103.185 117.912H93.5175V133.268H103.185V117.912Z" fill="white" stroke="#263238" stroke-linecap="round" stroke-linejoin="round"/>
<path d="M97.1084 114.495H77.5883V136.726H97.1084V114.495Z" fill="white" stroke="#263238" stroke-linecap="round" stroke-linejoin="round"/>
<path d="M90.2539 114.495H77.5883V136.726H90.2539V114.495Z" fill="white" stroke="#263238" stroke-linecap="round" stroke-linejoin="round"/>
<path d="M88.6784 123.938H79.0104V134.373H88.6784V123.938Z" fill="#0D7377" stroke="#263238" stroke-linecap="round" stroke-linejoin="round"/>
<path d="M80.6166 114.495H61.0965V136.726H80.6166V114.495Z" fill="white" stroke="#263238" stroke-linecap="round" stroke-linejoin="round"/>
<path d="M73.7621 114.495H61.0965V136.726H73.7621V114.495Z" fill="white" stroke="#263238" stroke-linecap="round" stroke-linejoin="round"/>
<path d="M72.1866 123.938H62.5186V134.373H72.1866V123.938Z" fill="#0D7377" stroke="#263238" stroke-linecap="round" stroke-linejoin="round"/>
<path d="M64.974 104.009H45.4539V136.726H64.974V104.009Z" fill="white" stroke="#263238" stroke-linecap="round" stroke-linejoin="round"/>
<path d="M58.1194 104.009H45.4539V136.726H58.1194V104.009Z" fill="white" stroke="#263238" stroke-linecap="round" stroke-linejoin="round"/>
<path d="M56.5439 117.912H46.8759V133.268H56.5439V117.912Z" fill="#0D7377" stroke="#263238" stroke-linecap="round" stroke-linejoin="round"/>
<path d="M48.4821 104.009H28.962V136.726H48.4821V104.009Z" fill="white" stroke="#263238" stroke-linecap="round" stroke-linejoin="round"/>
<path d="M41.6276 104.009H28.962V136.726H41.6276V104.009Z" fill="white" stroke="#263238" stroke-linecap="round" stroke-linejoin="round"/>
<path d="M40.052 117.912H30.3841V133.268H40.052V117.912Z" fill="#0D7377" stroke="#263238" stroke-linecap="round" stroke-linejoin="round"/>
<path d="M312.096 114.495H292.575V136.726H312.096V114.495Z" fill="white" stroke="#263238" stroke-linecap="round" stroke-linejoin="round"/>
<path d="M305.241 114.495H292.575V136.726H305.241V114.495Z" fill="white" stroke="#263238" stroke-linecap="round" stroke-linejoin="round"/>
<path d="M303.666 123.938H293.998V134.373H303.666V123.938Z" fill="#0D7377" stroke="#263238" stroke-linecap="round" stroke-linejoin="round"/>
<path d="M295.604 114.495H276.084V136.726H295.604V114.495Z" fill="white" stroke="#263238" stroke-linecap="round" stroke-linejoin="round"/>
<path d="M288.749 114.495H276.084V136.726H288.749V114.495Z" fill="white" stroke="#263238" stroke-linecap="round" stroke-linejoin="round"/>
<path d="M287.174 123.938H277.506V134.373H287.174V123.938Z" fill="#0D7377" stroke="#263238" stroke-linecap="round" stroke-linejoin="round"/>
<path d="M279.961 104.009H260.441V136.726H279.961V104.009Z" fill="#0D7377" stroke="#263238" stroke-linecap="round" stroke-linejoin="round"/>
<path d="M273.107 104.009H260.441V136.726H273.107V104.009Z" fill="white" stroke="#263238" stroke-linecap="round" stroke-linejoin="round"/>
<path d="M271.531 117.912H261.863V133.268H271.531V117.912Z" fill="#0D7377" stroke="#263238" stroke-linecap="round" stroke-linejoin="round"/>
<path d="M263.469 104.009H243.949V136.726H263.469V104.009Z" fill="#0D7377" stroke="#263238" stroke-linecap="round" stroke-linejoin="round"/>
<path d="M256.615 104.009H243.949V136.726H256.615V104.009Z" fill="#0D7377" stroke="#263238" stroke-linecap="round" stroke-linejoin="round"/>
<path d="M255.039 117.912H245.371V133.268H255.039V117.912Z" fill="white" stroke="#263238" stroke-linecap="round" stroke-linejoin="round"/>
<path d="M248.972 114.495H229.452V136.726H248.972V114.495Z" fill="white" stroke="#263238" stroke-linecap="round" stroke-linejoin="round"/>
<path d="M242.118 114.495H229.452V136.726H242.118V114.495Z" fill="white" stroke="#263238" stroke-linecap="round" stroke-linejoin="round"/>
<path d="M240.532 123.938H230.864V134.373H240.532V123.938Z" fill="#0D7377" stroke="#263238" stroke-linecap="round" stroke-linejoin="round"/>
<path d="M232.47 114.495H212.95V136.726H232.47V114.495Z" fill="white" stroke="#263238" stroke-linecap="round" stroke-linejoin="round"/>
<path d="M225.616 114.495H212.95V136.726H225.616V114.495Z" fill="white" stroke="#263238" stroke-linecap="round" stroke-linejoin="round"/>
<path d="M224.04 123.938H214.372V134.373H224.04V123.938Z" fill="#0D7377" stroke="#263238" stroke-linecap="round" stroke-linejoin="round"/>
<path d="M216.838 104.009H197.318V136.726H216.838V104.009Z" fill="white" stroke="#263238" stroke-linecap="round" stroke-linejoin="round"/>
<path d="M209.983 104.009H197.318V136.726H209.983V104.009Z" fill="white" stroke="#263238" stroke-linecap="round" stroke-linejoin="round"/>
<path d="M208.398 117.912H198.73V133.268H208.398V117.912Z" fill="#0D7377" stroke="#263238" stroke-linecap="round" stroke-linejoin="round"/>
<path d="M200.336 104.009H180.816V136.726H200.336V104.009Z" fill="white" stroke="#263238" stroke-linecap="round" stroke-linejoin="round"/>
<path d="M193.481 104.009H180.816V136.726H193.481V104.009Z" fill="white" stroke="#263238" stroke-linecap="round" stroke-linejoin="round"/>
<path d="M191.906 117.912H182.238V133.268H191.906V117.912Z" fill="#0D7377" stroke="#263238" stroke-linecap="round" stroke-linejoin="round"/>
<path d="M160.242 286.994H140.722V309.225H160.242V286.994Z" fill="white" stroke="#263238" stroke-linecap="round" stroke-linejoin="round"/>
<path d="M153.387 286.994H140.722V309.225H153.387V286.994Z" fill="white" stroke="#263238" stroke-linecap="round" stroke-linejoin="round"/>
<path d="M151.812 296.438H142.144V306.873H151.812V296.438Z" fill="#0D7377" stroke="#263238" stroke-linecap="round" stroke-linejoin="round"/>
<path d="M143.75 286.994H124.23V309.225H143.75V286.994Z" fill="white" stroke="#263238" stroke-linecap="round" stroke-linejoin="round"/>
<path d="M136.896 286.994H124.23V309.225H136.896V286.994Z" fill="white" stroke="#263238" stroke-linecap="round" stroke-linejoin="round"/>
<path d="M135.32 296.438H125.652V306.873H135.32V296.438Z" fill="#0D7377" stroke="#263238" stroke-linecap="round" stroke-linejoin="round"/>
<path d="M128.107 276.508H108.587V309.225H128.107V276.508Z" fill="#0D7377" stroke="#263238" stroke-linecap="round" stroke-linejoin="round"/>
<path d="M121.253 276.508H108.587V309.225H121.253V276.508Z" fill="white" stroke="#263238" stroke-linecap="round" stroke-linejoin="round"/>
<path d="M119.677 290.401H110.009V305.757H119.677V290.401Z" fill="#0D7377" stroke="#263238" stroke-linecap="round" stroke-linejoin="round"/>
<path d="M111.616 276.508H92.0954V309.225H111.616V276.508Z" fill="#0D7377" stroke="#263238" stroke-linecap="round" stroke-linejoin="round"/>
<path d="M104.761 276.508H92.0954V309.225H104.761V276.508Z" fill="#0D7377" stroke="#263238" stroke-linecap="round" stroke-linejoin="round"/>
<path d="M103.185 290.401H93.5175V305.757H103.185V290.401Z" fill="white" stroke="#263238" stroke-linecap="round" stroke-linejoin="round"/>
<path d="M97.1084 286.994H77.5883V309.225H97.1084V286.994Z" fill="white" stroke="#263238" stroke-linecap="round" stroke-linejoin="round"/>
<path d="M90.2539 286.994H77.5883V309.225H90.2539V286.994Z" fill="white" stroke="#263238" stroke-linecap="round" stroke-linejoin="round"/>
<path d="M88.6784 296.438H79.0104V306.873H88.6784V296.438Z" fill="#0D7377" stroke="#263238" stroke-linecap="round" stroke-linejoin="round"/>
<path d="M80.6166 286.994H61.0965V309.225H80.6166V286.994Z" fill="white" stroke="#263238" stroke-linecap="round" stroke-linejoin="round"/>
<path d="M73.7621 286.994H61.0965V309.225H73.7621V286.994Z" fill="white" stroke="#263238" stroke-linecap="round" stroke-linejoin="round"/>
<path d="M72.1866 296.438H62.5186V306.873H72.1866V296.438Z" fill="#0D7377" stroke="#263238" stroke-linecap="round" stroke-linejoin="round"/>
<path d="M64.974 276.508H45.4539V309.225H64.974V276.508Z" fill="white" stroke="#263238" stroke-linecap="round" stroke-linejoin="round"/>
<path d="M58.1194 276.508H45.4539V309.225H58.1194V276.508Z" fill="white" stroke="#263238" stroke-linecap="round" stroke-linejoin="round"/>
<path d="M56.5439 290.401H46.8759V305.757H56.5439V290.401Z" fill="#0D7377" stroke="#263238" stroke-linecap="round" stroke-linejoin="round"/>
<path d="M48.4821 276.508H28.962V309.225H48.4821V276.508Z" fill="white" stroke="#263238" stroke-linecap="round" stroke-linejoin="round"/>
<path d="M41.6276 276.508H28.962V309.225H41.6276V276.508Z" fill="white" stroke="#263238" stroke-linecap="round" stroke-linejoin="round"/>
<path d="M40.052 290.401H30.3841V305.757H40.052V290.401Z" fill="#0D7377" stroke="#263238" stroke-linecap="round" stroke-linejoin="round"/>
<path d="M312.096 286.994H292.575V309.225H312.096V286.994Z" fill="white" stroke="#263238" stroke-linecap="round" stroke-linejoin="round"/>
<path d="M305.241 286.994H292.575V309.225H305.241V286.994Z" fill="white" stroke="#263238" stroke-linecap="round" stroke-linejoin="round"/>
<path d="M303.666 296.438H293.998V306.873H303.666V296.438Z" fill="#0D7377" stroke="#263238" stroke-linecap="round" stroke-linejoin="round"/>
<path d="M295.604 286.994H276.084V309.225H295.604V286.994Z" fill="white" stroke="#263238" stroke-linecap="round" stroke-linejoin="round"/>
<path d="M288.749 286.994H276.084V309.225H288.749V286.994Z" fill="white" stroke="#263238" stroke-linecap="round" stroke-linejoin="round"/>
<path d="M287.174 296.438H277.506V306.873H287.174V296.438Z" fill="#0D7377" stroke="#263238" stroke-linecap="round" stroke-linejoin="round"/>
<path d="M279.961 276.508H260.441V309.225H279.961V276.508Z" fill="#0D7377" stroke="#263238" stroke-linecap="round" stroke-linejoin="round"/>
<path d="M273.107 276.508H260.441V309.225H273.107V276.508Z" fill="white" stroke="#263238" stroke-linecap="round" stroke-linejoin="round"/>
<path d="M271.531 290.401H261.863V305.757H271.531V290.401Z" fill="#0D7377" stroke="#263238" stroke-linecap="round" stroke-linejoin="round"/>
<path d="M263.469 276.508H243.949V309.225H263.469V276.508Z" fill="#0D7377" stroke="#263238" stroke-linecap="round" stroke-linejoin="round"/>
<path d="M256.615 276.508H243.949V309.225H256.615V276.508Z" fill="#0D7377" stroke="#263238" stroke-linecap="round" stroke-linejoin="round"/>
<path d="M255.039 290.401H245.371V305.757H255.039V290.401Z" fill="white" stroke="#263238" stroke-linecap="round" stroke-linejoin="round"/>
<path d="M248.972 286.994H229.452V309.225H248.972V286.994Z" fill="white" stroke="#263238" stroke-linecap="round" stroke-linejoin="round"/>
<path d="M242.118 286.994H229.452V309.225H242.118V286.994Z" fill="white" stroke="#263238" stroke-linecap="round" stroke-linejoin="round"/>
<path d="M240.532 296.438H230.864V306.873H240.532V296.438Z" fill="#0D7377" stroke="#263238" stroke-linecap="round" stroke-linejoin="round"/>
<path d="M232.47 286.994H212.95V309.225H232.47V286.994Z" fill="white" stroke="#263238" stroke-linecap="round" stroke-linejoin="round"/>
<path d="M225.616 286.994H212.95V309.225H225.616V286.994Z" fill="white" stroke="#263238" stroke-linecap="round" stroke-linejoin="round"/>
<path d="M224.04 296.438H214.372V306.873H224.04V296.438Z" fill="#0D7377" stroke="#263238" stroke-linecap="round" stroke-linejoin="round"/>
<path d="M216.838 276.508H197.318V309.225H216.838V276.508Z" fill="white" stroke="#263238" stroke-linecap="round" stroke-linejoin="round"/>
<path d="M209.983 276.508H197.318V309.225H209.983V276.508Z" fill="white" stroke="#263238" stroke-linecap="round" stroke-linejoin="round"/>
<path d="M208.398 290.401H198.73V305.757H208.398V290.401Z" fill="#0D7377" stroke="#263238" stroke-linecap="round" stroke-linejoin="round"/>
<path d="M200.336 276.508H180.816V309.225H200.336V276.508Z" fill="white" stroke="#263238" stroke-linecap="round" stroke-linejoin="round"/>
<path d="M193.481 276.508H180.816V309.225H193.481V276.508Z" fill="white" stroke="#263238" stroke-linecap="round" stroke-linejoin="round"/>
<path d="M191.906 290.401H182.238V305.757H191.906V290.401Z" fill="#0D7377" stroke="#263238" stroke-linecap="round" stroke-linejoin="round"/>
<path d="M29.0848 169.332H35.6222C37.0928 169.332 38.5032 169.916 39.5431 170.956C40.583 171.996 41.1672 173.406 41.1672 174.877V193.783H23.5602V174.877C23.5602 173.409 24.1416 172.002 25.1771 170.963C26.2125 169.924 27.6177 169.337 29.0848 169.332V169.332Z" fill="#0D7377" stroke="#263238" stroke-linecap="round" stroke-linejoin="round"/>
<path d="M36.3588 162.508H29.1052V169.332H36.3588V162.508Z" fill="#263238" stroke="#263238" stroke-linecap="round" stroke-linejoin="round"/>
<path d="M36.3588 176.728H24.9823V188.105H36.3588V176.728Z" fill="white" stroke="#263238" stroke-linecap="round" stroke-linejoin="round"/>
<path d="M49.8633 169.332H56.4006C57.8713 169.332 59.2817 169.916 60.3216 170.956C61.3615 171.996 61.9457 173.406 61.9457 174.877V193.783H44.3182V174.877C44.3182 174.148 44.4617 173.427 44.7403 172.755C45.019 172.082 45.4274 171.471 45.9423 170.956C46.4572 170.441 47.0685 170.032 47.7413 169.754C48.414 169.475 49.1351 169.332 49.8633 169.332V169.332Z" fill="#0D7377" stroke="#263238" stroke-linecap="round" stroke-linejoin="round"/>
<path d="M57.1168 162.508H49.8633V169.332H57.1168V162.508Z" fill="#263238" stroke="#263238" stroke-linecap="round" stroke-linejoin="round"/>
<path d="M57.1168 176.728H45.7403V188.105H57.1168V176.728Z" fill="white" stroke="#263238" stroke-linecap="round" stroke-linejoin="round"/>
<path d="M70.6213 156.247H77.1689C78.6377 156.249 80.0455 156.835 81.0832 157.874C82.1209 158.914 82.7037 160.323 82.7037 161.792V193.783H65.0762V161.792C65.0762 160.321 65.6604 158.911 66.7003 157.871C67.7402 156.831 69.1506 156.247 70.6213 156.247V156.247Z" fill="#0D7377" stroke="#263238" stroke-linecap="round" stroke-linejoin="round"/>
<path d="M77.8748 149.423H70.6213V156.247H77.8748V149.423Z" fill="#263238" stroke="#263238" stroke-linecap="round" stroke-linejoin="round"/>
<path d="M77.8748 163.643H66.4983V188.094H77.8748V163.643Z" fill="white" stroke="#263238" stroke-linecap="round" stroke-linejoin="round"/>
<path d="M91.3792 169.332H97.9166C99.3873 169.332 100.798 169.916 101.838 170.956C102.877 171.996 103.462 173.406 103.462 174.877V193.783H85.8342V174.877C85.8342 173.406 86.4184 171.996 87.4583 170.956C88.4982 169.916 89.9086 169.332 91.3792 169.332V169.332Z" fill="#0D7377" stroke="#263238" stroke-linecap="round" stroke-linejoin="round"/>
<path d="M98.6328 162.508H91.3793V169.332H98.6328V162.508Z" fill="#263238" stroke="#263238" stroke-linecap="round" stroke-linejoin="round"/>
<path d="M98.6328 176.728H87.2563V188.105H98.6328V176.728Z" fill="white" stroke="#263238" stroke-linecap="round" stroke-linejoin="round"/>
<path d="M112.137 169.332H118.675C120.145 169.332 121.556 169.916 122.596 170.956C123.636 171.996 124.22 173.406 124.22 174.877V193.783H106.592V174.877C106.592 173.406 107.176 171.996 108.216 170.956C109.256 169.916 110.667 169.332 112.137 169.332V169.332Z" fill="#0D7377" stroke="#263238" stroke-linecap="round" stroke-linejoin="round"/>
<path d="M119.391 162.508H112.137V169.332H119.391V162.508Z" fill="#263238" stroke="#263238" stroke-linecap="round" stroke-linejoin="round"/>
<path d="M119.391 176.728H108.014V188.105H119.391V176.728Z" fill="white" stroke="#263238" stroke-linecap="round" stroke-linejoin="round"/>
<path d="M132.906 162.508H139.443C140.914 162.508 142.324 163.092 143.364 164.132C144.404 165.172 144.988 166.582 144.988 168.053V193.793H127.35V168.053C127.35 167.324 127.494 166.602 127.773 165.928C128.053 165.255 128.462 164.643 128.978 164.128C129.494 163.613 130.107 163.205 130.78 162.927C131.454 162.649 132.177 162.506 132.906 162.508V162.508Z" fill="#0D7377" stroke="#263238" stroke-linecap="round" stroke-linejoin="round"/>
<path d="M140.159 155.684H132.906V162.507H140.159V155.684Z" fill="#263238" stroke="#263238" stroke-linecap="round" stroke-linejoin="round"/>
<path d="M140.149 169.894H128.772V188.094H140.149V169.894Z" fill="white" stroke="#263238" stroke-linecap="round" stroke-linejoin="round"/>
<path d="M188.12 169.332H194.658C196.128 169.332 197.539 169.916 198.579 170.956C199.619 171.996 200.203 173.406 200.203 174.877V193.783H182.545V174.877C182.545 174.146 182.689 173.422 182.97 172.748C183.25 172.073 183.662 171.46 184.18 170.945C184.698 170.43 185.313 170.022 185.989 169.745C186.665 169.468 187.39 169.328 188.12 169.332V169.332Z" fill="#0D7377" stroke="#263238" stroke-linecap="round" stroke-linejoin="round"/>
<path d="M195.374 162.508H188.12V169.332H195.374V162.508Z" fill="#263238" stroke="#263238" stroke-linecap="round" stroke-linejoin="round"/>
<path d="M195.374 176.728H183.997V188.105H195.374V176.728Z" fill="white" stroke="#263238" stroke-linecap="round" stroke-linejoin="round"/>
<path d="M208.879 169.332H215.416C216.887 169.332 218.297 169.916 219.337 170.956C220.377 171.996 220.961 173.406 220.961 174.877V193.783H203.333V174.877C203.333 173.406 203.918 171.996 204.958 170.956C205.997 169.916 207.408 169.332 208.879 169.332V169.332Z" fill="#0D7377" stroke="#263238" stroke-linecap="round" stroke-linejoin="round"/>
<path d="M216.132 162.508H208.878V169.332H216.132V162.508Z" fill="#263238" stroke="#263238" stroke-linecap="round" stroke-linejoin="round"/>
<path d="M216.132 176.728H204.755V188.105H216.132V176.728Z" fill="white" stroke="#263238" stroke-linecap="round" stroke-linejoin="round"/>
<path d="M229.606 156.247H236.143C237.614 156.247 239.024 156.831 240.064 157.871C241.104 158.911 241.688 160.321 241.688 161.792V193.783H224.102V161.792C224.102 160.328 224.68 158.924 225.711 157.885C226.742 156.846 228.142 156.257 229.606 156.247V156.247Z" fill="#0D7377" stroke="#263238" stroke-linecap="round" stroke-linejoin="round"/>
<path d="M236.9 149.423H229.647V156.247H236.9V149.423Z" fill="#263238" stroke="#263238" stroke-linecap="round" stroke-linejoin="round"/>
<path d="M236.9 163.643H225.524V188.094H236.9V163.643Z" fill="white" stroke="#263238" stroke-linecap="round" stroke-linejoin="round"/>
<path d="M250.405 169.332H256.942C257.67 169.332 258.391 169.475 259.064 169.754C259.737 170.032 260.348 170.441 260.863 170.956C261.378 171.471 261.786 172.082 262.065 172.755C262.344 173.427 262.487 174.148 262.487 174.877V193.783H244.86V174.877C244.86 173.406 245.444 171.996 246.484 170.956C247.524 169.916 248.934 169.332 250.405 169.332V169.332Z" fill="#0D7377" stroke="#263238" stroke-linecap="round" stroke-linejoin="round"/>
<path d="M257.658 162.508H250.405V169.332H257.658V162.508Z" fill="#263238" stroke="#263238" stroke-linecap="round" stroke-linejoin="round"/>
<path d="M257.658 176.728H246.282V188.105H257.658V176.728Z" fill="white" stroke="#263238" stroke-linecap="round" stroke-linejoin="round"/>
<path d="M271.163 169.332H277.69C278.418 169.332 279.139 169.475 279.812 169.754C280.485 170.032 281.096 170.441 281.611 170.956C282.126 171.471 282.534 172.082 282.813 172.755C283.091 173.427 283.235 174.148 283.235 174.877V193.783H265.618V174.877C265.618 173.406 266.202 171.996 267.242 170.956C268.282 169.916 269.692 169.332 271.163 169.332V169.332Z" fill="#0D7377" stroke="#263238" stroke-linecap="round" stroke-linejoin="round"/>
<path d="M278.416 162.508H271.163V169.332H278.416V162.508Z" fill="#263238" stroke="#263238" stroke-linecap="round" stroke-linejoin="round"/>
<path d="M278.416 176.728H267.04V188.105H278.416V176.728Z" fill="white" stroke="#263238" stroke-linecap="round" stroke-linejoin="round"/>
<path d="M291.921 162.508H298.458C299.929 162.508 301.339 163.092 302.379 164.132C303.419 165.172 304.003 166.582 304.003 168.053V193.793H286.376V168.053C286.376 166.582 286.96 165.172 288 164.132C289.04 163.092 290.45 162.508 291.921 162.508V162.508Z" fill="#0D7377" stroke="#263238" stroke-linecap="round" stroke-linejoin="round"/>
<path d="M299.174 155.684H291.921V162.507H299.174V155.684Z" fill="#263238" stroke="#263238" stroke-linecap="round" stroke-linejoin="round"/>
<path d="M299.174 169.894H287.798V188.094H299.174V169.894Z" fill="white" stroke="#263238" stroke-linecap="round" stroke-linejoin="round"/>
<path d="M29.0848 343.304H35.6222C37.0928 343.304 38.5032 343.888 39.5431 344.928C40.583 345.968 41.1672 347.378 41.1672 348.849V367.755H23.5602V348.849C23.5602 347.382 24.1416 345.974 25.1771 344.935C26.2125 343.896 27.6177 343.309 29.0848 343.304V343.304Z" fill="#0D7377" stroke="#263238" stroke-linecap="round" stroke-linejoin="round"/>
<path d="M36.3588 336.48H29.1052V343.304H36.3588V336.48Z" fill="#263238" stroke="#263238" stroke-linecap="round" stroke-linejoin="round"/>
<path d="M36.3588 350.69H24.9823V362.067H36.3588V350.69Z" fill="white" stroke="#263238" stroke-linecap="round" stroke-linejoin="round"/>
<path d="M49.8633 343.304H56.4006C57.8713 343.304 59.2817 343.888 60.3216 344.928C61.3615 345.968 61.9457 347.378 61.9457 348.849V367.755H44.3182V348.849C44.3182 348.121 44.4617 347.399 44.7403 346.727C45.019 346.054 45.4274 345.443 45.9423 344.928C46.4572 344.413 47.0685 344.004 47.7413 343.726C48.414 343.447 49.1351 343.304 49.8633 343.304V343.304Z" fill="#0D7377" stroke="#263238" stroke-linecap="round" stroke-linejoin="round"/>
<path d="M57.1168 336.48H49.8633V343.304H57.1168V336.48Z" fill="#263238" stroke="#263238" stroke-linecap="round" stroke-linejoin="round"/>
<path d="M57.1168 350.69H45.7403V362.067H57.1168V350.69Z" fill="white" stroke="#263238" stroke-linecap="round" stroke-linejoin="round"/>
<path d="M70.6213 330.219H77.1689C78.6395 330.219 80.0499 330.803 81.0898 331.843C82.1297 332.883 82.7139 334.294 82.7139 335.764V367.756H65.0762V335.764C65.0762 334.294 65.6604 332.883 66.7003 331.843C67.7402 330.803 69.1506 330.219 70.6213 330.219V330.219Z" fill="#0D7377" stroke="#263238" stroke-linecap="round" stroke-linejoin="round"/>
<path d="M77.8748 323.395H70.6213V330.219H77.8748V323.395Z" fill="#263238" stroke="#263238" stroke-linecap="round" stroke-linejoin="round"/>
<path d="M77.8748 337.616H66.4983V362.067H77.8748V337.616Z" fill="white" stroke="#263238" stroke-linecap="round" stroke-linejoin="round"/>
<path d="M91.3792 343.304H97.9166C99.3873 343.304 100.798 343.888 101.838 344.928C102.877 345.968 103.462 347.378 103.462 348.849V367.755H85.8342V348.849C85.8342 347.378 86.4184 345.968 87.4583 344.928C88.4982 343.888 89.9086 343.304 91.3792 343.304V343.304Z" fill="#0D7377" stroke="#263238" stroke-linecap="round" stroke-linejoin="round"/>
<path d="M98.6328 336.48H91.3793V343.304H98.6328V336.48Z" fill="#263238" stroke="#263238" stroke-linecap="round" stroke-linejoin="round"/>
<path d="M98.6328 350.69H87.2563V362.067H98.6328V350.69Z" fill="white" stroke="#263238" stroke-linecap="round" stroke-linejoin="round"/>
<path d="M112.137 343.304H118.675C120.145 343.304 121.556 343.888 122.596 344.928C123.636 345.968 124.22 347.378 124.22 348.849V367.755H106.592V348.849C106.592 347.378 107.176 345.968 108.216 344.928C109.256 343.888 110.667 343.304 112.137 343.304V343.304Z" fill="#0D7377" stroke="#263238" stroke-linecap="round" stroke-linejoin="round"/>
<path d="M119.391 336.48H112.137V343.304H119.391V336.48Z" fill="#263238" stroke="#263238" stroke-linecap="round" stroke-linejoin="round"/>
<path d="M119.391 350.69H108.014V362.067H119.391V350.69Z" fill="white" stroke="#263238" stroke-linecap="round" stroke-linejoin="round"/>
<path d="M132.906 336.48H139.443C140.914 336.48 142.324 337.064 143.364 338.104C144.404 339.144 144.988 340.554 144.988 342.025V367.765H127.35V342.025C127.35 341.296 127.494 340.574 127.773 339.901C128.053 339.227 128.462 338.616 128.978 338.1C129.494 337.585 130.107 337.177 130.78 336.899C131.454 336.621 132.177 336.479 132.906 336.48V336.48Z" fill="#0D7377" stroke="#263238" stroke-linecap="round" stroke-linejoin="round"/>
<path d="M140.159 329.656H132.906V336.48H140.159V329.656Z" fill="#263238" stroke="#263238" stroke-linecap="round" stroke-linejoin="round"/>
<path d="M140.149 343.867H128.772V362.067H140.149V343.867Z" fill="white" stroke="#263238" stroke-linecap="round" stroke-linejoin="round"/>
<path d="M188.12 343.304H194.658C196.128 343.304 197.539 343.888 198.579 344.928C199.619 345.968 200.203 347.378 200.203 348.849V367.755H182.545V348.849C182.545 348.118 182.689 347.394 182.97 346.72C183.25 346.045 183.662 345.432 184.18 344.917C184.698 344.402 185.313 343.994 185.989 343.717C186.665 343.44 187.39 343.3 188.12 343.304V343.304Z" fill="#0D7377" stroke="#263238" stroke-linecap="round" stroke-linejoin="round"/>
<path d="M195.374 336.48H188.12V343.304H195.374V336.48Z" fill="#263238" stroke="#263238" stroke-linecap="round" stroke-linejoin="round"/>
<path d="M195.374 350.69H183.997V362.067H195.374V350.69Z" fill="white" stroke="#263238" stroke-linecap="round" stroke-linejoin="round"/>
<path d="M208.879 343.304H215.416C216.887 343.304 218.297 343.888 219.337 344.928C220.377 345.968 220.961 347.378 220.961 348.849V367.755H203.333V348.849C203.333 347.378 203.918 345.968 204.958 344.928C205.997 343.888 207.408 343.304 208.879 343.304V343.304Z" fill="#0D7377" stroke="#263238" stroke-linecap="round" stroke-linejoin="round"/>
<path d="M216.132 336.48H208.878V343.304H216.132V336.48Z" fill="#263238" stroke="#263238" stroke-linecap="round" stroke-linejoin="round"/>
<path d="M216.132 350.69H204.755V362.067H216.132V350.69Z" fill="white" stroke="#263238" stroke-linecap="round" stroke-linejoin="round"/>
<path d="M229.606 330.219H236.143C237.614 330.219 239.024 330.803 240.064 331.843C241.104 332.883 241.688 334.294 241.688 335.764V367.756H224.102V335.764C224.102 334.301 224.68 332.896 225.711 331.858C226.742 330.819 228.142 330.23 229.606 330.219V330.219Z" fill="#0D7377" stroke="#263238" stroke-linecap="round" stroke-linejoin="round"/>
<path d="M236.9 323.395H229.647V330.219H236.9V323.395Z" fill="#263238" stroke="#263238" stroke-linecap="round" stroke-linejoin="round"/>
<path d="M236.9 337.616H225.524V362.067H236.9V337.616Z" fill="white" stroke="#263238" stroke-linecap="round" stroke-linejoin="round"/>
<path d="M250.405 343.304H256.942C257.67 343.304 258.391 343.447 259.064 343.726C259.737 344.004 260.348 344.413 260.863 344.928C261.378 345.443 261.786 346.054 262.065 346.727C262.344 347.399 262.487 348.121 262.487 348.849V367.755H244.86V348.849C244.86 347.378 245.444 345.968 246.484 344.928C247.524 343.888 248.934 343.304 250.405 343.304V343.304Z" fill="#0D7377" stroke="#263238" stroke-linecap="round" stroke-linejoin="round"/>
<path d="M257.658 336.48H250.405V343.304H257.658V336.48Z" fill="#263238" stroke="#263238" stroke-linecap="round" stroke-linejoin="round"/>
<path d="M257.658 350.69H246.282V362.067H257.658V350.69Z" fill="white" stroke="#263238" stroke-linecap="round" stroke-linejoin="round"/>
<path d="M271.163 343.304H277.69C278.418 343.304 279.139 343.447 279.812 343.726C280.485 344.004 281.096 344.413 281.611 344.928C282.126 345.443 282.534 346.054 282.813 346.727C283.091 347.399 283.235 348.121 283.235 348.849V367.755H265.618V348.849C265.618 347.378 266.202 345.968 267.242 344.928C268.282 343.888 269.692 343.304 271.163 343.304V343.304Z" fill="#0D7377" stroke="#263238" stroke-linecap="round" stroke-linejoin="round"/>
<path d="M278.416 336.48H271.163V343.304H278.416V336.48Z" fill="#263238" stroke="#263238" stroke-linecap="round" stroke-linejoin="round"/>
<path d="M278.416 350.69H267.04V362.067H278.416V350.69Z" fill="white" stroke="#263238" stroke-linecap="round" stroke-linejoin="round"/>
<path d="M291.921 336.48H298.458C299.929 336.48 301.339 337.064 302.379 338.104C303.419 339.144 304.003 340.554 304.003 342.025V367.765H286.376V342.025C286.376 340.554 286.96 339.144 288 338.104C289.04 337.064 290.45 336.48 291.921 336.48V336.48Z" fill="#0D7377" stroke="#263238" stroke-linecap="round" stroke-linejoin="round"/>
<path d="M299.174 329.656H291.921V336.48H299.174V329.656Z" fill="#263238" stroke="#263238" stroke-linecap="round" stroke-linejoin="round"/>
<path d="M299.174 343.867H287.798V362.067H299.174V343.867Z" fill="white" stroke="#263238" stroke-linecap="round" stroke-linejoin="round"/>
<path d="M41.2695 216.434H25.0539L29.1052 251.238H37.2181L41.2695 216.434Z" fill="white" stroke="#263238" stroke-linecap="round" stroke-linejoin="round"/>
<path d="M28.4607 245.704L29.1052 251.238H37.2181L37.8627 245.704H28.4607Z" fill="#263238" stroke="#263238" stroke-linecap="round" stroke-linejoin="round"/>
<path d="M36.1235 223.155H29.4019V239.77H36.1235V223.155Z" fill="#0D7377" stroke="#263238" stroke-linecap="round" stroke-linejoin="round"/>
<path d="M61.0556 216.434H44.8297L48.8913 251.238H56.994L61.0556 216.434Z" fill="white" stroke="#263238" stroke-linecap="round" stroke-linejoin="round"/>
<path d="M48.2468 245.704L48.8913 251.238H56.994L57.6386 245.704H48.2468Z" fill="#263238" stroke="#263238" stroke-linecap="round" stroke-linejoin="round"/>
<path d="M55.9096 223.155H49.188V239.77H55.9096V223.155Z" fill="#0D7377" stroke="#263238" stroke-linecap="round" stroke-linejoin="round"/>
<path d="M80.8315 216.434H64.6057L68.6672 251.238H76.7699L80.8315 216.434Z" fill="white" stroke="#263238" stroke-linecap="round" stroke-linejoin="round"/>
<path d="M68.0226 245.704L68.6672 251.238H76.7699L77.4246 245.704H68.0226Z" fill="#263238" stroke="#263238" stroke-linecap="round" stroke-linejoin="round"/>
<path d="M75.6854 223.155H68.9639V239.77H75.6854V223.155Z" fill="#0D7377" stroke="#263238" stroke-linecap="round" stroke-linejoin="round"/>
<path d="M100.607 216.434H84.3917L88.4431 251.238H96.556L100.607 216.434Z" fill="white" stroke="#263238" stroke-linecap="round" stroke-linejoin="round"/>
<path d="M87.7985 245.704L88.4431 251.238H96.556L97.2005 245.704H87.7985Z" fill="#263238" stroke="#263238" stroke-linecap="round" stroke-linejoin="round"/>
<path d="M95.4613 223.155H88.7397V239.77H95.4613V223.155Z" fill="#0D7377" stroke="#263238" stroke-linecap="round" stroke-linejoin="round"/>
<path d="M122.532 232.649H105.385V238.583H122.532V232.649Z" fill="#263238" stroke="#263238" stroke-linecap="round" stroke-linejoin="round"/>
<path d="M125.141 238.583H102.786V251.637H125.141V238.583Z" fill="#0D7377" stroke="#263238" stroke-linecap="round" stroke-linejoin="round"/>
<path d="M121.989 241.355H105.917V248.875H121.989V241.355Z" fill="white" stroke="#263238" stroke-linecap="round" stroke-linejoin="round"/>
<path d="M147.853 232.649H130.706V238.583H147.853V232.649Z" fill="#263238" stroke="#263238" stroke-linecap="round" stroke-linejoin="round"/>
<path d="M150.451 238.583H128.097V251.637H150.451V238.583Z" fill="#0D7377" stroke="#263238" stroke-linecap="round" stroke-linejoin="round"/>
<path d="M147.31 241.355H131.238V248.875H147.31V241.355Z" fill="white" stroke="#263238" stroke-linecap="round" stroke-linejoin="round"/>
<path d="M199.497 216.434H183.281L187.333 251.238H195.446L199.497 216.434Z" fill="white" stroke="#263238" stroke-linecap="round" stroke-linejoin="round"/>
<path d="M186.688 245.704L187.333 251.238H195.446L196.09 245.704H186.688Z" fill="#263238" stroke="#263238" stroke-linecap="round" stroke-linejoin="round"/>
<path d="M194.351 223.155H187.629V239.77H194.351V223.155Z" fill="#0D7377" stroke="#263238" stroke-linecap="round" stroke-linejoin="round"/>
<path d="M219.283 216.434H203.057L207.119 251.238H215.222L219.283 216.434Z" fill="white" stroke="#263238" stroke-linecap="round" stroke-linejoin="round"/>
<path d="M206.474 245.704L207.119 251.238H215.221L215.866 245.704H206.474Z" fill="#263238" stroke="#263238" stroke-linecap="round" stroke-linejoin="round"/>
<path d="M214.137 223.155H207.415V239.77H214.137V223.155Z" fill="#0D7377" stroke="#263238" stroke-linecap="round" stroke-linejoin="round"/>
<path d="M239.059 216.434H222.843L226.895 251.238H235.008L239.059 216.434Z" fill="white" stroke="#263238" stroke-linecap="round" stroke-linejoin="round"/>
<path d="M226.25 245.704L226.895 251.238H235.008L235.652 245.704H226.25Z" fill="#263238" stroke="#263238" stroke-linecap="round" stroke-linejoin="round"/>
<path d="M233.913 223.155H227.191V239.77H233.913V223.155Z" fill="#0D7377" stroke="#263238" stroke-linecap="round" stroke-linejoin="round"/>
<path d="M258.835 216.434H242.619L246.671 251.238H254.783L258.835 216.434Z" fill="white" stroke="#263238" stroke-linecap="round" stroke-linejoin="round"/>
<path d="M246.026 245.704L246.671 251.238H254.783L255.428 245.704H246.026Z" fill="#263238" stroke="#263238" stroke-linecap="round" stroke-linejoin="round"/>
<path d="M253.689 223.155H246.967V239.77H253.689V223.155Z" fill="#0D7377" stroke="#263238" stroke-linecap="round" stroke-linejoin="round"/>
<path d="M280.759 232.649H263.612V238.583H280.759V232.649Z" fill="#263238" stroke="#263238" stroke-linecap="round" stroke-linejoin="round"/>
<path d="M283.368 238.583H261.014V251.637H283.368V238.583Z" fill="#0D7377" stroke="#263238" stroke-linecap="round" stroke-linejoin="round"/>
<path d="M280.227 241.355H264.155V248.875H280.227V241.355Z" fill="white" stroke="#263238" stroke-linecap="round" stroke-linejoin="round"/>
<path d="M306.08 232.649H288.933V238.583H306.08V232.649Z" fill="#263238" stroke="#263238" stroke-linecap="round" stroke-linejoin="round"/>
<path d="M308.679 238.583H286.325V251.637H308.679V238.583Z" fill="#0D7377" stroke="#263238" stroke-linecap="round" stroke-linejoin="round"/>
<path d="M305.538 241.355H289.465V248.875H305.538V241.355Z" fill="white" stroke="#263238" stroke-linecap="round" stroke-linejoin="round"/>
<path d="M326.889 142.926V135.519L18.1072 135.519V142.926L326.889 142.926Z" fill="white" stroke="#263238" stroke-linecap="round" stroke-linejoin="round"/>
<path d="M326.899 200.678V193.271L18.1176 193.271V200.678L326.899 200.678Z" fill="white" stroke="#263238" stroke-linecap="round" stroke-linejoin="round"/>
<path d="M326.889 258.441V251.034L18.1072 251.034V258.441H326.889Z" fill="white" stroke="#263238" stroke-linecap="round" stroke-linejoin="round"/>
<path d="M326.889 316.203V308.796H18.1072V316.203H326.889Z" fill="white" stroke="#263238" stroke-linecap="round" stroke-linejoin="round"/>
<path d="M326.899 373.341V365.934H18.1176V373.341H326.899Z" fill="white" stroke="#263238" stroke-linecap="round" stroke-linejoin="round"/>
<path d="M19.5907 91.8345H12.1837V390.989H19.5907V91.8345Z" fill="white" stroke="#263238" stroke-linecap="round" stroke-linejoin="round"/>
<path d="M175.097 91.8345H167.69V390.989H175.097V91.8345Z" fill="white" stroke="#263238" stroke-linecap="round" stroke-linejoin="round"/>
<path d="M330.603 91.8345H323.196V390.989H330.603V91.8345Z" fill="white" stroke="#263238" stroke-linecap="round" stroke-linejoin="round"/>
<path d="M333.56 60.7329H4.7767V92.5707H333.56V60.7329Z" fill="#0D7377" stroke="#263238" stroke-linecap="round" stroke-linejoin="round"/>
<path d="M237.299 60.7329H101.047V92.5707H237.299V60.7329Z" fill="white" stroke="#263238" stroke-linecap="round" stroke-linejoin="round"/>
<path d="M62.2832 72.9277H55.398V66.0322H48.2979V72.9277H41.4025V80.0278H48.2979V86.913H55.398V80.0278H62.2832V72.9277Z" fill="white"/>
<path d="M294.908 72.9277H288.023V66.0322H280.923V72.9277H274.027V80.0278H280.923V86.913H288.023V80.0278H294.908V72.9277Z" fill="white"/>
<path d="M122.368 65.6235C125.887 65.6235 127.391 67.6697 127.391 71.0969V73.8081C127.391 77.3581 125.734 79.2099 122.174 79.2099H119.974V88.0492H117.478V65.6235H122.368ZM122.184 76.9489C124.046 76.9489 124.936 76.0895 124.936 73.9411V70.9639C124.936 68.9178 124.199 67.8947 122.378 67.8947H119.984V76.9489H122.184Z" fill="#0D7377"/>
<path d="M131.944 77.9003V87.9878H129.448V65.6235H131.944V75.7007H137.448V65.6235H139.944V88.0287H137.448V77.9003H131.944Z" fill="#0D7377"/>
<path d="M145.029 83.517L144.169 88.0287H141.868L146.154 65.6235H149.807L154.093 88.0287H151.597L150.738 83.517H145.029ZM145.356 81.3685H150.349L147.812 68.437L145.356 81.3685Z" fill="#0D7377"/>
<path d="M160.999 65.6235C164.529 65.6235 165.991 67.4139 165.991 70.7389V72.5702C165.991 75.0357 165.132 76.5703 163.209 77.174C165.255 77.7878 166.032 79.4452 166.032 81.8494V85.338C165.959 86.2573 166.11 87.1806 166.472 88.0287H163.945C163.598 87.1662 163.457 86.234 163.536 85.3073V81.788C163.536 79.261 162.349 78.4528 160.273 78.4528H158.503V88.0287H156.017V65.6235H160.999ZM160.365 76.1816C162.349 76.1816 163.536 75.5473 163.536 73.1124V70.9639C163.536 68.9178 162.8 67.8947 160.938 67.8947H158.503V76.1816H160.365Z" fill="#0D7377"/>
<path d="M176.877 87.998H174.483L170.769 70.166V88.0287H168.59V65.6235H172.079L175.762 83.517L179.312 65.6235H182.8V88.0287H180.437V70.0125L176.877 87.998Z" fill="#0D7377"/>
<path d="M187.895 83.517L187.026 88.0287H184.724L189.011 65.6235H192.632L196.919 88.0287H194.423L193.553 83.517H187.895ZM188.213 81.3685H193.205L190.729 68.437L188.213 81.3685Z" fill="#0D7377"/>
<path d="M208.756 71.0355V73.0817H206.392V70.9332C206.392 68.8871 205.594 67.7003 203.763 67.7003C201.932 67.7003 201.144 68.9178 201.144 70.9332V82.7803C201.144 84.8265 201.973 86.003 203.763 86.003C205.553 86.003 206.392 84.7958 206.392 82.7803V79.8646H208.756V82.6473C208.756 86.0439 207.16 88.2844 203.702 88.2844C200.244 88.2844 198.678 86.0439 198.678 82.6473V71.0355C198.678 67.639 200.274 65.3984 203.702 65.3984C207.129 65.3984 208.756 67.6696 208.756 71.0355Z" fill="#0D7377"/>
<path d="M214.649 79.9465L209.912 65.6235H212.51L215.999 76.6317L219.518 65.6235H221.882L217.114 79.9465V87.9878H214.649V79.9465Z" fill="#0D7377"/>
<path d="M458.036 88.4683H349.622V250.195H458.036V88.4683Z" stroke="#263238" stroke-linecap="round" stroke-linejoin="round"/>
<path d="M419.231 129.585L382.206 152.492C380.321 153.659 378.224 154.444 376.035 154.8C373.846 155.157 371.609 155.079 369.45 154.571C367.292 154.063 365.254 153.134 363.455 151.838C361.655 150.542 360.129 148.904 358.962 147.018V147.018C356.608 143.211 355.862 138.625 356.888 134.268C357.914 129.911 360.629 126.14 364.436 123.784L401.481 100.868C405.289 98.5126 409.877 97.7661 414.236 98.7925C418.595 99.8189 422.368 102.534 424.725 106.341V106.341C425.892 108.228 426.675 110.326 427.03 112.515C427.385 114.705 427.306 116.943 426.795 119.102C426.285 121.26 425.355 123.297 424.057 125.096C422.759 126.895 421.119 128.42 419.231 129.585V129.585Z" stroke="#263238" stroke-linecap="round" stroke-linejoin="round"/>
<path d="M401.481 100.868L382.595 112.561L400.366 141.269L419.252 129.585C421.137 128.418 422.775 126.891 424.07 125.092C425.366 123.292 426.294 121.255 426.802 119.097C427.311 116.938 427.389 114.701 427.032 112.512C426.676 110.324 425.892 108.227 424.725 106.341C423.558 104.455 422.031 102.818 420.232 101.523C418.432 100.227 416.395 99.2986 414.237 98.7904C412.078 98.2821 409.841 98.204 407.652 98.5604C405.464 98.9168 403.367 99.7008 401.481 100.868V100.868Z" stroke="#263238" stroke-linecap="round" stroke-linejoin="round"/>
<path d="M429.963 200.433L388.836 186.11C386.741 185.383 384.81 184.251 383.154 182.778C381.497 181.305 380.147 179.519 379.181 177.524C378.214 175.529 377.651 173.362 377.522 171.149C377.394 168.936 377.703 166.719 378.431 164.625C379.158 162.531 380.29 160.6 381.763 158.943C383.236 157.286 385.022 155.936 387.017 154.97C389.012 154.004 391.179 153.44 393.392 153.312C395.605 153.183 397.822 153.492 399.916 154.221L441.043 168.544C445.272 170.013 448.743 173.102 450.694 177.131C452.646 181.16 452.917 185.799 451.448 190.028V190.028C449.978 194.257 446.889 197.728 442.86 199.679C438.831 201.631 434.192 201.902 429.963 200.433V200.433Z" stroke="#263238" stroke-linecap="round" stroke-linejoin="round"/>
<path d="M441.043 168.533L420.06 161.239L408.98 193.138L429.963 200.432C434.193 201.902 438.834 201.63 442.864 199.678C446.894 197.726 449.983 194.253 451.453 190.023C452.922 185.793 452.651 181.152 450.698 177.122C448.746 173.092 445.273 170.002 441.043 168.533V168.533Z" stroke="#263238" stroke-linecap="round" stroke-linejoin="round"/>
<path d="M435.928 214.653H441.155" stroke="#263238" stroke-linecap="round" stroke-linejoin="round"/>
<path d="M365.622 214.653H430.158" stroke="#263238" stroke-linecap="round" stroke-linejoin="round"/>
<path d="M365.622 226.204H441.155" stroke="#263238" stroke-linecap="round" stroke-linejoin="round"/>
<path d="M378.534 237.765H441.155" stroke="#263238" stroke-linecap="round" stroke-linejoin="round"/>
<path d="M365.622 237.765H370.953" stroke="#263238" stroke-linecap="round" stroke-linejoin="round"/>
<path d="M412.1 199.553H417.165" stroke="#263238" stroke-linecap="round" stroke-linejoin="round"/>
<path d="M362.952 160.451V199.553H405.604" stroke="#263238" stroke-linecap="round" stroke-linejoin="round"/>
<path d="M434.485 102.188H429.605" stroke="#263238" stroke-linecap="round" stroke-linejoin="round"/>
<path d="M446.486 164.891V102.188H440.255" stroke="#263238" stroke-linecap="round" stroke-linejoin="round"/>
<path d="M390.503 101.799H362.062V120.46" stroke="#263238" stroke-linecap="round" stroke-linejoin="round"/>
<path d="M285.261 227.145C281.271 231.544 266.528 232.168 253.597 232.117C240.665 232.066 224.235 224.761 218.741 216.914C213.247 209.067 224.337 193.056 226.281 189.343C228.225 185.629 229.002 167.388 240.143 162.037C251.285 156.686 274.744 159.469 282.365 165.106C289.987 170.743 306.049 180.595 308.668 190.345C311.287 200.095 302.151 200.208 301.374 200.678C300.596 201.149 299.328 201.609 297.364 205.333C296.767 206.421 295.904 207.34 294.855 208.004C293.807 208.668 292.607 209.055 291.368 209.129L285.261 227.145Z" fill="#263238" stroke="#263238" stroke-linecap="round" stroke-linejoin="round"/>
<path d="M297.302 187.368C304.709 189.322 309.579 191.706 305.886 194.305" stroke="#545454" stroke-linecap="round" stroke-linejoin="round"/>
<path d="M267.459 182.253C267.459 182.253 282.069 183.859 293.578 186.427" stroke="#545454" stroke-linecap="round" stroke-linejoin="round"/>
<path d="M261.157 179.859C261.157 179.859 279.91 173.608 297.711 181.301" stroke="#545454" stroke-linecap="round" stroke-linejoin="round"/>
<path d="M282.959 171.275C283.885 171.51 284.794 171.808 285.68 172.165" stroke="#545454" stroke-linecap="round" stroke-linejoin="round"/>
<path d="M254.425 177.935C254.425 177.935 265.751 170.17 277.782 170.559" stroke="#545454" stroke-linecap="round" stroke-linejoin="round"/>
<path d="M225.411 215.441C224.065 215.922 222.668 216.245 221.247 216.403" stroke="#545454" stroke-linecap="round" stroke-linejoin="round"/>
<path d="M259.275 188.033C259.275 188.033 245.811 201.497 237.156 208.709C234.648 210.829 231.881 212.62 228.92 214.04" stroke="#545454" stroke-linecap="round" stroke-linejoin="round"/>
<path d="M250.579 185.148C250.579 185.148 236.634 201.016 224.132 205.783" stroke="#545454" stroke-linecap="round" stroke-linejoin="round"/>
<path d="M378.973 370.006C378.973 370.006 383.792 374.354 384.426 375.592C385.061 376.83 387.424 382.109 386.554 382.242C385.685 382.375 383.587 379.009 382.963 377.597C382.339 376.185 379.894 372.482 379.894 372.482L378.973 370.006Z" fill="white" stroke="#263238" stroke-linecap="round" stroke-linejoin="round"/>
<path d="M375.955 366.947C375.955 366.947 379.28 370.016 379.915 371.254C380.549 372.492 383.516 383.664 383.516 383.664C383.516 383.664 382.084 384.81 381.081 384.257C380.078 383.705 376.569 372.666 376.569 372.666L375.955 366.947Z" fill="white" stroke="#263238" stroke-linecap="round" stroke-linejoin="round"/>
<path d="M368.395 362.128C368.395 362.128 374.472 365.331 375.955 366.947C377.439 368.563 379.792 381.955 380.263 383.183C380.733 384.411 377.92 385.321 377.255 384.779C376.59 384.237 373.858 372.543 373.858 372.543L368.375 363.683L368.395 362.128Z" fill="white" stroke="#263238" stroke-linecap="round" stroke-linejoin="round"/>
<path d="M353.97 360.645L365.469 360.87C366.448 360.891 367.409 361.139 368.277 361.593C369.145 362.048 369.896 362.696 370.472 363.489L375.301 370.2L376.129 383.551C376.136 383.718 376.109 383.885 376.049 384.04C375.989 384.196 375.898 384.338 375.781 384.457C375.664 384.576 375.524 384.669 375.369 384.732C375.214 384.794 375.048 384.824 374.881 384.82C374.624 384.805 374.377 384.71 374.175 384.549C373.974 384.388 373.827 384.168 373.756 383.92L370.41 371.848L366.021 369.801C366.021 369.801 359.3 373.485 359.443 374.18C359.586 374.876 363.351 379.531 364.17 380.595C364.988 381.659 366.983 383.48 366.42 384.493C365.858 385.506 362.451 384.493 361.305 383.746C360.159 382.999 353.908 375.142 351.565 373.515C349.223 371.889 346.706 370.19 346.706 370.19L353.97 360.645Z" fill="white" stroke="#263238" stroke-linecap="round" stroke-linejoin="round"/>
<path d="M351.913 363.734L350.348 372.379L347.729 370.282L351.913 363.734Z" fill="#263238" stroke="#263238" stroke-linecap="round" stroke-linejoin="round"/>
<path d="M302.244 251.914C302.244 251.914 312.587 254.676 314.039 261.428C315.492 268.18 321.886 334.69 321.886 334.69L356.159 356.962L345.785 372.973L313.241 366.579L294.182 249.775L302.244 251.914Z" fill="white" stroke="#263238" stroke-linecap="round" stroke-linejoin="round"/>
<path d="M321.886 334.689C321.886 334.689 317.354 337.083 315.748 339.232" stroke="#263238" stroke-linecap="round" stroke-linejoin="round"/>
<path d="M307.87 267.443L317.017 390.355L201.502 385.648C201.502 385.648 204.755 258.665 206.147 255.944C207.538 253.223 218.751 251.923 228.01 249.018C237.269 246.112 253.781 240.567 253.781 240.567L275.511 241.488C281.588 241.754 306.704 253.489 306.663 254.502" fill="white"/>
<path d="M307.87 267.443L317.017 390.355L201.502 385.648C201.502 385.648 204.755 258.665 206.147 255.944C207.538 253.223 218.751 251.923 228.01 249.018C237.269 246.112 253.781 240.567 253.781 240.567L275.511 241.488C281.588 241.754 306.704 253.489 306.663 254.502" stroke="#263238" stroke-linecap="round" stroke-linejoin="round"/>
<path d="M308.924 291.701H297.456V296.141H308.924V291.701Z" fill="#263238" stroke="#263238" stroke-linecap="round" stroke-linejoin="round"/>
<path d="M241.596 245.55L242.681 291.005L255.735 294.105L248.379 305.706L266.723 356.726" fill="white"/>
<path d="M241.596 245.55L242.681 291.005L255.735 294.105L248.379 305.706L266.723 356.726" stroke="#263238" stroke-linecap="round" stroke-linejoin="round"/>
<path d="M280.524 242.92C280.524 242.92 292.627 268.047 296.074 276.313C299.522 284.58 300.934 287.178 300.934 287.178L292.299 293.153L301.128 300.13L292.872 344.409" fill="white"/>
<path d="M280.524 242.92C280.524 242.92 292.627 268.047 296.074 276.313C299.522 284.58 300.934 287.178 300.934 287.178L292.299 293.153L301.128 300.13L292.872 344.409" stroke="#263238" stroke-linecap="round" stroke-linejoin="round"/>
<path d="M245.975 243.637C245.975 243.637 263.469 290.606 264.85 305.624C266.232 320.643 269.608 389.291 269.608 389.291L292.115 390.314C292.115 390.314 291.276 321.768 287.818 296.274C284.36 270.779 279.439 249.489 278.539 246.921C277.748 244.979 276.717 243.144 275.47 241.458L261.577 239.412L245.975 243.637Z" fill="#14FFEC" stroke="#263238" stroke-linecap="round" stroke-linejoin="round"/>
<path d="M288.903 320.449L280.319 338.168" stroke="#263238" stroke-linecap="round" stroke-linejoin="round"/>
<path d="M285.68 320.449L273.342 346.22" stroke="#263238" stroke-linecap="round" stroke-linejoin="round"/>
<path d="M253.239 222.715C253.239 222.715 253.31 238.705 252.983 240.465C252.655 242.225 247.53 241.59 247.428 243.872C247.325 246.153 255.101 267.699 262.671 274.369C270.242 281.04 272.575 280.119 274.825 274.891C277.076 269.663 277.741 259.392 277.895 256.098C277.956 254.635 278.263 250.982 277.895 249.202C277.363 246.696 276.687 243.115 274.57 241.662L273.761 241.11L274.099 233.263C274.099 233.263 261.198 232.199 253.239 222.715Z" fill="white" stroke="#263238" stroke-linecap="round" stroke-linejoin="round"/>
<path d="M273.751 241.11L274.089 233.263C274.089 233.263 261.198 232.24 253.239 222.715V222.817L253.771 225.273C253.771 225.273 258.784 240.015 274.559 241.642L273.751 241.11Z" fill="#263238" stroke="#263238" stroke-linecap="round" stroke-linejoin="round"/>
<path d="M265.577 183.931C265.577 183.931 251.254 179.511 250.63 177.455C250.006 175.398 250.691 170.355 248.87 171.316C247.049 172.278 247.295 178.345 249.75 180.227C252.205 182.11 265.792 184.729 266.723 186.795C267.654 188.862 266.313 190.325 261.74 196.218C257.167 202.111 237.269 210.899 237.176 212.945C237.084 214.991 239.356 221.13 242.895 221.559C245.135 221.755 247.378 221.232 249.3 220.066C251.788 224.796 255.461 228.801 259.96 231.688C267.122 236.056 277.455 237.765 283.726 233.478C287.153 231.125 293.2 219.677 293.66 214.879C294.12 210.08 291.563 204.648 291.614 202.602C291.665 200.556 291.808 198.049 291.808 198.049C291.808 198.049 273.976 188.146 271.531 186.008C269.829 184.678 267.736 183.948 265.577 183.931V183.931Z" fill="white" stroke="#263238" stroke-linecap="round" stroke-linejoin="round"/>
<path d="M262.508 198.008C262.508 198.008 267.623 194.734 272.738 197.302" stroke="#263238" stroke-linecap="round" stroke-linejoin="round"/>
<path d="M282.611 197.537C282.611 197.537 285.874 195.9 288.944 199.645" stroke="#263238" stroke-linecap="round" stroke-linejoin="round"/>
<path d="M279.818 206.367C279.818 206.367 279.419 209.896 280.391 210.704C281.363 211.513 283.378 212.096 282.304 213.579C281.23 215.063 277.915 215.165 276.472 213.324" stroke="#263238" stroke-linecap="round" stroke-linejoin="round"/>
<path d="M284.094 218.981C284.094 218.981 279.91 221.846 273.178 219.267" stroke="#263238" stroke-linecap="round" stroke-linejoin="round"/>
<path d="M269.004 205.722C268.943 207.123 268.094 208.228 267.122 208.177C266.15 208.126 265.393 206.97 265.454 205.568C265.515 204.167 266.354 203.072 267.336 203.113C268.319 203.154 269.065 204.33 269.004 205.722Z" fill="#263238"/>
<path d="M286.979 206.5C286.918 207.901 286.069 209.006 285.097 208.955C284.125 208.904 283.368 207.748 283.429 206.346C283.491 204.945 284.34 203.85 285.312 203.891C286.284 203.932 287.041 205.108 286.979 206.5Z" fill="#263238"/>
<path d="M273.845 200.033L261.478 199.497C259.999 199.433 258.748 200.58 258.684 202.059L258.477 206.833C258.413 208.311 259.56 209.562 261.039 209.626L273.406 210.162C274.885 210.226 276.136 209.079 276.2 207.6L276.407 202.827C276.471 201.348 275.324 200.097 273.845 200.033Z" stroke="#263238" stroke-linecap="round" stroke-linejoin="round"/>
<path d="M292.328 200.842L282.496 200.416C281.017 200.352 279.766 201.499 279.702 202.978L279.495 207.751C279.431 209.23 280.578 210.481 282.057 210.545L291.89 210.971C293.369 211.035 294.62 209.888 294.684 208.409L294.89 203.636C294.954 202.157 293.807 200.906 292.328 200.842Z" stroke="#263238" stroke-linecap="round" stroke-linejoin="round"/>
<path d="M276.483 201.405L279.521 201.538" stroke="#263238" stroke-linecap="round" stroke-linejoin="round"/>
<path d="M258.62 203.931L251.53 203.625" stroke="#263238" stroke-linecap="round" stroke-linejoin="round"/>
<path d="M264.482 354.629C264.482 354.629 271.92 354.302 274.559 353.125C277.199 351.949 295.798 346.987 296.75 347.304C299.925 348.613 303.002 350.149 305.957 351.898C307.461 353.003 310.694 361.811 311.922 365.3C312.072 365.686 312.066 366.115 311.906 366.497C311.746 366.879 311.443 367.183 311.062 367.346V367.346C310.706 367.511 310.302 367.541 309.926 367.43C309.549 367.319 309.226 367.074 309.016 366.742L306.336 362.446L308.269 370.487C308.376 370.908 308.318 371.355 308.107 371.735C307.896 372.115 307.548 372.4 307.134 372.533V372.533C306.805 372.64 306.451 372.646 306.119 372.549C305.787 372.453 305.491 372.258 305.272 371.991L298.97 364.205L295.9 361.136L302.346 373.106C302.463 373.325 302.526 373.569 302.53 373.818C302.535 374.066 302.481 374.312 302.372 374.536C302.263 374.759 302.103 374.954 301.905 375.104C301.706 375.253 301.475 375.354 301.231 375.398C300.987 375.439 300.737 375.422 300.501 375.349C300.264 375.276 300.048 375.149 299.87 374.978C298.018 373.177 292.289 367.602 291.788 366.794C290.757 365.57 289.616 364.444 288.381 363.428L294.642 375.316C294.757 375.48 294.835 375.668 294.87 375.866C294.906 376.064 294.898 376.267 294.847 376.461C294.797 376.656 294.705 376.837 294.577 376.992C294.45 377.148 294.291 377.274 294.11 377.362H294.018C291.89 377.444 290.816 375.93 289.291 374.436L282.703 367.991C282.703 367.991 272.605 370.129 269.73 369.361C266.856 368.594 260.298 363.469 260.298 363.469L264.482 354.629Z" fill="white" stroke="#263238" stroke-linecap="round" stroke-linejoin="round"/>
<path d="M264.482 354.629L264.196 366.088L260.226 363.479L264.482 354.629Z" fill="#263238" stroke="#263238" stroke-linecap="round" stroke-linejoin="round"/>
<path d="M306.295 362.446L304.034 357.873L296.054 352.041" fill="white"/>
<path d="M306.295 362.446L304.034 357.873L296.054 352.041" stroke="#263238" stroke-linecap="round" stroke-linejoin="round"/>
<path d="M295.829 361.146L292.207 357.361" stroke="#263238" stroke-linecap="round" stroke-linejoin="round"/>
<path d="M216.91 253.161C216.91 253.161 206.924 252.732 204.183 256.486C201.441 260.241 195.057 349.534 195.21 353.412C195.364 357.289 256.911 373.014 256.911 373.014L265.802 354.036L229.043 332.285L231.181 281.541" fill="white"/>
<path d="M216.91 253.161C216.91 253.161 206.924 252.732 204.183 256.486C201.441 260.241 195.057 349.534 195.21 353.412C195.364 357.289 256.911 373.014 256.911 373.014L265.802 354.036L229.043 332.285L231.181 281.541" stroke="#263238" stroke-linecap="round" stroke-linejoin="round"/>
<path d="M212.684 332.797C212.684 332.797 222.322 328.009 229.053 332.286" stroke="#263238" stroke-linecap="round" stroke-linejoin="round"/>
<path d="M216.49 335.815C219.517 333.986 222.98 333.004 226.516 332.971" stroke="#263238" stroke-linecap="round" stroke-linejoin="round"/>
<path d="M211.692 340.552C211.917 340.154 212.173 339.774 212.459 339.417" stroke="#263238" stroke-linecap="round" stroke-linejoin="round"/>
<path d="M451.202 358.711C451.202 358.711 446.629 352.9 446.629 349.371C446.629 345.841 450.158 351.038 450.158 351.038C450.158 351.038 442.69 337.339 443.314 331.733C443.938 326.127 449.534 341.493 449.534 341.493C449.534 341.493 447.672 309.952 450.783 310.985C453.893 312.019 457.842 341.677 457.842 343.57C457.842 345.463 460.532 330.495 462.609 334.853C464.686 339.212 464.655 349.586 464.655 349.586C464.655 349.586 467.356 333.81 469.433 339.212C471.51 344.614 466.957 358.916 466.957 358.916" fill="#0D7377"/>
<path d="M472.165 363.51H446.905V384.472H472.165V363.51Z" stroke="#263238" stroke-linecap="round" stroke-linejoin="round"/>
<path d="M472.369 370.774V358.855H446.793V372.544C446.793 373.358 447.116 374.138 447.692 374.714C448.267 375.289 449.048 375.613 449.862 375.613H450.025C450.839 375.613 451.62 375.289 452.196 374.714C452.771 374.138 453.095 373.358 453.095 372.544V370.815H453.258V372.544C453.258 373.358 453.582 374.138 454.157 374.714C454.733 375.289 455.514 375.613 456.328 375.613H456.491C457.305 375.613 458.086 375.289 458.662 374.714C459.237 374.138 459.56 373.358 459.56 372.544V370.815H459.724V372.544C459.724 373.358 460.048 374.138 460.623 374.714C461.199 375.289 461.979 375.613 462.793 375.613H462.947C463.761 375.613 464.541 375.289 465.117 374.714C465.693 374.138 466.016 373.358 466.016 372.544V370.815H466.18V372.544C466.18 373.358 466.503 374.138 467.079 374.714C467.654 375.289 468.435 375.613 469.249 375.613H469.402C470.216 375.613 470.997 375.289 471.573 374.714C472.148 374.138 472.472 373.358 472.472 372.544V370.815L472.369 370.774Z" fill="white" stroke="#263238" stroke-linecap="round" stroke-linejoin="round"/>
<path d="M165.367 368.829V360.021H146.113V368.502L165.367 368.829Z" fill="#BFBFBF" stroke="#263238" stroke-linecap="round" stroke-linejoin="round"/>
<path d="M146.113 360.021L144.159 355.448C147.976 355.099 151.824 355.32 155.577 356.102C159.062 356.768 162.386 358.098 165.367 360.021H146.113Z" fill="white" stroke="#263238" stroke-linecap="round" stroke-linejoin="round"/>
<path d="M144.159 355.447C144.159 355.447 137.632 355.775 134.041 360.348C131.807 363.403 130.452 367.012 130.123 370.783L146.113 368.502V360.02L144.159 355.447Z" fill="white" stroke="#263238" stroke-linecap="round" stroke-linejoin="round"/>
<path d="M140.896 362.957V369.474L135.995 369.801C135.862 367.999 136.215 366.193 137.018 364.574C137.349 363.871 137.929 363.317 138.646 363.018C139.362 362.72 140.164 362.698 140.896 362.957V362.957Z" fill="white" stroke="#263238" stroke-linecap="round" stroke-linejoin="round"/>
<path d="M145.459 388.083H135.351L128.824 376.656L141.55 373.402L145.459 388.083Z" fill="white" stroke="#263238" stroke-linecap="round" stroke-linejoin="round"/>
<path d="M189.512 375.684L182.985 388.083H145.459L139.914 377.31L189.512 375.684Z" fill="#A6A6A6" stroke="#263238" stroke-linecap="round" stroke-linejoin="round"/>
<path d="M139.924 377.321H191.476V368.185H139.924V377.321Z" fill="#BFBFBF" stroke="#263238" stroke-linecap="round" stroke-linejoin="round"/>
<path d="M139.914 368.175L127.841 372.421V377.966L139.914 377.311V368.175Z" fill="white" stroke="#263238" stroke-linecap="round" stroke-linejoin="round"/>
<path d="M273.72 382.129L339.8 381.126L346.573 380.021H415.487L413.226 384.666H272.022L273.72 382.129Z" fill="#263238" stroke="#263238" stroke-linecap="round" stroke-linejoin="round"/>
<path d="M429.912 364.839H345.182L357.059 279.607H441.78L429.912 364.839Z" fill="#263238" stroke="#263238" stroke-linecap="round" stroke-linejoin="round"/>
<path d="M433.697 364.839H348.967L360.845 279.607H445.575L433.697 364.839Z" fill="#3D3D3D" stroke="#263238" stroke-linecap="round" stroke-linejoin="round"/>
<path d="M408.315 338.27H381.746L386.217 306.187H412.786L408.315 338.27Z" fill="#3D3D3D" stroke="#263238" stroke-linecap="round" stroke-linejoin="round"/>
<path d="M386.217 306.187L360.845 279.607H445.575L412.786 306.187H386.217Z" fill="#595959" stroke="#263238" stroke-linecap="round" stroke-linejoin="round"/>
<path d="M381.746 338.27L350.849 364.563L433.697 364.839L408.315 338.27H381.746Z" fill="#2E2E2E" stroke="#263238" stroke-linecap="round" stroke-linejoin="round"/>
<path d="M400.652 344.112C409.433 344.112 416.551 336.994 416.551 328.213C416.551 319.433 409.433 312.315 400.652 312.315C391.872 312.315 384.754 319.433 384.754 328.213C384.754 336.994 391.872 344.112 400.652 344.112Z" fill="#263238" stroke="#263238" stroke-linecap="round" stroke-linejoin="round"/>
<path d="M402.105 320.152H403.128C405.879 320.152 408.518 321.245 410.463 323.19C412.409 325.136 413.502 327.774 413.502 330.526V386.794H391.731V330.526C391.731 327.774 392.824 325.136 394.77 323.19C396.715 321.245 399.354 320.152 402.105 320.152Z" fill="#595959" stroke="#263238" stroke-linecap="round" stroke-linejoin="round"/>
<path d="M413.502 386.784V331.037C413.213 328.611 411.972 326.4 410.053 324.889C408.133 323.378 405.692 322.691 403.266 322.98C400.841 323.269 398.629 324.51 397.118 326.43C395.607 328.349 394.921 330.79 395.21 333.216V386.784H413.502Z" fill="#595959" stroke="#263238" stroke-linecap="round" stroke-linejoin="round"/>
<path d="M406.003 358.905H405.747C404.255 358.905 403.046 360.114 403.046 361.606V370.578C403.046 372.07 404.255 373.279 405.747 373.279H406.003C407.495 373.279 408.704 372.07 408.704 370.578V361.606C408.704 360.114 407.495 358.905 406.003 358.905Z" fill="#263238" stroke="#263238" stroke-linecap="round" stroke-linejoin="round"/>
<path d="M413.932 381.556H373.868V386.784H413.932V381.556Z" fill="#595959" stroke="#263238" stroke-linecap="round" stroke-linejoin="round"/>
<path d="M482.661 384.605H3.35464V393.751H482.661V384.605Z" fill="#263238" stroke="#263238" stroke-linecap="round" stroke-linejoin="round"/>
</svg>
