<svg width="60" height="60" viewBox="0 0 60 60" fill="none" xmlns="http://www.w3.org/2000/svg">
<path d="M51.3333 3.8166C51.2686 3.67197 51.1633 3.54927 51.0301 3.46345C50.8969 3.37763 50.7417 3.3324 50.5833 3.33326H27.3666C27.2272 3.3335 27.09 3.36871 26.9677 3.43568C26.8454 3.50265 26.7419 3.59924 26.6666 3.7166L8.81659 32.0499C8.73065 32.1733 8.68044 32.318 8.67149 32.4681C8.66254 32.6182 8.6952 32.7678 8.76586 32.9005C8.83653 33.0332 8.94246 33.1439 9.07198 33.2202C9.2015 33.2966 9.34959 33.3357 9.49992 33.3333H22.2833L10.9999 55.4166C10.9351 55.5479 10.9047 55.6935 10.9114 55.8398C10.9181 55.9861 10.9618 56.1283 11.0384 56.2531C11.115 56.3779 11.2219 56.4813 11.3492 56.5536C11.4766 56.626 11.6202 56.6648 11.7666 56.6666H16.7666C16.8823 56.6674 16.9968 56.6441 17.103 56.5982C17.2092 56.5523 17.3046 56.4847 17.3833 56.3999L46.6666 24.7499C46.7828 24.6314 46.8611 24.4809 46.8912 24.3177C46.9214 24.1544 46.9021 23.9859 46.8358 23.8337C46.7696 23.6815 46.6594 23.5526 46.5194 23.4634C46.3793 23.3742 46.2159 23.3289 46.0499 23.3333H34.8166L51.1999 4.69993C51.3055 4.58156 51.3744 4.43498 51.3981 4.27811C51.4218 4.12124 51.3992 3.96087 51.3333 3.8166V3.8166Z" fill="#14FFEC"/>
</svg>
