<svg width="55" height="36" viewBox="0 0 55 36" fill="none" xmlns="http://www.w3.org/2000/svg">
<path d="M13.8963 9.32774C14.7022 8.52186 16.0088 8.52186 16.8147 9.32774L18.3992 10.9123C19.2051 11.7181 19.2051 13.0247 18.3992 13.8306L16.8147 15.4151C16.0088 16.221 14.7022 16.221 13.8963 15.4151L12.3118 13.8306C11.5059 13.0247 11.5059 11.7181 12.3118 10.9123L13.8963 9.32774Z" fill="#00FFC8"/>
<path d="M40.2297 9.32774C39.4238 8.52186 38.1172 8.52186 37.3113 9.32774L35.7268 10.9123C34.9209 11.7181 34.9209 13.0247 35.7268 13.8306L37.3113 15.4151C38.1172 16.221 39.4238 16.221 40.2297 15.4151L41.8142 13.8306C42.62 13.0247 42.62 11.7181 41.8142 10.9123L40.2297 9.32774Z" fill="#00FFC8"/>
<path d="M28.5221 20.5849C27.7163 19.779 26.4097 19.779 25.6038 20.5849L24.0193 22.1694C23.2134 22.9753 23.2134 24.2819 24.0193 25.0877L25.6038 26.6723C26.4097 27.4781 27.7163 27.4781 28.5221 26.6723L30.1066 25.0877C30.9125 24.2819 30.9125 22.9753 30.1067 22.1694L28.5221 20.5849Z" fill="#00FFC8"/>
<path d="M7.81749 16.082C8.62337 15.2761 9.92995 15.2761 10.7358 16.082L11.1946 16.5408C12.0005 17.3467 12.0005 18.6533 11.1946 19.4592L10.7358 19.918C9.92995 20.7238 8.62336 20.7238 7.81748 19.918L7.35868 19.4592C6.5528 18.6533 6.5528 17.3467 7.35868 16.5408L7.81749 16.082Z" fill="#00FFC8"/>
<path d="M19.7501 16.082C20.556 15.2761 21.8626 15.2761 22.6685 16.082L23.1273 16.5408C23.9331 17.3467 23.9331 18.6533 23.1273 19.4592L22.6684 19.918C21.8626 20.7238 20.556 20.7238 19.7501 19.918L19.2913 19.4592C18.4854 18.6533 18.4854 17.3467 19.2913 16.5408L19.7501 16.082Z" fill="#00FFC8"/>
<path d="M46.397 16.0116C45.5969 15.2373 44.3269 15.2373 43.5269 16.0116L43.0045 16.5171C42.1665 17.3281 42.1665 18.6719 43.0045 19.4829L43.5269 19.9884C44.3269 20.7626 45.5969 20.7626 46.397 19.9884L46.9193 19.4829C47.7574 18.6719 47.7574 17.3281 46.9193 16.5171L46.397 16.0116Z" fill="#00FFC8"/>
<path d="M34.4644 16.0116C33.6643 15.2373 32.3943 15.2373 31.5943 16.0116L31.0719 16.5171C30.2339 17.3281 30.2339 18.6719 31.0719 19.4829L31.5943 19.9884C32.3943 20.7626 33.6643 20.7626 34.4644 19.9884L34.9867 19.4829C35.8247 18.6719 35.8247 17.3281 34.9867 16.5171L34.4644 16.0116Z" fill="#00FFC8"/>
<path d="M46.397 4.30414C45.5969 3.52989 44.3269 3.52989 43.5269 4.30414L43.0045 4.80963C42.1665 5.62062 42.1665 6.96442 43.0045 7.77542L43.5269 8.2809C44.3269 9.05516 45.5969 9.05515 46.397 8.2809L46.9193 7.77542C47.7574 6.96442 47.7574 5.62062 46.9193 4.80962L46.397 4.30414Z" fill="#00D5FF"/>
<path d="M50.927 0.496382C50.2351 -0.165461 49.1448 -0.16546 48.4529 0.496382V0.496382C47.7161 1.20116 47.7161 2.37819 48.4529 3.08297V3.08297C49.1448 3.74482 50.2351 3.74482 50.927 3.08297V3.08297C51.6638 2.37819 51.6638 1.20116 50.927 0.496382V0.496382Z" fill="#00D5FF"/>
<path d="M41.696 32.917C41.0041 32.2552 39.9138 32.2552 39.2219 32.917V32.917C38.4851 33.6218 38.4851 34.7988 39.2219 35.5036V35.5036C39.9138 36.1655 41.0041 36.1655 41.696 35.5036V35.5036C42.4329 34.7988 42.4329 33.6218 41.696 32.917V32.917Z" fill="#00D5FF"/>
<path d="M46.397 27.7191C45.5969 26.9449 44.3269 26.9449 43.5269 27.7191L43.0045 28.2246C42.1665 29.0356 42.1665 30.3794 43.0045 31.1904L43.5269 31.6959C44.3269 32.4701 45.5969 32.4701 46.397 31.6959L46.9193 31.1904C47.7574 30.3794 47.7574 29.0356 46.9193 28.2246L46.397 27.7191Z" fill="#00D5FF"/>
<path d="M2.18893 20.5849C2.99481 19.779 4.3014 19.779 5.10728 20.5849L6.69179 22.1694C7.49767 22.9753 7.49767 24.2819 6.69179 25.0877L5.10728 26.6723C4.3014 27.4781 2.99481 27.4781 2.18893 26.6723L0.60441 25.0877C-0.20147 24.2819 -0.20147 22.9753 0.604409 22.1694L2.18893 20.5849Z" fill="#00FFC8"/>
<path d="M52.1623 20.5849C51.3564 19.779 50.0498 19.779 49.2439 20.5849L47.6594 22.1694C46.8535 22.9753 46.8535 24.2819 47.6594 25.0877L49.2439 26.6723C50.0498 27.4781 51.3564 27.4781 52.1623 26.6723L53.7468 25.0877C54.5527 24.2819 54.5527 22.9753 53.7468 22.1694L52.1623 20.5849Z" fill="#00FFC8"/>
</svg>
