<svg width="24" height="24" viewBox="0 0 24 24" fill="none" xmlns="http://www.w3.org/2000/svg">
<path d="M12 2.25C6.624 2.25 2.25 6.624 2.25 12C2.25 17.376 6.624 21.75 12 21.75C17.376 21.75 21.75 17.376 21.75 12C21.75 6.624 17.376 2.25 12 2.25ZM12 3.75C16.5652 3.75 20.25 7.43475 20.25 12C20.25 16.5652 16.5652 20.25 12 20.25C7.43475 20.25 3.75 16.5652 3.75 12C3.75 7.43475 7.43475 3.75 12 3.75ZM11.9295 7.5C9.4365 7.5 7.4295 9.507 7.4295 12C7.4295 14.493 9.4365 16.5 11.9295 16.5C13.7295 16.5 15.267 15.42 15.984 13.8975L14.625 13.2653C14.1413 14.2935 13.1295 15 11.9295 15C10.2225 15 8.9295 13.707 8.9295 12C8.9295 10.293 10.2225 9 11.9295 9C13.1295 9 14.142 9.7065 14.625 10.7347L15.9847 10.1017C15.2677 8.57925 13.7295 7.49925 11.9295 7.49925V7.5Z" fill="#FAFAFA"/>
</svg>
