<svg width="52" height="36" viewBox="0 0 52 36" fill="none" xmlns="http://www.w3.org/2000/svg">
<g clip-path="url(#clip0)">
<path d="M20.3199 24.6401L34.1599 17.4801L20.3199 10.2601V24.6401V24.6401Z" fill="white"/>
<path opacity="0.12" d="M20.3199 10.2601L32.4599 18.3601L34.1599 17.4801L20.3199 10.2601V10.2601Z" fill="#420000"/>
<path d="M50.6602 7.76C50.6602 7.76 50.1604 4.24 48.621 2.68C46.6818 0.64 44.5026 0.64 43.483 0.52C36.346 0 25.61 0 25.61 0H25.59C25.59 0 14.8542 0 7.677 0.52C6.6774 0.64 4.4982 0.64 2.539 2.68C1.0196 4.24 0.5198 7.76 0.5198 7.76C0.5198 7.76 0 11.92 0 16.06V19.94C0 24.08 0.5198 28.22 0.5198 28.22C0.5198 28.22 1.0196 31.74 2.559 33.3C4.4982 35.34 7.0572 35.28 8.1968 35.48C12.2952 35.88 25.59 36 25.59 36C25.59 36 36.3458 35.98 43.503 35.46C44.5026 35.34 46.6818 35.34 48.641 33.3C50.1804 31.74 50.6802 28.22 50.6802 28.22C50.6802 28.22 51.2 24.08 51.2 19.94V16.06C51.18 11.92 50.6602 7.76 50.6602 7.76ZM20.3122 24.64V10.26L34.1466 17.48L20.312 24.64H20.3122Z" fill="url(#paint0_linear)"/>
</g>
<defs>
<linearGradient id="paint0_linear" x1="25.5898" y1="0" x2="25.5898" y2="36.0108" gradientUnits="userSpaceOnUse">
<stop stop-color="#E52D27"/>
<stop offset="1" stop-color="#BF171D"/>
</linearGradient>
<clipPath id="clip0">
<rect width="51.2" height="36" fill="white"/>
</clipPath>
</defs>
</svg>
