<svg width="166" height="160" viewBox="0 0 166 160" fill="none" xmlns="http://www.w3.org/2000/svg">
<path d="M67.8295 14.6433C73.5414 19.4052 77.4089 25.6552 79.4319 33.3933C81.4549 41.1314 81.3954 48.5719 79.2534 55.7147C76.8734 62.1433 71.6969 65.3576 63.724 65.3576C55.751 65.3576 50.5746 62.0243 48.1946 55.3576C45.8146 48.929 45.2196 41.8457 46.4096 34.1076C47.5996 26.3695 50.5746 19.8814 55.3345 14.6433C60.0945 10.3576 64.2595 10.3576 67.8295 14.6433ZM97.4603 2.1433C89.1303 6.19091 85.2034 16.9052 85.6794 34.2862C87.5833 51.6671 93.1763 60.4766 102.458 60.7147C114.12 55.9528 118.285 43.0957 114.953 22.1433C114.239 16.6671 112.395 11.7862 109.42 7.50044C106.445 3.21472 102.458 1.42901 97.4603 2.1433ZM155.294 21.0719C145.298 18.929 139.11 20.7147 136.73 26.429C134.112 31.429 131.018 41.0719 127.448 55.3576C123.878 69.6433 119.594 80.0004 114.596 86.429C108.884 93.3338 101.923 98.6314 93.7118 102.322C85.5009 106.012 77.2304 107.143 68.9005 105.715C58.9045 104.286 51.2886 99.4052 46.0526 91.0719C43.1966 86.31 39.9241 77.7385 36.2351 65.3576C32.5462 52.9766 28.5597 44.0481 24.2757 38.5719C18.5637 35.7147 14.1013 35.0004 10.8883 36.429C7.6753 37.8576 5.29532 39.6433 3.74833 41.7862C2.20134 43.929 1.24934 47.0838 0.892343 51.2504C0.535345 55.4171 0.475845 58.6909 0.713844 61.0719C0.951843 63.4528 1.18984 65.5957 1.42784 67.5004V68.2147C3.56983 81.5481 5.59282 89.8814 7.49681 93.2147C15.3508 109.643 28.2622 121.548 46.2311 128.929C64.2 136.31 81.9904 137.5 99.6023 132.5C118.166 127.262 133.577 116.131 145.834 99.1076C158.09 82.0838 164.457 63.5719 164.933 43.5719C164.933 31.6671 161.72 24.1671 155.294 21.0719Z" fill="#14FFEC"/>
</svg>
