<svg width="500" height="498" viewBox="0 0 500 498" fill="none" xmlns="http://www.w3.org/2000/svg">
<path d="M67.9111 67.9434H37.6932V496.8H67.9111V67.9434Z" stroke="#0F0F0F" stroke-linecap="round" stroke-linejoin="round"/>
<path d="M88.4161 182.631H17.1881V300.265H88.4161V182.631Z" stroke="#0F0F0F" stroke-linecap="round" stroke-linejoin="round"/>
<path d="M31.0884 238.103H22.3792V248.755H31.0884V238.103Z" fill="#0F0F0F" stroke="#0F0F0F" stroke-linecap="round" stroke-linejoin="round"/>
<path d="M31.0884 269.497H22.3792V280.149H31.0884V269.497Z" fill="#0F0F0F" stroke="#0F0F0F" stroke-linecap="round" stroke-linejoin="round"/>
<path d="M31.0884 253.805H22.3792V264.457H31.0884V253.805Z" fill="#0F0F0F" stroke="#0F0F0F" stroke-linecap="round" stroke-linejoin="round"/>
<path d="M31.0884 189.355H22.3792V201.669H31.0884V189.355Z" fill="#0F0F0F" stroke="#0F0F0F" stroke-linecap="round" stroke-linejoin="round"/>
<path d="M31.0884 222.411H22.3792V233.063H31.0884V222.411Z" fill="#0F0F0F" stroke="#0F0F0F" stroke-linecap="round" stroke-linejoin="round"/>
<path d="M31.0884 285.188H22.3792V295.776H31.0884V285.188Z" fill="#0F0F0F" stroke="#0F0F0F" stroke-linecap="round" stroke-linejoin="round"/>
<path d="M31.0884 206.719H22.3792V217.371H31.0884V206.719Z" fill="#0F0F0F" stroke="#0F0F0F" stroke-linecap="round" stroke-linejoin="round"/>
<path d="M35.5348 36.8728H72.0121C74.3906 36.8728 76.6717 37.8177 78.3536 39.4995C80.0355 41.1814 80.9803 43.4625 80.9803 45.841V67.7059H26.6097V45.841C26.6097 43.47 27.5486 41.1954 29.2211 39.5148C30.8937 37.8341 33.1637 36.8842 35.5348 36.8728V36.8728Z" stroke="#0F0F0F" stroke-linecap="round" stroke-linejoin="round"/>
<path d="M243.466 82.7717V150.719H161.349V82.7717" stroke="#0F0F0F" stroke-linecap="round" stroke-linejoin="round"/>
<path d="M251.733 1V82.7286H153.082V1" stroke="#0F0F0F" stroke-linecap="round" stroke-linejoin="round"/>
<path d="M236.085 150.784H168.731V202.791H236.085V150.784Z" stroke="#0F0F0F" stroke-linecap="round" stroke-linejoin="round"/>
<path d="M226.857 202.845H177.958V254.453H226.857V202.845Z" stroke="#0F0F0F" stroke-linecap="round" stroke-linejoin="round"/>
<path d="M270.08 210.194C262.352 210.194 254.94 213.264 249.476 218.729C244.011 224.193 240.941 231.605 240.941 239.333V254.442H165.396V278.184H299.218V239.333C299.218 231.605 296.148 224.193 290.684 218.729C285.219 213.264 277.808 210.194 270.08 210.194V210.194Z" stroke="#0F0F0F" stroke-linecap="round" stroke-linejoin="round"/>
<path d="M424.407 198.496H416.852V121.256C416.852 120.255 417.25 119.294 417.959 118.586C418.667 117.877 419.628 117.479 420.63 117.479H454.085V125.034H424.407V198.496Z" fill="#0F0F0F"/>
<path d="M424.407 278.044H416.852V355.283C416.852 356.285 417.25 357.246 417.959 357.954C418.667 358.663 419.628 359.061 420.63 359.061H454.085V351.506H424.407V278.044Z" fill="#0F0F0F"/>
<path d="M466.14 198.323H366.853V278.185H466.14V198.323Z" stroke="#0F0F0F" stroke-linecap="round" stroke-linejoin="round"/>
<path d="M366.853 215.364H319.723V278.184H366.853V215.364Z" stroke="#0F0F0F" stroke-linecap="round" stroke-linejoin="round"/>
<path d="M366.853 152.77H319.723V215.59H366.853V152.77Z" stroke="#0F0F0F" stroke-linecap="round" stroke-linejoin="round"/>
<path d="M366.853 277.958H319.723V340.779H366.853V277.958Z" stroke="#0F0F0F" stroke-linecap="round" stroke-linejoin="round"/>
<path d="M366.853 152.77H319.723V163.562H366.853V152.77Z" stroke="#0F0F0F" stroke-linecap="round" stroke-linejoin="round"/>
<path d="M319.723 278.185H299.218" stroke="#0F0F0F" stroke-linecap="round" stroke-linejoin="round"/>
<path d="M319.723 273.663H299.218" stroke="#0F0F0F" stroke-linecap="round" stroke-linejoin="round"/>
<path d="M361.456 229.76H326.199C325.626 229.76 325.077 229.533 324.672 229.128C324.268 228.723 324.04 228.174 324.04 227.602C324.04 227.029 324.268 226.48 324.672 226.076C325.077 225.671 325.626 225.443 326.199 225.443H361.456C362.029 225.443 362.578 225.671 362.983 226.076C363.387 226.48 363.615 227.029 363.615 227.602C363.615 228.174 363.387 228.723 362.983 229.128C362.578 229.533 362.029 229.76 361.456 229.76Z" stroke="#0F0F0F" stroke-miterlimit="10"/>
<path d="M361.456 241.988H326.199C325.626 241.988 325.077 241.76 324.672 241.356C324.268 240.951 324.04 240.402 324.04 239.829C324.04 239.257 324.268 238.708 324.672 238.303C325.077 237.898 325.626 237.671 326.199 237.671H361.456C362.029 237.671 362.578 237.898 362.983 238.303C363.387 238.708 363.615 239.257 363.615 239.829C363.615 240.402 363.387 240.951 362.983 241.356C362.578 241.76 362.029 241.988 361.456 241.988Z" stroke="#0F0F0F" stroke-miterlimit="10"/>
<path d="M361.456 254.215H326.199C325.626 254.215 325.077 253.988 324.672 253.583C324.268 253.178 324.04 252.629 324.04 252.057C324.04 251.484 324.268 250.935 324.672 250.531C325.077 250.126 325.626 249.898 326.199 249.898H361.456C362.029 249.898 362.578 250.126 362.983 250.531C363.387 250.935 363.615 251.484 363.615 252.057C363.615 252.629 363.387 253.178 362.983 253.583C362.578 253.988 362.029 254.215 361.456 254.215Z" stroke="#0F0F0F" stroke-miterlimit="10"/>
<path d="M361.456 266.454H326.199C325.626 266.454 325.077 266.226 324.672 265.821C324.268 265.417 324.04 264.868 324.04 264.295C324.04 263.723 324.268 263.174 324.672 262.769C325.077 262.364 325.626 262.137 326.199 262.137H361.456C362.029 262.137 362.578 262.364 362.983 262.769C363.387 263.174 363.615 263.723 363.615 264.295C363.615 264.868 363.387 265.417 362.983 265.821C362.578 266.226 362.029 266.454 361.456 266.454Z" stroke="#0F0F0F" stroke-miterlimit="10"/>
<path d="M377.645 210.334C379.832 210.334 381.605 208.561 381.605 206.374C381.605 204.186 379.832 202.413 377.645 202.413C375.457 202.413 373.684 204.186 373.684 206.374C373.684 208.561 375.457 210.334 377.645 210.334Z" stroke="#0F0F0F" stroke-miterlimit="10"/>
<path d="M406.783 206.374C406.783 207.157 406.551 207.923 406.116 208.574C405.681 209.226 405.062 209.733 404.338 210.033C403.615 210.333 402.818 210.411 402.05 210.258C401.282 210.106 400.576 209.728 400.022 209.174C399.468 208.621 399.091 207.915 398.938 207.146C398.785 206.378 398.864 205.582 399.163 204.858C399.463 204.134 399.971 203.516 400.622 203.081C401.273 202.645 402.039 202.413 402.823 202.413C403.343 202.413 403.858 202.516 404.338 202.715C404.819 202.914 405.255 203.205 405.623 203.573C405.991 203.941 406.283 204.378 406.482 204.858C406.681 205.339 406.783 205.854 406.783 206.374V206.374Z" stroke="#0F0F0F" stroke-miterlimit="10"/>
<path d="M431.961 206.374C431.961 207.158 431.729 207.924 431.293 208.575C430.857 209.227 430.238 209.735 429.514 210.034C428.789 210.333 427.993 210.411 427.224 210.258C426.455 210.104 425.75 209.726 425.196 209.171C424.643 208.616 424.266 207.909 424.115 207.14C423.963 206.371 424.043 205.574 424.344 204.851C424.646 204.127 425.155 203.509 425.808 203.075C426.461 202.641 427.228 202.411 428.011 202.413C428.531 202.413 429.046 202.516 429.525 202.715C430.005 202.914 430.441 203.206 430.808 203.574C431.175 203.942 431.466 204.378 431.664 204.859C431.862 205.339 431.963 205.854 431.961 206.374V206.374Z" stroke="#0F0F0F" stroke-miterlimit="10"/>
<path d="M453.189 210.334C455.377 210.334 457.15 208.561 457.15 206.374C457.15 204.186 455.377 202.413 453.189 202.413C451.002 202.413 449.229 204.186 449.229 206.374C449.229 208.561 451.002 210.334 453.189 210.334Z" stroke="#0F0F0F" stroke-miterlimit="10"/>
<path d="M270.08 210.194V159.968H236.624" stroke="#0F0F0F" stroke-width="3" stroke-linejoin="round"/>
<path d="M437.228 220.306H377.871V265.73H437.228V220.306Z" fill="#0F0F0F" stroke="#0F0F0F" stroke-linecap="round" stroke-linejoin="round"/>
<path d="M407.55 223.89V236.43" stroke="#FAFAFA" stroke-linecap="round" stroke-linejoin="round"/>
<path d="M407.55 249.283V261.824" stroke="#FAFAFA" stroke-linecap="round" stroke-linejoin="round"/>
<path d="M426.511 242.851H413.982" stroke="#FAFAFA" stroke-linecap="round" stroke-linejoin="round"/>
<path d="M401.117 242.851H388.577" stroke="#FAFAFA" stroke-linecap="round" stroke-linejoin="round"/>
<path d="M373.328 402.574H290.962V470.986H373.328V402.574Z" stroke="#0F0F0F" stroke-linecap="round" stroke-linejoin="round"/>
<path d="M366.334 408.381H297.956V465.179H366.334V408.381Z" fill="#0F0F0F" stroke="#0F0F0F" stroke-linecap="round" stroke-linejoin="round"/>
<path d="M314.338 415.385H362.352" stroke="#FAFAFA" stroke-linecap="round" stroke-linejoin="round"/>
<path d="M304.194 415.385H308.586" stroke="#FAFAFA" stroke-linecap="round" stroke-linejoin="round"/>
<path d="M346.466 421.126H362.352" stroke="#FAFAFA" stroke-linecap="round" stroke-linejoin="round"/>
<path d="M316.367 421.126H340.034" stroke="#FAFAFA" stroke-linecap="round" stroke-linejoin="round"/>
<path d="M304.194 421.126H311.295" stroke="#FAFAFA" stroke-linecap="round" stroke-linejoin="round"/>
<path d="M304.194 426.878H362.352" stroke="#FAFAFA" stroke-linecap="round" stroke-linejoin="round"/>
<path d="M339.7 432.63H362.352" stroke="#FAFAFA" stroke-linecap="round" stroke-linejoin="round"/>
<path d="M304.194 432.63H327.526" stroke="#FAFAFA" stroke-linecap="round" stroke-linejoin="round"/>
<path d="M329.555 438.372H362.352" stroke="#FAFAFA" stroke-linecap="round" stroke-linejoin="round"/>
<path d="M304.194 438.372H322.788" stroke="#FAFAFA" stroke-linecap="round" stroke-linejoin="round"/>
<path d="M304.194 444.124H362.352" stroke="#FAFAFA" stroke-linecap="round" stroke-linejoin="round"/>
<path d="M334.962 449.876H362.352" stroke="#FAFAFA" stroke-linecap="round" stroke-linejoin="round"/>
<path d="M304.194 449.876H326.512" stroke="#FAFAFA" stroke-linecap="round" stroke-linejoin="round"/>
<path d="M325.357 496.681V470.964H337.045V496.66" stroke="#0F0F0F" stroke-linecap="round" stroke-linejoin="round"/>
<path d="M494.448 377.159H389.84V464.046H494.448V377.159Z" stroke="#0F0F0F" stroke-linecap="round" stroke-linejoin="round"/>
<path d="M485.566 384.53H398.722V456.664H485.566V384.53Z" fill="#0F0F0F" stroke="#0F0F0F" stroke-linecap="round" stroke-linejoin="round"/>
<path opacity="0.35" d="M443.703 402.563H401.064V455.283H443.703V402.563Z" fill="#FAFAFA"/>
<path opacity="0.35" d="M484.789 402.563H446.8V408.769H484.789V402.563Z" fill="#FAFAFA"/>
<path opacity="0.35" d="M484.789 411.607H446.8V417.813H484.789V411.607Z" fill="#FAFAFA"/>
<path opacity="0.35" d="M484.789 420.651H446.8V426.857H484.789V420.651Z" fill="#FAFAFA"/>
<path opacity="0.35" d="M484.789 429.706H446.8V435.911H484.789V429.706Z" fill="#FAFAFA"/>
<path opacity="0.35" d="M484.789 438.75H446.8V444.955H484.789V438.75Z" fill="#FAFAFA"/>
<path opacity="0.35" d="M484.281 389.127H401.064V398.171H484.281V389.127Z" fill="#FAFAFA"/>
<path d="M433.515 496.681V464.014H448.365V496.649" stroke="#0F0F0F" stroke-linecap="round" stroke-linejoin="round"/>
<path d="M483.407 496.682H492.041" stroke="#0F0F0F" stroke-linecap="round" stroke-linejoin="round"/>
<path d="M1 496.682H470.457" stroke="#0F0F0F" stroke-linecap="round" stroke-linejoin="round"/>
<path d="M14.4901 475.097H376.565C377.71 475.097 378.808 475.552 379.618 476.362C380.427 477.171 380.882 478.269 380.882 479.414V492.365C380.882 493.509 380.427 494.607 379.618 495.417C378.808 496.227 377.71 496.681 376.565 496.681H14.4901C13.4883 496.681 12.5276 496.283 11.8192 495.575C11.1108 494.867 10.7129 493.906 10.7129 492.904V478.874C10.7129 477.873 11.1108 476.912 11.8192 476.203C12.5276 475.495 13.4883 475.097 14.4901 475.097V475.097Z" fill="#FAFAFA" stroke="#0F0F0F" stroke-linecap="round" stroke-linejoin="round"/>
<path d="M173.89 212.633C173.89 212.633 178.465 204.053 178.465 197.762C178.465 191.47 175.897 175.185 176.178 173.749C176.458 172.314 183.894 162.029 184.811 160.885C185.729 159.741 192.808 158.025 192.808 158.025L193.952 162.342C192.341 163.358 190.814 164.502 189.387 165.763C187.952 167.198 186.236 171.159 186.236 171.159C187.83 169.722 189.654 168.562 191.632 167.727C194.2 166.864 196.197 166.292 196.197 166.292V176.307C196.197 176.307 196.769 186.592 195.625 192.312C194.481 198.031 182.469 216.95 182.178 217.759C181.887 218.569 173.89 212.633 173.89 212.633Z" fill="#FAFAFA" stroke="#0F0F0F" stroke-linecap="round" stroke-linejoin="round"/>
<path d="M170.436 99.9745C170.436 99.9745 181.304 129.415 186.452 147.147C191.599 164.878 194.74 198.032 194.74 202.035V216.616C194.74 216.616 214.166 208.888 242.765 209.752C271.364 210.615 305.089 214.069 305.089 214.069L299.941 166.292L289.937 122.271L281.098 79.6746C281.098 79.6746 193.1 98.237 170.436 99.9745Z" fill="#0F0F0F" stroke="#0F0F0F" stroke-linecap="round" stroke-linejoin="round"/>
<path opacity="0.4" d="M208.381 99.0465C208.381 99.0465 208.381 101.993 205.435 106.418C202.489 110.842 183.322 118.947 183.322 118.947L191.297 153.989L198.064 154.324C198.064 154.324 206.18 180.117 207.647 185.275C209.115 190.434 212.806 205.921 212.806 205.921C221.341 204.414 229.957 203.412 238.61 202.921C252.64 202.187 282.091 205.878 282.091 205.878L278.411 142.485L289.462 140.326L282.091 103.471L246.715 96.8449L245.236 91.6863L208.381 99.0465Z" fill="#FAFAFA" stroke="#FAFAFA" stroke-miterlimit="10"/>
<path d="M226.339 122.627C226.339 122.627 219.001 110.108 209.212 117.469C199.424 124.829 202.489 145.528 204.895 156.536C207.302 167.544 210.399 188.232 212.234 190.434C214.069 192.636 216.551 188.276 217.727 183.808C218.903 179.34 229.393 170.544 229.393 170.544V147.687C229.393 141.06 230.009 129.998 226.339 122.627Z" fill="#0F0F0F"/>
<g opacity="0.4">
<path opacity="0.4" d="M202.489 136.97C202.263 136.968 202.044 136.895 201.862 136.762C201.68 136.628 201.544 136.441 201.474 136.227C201.404 136.013 201.402 135.782 201.47 135.566C201.538 135.351 201.671 135.163 201.852 135.027C202.014 134.909 218.634 122.875 231.886 132.869C232.115 133.041 232.267 133.296 232.307 133.58C232.348 133.863 232.274 134.151 232.102 134.38C231.931 134.609 231.675 134.76 231.391 134.801C231.108 134.841 230.82 134.767 230.591 134.596C218.612 125.595 203.287 136.7 203.125 136.754C202.942 136.892 202.719 136.968 202.489 136.97V136.97Z" fill="#FAFAFA" stroke="#FAFAFA" stroke-miterlimit="10"/>
</g>
<g opacity="0.4">
<path opacity="0.4" d="M203.223 149.499C202.989 149.499 202.762 149.424 202.575 149.284C202.348 149.11 202.198 148.854 202.16 148.571C202.122 148.287 202.197 148 202.37 147.773C202.661 147.384 209.752 138.189 218.914 137.693C223.393 137.445 227.548 139.323 231.282 143.262C231.48 143.469 231.587 143.747 231.579 144.033C231.572 144.319 231.452 144.591 231.244 144.789C231.037 144.986 230.759 145.093 230.473 145.086C230.187 145.079 229.915 144.958 229.717 144.751C226.48 141.287 222.853 139.646 219.044 139.851C210.874 140.283 204.151 148.992 204.086 149.079C203.984 149.211 203.853 149.317 203.704 149.39C203.554 149.463 203.389 149.501 203.223 149.499Z" fill="#FAFAFA" stroke="#FAFAFA" stroke-miterlimit="10"/>
</g>
<g opacity="0.4">
<path opacity="0.4" d="M203.967 160.561C203.76 160.561 203.558 160.501 203.384 160.389C203.144 160.234 202.975 159.99 202.915 159.711C202.854 159.432 202.907 159.14 203.061 158.899C203.352 158.435 210.486 147.492 219.314 146.92C223.156 146.672 226.717 148.431 229.847 152.154C230.031 152.373 230.121 152.657 230.097 152.942C230.073 153.227 229.936 153.491 229.717 153.676C229.498 153.861 229.215 153.951 228.93 153.927C228.644 153.902 228.38 153.766 228.195 153.547C225.53 150.374 222.584 148.874 219.454 149.079C211.716 149.564 204.938 159.957 204.874 160.065C204.776 160.217 204.642 160.342 204.484 160.429C204.325 160.516 204.148 160.561 203.967 160.561V160.561Z" fill="#FAFAFA" stroke="#FAFAFA" stroke-miterlimit="10"/>
</g>
<g opacity="0.4">
<path opacity="0.4" d="M207.647 171.624C207.432 171.624 207.222 171.56 207.043 171.44C206.925 171.361 206.824 171.259 206.746 171.141C206.667 171.022 206.613 170.89 206.586 170.75C206.559 170.611 206.56 170.468 206.588 170.329C206.616 170.19 206.672 170.058 206.752 169.94C207.032 169.53 213.659 159.925 221.861 159.526C225.616 159.331 229.027 161.08 232.048 164.695C232.143 164.802 232.216 164.926 232.263 165.061C232.31 165.196 232.329 165.339 232.32 165.482C232.311 165.624 232.274 165.763 232.21 165.891C232.147 166.02 232.059 166.134 231.951 166.227C231.842 166.318 231.716 166.387 231.581 166.429C231.445 166.471 231.303 166.486 231.161 166.473C231.02 166.46 230.882 166.419 230.757 166.353C230.631 166.287 230.52 166.196 230.429 166.087C227.872 163.022 225.033 161.544 222.012 161.684C214.856 162.04 208.629 171.073 208.565 171.17C208.461 171.316 208.323 171.433 208.163 171.513C208.003 171.592 207.826 171.63 207.647 171.624V171.624Z" fill="#FAFAFA" stroke="#FAFAFA" stroke-miterlimit="10"/>
</g>
<g opacity="0.4">
<path opacity="0.4" d="M215.018 187.812C214.732 187.812 214.458 187.698 214.255 187.496C214.053 187.293 213.939 187.019 213.939 186.732C213.939 186.311 214.414 176.437 220.188 171.721C221.493 170.685 223.009 169.95 224.63 169.565C226.25 169.181 227.935 169.158 229.566 169.497C229.852 169.543 230.109 169.701 230.279 169.936C230.449 170.17 230.518 170.463 230.473 170.749C230.427 171.035 230.269 171.292 230.034 171.462C229.8 171.632 229.507 171.702 229.221 171.656C227.892 171.374 226.517 171.387 225.194 171.692C223.87 171.998 222.629 172.59 221.558 173.426C216.54 177.516 216.098 186.754 216.098 186.851C216.068 187.116 215.942 187.361 215.742 187.539C215.543 187.716 215.285 187.813 215.018 187.812V187.812Z" fill="#FAFAFA" stroke="#FAFAFA" stroke-miterlimit="10"/>
</g>
<g opacity="0.4">
<path opacity="0.4" d="M226.814 128.131C226.65 128.132 226.488 128.096 226.34 128.025C226.193 127.953 226.063 127.85 225.962 127.721C218.515 118.235 204.626 125.714 204.485 125.789C204.233 125.932 203.935 125.97 203.656 125.893C203.376 125.816 203.139 125.631 202.996 125.379C202.853 125.127 202.816 124.829 202.893 124.55C202.969 124.27 203.154 124.033 203.406 123.89C203.557 123.804 219.044 115.472 227.624 126.383C227.712 126.495 227.777 126.623 227.816 126.76C227.855 126.897 227.866 127.04 227.849 127.182C227.832 127.323 227.787 127.46 227.717 127.584C227.647 127.708 227.553 127.817 227.44 127.905C227.261 128.044 227.041 128.123 226.814 128.131V128.131Z" fill="#FAFAFA" stroke="#FAFAFA" stroke-miterlimit="10"/>
</g>
<path d="M241.114 118.159C241.114 118.159 245.7 104.13 257.626 108.738C269.551 113.346 271.353 134.186 271.493 145.539C271.634 156.892 273.425 177.721 272.065 180.333C270.706 182.944 267.09 179.253 264.759 175.314C262.428 171.375 249.51 165.44 249.51 165.44C249.51 165.44 245.592 149.705 243.995 143.262C242.398 136.819 239.096 126.297 241.114 118.159Z" fill="#0F0F0F"/>
<g opacity="0.4">
<path opacity="0.4" d="M240.865 129.426C240.598 129.426 240.34 129.326 240.142 129.146C239.931 128.954 239.804 128.686 239.79 128.4C239.776 128.115 239.875 127.836 240.067 127.624C251.161 115.321 269.777 123.933 269.961 124.019C270.092 124.078 270.21 124.162 270.308 124.267C270.406 124.371 270.482 124.494 270.532 124.629C270.582 124.763 270.605 124.906 270.599 125.05C270.593 125.193 270.558 125.334 270.497 125.463C270.436 125.593 270.35 125.71 270.244 125.806C270.137 125.902 270.013 125.976 269.877 126.023C269.742 126.071 269.599 126.091 269.455 126.082C269.312 126.073 269.172 126.036 269.044 125.973C268.871 125.886 251.679 117.965 241.675 129.07C241.573 129.183 241.448 129.274 241.308 129.335C241.169 129.396 241.018 129.427 240.865 129.426V129.426Z" fill="#FAFAFA" stroke="#FAFAFA" stroke-miterlimit="10"/>
</g>
<g opacity="0.4">
<path opacity="0.4" d="M243.574 139.409C243.372 139.41 243.174 139.354 243.002 139.247C242.882 139.171 242.779 139.073 242.697 138.957C242.616 138.841 242.558 138.71 242.526 138.572C242.495 138.433 242.492 138.29 242.516 138.151C242.54 138.011 242.592 137.878 242.668 137.758C245.571 133.171 249.294 130.538 253.73 129.912C262.827 128.638 271.537 136.301 271.903 136.625C272.011 136.719 272.098 136.834 272.16 136.962C272.222 137.091 272.259 137.23 272.267 137.373C272.275 137.515 272.254 137.658 272.207 137.793C272.159 137.927 272.086 138.051 271.99 138.157C271.799 138.37 271.532 138.499 271.247 138.515C270.962 138.531 270.682 138.433 270.468 138.243C270.393 138.168 262.126 130.916 254.021 132.049C250.244 132.588 247.038 134.887 244.492 138.913C244.393 139.066 244.257 139.192 244.097 139.279C243.936 139.366 243.757 139.411 243.574 139.409Z" fill="#FAFAFA" stroke="#FAFAFA" stroke-miterlimit="10"/>
</g>
<g opacity="0.4">
<path opacity="0.4" d="M272.583 149.5C272.439 149.501 272.296 149.472 272.162 149.417C272.029 149.361 271.908 149.279 271.806 149.176C271.72 149.09 263.097 140.197 255.392 141.19C252.273 141.589 249.672 143.629 247.664 147.255C247.594 147.379 247.499 147.488 247.386 147.575C247.273 147.663 247.144 147.727 247.006 147.765C246.869 147.802 246.725 147.812 246.583 147.794C246.441 147.776 246.305 147.731 246.181 147.66C246.057 147.589 245.948 147.494 245.86 147.381C245.773 147.268 245.708 147.139 245.671 147.002C245.633 146.864 245.623 146.72 245.641 146.578C245.659 146.437 245.705 146.3 245.776 146.176C248.139 141.924 251.28 139.506 255.111 139.01C263.874 137.931 272.983 147.244 273.371 147.644C273.472 147.744 273.553 147.863 273.607 147.995C273.662 148.126 273.691 148.267 273.691 148.41C273.691 148.552 273.662 148.693 273.607 148.825C273.553 148.956 273.472 149.076 273.371 149.176C273.269 149.281 273.146 149.363 273.011 149.419C272.875 149.475 272.73 149.502 272.583 149.5Z" fill="#FAFAFA" stroke="#FAFAFA" stroke-miterlimit="10"/>
</g>
<g opacity="0.4">
<path opacity="0.4" d="M271.094 161.058C270.813 161.06 270.541 160.951 270.339 160.756C270.252 160.669 262.385 152.996 255.316 154.032C252.316 154.464 249.823 156.471 247.902 159.968C247.831 160.092 247.736 160.201 247.624 160.288C247.511 160.376 247.382 160.44 247.244 160.478C247.106 160.515 246.962 160.525 246.82 160.507C246.679 160.489 246.542 160.444 246.418 160.373C246.294 160.302 246.185 160.207 246.098 160.094C246.01 159.981 245.946 159.852 245.908 159.715C245.871 159.577 245.861 159.433 245.879 159.291C245.897 159.15 245.942 159.013 246.013 158.889C248.28 154.755 251.301 152.413 255.014 151.852C263.162 150.665 271.504 158.824 271.85 159.169C271.951 159.27 272.031 159.389 272.086 159.521C272.141 159.652 272.169 159.793 272.169 159.936C272.169 160.078 272.141 160.219 272.086 160.351C272.031 160.482 271.951 160.602 271.85 160.702C271.754 160.808 271.637 160.895 271.508 160.956C271.378 161.017 271.237 161.052 271.094 161.058V161.058Z" fill="#FAFAFA" stroke="#FAFAFA" stroke-miterlimit="10"/>
</g>
<g opacity="0.4">
<path opacity="0.4" d="M266.972 178.39C266.724 178.397 266.481 178.318 266.284 178.166C266.088 178.015 265.949 177.801 265.892 177.559C265.892 177.473 263.669 168.494 257.949 165.44C256.74 164.819 255.409 164.473 254.051 164.426C252.693 164.379 251.341 164.633 250.093 165.17C249.957 165.233 249.811 165.267 249.661 165.27C249.512 165.274 249.364 165.246 249.226 165.189C249.088 165.132 248.963 165.048 248.86 164.94C248.756 164.833 248.676 164.705 248.625 164.565C248.573 164.425 248.551 164.276 248.56 164.127C248.569 163.978 248.608 163.833 248.676 163.7C248.744 163.567 248.839 163.45 248.955 163.355C249.07 163.261 249.204 163.192 249.348 163.152C250.882 162.503 252.541 162.201 254.205 162.268C255.869 162.336 257.498 162.77 258.975 163.54C265.547 167.058 267.9 176.653 267.997 177.063C268.062 177.34 268.014 177.632 267.865 177.875C267.715 178.117 267.475 178.291 267.198 178.358L266.972 178.39Z" fill="#FAFAFA" stroke="#FAFAFA" stroke-miterlimit="10"/>
</g>
<g opacity="0.4">
<path opacity="0.4" d="M243.93 122.066C243.761 122.069 243.594 122.028 243.445 121.947C243.191 121.818 242.998 121.593 242.909 121.322C242.82 121.051 242.842 120.756 242.97 120.501C249.294 108.144 266.097 113.346 266.259 113.4C266.395 113.443 266.521 113.512 266.629 113.604C266.738 113.695 266.827 113.808 266.893 113.934C266.958 114.06 266.997 114.198 267.009 114.34C267.021 114.482 267.004 114.624 266.961 114.76C266.918 114.895 266.849 115.021 266.757 115.13C266.665 115.238 266.553 115.328 266.427 115.393C266.3 115.458 266.162 115.498 266.021 115.51C265.879 115.521 265.736 115.505 265.601 115.461C264.986 115.256 250.384 110.756 244.902 121.483C244.81 121.661 244.67 121.809 244.499 121.912C244.327 122.015 244.13 122.068 243.93 122.066V122.066Z" fill="#FAFAFA" stroke="#FAFAFA" stroke-miterlimit="10"/>
</g>
<g opacity="0.4">
<path opacity="0.4" d="M229.026 125.217C228.444 125.217 214.77 124.43 205.176 121.483C196.186 118.721 189.937 122.778 189.873 122.822C189.635 122.962 189.353 123.006 189.084 122.945C188.815 122.884 188.58 122.722 188.426 122.492C188.273 122.263 188.213 121.984 188.26 121.712C188.306 121.44 188.454 121.196 188.675 121.03C188.966 120.836 195.852 116.357 205.813 119.422C215.159 122.293 228.994 123.048 229.134 123.059C229.276 123.063 229.416 123.094 229.545 123.151C229.675 123.209 229.792 123.291 229.89 123.394C229.987 123.497 230.064 123.618 230.115 123.75C230.166 123.882 230.19 124.023 230.187 124.165C230.183 124.307 230.152 124.447 230.094 124.576C230.037 124.706 229.954 124.823 229.851 124.92C229.749 125.018 229.628 125.095 229.495 125.146C229.363 125.197 229.222 125.221 229.08 125.217H229.026Z" fill="#FAFAFA" stroke="#FAFAFA" stroke-miterlimit="10"/>
</g>
<g opacity="0.4">
<path opacity="0.4" d="M237.131 124.44C236.99 124.455 236.846 124.442 236.71 124.402C236.573 124.361 236.446 124.294 236.335 124.204C236.224 124.115 236.132 124.004 236.064 123.879C235.996 123.754 235.954 123.616 235.939 123.474C235.924 123.333 235.937 123.189 235.978 123.053C236.018 122.916 236.085 122.789 236.175 122.678C236.356 122.455 236.618 122.312 236.905 122.282C237.002 122.282 247.103 120.048 254.172 115.084C261.522 109.936 274.936 106.774 281.325 106.774C281.611 106.774 281.886 106.887 282.088 107.09C282.291 107.292 282.404 107.567 282.404 107.853C282.404 108.139 282.291 108.414 282.088 108.616C281.886 108.818 281.611 108.932 281.325 108.932C275.228 108.932 262.406 111.943 255.424 116.843C247.967 122.077 237.779 124.3 237.347 124.397C237.278 124.421 237.205 124.436 237.131 124.44V124.44Z" fill="#FAFAFA" stroke="#FAFAFA" stroke-miterlimit="10"/>
</g>
<path opacity="0.4" d="M223.868 96.0785C223.868 96.0785 226.156 109.385 227.548 115.979C230.872 131.692 237.347 182.642 237.347 187.811C237.347 192.981 235.653 202.23 235.653 202.23L245.981 201.507L237.131 130.743L232.307 105.079L231.131 94.6863L223.868 96.0785Z" fill="#FAFAFA" stroke="#FAFAFA" stroke-miterlimit="10"/>
<path opacity="0.4" d="M230.591 134.553C230.591 134.553 227.99 152.554 227.99 158.295C227.99 164.037 232.307 166.929 236.624 168.364C240.941 169.8 253.179 171.246 253.179 167.652C253.179 164.058 251.733 151.118 251.733 151.118L246.704 143.931C246.704 143.931 245.981 133.732 241.675 129.081C237.369 124.43 229.588 120.901 230.591 134.553Z" fill="#FAFAFA" stroke="#FAFAFA" stroke-miterlimit="10"/>
<path opacity="0.4" d="M273.101 204.744C273.101 204.744 278.357 187.088 257.496 177.764C236.635 168.44 233.894 171.688 225.832 177.764C217.77 183.84 217.198 196.467 217.198 196.467L217.921 205.1C217.921 205.1 239.387 200.168 273.101 204.744Z" fill="#FAFAFA" stroke="#FAFAFA" stroke-miterlimit="10"/>
<path d="M132.728 261.489C132.728 261.489 137.045 251.776 149.025 240.056C161.004 228.336 172.465 211.997 172.465 211.997L173.89 210.561C173.89 210.561 175.034 209.417 181.034 211.997C184.454 213.348 187.36 215.747 189.333 218.85C189.333 218.85 184.757 228.001 179.318 237.434C173.879 246.866 167.026 258.025 165.882 261.446C164.738 264.867 161.889 270.08 161.565 270.889C161.241 271.699 146.704 275.454 138.977 273.738C131.25 272.022 128.433 268.073 132.728 261.489Z" fill="#0F0F0F" stroke="#0F0F0F" stroke-linecap="round" stroke-linejoin="round"/>
<path d="M137.714 184.412C138.952 186.592 140.696 188.442 142.798 189.808C145.852 191.503 153.644 190.488 153.644 194.211C153.644 197.935 148.248 204.043 148.248 205.057C148.248 206.072 150.611 220.296 150.611 225.379C150.611 230.462 150.611 231.476 147.568 233.516C144.524 235.556 135.027 236.225 135.027 236.225C135.027 236.225 132.653 248.096 132.653 253.169C132.58 255.94 133.042 258.699 134.013 261.295C134.013 261.295 120.458 265.364 112.331 265.364C104.205 265.364 88.2758 261.295 88.2758 261.295C88.2758 261.295 94.028 257.906 90.65 248.42C87.2721 238.934 68.2564 214.565 77.4081 195.927C86.5598 177.289 111.295 177.289 119.087 177.581C126.879 177.872 137.714 184.412 137.714 184.412Z" fill="#FAFAFA" stroke="#0F0F0F" stroke-linecap="round" stroke-linejoin="round"/>
<path d="M141.103 193.553L143.812 195.927C143.812 195.927 143.477 199.996 140.089 199.996" stroke="#0F0F0F" stroke-linecap="round" stroke-linejoin="round"/>
<path d="M138.729 174.246C138.729 174.246 140.769 183.732 136.7 199.996C132.631 216.26 129.588 218.968 129.588 218.968C129.985 221.305 130.912 223.52 132.297 225.444C132.944 226.157 133.727 226.734 134.6 227.141C135.473 227.549 136.418 227.779 137.38 227.818C137.176 229.363 136.462 230.795 135.351 231.887C134.119 232.788 132.743 233.474 131.282 233.915C131.579 234.867 132.173 235.699 132.977 236.29C134.105 236.953 135.391 237.303 136.7 237.304C136.7 237.304 136.7 240.013 132.297 243.402C129.452 245.45 125.968 246.411 122.476 246.111L125.854 249.499C125.854 249.499 125.185 251.874 118.407 254.248C111.63 256.622 107.907 254.582 107.907 254.582L108.576 257.637C108.576 257.637 100.115 259.665 98.4204 257.971L93.6719 253.233L92.992 257.971L86.5167 256.957L79.4047 253.902C79.4047 253.902 83.128 253.233 83.4625 251.194C83.7971 249.154 83.128 247.136 80.7537 245.441C78.3794 243.747 63.141 235.61 60.4214 224.429C57.7018 213.249 63.8101 190.207 71.2674 181.067C78.7248 171.926 87.5312 170.22 87.5312 170.22C87.5312 170.22 101.086 160.054 114.296 160.054C127.505 160.054 133.991 158.317 138.729 174.246Z" fill="#BFBFBF" stroke="#0F0F0F" stroke-linecap="round" stroke-linejoin="round"/>
<path d="M130.937 210.831C130.937 210.831 126.534 223.037 120.436 230.483" stroke="#0F0F0F" stroke-linecap="round" stroke-linejoin="round"/>
<path d="M121.451 212.191C121.451 212.191 119.087 224.386 113.659 233.538" stroke="#0F0F0F" stroke-linecap="round" stroke-linejoin="round"/>
<path d="M89.2687 173.231C81.4878 177.56 75.6659 184.711 73.0049 193.208" stroke="#0F0F0F" stroke-linecap="round" stroke-linejoin="round"/>
<path d="M85.5454 180.678C85.5454 180.678 89.2687 171.192 103.892 171.192" stroke="#0F0F0F" stroke-linecap="round" stroke-linejoin="round"/>
<path d="M73.6849 203.385C73.6849 203.385 71.6452 215.871 78.0881 230.829" stroke="#0F0F0F" stroke-linecap="round" stroke-linejoin="round"/>
<path d="M81.5307 223.814C83.387 228.983 86.398 234.93 90.963 238.621" stroke="#0F0F0F" stroke-linecap="round" stroke-linejoin="round"/>
<path d="M79.1025 213.885C79.2827 215.797 79.6441 217.687 80.1817 219.53" stroke="#0F0F0F" stroke-linecap="round" stroke-linejoin="round"/>
<path d="M108.748 231.584C108.229 232.74 107.604 233.846 106.881 234.887" stroke="#0F0F0F" stroke-linecap="round" stroke-linejoin="round"/>
<path d="M112.99 197.956C112.99 197.956 114.069 214.317 110.551 226.62" stroke="#0F0F0F" stroke-linecap="round" stroke-linejoin="round"/>
<path d="M184.757 179.448C184.757 179.448 190.477 171.731 192.193 168.871C193.984 165.598 195.431 162.148 196.51 158.576C196.79 157.151 199.37 156.288 199.942 162.008C200.514 167.727 197.934 174.3 196.218 176.307C195.25 177.356 194.563 178.633 194.222 180.02C194.222 180.02 195.075 189.171 193.65 193.164C193.008 195.211 192.043 197.143 190.79 198.884" fill="#FAFAFA"/>
<path d="M184.757 179.448C184.757 179.448 190.477 171.731 192.193 168.871C193.984 165.598 195.431 162.148 196.51 158.576C196.79 157.151 199.37 156.288 199.942 162.008C200.514 167.727 197.934 174.3 196.218 176.307C195.25 177.356 194.563 178.633 194.222 180.02C194.222 180.02 195.075 189.171 193.65 193.164C193.008 195.211 192.043 197.143 190.79 198.884" stroke="#0F0F0F" stroke-linecap="round" stroke-linejoin="round"/>
<path d="M292.527 207.745C292.527 207.745 295.679 199.176 295.679 196.024C295.679 192.873 293.671 188.027 292.819 184.876C291.678 179.789 290.814 174.645 290.229 169.465C289.948 166.314 289.657 163.173 289.657 158.597C289.657 154.021 289.376 151.162 291.944 153.201C294.513 155.241 294.524 159.202 294.232 162.062C293.941 164.921 293.952 165.493 294.804 166.918C295.657 168.343 298.236 171.494 298.236 171.494C298.236 171.494 298.808 163.497 298.808 162.353C298.808 161.209 295.959 150.039 295.959 150.039C295.959 150.039 300.535 146.607 301.679 150.32C302.823 154.032 303.675 154.032 304.819 156.32C306.551 159.338 308.776 162.045 311.403 164.328C314.252 166.896 316.259 171.764 315.396 175.476C314.532 179.189 309.395 197.492 308.251 202.64C307.107 207.788 305.111 214.069 305.111 214.069L292.527 207.745Z" fill="#FAFAFA" stroke="#0F0F0F" stroke-linecap="round" stroke-linejoin="round"/>
<path d="M303.967 155.144C303.967 155.144 306.827 159.72 306.827 163.777" stroke="#0F0F0F" stroke-linecap="round" stroke-linejoin="round"/>
<path d="M299.11 152.003C299.11 152.003 298.247 157.399 298.819 160.637" stroke="#0F0F0F" stroke-linecap="round" stroke-linejoin="round"/>
<path d="M236.538 270.814L255.37 266.303C255.37 266.303 271.342 242.959 279.113 231.088C286.883 219.217 293.466 203.654 293.466 203.654C293.466 203.654 301.247 205.705 303.708 206.892C306.168 208.079 311.888 216.303 311.888 216.303C311.888 216.303 298.787 243.736 293.056 266.259C287.325 288.782 280.365 299.834 276.264 301.474C272.163 303.114 240.229 309.762 240.229 309.762C240.229 309.762 240.229 280.624 236.538 270.814Z" fill="#0F0F0F" stroke="#0F0F0F" stroke-linecap="round" stroke-linejoin="round"/>
<path d="M64.7274 442.775C61.8135 451.514 60.3551 460.673 60.4106 469.885C60.3537 478.863 61.0759 487.829 62.569 496.682H187.196C190.225 480.449 191.67 463.96 191.513 447.448L191.2 439.03C191.2 439.03 109.558 434.044 91.794 431.238C74.0302 428.432 70.5983 428.119 70.5983 428.119L64.7274 442.775Z" fill="#14FFEC" stroke="#0F0F0F" stroke-linecap="round" stroke-linejoin="round"/>
<path d="M92.8085 456.6C92.8085 456.6 121.116 466.399 141.805 466.399H180.656L185.372 462.082L186.829 466.075H190.455L194.092 439.213L179.933 438.134L92.8085 456.6Z" fill="#0F0F0F" stroke="#0F0F0F" stroke-linecap="round" stroke-linejoin="round"/>
<path d="M181.552 468.73C180.753 475.713 179.124 485.998 176.026 493.552" stroke="#0F0F0F" stroke-linecap="round" stroke-linejoin="round"/>
<path d="M182.243 461.057C182.243 461.057 182.167 462.287 181.995 464.295" stroke="#0F0F0F" stroke-linecap="round" stroke-linejoin="round"/>
<path d="M88.783 455.952C87.6715 459.411 86.8273 462.951 86.2577 466.539" stroke="#0F0F0F" stroke-linecap="round" stroke-linejoin="round"/>
<path d="M167.641 486.311C166.098 486.494 164.9 486.613 164.403 486.613" stroke="#0F0F0F" stroke-linecap="round" stroke-linejoin="round"/>
<path d="M183.7 484.055C183.7 484.055 177.688 484.972 172.303 485.706" stroke="#0F0F0F" stroke-linecap="round" stroke-linejoin="round"/>
<path d="M176.393 482.231L166.173 483.688" stroke="#0F0F0F" stroke-linecap="round" stroke-linejoin="round"/>
<path d="M72.6704 269.832C72.6704 269.832 64.8785 277.246 62.8388 280.624C60.7991 284.002 61.1444 296.207 61.1444 302.64C61.1444 309.072 59.1155 319.907 62.5042 329.404C65.8929 338.901 69.9508 348.377 69.9508 348.377C69.9508 348.377 81.1314 383.99 81.8221 388.696C82.5128 393.401 67.5873 429.371 65.8929 435.803C64.1986 442.235 63.5187 445.97 63.5187 445.97C63.5187 445.97 78.7679 453.082 102.824 459.179C126.879 465.277 165.504 462.913 172.595 461.931L179.707 460.852L183.775 445.268L186.819 460.183C190.434 459.599 193.965 458.574 197.33 457.129C200.255 455.533 202.983 453.598 205.457 451.366C205.457 451.366 195.97 410.712 194.276 400.891C192.582 391.07 188.513 376.49 188.88 365.655C189.247 354.819 191.254 327.03 191.254 327.03L236.646 324.99H240.034C240.034 324.99 245.43 296.531 243.423 285.351C241.416 274.17 238.34 269.832 238.34 269.832C238.34 269.832 202.089 271.86 198.021 271.86C193.952 271.86 171.936 267.457 167.198 267.457C162.461 267.457 143.812 269.832 143.812 269.832C143.812 269.832 125.854 270.511 108.198 270.511C97.6195 270.517 87.0656 269.494 76.685 267.457L72.6704 269.832Z" fill="#14FFEC" stroke="#0F0F0F" stroke-linecap="round" stroke-linejoin="round"/>
<path d="M92.0422 323.231C92.0612 324.62 92.1513 326.006 92.312 327.386" stroke="#0F0F0F" stroke-linecap="round" stroke-linejoin="round"/>
<path d="M103.838 284.692C103.838 284.692 94.6539 300.147 92.4955 316.302" stroke="#0F0F0F" stroke-linecap="round" stroke-linejoin="round"/>
<path d="M94.3517 290.455C89.654 300.625 87.5586 311.802 88.2542 322.983" stroke="#0F0F0F" stroke-linecap="round" stroke-linejoin="round"/>
<path d="M159.407 329.415L191.254 327.051" stroke="#0F0F0F" stroke-linecap="round" stroke-linejoin="round"/>
<path d="M184.466 328.109C184.466 328.109 163.119 341.998 157.701 343.693" stroke="#0F0F0F" stroke-linecap="round" stroke-linejoin="round"/>
<path d="M162.126 360.183C161.094 361.327 159.956 362.372 158.727 363.302" stroke="#0F0F0F" stroke-linecap="round" stroke-linejoin="round"/>
<path d="M179.07 333.829C179.07 333.829 172.271 347.427 165.126 356.654" stroke="#0F0F0F" stroke-linecap="round" stroke-linejoin="round"/>
<path d="M130.268 312.817C130.268 312.817 135.006 328.4 145.172 335.48" stroke="#0F0F0F" stroke-linecap="round" stroke-linejoin="round"/>
<path d="M129.923 328.4C129.923 328.4 136.7 335.178 142.118 337.887" stroke="#0F0F0F" stroke-linecap="round" stroke-linejoin="round"/>
<path d="M128.422 400.028C129.264 400.6 130.106 401.107 130.937 401.582" stroke="#0F0F0F" stroke-linecap="round" stroke-linejoin="round"/>
<path d="M97.0498 362.288C97.0498 362.288 110.702 385.469 124.753 397.243" stroke="#0F0F0F" stroke-linecap="round" stroke-linejoin="round"/>
<path d="M185.2 327.677L185.631 327.418L179.426 328.012L177.203 328.141V328.228L163.054 329.577L176.501 332.814V333.375C177.343 334.077 178.606 335.847 176.372 339.322L189.117 356.017L191.373 330.267L191.805 327.267L185.2 327.677Z" fill="#0F0F0F" stroke="#0F0F0F" stroke-linecap="round" stroke-linejoin="round"/>
<path d="M80.117 255.219C80.117 255.219 89.6032 260.302 110.615 259.968C131.628 259.633 135.006 257.248 137.714 257.593C140.423 257.939 145.852 269.465 145.852 269.465C145.852 269.465 136.02 275.562 112.99 275.94C99.3026 276.178 85.6729 274.113 72.6704 269.832C72.6704 269.832 77.7535 255.219 80.117 255.219Z" fill="#14FFEC" stroke="#0F0F0F" stroke-linecap="round" stroke-linejoin="round"/>
</svg>
