<svg width="171" height="37" viewBox="0 0 171 37" fill="none" xmlns="http://www.w3.org/2000/svg">
<path d="M13.8964 9.32774C14.7023 8.52186 16.0089 8.52186 16.8147 9.32774L18.3993 10.9123C19.2051 11.7181 19.2051 13.0247 18.3993 13.8306L16.8147 15.4151C16.0089 16.221 14.7023 16.221 13.8964 15.4151L12.3119 13.8306C11.506 13.0247 11.506 11.7181 12.3119 10.9123L13.8964 9.32774Z" fill="#00FFC8"/>
<path d="M40.2297 9.32774C39.4238 8.52186 38.1172 8.52186 37.3113 9.32774L35.7268 10.9123C34.9209 11.7181 34.9209 13.0247 35.7268 13.8306L37.3113 15.4151C38.1172 16.221 39.4238 16.221 40.2297 15.4151L41.8142 13.8306C42.62 13.0247 42.62 11.7181 41.8142 10.9123L40.2297 9.32774Z" fill="#00FFC8"/>
<path d="M28.5222 20.5849C27.7163 19.779 26.4097 19.779 25.6038 20.5849L24.0193 22.1694C23.2134 22.9753 23.2134 24.2819 24.0193 25.0877L25.6038 26.6723C26.4097 27.4781 27.7163 27.4781 28.5222 26.6723L30.1067 25.0877C30.9126 24.2819 30.9126 22.9753 30.1067 22.1694L28.5222 20.5849Z" fill="#00FFC8"/>
<path d="M7.81746 16.082C8.62334 15.2761 9.92992 15.2761 10.7358 16.082L11.1946 16.5408C12.0005 17.3467 12.0005 18.6533 11.1946 19.4592L10.7358 19.918C9.92992 20.7238 8.62333 20.7238 7.81745 19.918L7.35865 19.4592C6.55277 18.6533 6.55277 17.3467 7.35865 16.5408L7.81746 16.082Z" fill="#00FFC8"/>
<path d="M19.7502 16.082C20.556 15.2761 21.8626 15.2761 22.6685 16.082L23.1273 16.5408C23.9332 17.3467 23.9332 18.6533 23.1273 19.4592L22.6685 19.918C21.8626 20.7238 20.556 20.7238 19.7502 19.918L19.2914 19.4592C18.4855 18.6533 18.4855 17.3467 19.2914 16.5408L19.7502 16.082Z" fill="#00FFC8"/>
<path d="M46.397 16.0116C45.5969 15.2373 44.3269 15.2373 43.5269 16.0116L43.0045 16.5171C42.1665 17.3281 42.1665 18.6719 43.0045 19.4829L43.5269 19.9884C44.3269 20.7626 45.5969 20.7626 46.397 19.9884L46.9193 19.4829C47.7574 18.6719 47.7574 17.3281 46.9193 16.5171L46.397 16.0116Z" fill="#00FFC8"/>
<path d="M34.4643 16.0116C33.6643 15.2373 32.3943 15.2373 31.5942 16.0116L31.0719 16.5171C30.2339 17.3281 30.2339 18.6719 31.0719 19.4829L31.5942 19.9884C32.3943 20.7626 33.6643 20.7626 34.4643 19.9884L34.9867 19.4829C35.8247 18.6719 35.8247 17.3281 34.9867 16.5171L34.4643 16.0116Z" fill="#00FFC8"/>
<path d="M46.397 4.30414C45.5969 3.52989 44.3269 3.52989 43.5269 4.30414L43.0045 4.80963C42.1665 5.62062 42.1665 6.96442 43.0045 7.77542L43.5269 8.2809C44.3269 9.05515 45.5969 9.05515 46.397 8.2809L46.9193 7.77542C47.7574 6.96442 47.7574 5.62062 46.9193 4.80962L46.397 4.30414Z" fill="#00D5FF"/>
<path d="M50.927 0.496382C50.2351 -0.165461 49.1448 -0.16546 48.4529 0.496382C47.7161 1.20116 47.7161 2.37819 48.4529 3.08297C49.1448 3.74482 50.2351 3.74482 50.927 3.08297C51.6638 2.37819 51.6638 1.20116 50.927 0.496382Z" fill="#00D5FF"/>
<path d="M41.6961 32.917C41.0042 32.2552 39.9139 32.2552 39.222 32.917C38.4852 33.6218 38.4852 34.7988 39.222 35.5036C39.9139 36.1655 41.0042 36.1655 41.6961 35.5036C42.4329 34.7988 42.4329 33.6218 41.6961 32.917Z" fill="#00D5FF"/>
<path d="M46.397 27.7191C45.5969 26.9449 44.3269 26.9449 43.5269 27.7191L43.0045 28.2246C42.1665 29.0356 42.1665 30.3794 43.0045 31.1904L43.5269 31.6959C44.3269 32.4701 45.5969 32.4701 46.397 31.6959L46.9193 31.1904C47.7574 30.3794 47.7574 29.0356 46.9193 28.2246L46.397 27.7191Z" fill="#00D5FF"/>
<path d="M2.18893 20.5849C2.99481 19.779 4.3014 19.779 5.10728 20.5849L6.69179 22.1694C7.49767 22.9753 7.49767 24.2819 6.69179 25.0877L5.10728 26.6723C4.3014 27.4781 2.99481 27.4781 2.18893 26.6723L0.60441 25.0877C-0.20147 24.2819 -0.20147 22.9753 0.604409 22.1694L2.18893 20.5849Z" fill="#00FFC8"/>
<path d="M52.1622 20.5849C51.3564 19.779 50.0498 19.779 49.2439 20.5849L47.6594 22.1694C46.8535 22.9753 46.8535 24.2819 47.6594 25.0877L49.2439 26.6723C50.0498 27.4781 51.3564 27.4781 52.1622 26.6723L53.7468 25.0877C54.5526 24.2819 54.5526 22.9753 53.7468 22.1694L52.1622 20.5849Z" fill="#00FFC8"/>
<path d="M85.3912 21.328C85.2312 21.456 85.0232 21.56 84.7672 21.64C84.5112 21.72 84.2152 21.76 83.8792 21.76C83.4632 21.76 83.1112 21.712 82.8232 21.616C82.5512 21.504 82.3592 21.312 82.2472 21.04C81.5912 19.408 81.0392 18.016 80.5912 16.864C80.1432 15.712 79.7832 14.728 79.5112 13.912H79.3912C79.3432 14.984 79.2952 15.968 79.2472 16.864C79.2152 17.76 79.1832 18.64 79.1512 19.504C79.1192 20.352 79.0792 21.216 79.0312 22.096C78.9992 22.976 78.9512 23.928 78.8872 24.952C78.7272 25 78.5272 25.048 78.2872 25.096C78.0472 25.144 77.7912 25.168 77.5192 25.168C76.4472 25.168 75.9112 24.768 75.9112 23.968C75.9112 23.712 75.9192 23.32 75.9352 22.792C75.9672 22.248 75.9992 21.624 76.0312 20.92C76.0792 20.2 76.1272 19.416 76.1752 18.568C76.2392 17.72 76.2952 16.864 76.3432 16C76.4072 15.136 76.4712 14.288 76.5352 13.456C76.5992 12.608 76.6552 11.824 76.7032 11.104C76.8312 10.944 77.0632 10.784 77.3992 10.624C77.7512 10.448 78.1992 10.36 78.7432 10.36C79.3512 10.36 79.8392 10.464 80.2072 10.672C80.5912 10.864 80.8792 11.192 81.0712 11.656C81.2792 12.152 81.4952 12.696 81.7192 13.288C81.9592 13.88 82.1992 14.488 82.4392 15.112C82.6792 15.736 82.9112 16.352 83.1352 16.96C83.3752 17.552 83.5992 18.112 83.8072 18.64H83.9032C84.4472 17.136 84.9832 15.68 85.5112 14.272C86.0552 12.864 86.5272 11.672 86.9272 10.696C87.1192 10.6 87.3672 10.52 87.6712 10.456C87.9752 10.392 88.2872 10.36 88.6072 10.36C89.1992 10.36 89.6712 10.448 90.0232 10.624C90.3752 10.8 90.5912 11.064 90.6712 11.416C90.7352 11.72 90.8072 12.208 90.8872 12.88C90.9672 13.536 91.0472 14.288 91.1272 15.136C91.2072 15.984 91.2872 16.888 91.3672 17.848C91.4472 18.808 91.5192 19.736 91.5832 20.632C91.6472 21.512 91.7032 22.32 91.7512 23.056C91.7992 23.792 91.8312 24.368 91.8472 24.784C91.6392 24.912 91.4152 25.008 91.1752 25.072C90.9512 25.136 90.6712 25.168 90.3352 25.168C89.9192 25.168 89.5512 25.088 89.2312 24.928C88.9272 24.752 88.7592 24.432 88.7272 23.968C88.6632 22.96 88.6072 21.976 88.5592 21.016C88.5112 20.04 88.4712 19.12 88.4392 18.256C88.4072 17.392 88.3752 16.6 88.3432 15.88C88.3112 15.144 88.2872 14.512 88.2712 13.984H88.1512C87.8952 14.736 87.5432 15.696 87.0952 16.864C86.6472 18.016 86.0792 19.504 85.3912 21.328ZM97.1789 20.68C97.4029 21.496 97.8189 22.088 98.4269 22.456C99.0349 22.824 99.7869 23.008 100.683 23.008C101.355 23.008 101.971 22.912 102.531 22.72C103.107 22.512 103.571 22.296 103.923 22.072C104.147 22.2 104.331 22.376 104.475 22.6C104.619 22.824 104.691 23.064 104.691 23.32C104.691 23.64 104.579 23.928 104.355 24.184C104.147 24.424 103.851 24.632 103.467 24.808C103.099 24.984 102.659 25.12 102.147 25.216C101.635 25.312 101.083 25.36 100.491 25.36C99.5469 25.36 98.6829 25.232 97.8989 24.976C97.1309 24.72 96.4669 24.336 95.9069 23.824C95.3629 23.296 94.9309 22.648 94.6109 21.88C94.3069 21.112 94.1549 20.216 94.1549 19.192C94.1549 18.2 94.3069 17.336 94.6109 16.6C94.9149 15.864 95.3229 15.248 95.8349 14.752C96.3629 14.256 96.9709 13.888 97.6589 13.648C98.3469 13.408 99.0749 13.288 99.8429 13.288C100.627 13.288 101.347 13.416 102.003 13.672C102.659 13.912 103.219 14.256 103.683 14.704C104.147 15.136 104.507 15.664 104.763 16.288C105.035 16.896 105.171 17.56 105.171 18.28C105.171 18.728 105.051 19.064 104.811 19.288C104.587 19.512 104.267 19.656 103.851 19.72L97.1789 20.68ZM99.8429 15.568C99.0589 15.568 98.4029 15.832 97.8749 16.36C97.3469 16.872 97.0509 17.608 96.9869 18.568L102.315 17.776C102.251 17.184 102.019 16.672 101.619 16.24C101.219 15.792 100.627 15.568 99.8429 15.568ZM118.063 22.792C118.063 23.16 117.983 23.456 117.823 23.68C117.663 23.904 117.423 24.12 117.103 24.328C116.703 24.584 116.175 24.816 115.519 25.024C114.863 25.248 114.103 25.36 113.239 25.36C111.319 25.36 109.791 24.872 108.655 23.896C107.535 22.904 106.975 21.392 106.975 19.36C106.975 18.304 107.127 17.4 107.431 16.648C107.735 15.88 108.143 15.248 108.655 14.752C109.183 14.256 109.799 13.888 110.503 13.648C111.207 13.408 111.967 13.288 112.783 13.288C113.215 13.288 113.623 13.336 114.007 13.432C114.391 13.512 114.735 13.616 115.039 13.744V9.4C115.167 9.352 115.351 9.312 115.591 9.28C115.847 9.232 116.119 9.208 116.407 9.208C116.983 9.208 117.399 9.312 117.655 9.52C117.927 9.728 118.063 10.096 118.063 10.624V22.792ZM115.039 16.192C114.799 16.048 114.519 15.928 114.199 15.832C113.879 15.736 113.535 15.688 113.167 15.688C112.271 15.688 111.527 15.976 110.935 16.552C110.343 17.128 110.047 18.072 110.047 19.384C110.047 20.616 110.327 21.52 110.887 22.096C111.463 22.656 112.239 22.936 113.215 22.936C113.631 22.936 113.983 22.888 114.271 22.792C114.575 22.696 114.831 22.584 115.039 22.456V16.192Z" fill="#00FFC8"/>
<path d="M125.728 22.816C126.656 22.816 127.336 22.64 127.768 22.288C128.2 21.92 128.416 21.464 128.416 20.92C128.416 20.424 128.248 20.032 127.912 19.744C127.576 19.44 127.064 19.184 126.376 18.976L124.84 18.496C124.232 18.304 123.68 18.088 123.184 17.848C122.688 17.608 122.264 17.328 121.912 17.008C121.56 16.672 121.288 16.288 121.096 15.856C120.904 15.408 120.808 14.88 120.808 14.272C120.808 12.976 121.296 11.952 122.272 11.2C123.248 10.432 124.584 10.048 126.28 10.048C126.952 10.048 127.568 10.104 128.128 10.216C128.704 10.312 129.2 10.456 129.616 10.648C130.032 10.824 130.352 11.048 130.576 11.32C130.816 11.592 130.936 11.896 130.936 12.232C130.936 12.552 130.856 12.832 130.696 13.072C130.552 13.296 130.368 13.48 130.144 13.624C129.76 13.352 129.248 13.12 128.608 12.928C127.984 12.72 127.296 12.616 126.544 12.616C125.712 12.616 125.08 12.768 124.648 13.072C124.216 13.36 124 13.76 124 14.272C124 14.688 124.144 15.008 124.432 15.232C124.736 15.456 125.208 15.672 125.848 15.88L127.216 16.312C128.608 16.728 129.688 17.296 130.456 18.016C131.224 18.736 131.608 19.712 131.608 20.944C131.608 21.6 131.48 22.2 131.224 22.744C130.968 23.288 130.592 23.76 130.096 24.16C129.616 24.544 129.008 24.84 128.272 25.048C127.552 25.272 126.728 25.384 125.8 25.384C125.064 25.384 124.384 25.32 123.76 25.192C123.152 25.064 122.624 24.896 122.176 24.688C121.728 24.464 121.376 24.208 121.12 23.92C120.88 23.616 120.76 23.288 120.76 22.936C120.76 22.568 120.864 22.256 121.072 22C121.296 21.728 121.552 21.528 121.84 21.4C122.24 21.752 122.768 22.08 123.424 22.384C124.08 22.672 124.848 22.816 125.728 22.816ZM135.63 22.264C135.246 21.464 134.79 20.384 134.262 19.024C133.734 17.664 133.206 16.016 132.678 14.08C132.838 13.888 133.062 13.728 133.35 13.6C133.638 13.456 133.95 13.384 134.286 13.384C134.702 13.384 135.038 13.48 135.294 13.672C135.566 13.864 135.782 14.208 135.942 14.704C136.694 17.12 137.55 19.568 138.51 22.048H138.606C138.814 21.52 139.03 20.92 139.254 20.248C139.494 19.576 139.718 18.872 139.926 18.136C140.15 17.4 140.358 16.656 140.55 15.904C140.742 15.152 140.91 14.424 141.054 13.72C141.246 13.624 141.446 13.544 141.654 13.48C141.878 13.416 142.11 13.384 142.35 13.384C142.766 13.384 143.126 13.48 143.43 13.672C143.734 13.864 143.886 14.176 143.886 14.608C143.886 15.088 143.782 15.768 143.574 16.648C143.366 17.512 143.086 18.448 142.734 19.456C142.398 20.448 142.014 21.456 141.582 22.48C141.15 23.488 140.718 24.376 140.286 25.144C139.454 26.616 138.694 27.712 138.006 28.432C137.334 29.168 136.67 29.536 136.014 29.536C135.502 29.536 135.086 29.384 134.766 29.08C134.462 28.792 134.27 28.424 134.19 27.976C134.446 27.752 134.718 27.488 135.006 27.184C135.294 26.896 135.582 26.584 135.87 26.248C136.158 25.912 136.43 25.568 136.686 25.216C136.942 24.864 137.166 24.52 137.358 24.184C137.214 24.136 137.07 24.08 136.926 24.016C136.798 23.936 136.662 23.824 136.518 23.68C136.39 23.536 136.246 23.352 136.086 23.128C135.942 22.904 135.79 22.616 135.63 22.264ZM153.477 17.68C153.477 16.992 153.277 16.488 152.877 16.168C152.493 15.848 151.965 15.688 151.293 15.688C150.829 15.688 150.397 15.744 149.997 15.856C149.613 15.968 149.277 16.112 148.989 16.288V24.976C148.845 25.008 148.653 25.048 148.413 25.096C148.173 25.144 147.901 25.168 147.597 25.168C147.037 25.168 146.621 25.064 146.349 24.856C146.077 24.648 145.941 24.28 145.941 23.752V16.048C145.941 15.664 146.021 15.352 146.181 15.112C146.341 14.872 146.589 14.64 146.925 14.416C147.389 14.096 148.005 13.832 148.773 13.624C149.541 13.4 150.389 13.288 151.317 13.288C152.965 13.288 154.237 13.656 155.133 14.392C156.045 15.112 156.501 16.176 156.501 17.584V24.976C156.373 25.008 156.181 25.048 155.925 25.096C155.685 25.144 155.421 25.168 155.133 25.168C154.557 25.168 154.133 25.064 153.861 24.856C153.605 24.648 153.477 24.28 153.477 23.752V17.68ZM165.438 15.712C164.958 15.712 164.51 15.792 164.094 15.952C163.694 16.112 163.342 16.344 163.038 16.648C162.75 16.952 162.518 17.328 162.342 17.776C162.166 18.224 162.078 18.744 162.078 19.336C162.078 20.52 162.39 21.416 163.014 22.024C163.638 22.616 164.446 22.912 165.438 22.912C165.998 22.912 166.478 22.84 166.878 22.696C167.294 22.536 167.662 22.368 167.982 22.192C168.206 22.352 168.382 22.536 168.51 22.744C168.654 22.952 168.726 23.192 168.726 23.464C168.726 24.008 168.406 24.456 167.766 24.808C167.126 25.16 166.262 25.336 165.174 25.336C164.262 25.336 163.422 25.216 162.654 24.976C161.902 24.72 161.254 24.344 160.71 23.848C160.166 23.336 159.742 22.704 159.438 21.952C159.15 21.2 159.006 20.328 159.006 19.336C159.006 18.328 159.166 17.448 159.486 16.696C159.806 15.928 160.238 15.296 160.782 14.8C161.342 14.288 161.99 13.912 162.726 13.672C163.462 13.416 164.246 13.288 165.078 13.288C166.15 13.288 167.006 13.48 167.646 13.864C168.286 14.232 168.606 14.688 168.606 15.232C168.606 15.488 168.534 15.72 168.39 15.928C168.262 16.136 168.11 16.304 167.934 16.432C167.614 16.256 167.254 16.096 166.854 15.952C166.47 15.792 165.998 15.712 165.438 15.712Z" fill="#00D5FF"/>
</svg>
