<svg width="281" height="242" viewBox="0 0 281 242" fill="none" xmlns="http://www.w3.org/2000/svg">
<path d="M189.8 47.4844H9.47156V225.7H189.8V47.4844Z" fill="white" stroke="#263238" stroke-linecap="round" stroke-linejoin="round"/>
<path d="M92.959 66.251H81.635V79.1477H92.959V66.251Z" fill="white" stroke="#263238" stroke-linecap="round" stroke-linejoin="round"/>
<path d="M88.9825 66.251H81.635V79.1477H88.9825V66.251Z" fill="white" stroke="#263238" stroke-linecap="round" stroke-linejoin="round"/>
<path d="M88.0685 71.729H82.46V77.7827H88.0685V71.729Z" fill="#0D7377" stroke="#263238" stroke-linecap="round" stroke-linejoin="round"/>
<path d="M83.3918 66.251H72.0679V79.1477H83.3918V66.251Z" fill="white" stroke="#263238" stroke-linecap="round" stroke-linejoin="round"/>
<path d="M79.4154 66.251H72.0679V79.1477H79.4154V66.251Z" fill="white" stroke="#263238" stroke-linecap="round" stroke-linejoin="round"/>
<path d="M78.5014 71.729H72.8928V77.7827H78.5014V71.729Z" fill="#0D7377" stroke="#263238" stroke-linecap="round" stroke-linejoin="round"/>
<path d="M74.3172 60.1675H62.9933V79.1476H74.3172V60.1675Z" fill="#0D7377" stroke="#263238" stroke-linecap="round" stroke-linejoin="round"/>
<path d="M70.3408 60.1675H62.9933V79.1476H70.3408V60.1675Z" fill="white" stroke="#263238" stroke-linecap="round" stroke-linejoin="round"/>
<path d="M69.4268 68.2329H63.8182V77.1413H69.4268V68.2329Z" fill="#0D7377" stroke="#263238" stroke-linecap="round" stroke-linejoin="round"/>
<path d="M64.75 60.1675H53.426V79.1476H64.75V60.1675Z" fill="#0D7377" stroke="#263238" stroke-linecap="round" stroke-linejoin="round"/>
<path d="M60.7735 60.1675H53.426V79.1476H60.7735V60.1675Z" fill="#0D7377" stroke="#263238" stroke-linecap="round" stroke-linejoin="round"/>
<path d="M59.8595 68.2329H54.251V77.1413H59.8595V68.2329Z" fill="white" stroke="#263238" stroke-linecap="round" stroke-linejoin="round"/>
<path d="M56.3342 66.251H45.0103V79.1477H56.3342V66.251Z" fill="white" stroke="#263238" stroke-linecap="round" stroke-linejoin="round"/>
<path d="M52.3578 66.251H45.0103V79.1477H52.3578V66.251Z" fill="white" stroke="#263238" stroke-linecap="round" stroke-linejoin="round"/>
<path d="M51.4438 71.729H45.8352V77.7827H51.4438V71.729Z" fill="#0D7377" stroke="#263238" stroke-linecap="round" stroke-linejoin="round"/>
<path d="M46.7671 66.251H35.4431V79.1477H46.7671V66.251Z" fill="white" stroke="#263238" stroke-linecap="round" stroke-linejoin="round"/>
<path d="M42.7906 66.251H35.4431V79.1477H42.7906V66.251Z" fill="white" stroke="#263238" stroke-linecap="round" stroke-linejoin="round"/>
<path d="M41.8766 71.729H36.2681V77.7827H41.8766V71.729Z" fill="#0D7377" stroke="#263238" stroke-linecap="round" stroke-linejoin="round"/>
<path d="M37.6924 60.1675H26.3684V79.1476H37.6924V60.1675Z" fill="white" stroke="#263238" stroke-linecap="round" stroke-linejoin="round"/>
<path d="M33.7159 60.1675H26.3684V79.1476H33.7159V60.1675Z" fill="white" stroke="#263238" stroke-linecap="round" stroke-linejoin="round"/>
<path d="M32.8019 68.2329H27.1934V77.1413H32.8019V68.2329Z" fill="#0D7377" stroke="#263238" stroke-linecap="round" stroke-linejoin="round"/>
<path d="M28.1252 60.1675H16.8013V79.1476H28.1252V60.1675Z" fill="white" stroke="#263238" stroke-linecap="round" stroke-linejoin="round"/>
<path d="M24.1488 60.1675H16.8013V79.1476H24.1488V60.1675Z" fill="white" stroke="#263238" stroke-linecap="round" stroke-linejoin="round"/>
<path d="M23.2348 68.2329H17.6262V77.1413H23.2348V68.2329Z" fill="#0D7377" stroke="#263238" stroke-linecap="round" stroke-linejoin="round"/>
<path d="M181.052 66.251H169.728V79.1477H181.052V66.251Z" fill="white" stroke="#263238" stroke-linecap="round" stroke-linejoin="round"/>
<path d="M177.075 66.251H169.728V79.1477H177.075V66.251Z" fill="white" stroke="#263238" stroke-linecap="round" stroke-linejoin="round"/>
<path d="M176.162 71.729H170.553V77.7827H176.162V71.729Z" fill="#0D7377" stroke="#263238" stroke-linecap="round" stroke-linejoin="round"/>
<path d="M171.485 66.251H160.161V79.1477H171.485V66.251Z" fill="white" stroke="#263238" stroke-linecap="round" stroke-linejoin="round"/>
<path d="M167.508 66.251H160.161V79.1477H167.508V66.251Z" fill="white" stroke="#263238" stroke-linecap="round" stroke-linejoin="round"/>
<path d="M166.594 71.729H160.986V77.7827H166.594V71.729Z" fill="#0D7377" stroke="#263238" stroke-linecap="round" stroke-linejoin="round"/>
<path d="M162.41 60.1675H151.086V79.1476H162.41V60.1675Z" fill="#0D7377" stroke="#263238" stroke-linecap="round" stroke-linejoin="round"/>
<path d="M158.434 60.1675H151.086V79.1476H158.434V60.1675Z" fill="white" stroke="#263238" stroke-linecap="round" stroke-linejoin="round"/>
<path d="M157.52 68.2329H151.911V77.1413H157.52V68.2329Z" fill="#0D7377" stroke="#263238" stroke-linecap="round" stroke-linejoin="round"/>
<path d="M152.843 60.1675H141.519V79.1476H152.843V60.1675Z" fill="#0D7377" stroke="#263238" stroke-linecap="round" stroke-linejoin="round"/>
<path d="M148.867 60.1675H141.519V79.1476H148.867V60.1675Z" fill="#0D7377" stroke="#263238" stroke-linecap="round" stroke-linejoin="round"/>
<path d="M147.953 68.2329H142.344V77.1413H147.953V68.2329Z" fill="white" stroke="#263238" stroke-linecap="round" stroke-linejoin="round"/>
<path d="M144.433 66.251H133.109V79.1477H144.433V66.251Z" fill="white" stroke="#263238" stroke-linecap="round" stroke-linejoin="round"/>
<path d="M140.457 66.251H133.109V79.1477H140.457V66.251Z" fill="white" stroke="#263238" stroke-linecap="round" stroke-linejoin="round"/>
<path d="M139.537 71.729H133.928V77.7827H139.537V71.729Z" fill="#0D7377" stroke="#263238" stroke-linecap="round" stroke-linejoin="round"/>
<path d="M134.86 66.251H123.536V79.1477H134.86V66.251Z" fill="white" stroke="#263238" stroke-linecap="round" stroke-linejoin="round"/>
<path d="M130.884 66.251H123.536V79.1477H130.884V66.251Z" fill="white" stroke="#263238" stroke-linecap="round" stroke-linejoin="round"/>
<path d="M129.97 71.729H124.361V77.7827H129.97V71.729Z" fill="#0D7377" stroke="#263238" stroke-linecap="round" stroke-linejoin="round"/>
<path d="M125.791 60.1675H114.467V79.1476H125.791V60.1675Z" fill="white" stroke="#263238" stroke-linecap="round" stroke-linejoin="round"/>
<path d="M121.815 60.1675H114.467V79.1476H121.815V60.1675Z" fill="white" stroke="#263238" stroke-linecap="round" stroke-linejoin="round"/>
<path d="M120.895 68.2329H115.286V77.1413H120.895V68.2329Z" fill="#0D7377" stroke="#263238" stroke-linecap="round" stroke-linejoin="round"/>
<path d="M116.218 60.1675H104.894V79.1476H116.218V60.1675Z" fill="white" stroke="#263238" stroke-linecap="round" stroke-linejoin="round"/>
<path d="M112.242 60.1675H104.894V79.1476H112.242V60.1675Z" fill="white" stroke="#263238" stroke-linecap="round" stroke-linejoin="round"/>
<path d="M111.328 68.2329H105.719V77.1413H111.328V68.2329Z" fill="#0D7377" stroke="#263238" stroke-linecap="round" stroke-linejoin="round"/>
<path d="M92.959 166.32H81.635V179.217H92.959V166.32Z" fill="white" stroke="#263238" stroke-linecap="round" stroke-linejoin="round"/>
<path d="M88.9825 166.32H81.635V179.217H88.9825V166.32Z" fill="white" stroke="#263238" stroke-linecap="round" stroke-linejoin="round"/>
<path d="M88.0685 171.799H82.46V177.853H88.0685V171.799Z" fill="#0D7377" stroke="#263238" stroke-linecap="round" stroke-linejoin="round"/>
<path d="M83.3918 166.32H72.0679V179.217H83.3918V166.32Z" fill="white" stroke="#263238" stroke-linecap="round" stroke-linejoin="round"/>
<path d="M79.4154 166.32H72.0679V179.217H79.4154V166.32Z" fill="white" stroke="#263238" stroke-linecap="round" stroke-linejoin="round"/>
<path d="M78.5014 171.799H72.8928V177.853H78.5014V171.799Z" fill="#0D7377" stroke="#263238" stroke-linecap="round" stroke-linejoin="round"/>
<path d="M74.3172 160.237H62.9933V179.217H74.3172V160.237Z" fill="#0D7377" stroke="#263238" stroke-linecap="round" stroke-linejoin="round"/>
<path d="M70.3408 160.237H62.9933V179.217H70.3408V160.237Z" fill="white" stroke="#263238" stroke-linecap="round" stroke-linejoin="round"/>
<path d="M69.4268 168.297H63.8182V177.205H69.4268V168.297Z" fill="#0D7377" stroke="#263238" stroke-linecap="round" stroke-linejoin="round"/>
<path d="M64.75 160.237H53.426V179.217H64.75V160.237Z" fill="#0D7377" stroke="#263238" stroke-linecap="round" stroke-linejoin="round"/>
<path d="M60.7735 160.237H53.426V179.217H60.7735V160.237Z" fill="#0D7377" stroke="#263238" stroke-linecap="round" stroke-linejoin="round"/>
<path d="M59.8595 168.297H54.251V177.205H59.8595V168.297Z" fill="white" stroke="#263238" stroke-linecap="round" stroke-linejoin="round"/>
<path d="M56.3342 166.32H45.0103V179.217H56.3342V166.32Z" fill="white" stroke="#263238" stroke-linecap="round" stroke-linejoin="round"/>
<path d="M52.3578 166.32H45.0103V179.217H52.3578V166.32Z" fill="white" stroke="#263238" stroke-linecap="round" stroke-linejoin="round"/>
<path d="M51.4438 171.799H45.8352V177.853H51.4438V171.799Z" fill="#0D7377" stroke="#263238" stroke-linecap="round" stroke-linejoin="round"/>
<path d="M46.7671 166.32H35.4431V179.217H46.7671V166.32Z" fill="white" stroke="#263238" stroke-linecap="round" stroke-linejoin="round"/>
<path d="M42.7906 166.32H35.4431V179.217H42.7906V166.32Z" fill="white" stroke="#263238" stroke-linecap="round" stroke-linejoin="round"/>
<path d="M41.8766 171.799H36.2681V177.853H41.8766V171.799Z" fill="#0D7377" stroke="#263238" stroke-linecap="round" stroke-linejoin="round"/>
<path d="M37.6924 160.237H26.3684V179.217H37.6924V160.237Z" fill="white" stroke="#263238" stroke-linecap="round" stroke-linejoin="round"/>
<path d="M33.7159 160.237H26.3684V179.217H33.7159V160.237Z" fill="white" stroke="#263238" stroke-linecap="round" stroke-linejoin="round"/>
<path d="M32.8019 168.297H27.1934V177.205H32.8019V168.297Z" fill="#0D7377" stroke="#263238" stroke-linecap="round" stroke-linejoin="round"/>
<path d="M28.1252 160.237H16.8013V179.217H28.1252V160.237Z" fill="white" stroke="#263238" stroke-linecap="round" stroke-linejoin="round"/>
<path d="M24.1488 160.237H16.8013V179.217H24.1488V160.237Z" fill="white" stroke="#263238" stroke-linecap="round" stroke-linejoin="round"/>
<path d="M23.2348 168.297H17.6262V177.205H23.2348V168.297Z" fill="#0D7377" stroke="#263238" stroke-linecap="round" stroke-linejoin="round"/>
<path d="M181.052 166.32H169.728V179.217H181.052V166.32Z" fill="white" stroke="#263238" stroke-linecap="round" stroke-linejoin="round"/>
<path d="M177.075 166.32H169.728V179.217H177.075V166.32Z" fill="white" stroke="#263238" stroke-linecap="round" stroke-linejoin="round"/>
<path d="M176.162 171.799H170.553V177.853H176.162V171.799Z" fill="#0D7377" stroke="#263238" stroke-linecap="round" stroke-linejoin="round"/>
<path d="M171.485 166.32H160.161V179.217H171.485V166.32Z" fill="white" stroke="#263238" stroke-linecap="round" stroke-linejoin="round"/>
<path d="M167.508 166.32H160.161V179.217H167.508V166.32Z" fill="white" stroke="#263238" stroke-linecap="round" stroke-linejoin="round"/>
<path d="M166.594 171.799H160.986V177.853H166.594V171.799Z" fill="#0D7377" stroke="#263238" stroke-linecap="round" stroke-linejoin="round"/>
<path d="M162.41 160.237H151.086V179.217H162.41V160.237Z" fill="#0D7377" stroke="#263238" stroke-linecap="round" stroke-linejoin="round"/>
<path d="M158.434 160.237H151.086V179.217H158.434V160.237Z" fill="white" stroke="#263238" stroke-linecap="round" stroke-linejoin="round"/>
<path d="M157.52 168.297H151.911V177.205H157.52V168.297Z" fill="#0D7377" stroke="#263238" stroke-linecap="round" stroke-linejoin="round"/>
<path d="M152.843 160.237H141.519V179.217H152.843V160.237Z" fill="#0D7377" stroke="#263238" stroke-linecap="round" stroke-linejoin="round"/>
<path d="M148.867 160.237H141.519V179.217H148.867V160.237Z" fill="#0D7377" stroke="#263238" stroke-linecap="round" stroke-linejoin="round"/>
<path d="M147.953 168.297H142.344V177.205H147.953V168.297Z" fill="white" stroke="#263238" stroke-linecap="round" stroke-linejoin="round"/>
<path d="M144.433 166.32H133.109V179.217H144.433V166.32Z" fill="white" stroke="#263238" stroke-linecap="round" stroke-linejoin="round"/>
<path d="M140.457 166.32H133.109V179.217H140.457V166.32Z" fill="white" stroke="#263238" stroke-linecap="round" stroke-linejoin="round"/>
<path d="M139.537 171.799H133.928V177.853H139.537V171.799Z" fill="#0D7377" stroke="#263238" stroke-linecap="round" stroke-linejoin="round"/>
<path d="M134.86 166.32H123.536V179.217H134.86V166.32Z" fill="white" stroke="#263238" stroke-linecap="round" stroke-linejoin="round"/>
<path d="M130.884 166.32H123.536V179.217H130.884V166.32Z" fill="white" stroke="#263238" stroke-linecap="round" stroke-linejoin="round"/>
<path d="M129.97 171.799H124.361V177.853H129.97V171.799Z" fill="#0D7377" stroke="#263238" stroke-linecap="round" stroke-linejoin="round"/>
<path d="M125.791 160.237H114.467V179.217H125.791V160.237Z" fill="white" stroke="#263238" stroke-linecap="round" stroke-linejoin="round"/>
<path d="M121.815 160.237H114.467V179.217H121.815V160.237Z" fill="white" stroke="#263238" stroke-linecap="round" stroke-linejoin="round"/>
<path d="M120.895 168.297H115.286V177.205H120.895V168.297Z" fill="#0D7377" stroke="#263238" stroke-linecap="round" stroke-linejoin="round"/>
<path d="M116.218 160.237H104.894V179.217H116.218V160.237Z" fill="white" stroke="#263238" stroke-linecap="round" stroke-linejoin="round"/>
<path d="M112.242 160.237H104.894V179.217H112.242V160.237Z" fill="white" stroke="#263238" stroke-linecap="round" stroke-linejoin="round"/>
<path d="M111.328 168.297H105.719V177.205H111.328V168.297Z" fill="#0D7377" stroke="#263238" stroke-linecap="round" stroke-linejoin="round"/>
<path d="M16.8725 98.0625H20.6649C21.5181 98.0625 22.3363 98.4014 22.9395 99.0047C23.5428 99.6079 23.8817 100.426 23.8817 101.279V112.247H13.6676V101.279C13.6676 100.428 14.0049 99.6118 14.6056 99.0089C15.2063 98.4059 16.0214 98.0656 16.8725 98.0625V98.0625Z" fill="#0D7377" stroke="#263238" stroke-linecap="round" stroke-linejoin="round"/>
<path d="M21.0923 94.104H16.8844V98.0626H21.0923V94.104Z" fill="#263238" stroke="#263238" stroke-linecap="round" stroke-linejoin="round"/>
<path d="M21.0923 102.353H14.4926V108.953H21.0923V102.353Z" fill="white" stroke="#263238" stroke-linecap="round" stroke-linejoin="round"/>
<path d="M28.9265 98.0625H32.7189C33.5721 98.0625 34.3903 98.4014 34.9935 99.0047C35.5968 99.6079 35.9357 100.426 35.9357 101.279V112.247H25.7097V101.279C25.7097 100.857 25.7929 100.439 25.9546 100.048C26.1162 99.658 26.3532 99.3034 26.6519 99.0047C26.9506 98.706 27.3052 98.469 27.6955 98.3074C28.0858 98.1457 28.504 98.0625 28.9265 98.0625V98.0625Z" fill="#0D7377" stroke="#263238" stroke-linecap="round" stroke-linejoin="round"/>
<path d="M33.1343 94.104H28.9264V98.0626H33.1343V94.104Z" fill="#263238" stroke="#263238" stroke-linecap="round" stroke-linejoin="round"/>
<path d="M33.1344 102.353H26.5347V108.953H33.1344V102.353Z" fill="white" stroke="#263238" stroke-linecap="round" stroke-linejoin="round"/>
<path d="M40.9685 90.4717H44.7669C45.619 90.4733 46.4356 90.8128 47.0376 91.4159C47.6396 92.019 47.9777 92.8363 47.9777 93.6884V112.247H37.7517V93.6884C37.7517 92.8353 38.0906 92.0171 38.6939 91.4138C39.2971 90.8106 40.1153 90.4717 40.9685 90.4717V90.4717Z" fill="#0D7377" stroke="#263238" stroke-linecap="round" stroke-linejoin="round"/>
<path d="M45.1764 86.5132H40.9685V90.4718H45.1764V86.5132Z" fill="#263238" stroke="#263238" stroke-linecap="round" stroke-linejoin="round"/>
<path d="M45.1765 94.7622H38.5768V108.947H45.1765V94.7622Z" fill="white" stroke="#263238" stroke-linecap="round" stroke-linejoin="round"/>
<path d="M53.0106 98.0625H56.803C57.6562 98.0625 58.4744 98.4014 59.0776 99.0047C59.6809 99.6079 60.0198 100.426 60.0198 101.279V112.247H49.7938V101.279C49.7938 100.426 50.1327 99.6079 50.736 99.0047C51.3392 98.4014 52.1574 98.0625 53.0106 98.0625V98.0625Z" fill="#0D7377" stroke="#263238" stroke-linecap="round" stroke-linejoin="round"/>
<path d="M57.2185 94.104H53.0106V98.0626H57.2185V94.104Z" fill="#263238" stroke="#263238" stroke-linecap="round" stroke-linejoin="round"/>
<path d="M57.2185 102.353H50.6188V108.953H57.2185V102.353Z" fill="white" stroke="#263238" stroke-linecap="round" stroke-linejoin="round"/>
<path d="M65.0527 98.0625H68.8452C69.6983 98.0625 70.5165 98.4014 71.1197 99.0047C71.723 99.6079 72.0619 100.426 72.0619 101.279V112.247H61.8359V101.279C61.8359 100.426 62.1748 99.6079 62.7781 99.0047C63.3814 98.4014 64.1996 98.0625 65.0527 98.0625V98.0625Z" fill="#0D7377" stroke="#263238" stroke-linecap="round" stroke-linejoin="round"/>
<path d="M69.2605 94.104H65.0526V98.0626H69.2605V94.104Z" fill="#263238" stroke="#263238" stroke-linecap="round" stroke-linejoin="round"/>
<path d="M69.2606 102.353H62.6609V108.953H69.2606V102.353Z" fill="white" stroke="#263238" stroke-linecap="round" stroke-linejoin="round"/>
<path d="M77.1007 94.104H80.8932C81.7463 94.104 82.5645 94.4429 83.1678 95.0462C83.771 95.6494 84.11 96.4676 84.11 97.3208V112.253H73.8781V97.3208C73.8781 96.8978 73.9615 96.4791 74.1235 96.0884C74.2855 95.6977 74.523 95.3429 74.8223 95.0441C75.1217 94.7453 75.477 94.5085 75.8679 94.3472C76.2589 94.1859 76.6778 94.1032 77.1007 94.104V94.104Z" fill="#0D7377" stroke="#263238" stroke-linecap="round" stroke-linejoin="round"/>
<path d="M81.3086 90.145H77.1007V94.1037H81.3086V90.145Z" fill="#263238" stroke="#263238" stroke-linecap="round" stroke-linejoin="round"/>
<path d="M81.3027 98.3887H74.703V108.947H81.3027V98.3887Z" fill="white" stroke="#263238" stroke-linecap="round" stroke-linejoin="round"/>
<path d="M109.132 98.0625H112.924C113.777 98.0625 114.596 98.4015 115.199 99.0047C115.802 99.608 116.141 100.426 116.141 101.279V112.247H105.897V101.279C105.897 100.855 105.981 100.436 106.144 100.044C106.307 99.6527 106.545 99.2973 106.846 98.9984C107.146 98.6995 107.503 98.4629 107.895 98.3023C108.288 98.1417 108.708 98.0602 109.132 98.0625V98.0625Z" fill="#0D7377" stroke="#263238" stroke-linecap="round" stroke-linejoin="round"/>
<path d="M113.34 94.104H109.132V98.0626H113.34V94.104Z" fill="#263238" stroke="#263238" stroke-linecap="round" stroke-linejoin="round"/>
<path d="M113.34 102.353H106.74V108.953H113.34V102.353Z" fill="white" stroke="#263238" stroke-linecap="round" stroke-linejoin="round"/>
<path d="M121.174 98.0625H124.966C125.82 98.0625 126.638 98.4014 127.241 99.0047C127.844 99.6079 128.183 100.426 128.183 101.279V112.247H117.957V101.279C117.957 100.426 118.296 99.6079 118.899 99.0047C119.503 98.4014 120.321 98.0625 121.174 98.0625V98.0625Z" fill="#0D7377" stroke="#263238" stroke-linecap="round" stroke-linejoin="round"/>
<path d="M125.382 94.104H121.174V98.0626H125.382V94.104Z" fill="#263238" stroke="#263238" stroke-linecap="round" stroke-linejoin="round"/>
<path d="M125.382 102.353H118.782V108.953H125.382V102.353Z" fill="white" stroke="#263238" stroke-linecap="round" stroke-linejoin="round"/>
<path d="M133.198 90.4717H136.991C137.844 90.4717 138.662 90.8106 139.265 91.4138C139.868 92.0171 140.207 92.8353 140.207 93.6884V112.247H130.005V93.6884C130.005 92.8394 130.341 92.0248 130.939 91.4222C131.537 90.8196 132.349 90.4779 133.198 90.4717V90.4717Z" fill="#0D7377" stroke="#263238" stroke-linecap="round" stroke-linejoin="round"/>
<path d="M137.43 86.5132H133.222V90.4718H137.43V86.5132Z" fill="#263238" stroke="#263238" stroke-linecap="round" stroke-linejoin="round"/>
<path d="M137.43 94.7622H130.83V108.947H137.43V94.7622Z" fill="white" stroke="#263238" stroke-linecap="round" stroke-linejoin="round"/>
<path d="M145.264 98.0625H149.056C149.479 98.0625 149.897 98.1457 150.287 98.3074C150.678 98.469 151.032 98.706 151.331 99.0047C151.63 99.3034 151.867 99.658 152.028 100.048C152.19 100.439 152.273 100.857 152.273 101.279V112.247H142.047V101.279C142.047 100.426 142.386 99.6079 142.989 99.0047C143.593 98.4014 144.411 98.0625 145.264 98.0625V98.0625Z" fill="#0D7377" stroke="#263238" stroke-linecap="round" stroke-linejoin="round"/>
<path d="M149.472 94.104H145.264V98.0626H149.472V94.104Z" fill="#263238" stroke="#263238" stroke-linecap="round" stroke-linejoin="round"/>
<path d="M149.472 102.353H142.872V108.953H149.472V102.353Z" fill="white" stroke="#263238" stroke-linecap="round" stroke-linejoin="round"/>
<path d="M157.306 98.0625H161.093C161.515 98.0625 161.933 98.1457 162.324 98.3074C162.714 98.469 163.068 98.706 163.367 99.0047C163.666 99.3034 163.903 99.658 164.064 100.048C164.226 100.439 164.309 100.857 164.309 101.279V112.247H154.089V101.279C154.089 100.426 154.428 99.6079 155.031 99.0047C155.635 98.4014 156.453 98.0625 157.306 98.0625V98.0625Z" fill="#0D7377" stroke="#263238" stroke-linecap="round" stroke-linejoin="round"/>
<path d="M161.514 94.104H157.306V98.0626H161.514V94.104Z" fill="#263238" stroke="#263238" stroke-linecap="round" stroke-linejoin="round"/>
<path d="M161.514 102.353H154.914V108.953H161.514V102.353Z" fill="white" stroke="#263238" stroke-linecap="round" stroke-linejoin="round"/>
<path d="M169.348 94.104H173.141C173.994 94.104 174.812 94.4429 175.415 95.0462C176.018 95.6494 176.357 96.4676 176.357 97.3208V112.253H166.131V97.3208C166.131 96.4676 166.47 95.6494 167.074 95.0462C167.677 94.4429 168.495 94.104 169.348 94.104V94.104Z" fill="#0D7377" stroke="#263238" stroke-linecap="round" stroke-linejoin="round"/>
<path d="M173.556 90.145H169.348V94.1037H173.556V90.145Z" fill="#263238" stroke="#263238" stroke-linecap="round" stroke-linejoin="round"/>
<path d="M173.556 98.3887H166.956V108.947H173.556V98.3887Z" fill="white" stroke="#263238" stroke-linecap="round" stroke-linejoin="round"/>
<path d="M16.8725 198.987H20.6649C21.5181 198.987 22.3363 199.326 22.9395 199.929C23.5428 200.532 23.8817 201.35 23.8817 202.204V213.171H13.6676V202.204C13.6676 201.352 14.0049 200.536 14.6056 199.933C15.2063 199.33 16.0214 198.99 16.8725 198.987V198.987Z" fill="#0D7377" stroke="#263238" stroke-linecap="round" stroke-linejoin="round"/>
<path d="M21.0923 195.028H16.8844V198.986H21.0923V195.028Z" fill="#263238" stroke="#263238" stroke-linecap="round" stroke-linejoin="round"/>
<path d="M21.0923 203.272H14.4926V209.872H21.0923V203.272Z" fill="white" stroke="#263238" stroke-linecap="round" stroke-linejoin="round"/>
<path d="M28.9265 198.987H32.7189C33.5721 198.987 34.3903 199.326 34.9935 199.929C35.5968 200.532 35.9357 201.35 35.9357 202.204V213.171H25.7097V202.204C25.7097 201.781 25.7929 201.363 25.9546 200.973C26.1162 200.582 26.3532 200.228 26.6519 199.929C26.9506 199.63 27.3052 199.393 27.6955 199.232C28.0858 199.07 28.504 198.987 28.9265 198.987V198.987Z" fill="#0D7377" stroke="#263238" stroke-linecap="round" stroke-linejoin="round"/>
<path d="M33.1343 195.028H28.9264V198.986H33.1343V195.028Z" fill="#263238" stroke="#263238" stroke-linecap="round" stroke-linejoin="round"/>
<path d="M33.1344 203.272H26.5347V209.872H33.1344V203.272Z" fill="white" stroke="#263238" stroke-linecap="round" stroke-linejoin="round"/>
<path d="M40.9685 191.396H44.7669C45.62 191.396 46.4382 191.735 47.0415 192.338C47.6447 192.941 47.9836 193.76 47.9836 194.613V213.171H37.7517V194.613C37.7517 193.76 38.0906 192.941 38.6939 192.338C39.2971 191.735 40.1153 191.396 40.9685 191.396V191.396Z" fill="#0D7377" stroke="#263238" stroke-linecap="round" stroke-linejoin="round"/>
<path d="M45.1764 187.437H40.9685V191.396H45.1764V187.437Z" fill="#263238" stroke="#263238" stroke-linecap="round" stroke-linejoin="round"/>
<path d="M45.1765 195.687H38.5768V209.872H45.1765V195.687Z" fill="white" stroke="#263238" stroke-linecap="round" stroke-linejoin="round"/>
<path d="M53.0106 198.987H56.803C57.6562 198.987 58.4744 199.326 59.0776 199.929C59.6809 200.532 60.0198 201.35 60.0198 202.204V213.171H49.7938V202.204C49.7938 201.35 50.1327 200.532 50.736 199.929C51.3392 199.326 52.1574 198.987 53.0106 198.987V198.987Z" fill="#0D7377" stroke="#263238" stroke-linecap="round" stroke-linejoin="round"/>
<path d="M57.2185 195.028H53.0106V198.986H57.2185V195.028Z" fill="#263238" stroke="#263238" stroke-linecap="round" stroke-linejoin="round"/>
<path d="M57.2185 203.272H50.6188V209.872H57.2185V203.272Z" fill="white" stroke="#263238" stroke-linecap="round" stroke-linejoin="round"/>
<path d="M65.0527 198.987H68.8452C69.6983 198.987 70.5165 199.326 71.1197 199.929C71.723 200.532 72.0619 201.35 72.0619 202.204V213.171H61.8359V202.204C61.8359 201.35 62.1748 200.532 62.7781 199.929C63.3814 199.326 64.1996 198.987 65.0527 198.987V198.987Z" fill="#0D7377" stroke="#263238" stroke-linecap="round" stroke-linejoin="round"/>
<path d="M69.2605 195.028H65.0526V198.986H69.2605V195.028Z" fill="#263238" stroke="#263238" stroke-linecap="round" stroke-linejoin="round"/>
<path d="M69.2606 203.272H62.6609V209.872H69.2606V203.272Z" fill="white" stroke="#263238" stroke-linecap="round" stroke-linejoin="round"/>
<path d="M77.1007 195.028H80.8932C81.7463 195.028 82.5645 195.367 83.1678 195.97C83.771 196.573 84.11 197.391 84.11 198.245V213.177H73.8781V198.245C73.8781 197.822 73.9615 197.403 74.1235 197.012C74.2855 196.622 74.523 196.267 74.8223 195.968C75.1217 195.669 75.477 195.432 75.8679 195.271C76.2589 195.11 76.6778 195.027 77.1007 195.028V195.028Z" fill="#0D7377" stroke="#263238" stroke-linecap="round" stroke-linejoin="round"/>
<path d="M81.3086 191.069H77.1007V195.028H81.3086V191.069Z" fill="#263238" stroke="#263238" stroke-linecap="round" stroke-linejoin="round"/>
<path d="M81.3027 199.313H74.703V209.871H81.3027V199.313Z" fill="white" stroke="#263238" stroke-linecap="round" stroke-linejoin="round"/>
<path d="M109.132 198.987H112.924C113.777 198.987 114.596 199.326 115.199 199.929C115.802 200.532 116.141 201.35 116.141 202.204V213.171H105.897V202.204C105.897 201.78 105.981 201.36 106.144 200.968C106.307 200.577 106.545 200.222 106.846 199.923C107.146 199.624 107.503 199.387 107.895 199.227C108.288 199.066 108.708 198.985 109.132 198.987V198.987Z" fill="#0D7377" stroke="#263238" stroke-linecap="round" stroke-linejoin="round"/>
<path d="M113.34 195.028H109.132V198.986H113.34V195.028Z" fill="#263238" stroke="#263238" stroke-linecap="round" stroke-linejoin="round"/>
<path d="M113.34 203.272H106.74V209.872H113.34V203.272Z" fill="white" stroke="#263238" stroke-linecap="round" stroke-linejoin="round"/>
<path d="M121.174 198.987H124.966C125.82 198.987 126.638 199.326 127.241 199.929C127.844 200.532 128.183 201.35 128.183 202.204V213.171H117.957V202.204C117.957 201.35 118.296 200.532 118.899 199.929C119.503 199.326 120.321 198.987 121.174 198.987V198.987Z" fill="#0D7377" stroke="#263238" stroke-linecap="round" stroke-linejoin="round"/>
<path d="M125.382 195.028H121.174V198.986H125.382V195.028Z" fill="#263238" stroke="#263238" stroke-linecap="round" stroke-linejoin="round"/>
<path d="M125.382 203.272H118.782V209.872H125.382V203.272Z" fill="white" stroke="#263238" stroke-linecap="round" stroke-linejoin="round"/>
<path d="M133.198 191.396H136.991C137.844 191.396 138.662 191.735 139.265 192.338C139.868 192.941 140.207 193.76 140.207 194.613V213.171H130.005V194.613C130.005 193.764 130.341 192.949 130.939 192.347C131.537 191.744 132.349 191.402 133.198 191.396V191.396Z" fill="#0D7377" stroke="#263238" stroke-linecap="round" stroke-linejoin="round"/>
<path d="M137.43 187.437H133.222V191.396H137.43V187.437Z" fill="#263238" stroke="#263238" stroke-linecap="round" stroke-linejoin="round"/>
<path d="M137.43 195.687H130.83V209.872H137.43V195.687Z" fill="white" stroke="#263238" stroke-linecap="round" stroke-linejoin="round"/>
<path d="M145.264 198.987H149.056C149.479 198.987 149.897 199.07 150.287 199.232C150.678 199.393 151.032 199.63 151.331 199.929C151.63 200.228 151.867 200.582 152.028 200.973C152.19 201.363 152.273 201.781 152.273 202.204V213.171H142.047V202.204C142.047 201.35 142.386 200.532 142.989 199.929C143.593 199.326 144.411 198.987 145.264 198.987V198.987Z" fill="#0D7377" stroke="#263238" stroke-linecap="round" stroke-linejoin="round"/>
<path d="M149.472 195.028H145.264V198.986H149.472V195.028Z" fill="#263238" stroke="#263238" stroke-linecap="round" stroke-linejoin="round"/>
<path d="M149.472 203.272H142.872V209.872H149.472V203.272Z" fill="white" stroke="#263238" stroke-linecap="round" stroke-linejoin="round"/>
<path d="M157.306 198.987H161.093C161.515 198.987 161.933 199.07 162.324 199.232C162.714 199.393 163.068 199.63 163.367 199.929C163.666 200.228 163.903 200.582 164.064 200.973C164.226 201.363 164.309 201.781 164.309 202.204V213.171H154.089V202.204C154.089 201.35 154.428 200.532 155.031 199.929C155.635 199.326 156.453 198.987 157.306 198.987V198.987Z" fill="#0D7377" stroke="#263238" stroke-linecap="round" stroke-linejoin="round"/>
<path d="M161.514 195.028H157.306V198.986H161.514V195.028Z" fill="#263238" stroke="#263238" stroke-linecap="round" stroke-linejoin="round"/>
<path d="M161.514 203.272H154.914V209.872H161.514V203.272Z" fill="white" stroke="#263238" stroke-linecap="round" stroke-linejoin="round"/>
<path d="M169.348 195.028H173.141C173.994 195.028 174.812 195.367 175.415 195.97C176.018 196.573 176.357 197.391 176.357 198.245V213.177H166.131V198.245C166.131 197.391 166.47 196.573 167.074 195.97C167.677 195.367 168.495 195.028 169.348 195.028V195.028Z" fill="#0D7377" stroke="#263238" stroke-linecap="round" stroke-linejoin="round"/>
<path d="M173.556 191.069H169.348V195.028H173.556V191.069Z" fill="#263238" stroke="#263238" stroke-linecap="round" stroke-linejoin="round"/>
<path d="M173.556 199.313H166.956V209.871H173.556V199.313Z" fill="white" stroke="#263238" stroke-linecap="round" stroke-linejoin="round"/>
<path d="M23.941 125.387H14.5341L16.8843 145.578H21.5908L23.941 125.387Z" fill="white" stroke="#263238" stroke-linecap="round" stroke-linejoin="round"/>
<path d="M16.5105 142.367L16.8844 145.578H21.5908L21.9647 142.367H16.5105Z" fill="#263238" stroke="#263238" stroke-linecap="round" stroke-linejoin="round"/>
<path d="M20.9558 129.287H17.0565V138.925H20.9558V129.287Z" fill="#0D7377" stroke="#263238" stroke-linecap="round" stroke-linejoin="round"/>
<path d="M35.4194 125.387H26.0065L28.3627 145.578H33.0632L35.4194 125.387Z" fill="white" stroke="#263238" stroke-linecap="round" stroke-linejoin="round"/>
<path d="M27.9886 142.367L28.3626 145.578H33.0631L33.437 142.367H27.9886Z" fill="#263238" stroke="#263238" stroke-linecap="round" stroke-linejoin="round"/>
<path d="M32.434 129.287H28.5347V138.925H32.434V129.287Z" fill="#0D7377" stroke="#263238" stroke-linecap="round" stroke-linejoin="round"/>
<path d="M46.8916 125.387H37.4788L39.8349 145.578H44.5355L46.8916 125.387Z" fill="white" stroke="#263238" stroke-linecap="round" stroke-linejoin="round"/>
<path d="M39.4611 142.367L39.835 145.578H44.5355L44.9153 142.367H39.4611Z" fill="#263238" stroke="#263238" stroke-linecap="round" stroke-linejoin="round"/>
<path d="M43.9064 129.287H40.0071V138.925H43.9064V129.287Z" fill="#0D7377" stroke="#263238" stroke-linecap="round" stroke-linejoin="round"/>
<path d="M58.364 125.387H48.957L51.3073 145.578H56.0137L58.364 125.387Z" fill="white" stroke="#263238" stroke-linecap="round" stroke-linejoin="round"/>
<path d="M50.9333 142.367L51.3073 145.578H56.0137L56.3876 142.367H50.9333Z" fill="#263238" stroke="#263238" stroke-linecap="round" stroke-linejoin="round"/>
<path d="M55.3787 129.287H51.4794V138.925H55.3787V129.287Z" fill="#0D7377" stroke="#263238" stroke-linecap="round" stroke-linejoin="round"/>
<path d="M71.0826 134.794H61.1356V138.236H71.0826V134.794Z" fill="#263238" stroke="#263238" stroke-linecap="round" stroke-linejoin="round"/>
<path d="M72.5961 138.236H59.6282V145.809H72.5961V138.236Z" fill="#0D7377" stroke="#263238" stroke-linecap="round" stroke-linejoin="round"/>
<path d="M70.7681 139.845H61.4442V144.207H70.7681V139.845Z" fill="white" stroke="#263238" stroke-linecap="round" stroke-linejoin="round"/>
<path d="M85.7717 134.794H75.8247V138.236H85.7717V134.794Z" fill="#263238" stroke="#263238" stroke-linecap="round" stroke-linejoin="round"/>
<path d="M87.2792 138.236H74.3113V145.809H87.2792V138.236Z" fill="#0D7377" stroke="#263238" stroke-linecap="round" stroke-linejoin="round"/>
<path d="M85.4572 139.845H76.1333V144.207H85.4572V139.845Z" fill="white" stroke="#263238" stroke-linecap="round" stroke-linejoin="round"/>
<path d="M115.731 125.387H106.324L108.675 145.578H113.381L115.731 125.387Z" fill="white" stroke="#263238" stroke-linecap="round" stroke-linejoin="round"/>
<path d="M108.301 142.367L108.675 145.578H113.381L113.755 142.367H108.301Z" fill="#263238" stroke="#263238" stroke-linecap="round" stroke-linejoin="round"/>
<path d="M112.746 129.287H108.847V138.925H112.746V129.287Z" fill="#0D7377" stroke="#263238" stroke-linecap="round" stroke-linejoin="round"/>
<path d="M127.21 125.387H117.797L120.153 145.578H124.854L127.21 125.387Z" fill="white" stroke="#263238" stroke-linecap="round" stroke-linejoin="round"/>
<path d="M119.779 142.367L120.153 145.578H124.854L125.227 142.367H119.779Z" fill="#263238" stroke="#263238" stroke-linecap="round" stroke-linejoin="round"/>
<path d="M124.224 129.287H120.325V138.925H124.224V129.287Z" fill="#0D7377" stroke="#263238" stroke-linecap="round" stroke-linejoin="round"/>
<path d="M138.682 125.387H129.275L131.625 145.578H136.332L138.682 125.387Z" fill="white" stroke="#263238" stroke-linecap="round" stroke-linejoin="round"/>
<path d="M131.251 142.367L131.625 145.578H136.332L136.706 142.367H131.251Z" fill="#263238" stroke="#263238" stroke-linecap="round" stroke-linejoin="round"/>
<path d="M135.697 129.287H131.797V138.925H135.697V129.287Z" fill="#0D7377" stroke="#263238" stroke-linecap="round" stroke-linejoin="round"/>
<path d="M150.154 125.387H140.747L143.098 145.578H147.804L150.154 125.387Z" fill="white" stroke="#263238" stroke-linecap="round" stroke-linejoin="round"/>
<path d="M142.724 142.367L143.098 145.578H147.804L148.178 142.367H142.724Z" fill="#263238" stroke="#263238" stroke-linecap="round" stroke-linejoin="round"/>
<path d="M147.169 129.287H143.27V138.925H147.169V129.287Z" fill="#0D7377" stroke="#263238" stroke-linecap="round" stroke-linejoin="round"/>
<path d="M162.873 134.794H152.926V138.236H162.873V134.794Z" fill="#263238" stroke="#263238" stroke-linecap="round" stroke-linejoin="round"/>
<path d="M164.387 138.236H151.419V145.809H164.387V138.236Z" fill="#0D7377" stroke="#263238" stroke-linecap="round" stroke-linejoin="round"/>
<path d="M162.564 139.845H153.241V144.207H162.564V139.845Z" fill="white" stroke="#263238" stroke-linecap="round" stroke-linejoin="round"/>
<path d="M177.562 134.794H167.615V138.236H177.562V134.794Z" fill="#263238" stroke="#263238" stroke-linecap="round" stroke-linejoin="round"/>
<path d="M179.07 138.236H166.102V145.809H179.07V138.236Z" fill="#0D7377" stroke="#263238" stroke-linecap="round" stroke-linejoin="round"/>
<path d="M177.248 139.845H167.924V144.207H177.248V139.845Z" fill="white" stroke="#263238" stroke-linecap="round" stroke-linejoin="round"/>
<path d="M189.634 82.7442V78.4473L10.5043 78.4473V82.7442L189.634 82.7442Z" fill="white" stroke="#263238" stroke-linecap="round" stroke-linejoin="round"/>
<path d="M189.64 116.247V111.95L10.5103 111.95V116.247L189.64 116.247Z" fill="white" stroke="#263238" stroke-linecap="round" stroke-linejoin="round"/>
<path d="M189.634 149.756V145.459H10.5043V149.756H189.634Z" fill="white" stroke="#263238" stroke-linecap="round" stroke-linejoin="round"/>
<path d="M189.634 183.265V178.968H10.5043V183.265H189.634Z" fill="white" stroke="#263238" stroke-linecap="round" stroke-linejoin="round"/>
<path d="M189.64 216.412V212.115H10.5103V216.412H189.64Z" fill="white" stroke="#263238" stroke-linecap="round" stroke-linejoin="round"/>
<path d="M11.3648 53.105H7.06787V226.65H11.3648V53.105Z" fill="white" stroke="#263238" stroke-linecap="round" stroke-linejoin="round"/>
<path d="M101.576 53.105H97.2795V226.65H101.576V53.105Z" fill="white" stroke="#263238" stroke-linecap="round" stroke-linejoin="round"/>
<path d="M191.788 53.105H187.491V226.65H191.788V53.105Z" fill="white" stroke="#263238" stroke-linecap="round" stroke-linejoin="round"/>
<path d="M193.503 35.0625H2.771V53.5322H193.503V35.0625Z" fill="#0D7377" stroke="#263238" stroke-linecap="round" stroke-linejoin="round"/>
<path d="M137.661 35.0625H58.6191V53.5322H137.661V35.0625Z" fill="white" stroke="#263238" stroke-linecap="round" stroke-linejoin="round"/>
<path d="M36.1315 42.1369H32.1372V38.1367H28.0184V42.1369H24.0182V46.2558H28.0184V50.25H32.1372V46.2558H36.1315V42.1369Z" fill="white"/>
<path d="M171.081 42.1369H167.087V38.1367H162.968V42.1369H158.968V46.2558H162.968V50.25H167.087V46.2558H171.081V42.1369Z" fill="white"/>
<path d="M70.9877 37.8994C73.0293 37.8994 73.9018 39.0864 73.9018 41.0746V42.6474C73.9018 44.7068 72.9403 45.7811 70.8749 45.7811H69.5989V50.9089H68.1508V37.8994H70.9877ZM70.8809 44.4694C71.961 44.4694 72.4774 43.9709 72.4774 42.7246V40.9975C72.4774 39.8105 72.05 39.217 70.9936 39.217H69.6048V44.4694H70.8809Z" fill="#0D7377"/>
<path d="M76.5427 45.0214V50.8733H75.0946V37.8994H76.5427V43.7454H79.7358V37.8994H81.1839V50.897H79.7358V45.0214H76.5427Z" fill="#0D7377"/>
<path d="M84.1336 48.2797L83.6351 50.897H82.2997L84.7864 37.8994H86.9052L89.392 50.897H87.9438L87.4453 48.2797H84.1336ZM84.3235 47.0334H87.2198L85.7479 39.5315L84.3235 47.0334Z" fill="#0D7377"/>
<path d="M93.3981 37.8994C95.4457 37.8994 96.2944 38.938 96.2944 40.8669V41.9293C96.2944 43.3596 95.7959 44.2498 94.6801 44.6C95.8671 44.9561 96.3182 45.9176 96.3182 47.3123V49.3361C96.2757 49.8694 96.3632 50.405 96.5734 50.897H95.1074C94.9057 50.3967 94.8243 49.8559 94.87 49.3183V47.2767C94.87 45.8107 94.1816 45.3419 92.9768 45.3419H91.95V50.897H90.5078V37.8994H93.3981ZM93.0302 44.0243C94.1816 44.0243 94.87 43.6563 94.87 42.2438V40.9975C94.87 39.8105 94.4427 39.217 93.3625 39.217H91.95V44.0243H93.0302Z" fill="#0D7377"/>
<path d="M102.609 50.8792H101.22L99.066 40.5345V50.897H97.8019V37.8994H99.8257L101.962 48.2797L104.022 37.8994H106.046V50.897H104.675V40.4455L102.609 50.8792Z" fill="#0D7377"/>
<path d="M109.001 48.2797L108.497 50.897H107.161L109.648 37.8994H111.749L114.236 50.897H112.788L112.283 48.2797H109.001ZM109.185 47.0334H112.081L110.645 39.5315L109.185 47.0334Z" fill="#0D7377"/>
<path d="M121.103 41.0392V42.2262H119.732V40.9799C119.732 39.7929 119.269 39.1044 118.206 39.1044C117.144 39.1044 116.687 39.8107 116.687 40.9799V47.8526C116.687 49.0396 117.168 49.7221 118.206 49.7221C119.245 49.7221 119.732 49.0218 119.732 47.8526V46.1611H121.103V47.7754C121.103 49.7458 120.177 51.0456 118.171 51.0456C116.165 51.0456 115.257 49.7458 115.257 47.7754V41.0392C115.257 39.0688 116.183 37.769 118.171 37.769C120.159 37.769 121.103 39.0866 121.103 41.0392Z" fill="#0D7377"/>
<path d="M124.521 46.2084L121.773 37.8994H123.281L125.305 44.2855L127.346 37.8994H128.717L125.951 46.2084V50.8733H124.521V46.2084Z" fill="#0D7377"/>
<path d="M265.714 51.1523H202.821V144.973H265.714V51.1523Z" stroke="#263238" stroke-linecap="round" stroke-linejoin="round"/>
<path d="M243.203 75.0051L221.724 88.2935C220.631 88.9708 219.414 89.4259 218.144 89.6329C216.875 89.8399 215.577 89.7946 214.324 89.4998C213.072 89.2049 211.89 88.6662 210.846 87.9144C209.802 87.1626 208.917 86.2125 208.24 85.1183V85.1183C206.874 82.9098 206.441 80.2492 207.037 77.7216C207.632 75.1941 209.207 73.0065 211.415 71.64L232.906 58.3456C235.115 56.9794 237.777 56.5463 240.305 57.1418C242.834 57.7372 245.023 59.3123 246.39 61.5208V61.5208C247.067 62.6153 247.521 63.8324 247.727 65.1026C247.933 66.3728 247.887 67.6712 247.591 68.9235C247.295 70.1758 246.755 71.3575 246.002 72.401C245.249 73.4445 244.298 74.3294 243.203 75.0051V75.0051Z" stroke="#263238" stroke-linecap="round" stroke-linejoin="round"/>
<path d="M232.906 58.3457L221.95 65.1294L232.259 81.783L243.215 75.0052C244.309 74.3283 245.259 73.4426 246.01 72.3986C246.762 71.3546 247.3 70.1728 247.595 68.9207C247.89 67.6686 247.935 66.3706 247.729 65.101C247.522 63.8313 247.067 62.6148 246.39 61.521C245.713 60.4271 244.828 59.4772 243.784 58.7257C242.74 57.9741 241.558 57.4355 240.306 57.1407C239.054 56.8458 237.756 56.8005 236.486 57.0073C235.216 57.214 234 57.6688 232.906 58.3457V58.3457Z" stroke="#263238" stroke-linecap="round" stroke-linejoin="round"/>
<path d="M249.429 116.105L225.57 107.796C224.355 107.375 223.235 106.718 222.274 105.863C221.313 105.009 220.53 103.973 219.969 102.815C219.409 101.658 219.082 100.401 219.007 99.1173C218.932 97.8334 219.112 96.5473 219.534 95.3327C219.956 94.1176 220.613 92.9975 221.467 92.0364C222.322 91.0753 223.358 90.2921 224.515 89.7315C225.673 89.1709 226.929 88.844 228.213 88.7694C229.497 88.6948 230.783 88.874 231.998 89.2968L255.857 97.6058C258.31 98.4583 260.324 100.25 261.456 102.588C262.587 104.925 262.745 107.616 261.892 110.069V110.069C261.04 112.522 259.248 114.536 256.911 115.668C254.573 116.8 251.882 116.957 249.429 116.105V116.105Z" stroke="#263238" stroke-linecap="round" stroke-linejoin="round"/>
<path d="M255.856 97.5998L243.684 93.3682L237.256 111.873L249.429 116.105C251.883 116.957 254.575 116.8 256.913 115.668C259.251 114.535 261.043 112.52 261.895 110.066C262.748 107.612 262.59 104.92 261.458 102.582C260.325 100.244 258.31 98.4522 255.856 97.5998V97.5998Z" stroke="#263238" stroke-linecap="round" stroke-linejoin="round"/>
<path d="M252.889 124.354H255.922" stroke="#263238" stroke-linecap="round" stroke-linejoin="round"/>
<path d="M212.104 124.354H249.542" stroke="#263238" stroke-linecap="round" stroke-linejoin="round"/>
<path d="M212.104 131.056H255.922" stroke="#263238" stroke-linecap="round" stroke-linejoin="round"/>
<path d="M219.594 137.762H255.922" stroke="#263238" stroke-linecap="round" stroke-linejoin="round"/>
<path d="M212.104 137.762H215.196" stroke="#263238" stroke-linecap="round" stroke-linejoin="round"/>
<path d="M239.066 115.595H242.004" stroke="#263238" stroke-linecap="round" stroke-linejoin="round"/>
<path d="M210.555 92.9111V115.595H235.298" stroke="#263238" stroke-linecap="round" stroke-linejoin="round"/>
<path d="M252.052 59.1113H249.221" stroke="#263238" stroke-linecap="round" stroke-linejoin="round"/>
<path d="M259.014 95.4868V59.1113H255.399" stroke="#263238" stroke-linecap="round" stroke-linejoin="round"/>
<path d="M226.538 58.8857H210.038V69.7112" stroke="#263238" stroke-linecap="round" stroke-linejoin="round"/>
<path d="M165.484 131.601C163.17 134.153 154.618 134.515 147.116 134.486C139.614 134.456 130.082 130.218 126.895 125.666C123.708 121.114 130.142 111.826 131.269 109.671C132.397 107.517 132.848 96.9349 139.311 93.8309C145.774 90.7269 159.383 92.3412 163.805 95.6114C168.226 98.8816 177.544 104.597 179.064 110.253C180.583 115.909 175.283 115.974 174.832 116.247C174.381 116.52 173.645 116.787 172.506 118.948C172.159 119.579 171.659 120.112 171.051 120.497C170.442 120.882 169.746 121.107 169.028 121.15L165.484 131.601Z" fill="#263238" stroke="#263238" stroke-linecap="round" stroke-linejoin="round"/>
<path d="M172.47 108.526C176.767 109.659 179.592 111.042 177.449 112.55" stroke="#545454" stroke-linecap="round" stroke-linejoin="round"/>
<path d="M155.158 105.559C155.158 105.559 163.633 106.49 170.31 107.98" stroke="#545454" stroke-linecap="round" stroke-linejoin="round"/>
<path d="M151.502 104.17C151.502 104.17 162.381 100.544 172.707 105.007" stroke="#545454" stroke-linecap="round" stroke-linejoin="round"/>
<path d="M164.149 99.1904C164.686 99.3266 165.214 99.4991 165.728 99.7068" stroke="#545454" stroke-linecap="round" stroke-linejoin="round"/>
<path d="M147.597 103.054C147.597 103.054 154.167 98.5493 161.146 98.7748" stroke="#545454" stroke-linecap="round" stroke-linejoin="round"/>
<path d="M130.765 124.812C129.984 125.091 129.173 125.278 128.349 125.37" stroke="#545454" stroke-linecap="round" stroke-linejoin="round"/>
<path d="M150.41 108.912C150.41 108.912 142.599 116.722 137.578 120.906C136.123 122.136 134.518 123.175 132.801 123.998" stroke="#545454" stroke-linecap="round" stroke-linejoin="round"/>
<path d="M145.365 107.238C145.365 107.238 137.275 116.443 130.023 119.209" stroke="#545454" stroke-linecap="round" stroke-linejoin="round"/>
<path d="M219.849 214.477C219.849 214.477 222.644 216.999 223.012 217.718C223.38 218.436 224.751 221.498 224.247 221.575C223.742 221.652 222.526 219.7 222.164 218.881C221.801 218.062 220.383 215.913 220.383 215.913L219.849 214.477Z" fill="white" stroke="#263238" stroke-linecap="round" stroke-linejoin="round"/>
<path d="M218.098 212.703C218.098 212.703 220.027 214.483 220.395 215.201C220.763 215.919 222.484 222.4 222.484 222.4C222.484 222.4 221.653 223.065 221.071 222.745C220.49 222.424 218.454 216.02 218.454 216.02L218.098 212.703Z" fill="white" stroke="#263238" stroke-linecap="round" stroke-linejoin="round"/>
<path d="M213.712 209.907C213.712 209.907 217.238 211.765 218.098 212.703C218.959 213.64 220.324 221.409 220.597 222.121C220.87 222.834 219.238 223.362 218.852 223.047C218.466 222.733 216.881 215.949 216.881 215.949L213.7 210.809L213.712 209.907Z" fill="white" stroke="#263238" stroke-linecap="round" stroke-linejoin="round"/>
<path d="M205.344 209.047L212.015 209.177C212.583 209.19 213.14 209.333 213.644 209.597C214.147 209.861 214.583 210.237 214.917 210.697L217.718 214.59L218.199 222.335C218.203 222.432 218.187 222.529 218.153 222.619C218.118 222.709 218.065 222.792 217.997 222.861C217.929 222.93 217.848 222.984 217.758 223.02C217.668 223.056 217.572 223.074 217.475 223.071C217.325 223.062 217.182 223.007 217.066 222.914C216.949 222.82 216.864 222.693 216.822 222.549L214.881 215.546L212.335 214.359C212.335 214.359 208.436 216.495 208.519 216.899C208.602 217.302 210.786 220.003 211.261 220.62C211.736 221.237 212.893 222.294 212.567 222.881C212.24 223.469 210.264 222.881 209.599 222.448C208.935 222.015 205.308 217.457 203.949 216.513C202.59 215.569 201.13 214.584 201.13 214.584L205.344 209.047Z" fill="white" stroke="#263238" stroke-linecap="round" stroke-linejoin="round"/>
<path d="M204.151 210.839L203.243 215.854L201.724 214.637L204.151 210.839Z" fill="#263238" stroke="#263238" stroke-linecap="round" stroke-linejoin="round"/>
<path d="M175.337 145.97C175.337 145.97 181.337 147.572 182.18 151.489C183.022 155.407 186.732 193.99 186.732 193.99L206.614 206.91L200.596 216.199L181.717 212.489L170.66 144.729L175.337 145.97Z" fill="white" stroke="#263238" stroke-linecap="round" stroke-linejoin="round"/>
<path d="M186.732 193.99C186.732 193.99 184.103 195.379 183.171 196.625" stroke="#263238" stroke-linecap="round" stroke-linejoin="round"/>
<path d="M178.601 154.979L183.907 226.282L116.895 223.552C116.895 223.552 118.782 149.887 119.589 148.308C120.396 146.729 126.901 145.976 132.272 144.29C137.643 142.604 147.223 139.388 147.223 139.388L159.828 139.922C163.354 140.076 177.924 146.884 177.9 147.471" fill="white"/>
<path d="M178.601 154.979L183.907 226.282L116.895 223.552C116.895 223.552 118.782 149.887 119.589 148.308C120.396 146.729 126.901 145.976 132.272 144.29C137.643 142.604 147.223 139.388 147.223 139.388L159.828 139.922C163.354 140.076 177.924 146.884 177.9 147.471" stroke="#263238" stroke-linecap="round" stroke-linejoin="round"/>
<path d="M179.212 169.051H172.559V171.627H179.212V169.051Z" fill="#263238" stroke="#263238" stroke-linecap="round" stroke-linejoin="round"/>
<path d="M140.154 142.278L140.783 168.647L148.356 170.446L144.089 177.176L154.73 206.774" fill="white"/>
<path d="M140.154 142.278L140.783 168.647L148.356 170.446L144.089 177.176L154.73 206.774" stroke="#263238" stroke-linecap="round" stroke-linejoin="round"/>
<path d="M162.737 140.753C162.737 140.753 169.758 155.329 171.758 160.125C173.758 164.92 174.577 166.428 174.577 166.428L169.568 169.894L174.69 173.941L169.9 199.628" fill="white"/>
<path d="M162.737 140.753C162.737 140.753 169.758 155.329 171.758 160.125C173.758 164.92 174.577 166.428 174.577 166.428L169.568 169.894L174.69 173.941L169.9 199.628" stroke="#263238" stroke-linecap="round" stroke-linejoin="round"/>
<path d="M142.694 141.168C142.694 141.168 152.843 168.416 153.644 177.128C154.445 185.841 156.404 225.665 156.404 225.665L169.461 226.258C169.461 226.258 168.974 186.494 166.968 171.704C164.962 156.914 162.107 144.563 161.585 143.074C161.126 141.947 160.528 140.882 159.805 139.904L151.745 138.717L142.694 141.168Z" fill="#14FFEC" stroke="#263238" stroke-linecap="round" stroke-linejoin="round"/>
<path d="M167.597 185.729L162.618 196.008" stroke="#263238" stroke-linecap="round" stroke-linejoin="round"/>
<path d="M165.728 185.729L158.57 200.679" stroke="#263238" stroke-linecap="round" stroke-linejoin="round"/>
<path d="M146.908 129.031C146.908 129.031 146.95 138.308 146.76 139.328C146.57 140.349 143.596 139.981 143.537 141.305C143.478 142.628 147.988 155.127 152.38 158.997C156.772 162.867 158.125 162.332 159.431 159.3C160.737 156.267 161.122 150.308 161.211 148.397C161.247 147.548 161.425 145.43 161.211 144.397C160.903 142.943 160.511 140.866 159.282 140.023L158.814 139.702L159.009 135.15C159.009 135.15 151.525 134.533 146.908 129.031Z" fill="white" stroke="#263238" stroke-linecap="round" stroke-linejoin="round"/>
<path d="M158.808 139.702L159.003 135.15C159.003 135.15 151.525 134.557 146.908 129.031V129.091L147.217 130.515C147.217 130.515 150.125 139.067 159.276 140.011L158.808 139.702Z" fill="#263238" stroke="#263238" stroke-linecap="round" stroke-linejoin="round"/>
<path d="M154.066 106.532C154.066 106.532 145.757 103.968 145.395 102.775C145.033 101.582 145.43 98.6561 144.374 99.214C143.317 99.7719 143.46 103.291 144.884 104.383C146.309 105.475 154.19 106.995 154.73 108.194C155.27 109.392 154.493 110.241 151.84 113.66C149.187 117.078 137.643 122.176 137.59 123.363C137.537 124.55 138.854 128.111 140.908 128.361C142.207 128.474 143.508 128.171 144.623 127.494C146.067 130.239 148.198 132.562 150.807 134.236C154.962 136.771 160.956 137.762 164.594 135.275C166.582 133.91 170.09 127.269 170.357 124.485C170.624 121.702 169.14 118.55 169.17 117.363C169.2 116.176 169.283 114.722 169.283 114.722C169.283 114.722 158.938 108.977 157.52 107.737C156.533 106.965 155.318 106.542 154.066 106.532V106.532Z" fill="white" stroke="#263238" stroke-linecap="round" stroke-linejoin="round"/>
<path d="M152.285 114.698C152.285 114.698 155.253 112.799 158.22 114.289" stroke="#263238" stroke-linecap="round" stroke-linejoin="round"/>
<path d="M163.947 114.425C163.947 114.425 165.841 113.476 167.621 115.648" stroke="#263238" stroke-linecap="round" stroke-linejoin="round"/>
<path d="M162.327 119.547C162.327 119.547 162.096 121.595 162.659 122.064C163.223 122.533 164.392 122.871 163.769 123.732C163.146 124.592 161.223 124.651 160.386 123.583" stroke="#263238" stroke-linecap="round" stroke-linejoin="round"/>
<path d="M164.808 126.865C164.808 126.865 162.38 128.527 158.475 127.031" stroke="#263238" stroke-linecap="round" stroke-linejoin="round"/>
<path d="M156.054 119.173C156.018 119.986 155.526 120.627 154.962 120.598C154.398 120.568 153.959 119.897 153.994 119.084C154.03 118.271 154.517 117.636 155.086 117.66C155.656 117.684 156.09 118.366 156.054 119.173Z" fill="#263238"/>
<path d="M166.482 119.624C166.446 120.438 165.953 121.078 165.39 121.049C164.826 121.019 164.387 120.348 164.422 119.535C164.458 118.722 164.95 118.087 165.514 118.111C166.078 118.135 166.517 118.817 166.482 119.624Z" fill="#263238"/>
<path d="M158.862 115.873L151.687 115.562C150.829 115.525 150.104 116.191 150.067 117.049L149.947 119.818C149.91 120.676 150.575 121.401 151.433 121.438L158.608 121.749C159.466 121.786 160.191 121.121 160.228 120.263L160.348 117.494C160.385 116.636 159.72 115.91 158.862 115.873Z" stroke="#263238" stroke-linecap="round" stroke-linejoin="round"/>
<path d="M169.585 116.343L163.881 116.096C163.023 116.058 162.297 116.724 162.26 117.582L162.14 120.351C162.103 121.209 162.768 121.935 163.626 121.972L169.33 122.219C170.188 122.256 170.914 121.59 170.951 120.732L171.071 117.963C171.108 117.105 170.443 116.38 169.585 116.343Z" stroke="#263238" stroke-linecap="round" stroke-linejoin="round"/>
<path d="M160.392 116.669L162.155 116.746" stroke="#263238" stroke-linecap="round" stroke-linejoin="round"/>
<path d="M150.03 118.135L145.917 117.957" stroke="#263238" stroke-linecap="round" stroke-linejoin="round"/>
<path d="M153.431 205.557C153.431 205.557 157.745 205.367 159.277 204.685C160.808 204.002 171.598 201.124 172.15 201.308C173.991 202.067 175.776 202.958 177.491 203.973C178.363 204.614 180.239 209.724 180.951 211.747C181.038 211.971 181.035 212.22 180.942 212.442C180.849 212.663 180.673 212.84 180.453 212.934V212.934C180.246 213.03 180.012 213.047 179.793 212.983C179.575 212.918 179.387 212.777 179.266 212.584L177.711 210.092L178.832 214.756C178.894 215.001 178.86 215.26 178.738 215.48C178.616 215.701 178.414 215.867 178.174 215.943V215.943C177.983 216.006 177.778 216.009 177.585 215.953C177.392 215.897 177.221 215.784 177.093 215.629L173.437 211.112L171.657 209.332L175.396 216.276C175.464 216.403 175.5 216.545 175.503 216.689C175.506 216.833 175.474 216.976 175.411 217.105C175.348 217.235 175.255 217.348 175.14 217.435C175.025 217.522 174.891 217.58 174.749 217.605C174.608 217.629 174.463 217.619 174.326 217.577C174.188 217.535 174.063 217.461 173.96 217.362C172.885 216.317 169.562 213.083 169.271 212.614C168.673 211.904 168.011 211.251 167.295 210.661L170.927 217.558C170.994 217.653 171.039 217.762 171.059 217.877C171.08 217.992 171.075 218.11 171.046 218.222C171.017 218.335 170.963 218.44 170.889 218.53C170.816 218.621 170.723 218.694 170.618 218.745H170.565C169.33 218.792 168.707 217.914 167.823 217.047L164.001 213.308C164.001 213.308 158.143 214.549 156.475 214.104C154.807 213.658 151.003 210.685 151.003 210.685L153.431 205.557Z" fill="white" stroke="#263238" stroke-linecap="round" stroke-linejoin="round"/>
<path d="M153.431 205.557L153.264 212.204L150.962 210.691L153.431 205.557Z" fill="#263238" stroke="#263238" stroke-linecap="round" stroke-linejoin="round"/>
<path d="M177.687 210.092L176.375 207.439L171.746 204.056" fill="white"/>
<path d="M177.687 210.092L176.375 207.439L171.746 204.056" stroke="#263238" stroke-linecap="round" stroke-linejoin="round"/>
<path d="M171.615 209.338L169.514 207.142" stroke="#263238" stroke-linecap="round" stroke-linejoin="round"/>
<path d="M125.833 146.694C125.833 146.694 120.04 146.444 118.45 148.623C116.859 150.801 113.156 202.601 113.245 204.851C113.334 207.1 149.039 216.222 149.039 216.222L154.196 205.213L132.872 192.595L134.112 163.157" fill="white"/>
<path d="M125.833 146.694C125.833 146.694 120.04 146.444 118.45 148.623C116.859 150.801 113.156 202.601 113.245 204.851C113.334 207.1 149.039 216.222 149.039 216.222L154.196 205.213L132.872 192.595L134.112 163.157" stroke="#263238" stroke-linecap="round" stroke-linejoin="round"/>
<path d="M123.382 192.892C123.382 192.892 128.972 190.114 132.878 192.595" stroke="#263238" stroke-linecap="round" stroke-linejoin="round"/>
<path d="M125.589 194.643C127.345 193.581 129.354 193.012 131.406 192.993" stroke="#263238" stroke-linecap="round" stroke-linejoin="round"/>
<path d="M122.806 197.391C122.936 197.16 123.085 196.939 123.251 196.732" stroke="#263238" stroke-linecap="round" stroke-linejoin="round"/>
<path d="M261.75 207.925C261.75 207.925 259.097 204.554 259.097 202.507C259.097 200.459 261.145 203.474 261.145 203.474C261.145 203.474 256.812 195.527 257.174 192.275C257.536 189.022 260.783 197.937 260.783 197.937C260.783 197.937 259.702 179.639 261.507 180.239C263.311 180.838 265.602 198.043 265.602 199.141C265.602 200.239 267.163 191.557 268.367 194.085C269.572 196.613 269.554 202.631 269.554 202.631C269.554 202.631 271.121 193.479 272.326 196.613C273.531 199.747 270.89 208.044 270.89 208.044" fill="#0D7377"/>
<path d="M273.911 210.709H259.257V222.87H273.911V210.709Z" stroke="#263238" stroke-linecap="round" stroke-linejoin="round"/>
<path d="M274.029 214.923V208.008H259.192V215.949C259.192 216.422 259.38 216.874 259.714 217.208C260.047 217.542 260.5 217.73 260.973 217.73H261.067C261.54 217.73 261.993 217.542 262.326 217.208C262.66 216.874 262.848 216.422 262.848 215.949V214.946H262.943V215.949C262.943 216.422 263.131 216.874 263.464 217.208C263.798 217.542 264.251 217.73 264.723 217.73H264.818C265.291 217.73 265.743 217.542 266.077 217.208C266.411 216.874 266.599 216.422 266.599 215.949V214.946H266.694V215.949C266.694 216.422 266.881 216.874 267.215 217.208C267.549 217.542 268.002 217.73 268.474 217.73H268.563C269.036 217.73 269.488 217.542 269.822 217.208C270.156 216.874 270.344 216.422 270.344 215.949V214.946H270.439V215.949C270.439 216.422 270.626 216.874 270.96 217.208C271.294 217.542 271.747 217.73 272.219 217.73H272.308C272.781 217.73 273.233 217.542 273.567 217.208C273.901 216.874 274.089 216.422 274.089 215.949V214.946L274.029 214.923Z" fill="white" stroke="#263238" stroke-linecap="round" stroke-linejoin="round"/>
<path d="M95.9325 213.795V208.685H84.7628V213.605L95.9325 213.795Z" fill="#BFBFBF" stroke="#263238" stroke-linecap="round" stroke-linejoin="round"/>
<path d="M84.7629 208.685L83.6293 206.032C85.8437 205.83 88.0759 205.958 90.2527 206.412C92.2744 206.798 94.2028 207.569 95.9325 208.685H84.7629Z" fill="white" stroke="#263238" stroke-linecap="round" stroke-linejoin="round"/>
<path d="M83.6292 206.032C83.6292 206.032 79.8427 206.222 77.7595 208.875C76.4633 210.647 75.6772 212.741 75.4865 214.928L84.7628 213.605V208.685L83.6292 206.032Z" fill="white" stroke="#263238" stroke-linecap="round" stroke-linejoin="round"/>
<path d="M81.7359 210.388V214.169L78.8931 214.358C78.8159 213.313 79.0209 212.265 79.4866 211.326C79.6785 210.918 80.015 210.597 80.4306 210.424C80.8463 210.25 81.3115 210.238 81.7359 210.388V210.388Z" fill="white" stroke="#263238" stroke-linecap="round" stroke-linejoin="round"/>
<path d="M84.3831 224.964H78.5193L74.7328 218.335L82.1159 216.448L84.3831 224.964Z" fill="white" stroke="#263238" stroke-linecap="round" stroke-linejoin="round"/>
<path d="M109.939 217.771L106.153 224.964H84.383L81.1663 218.715L109.939 217.771Z" fill="#A6A6A6" stroke="#263238" stroke-linecap="round" stroke-linejoin="round"/>
<path d="M81.1721 218.721H111.078V213.421H81.1721V218.721Z" fill="#BFBFBF" stroke="#263238" stroke-linecap="round" stroke-linejoin="round"/>
<path d="M81.1662 213.415L74.163 215.878V219.095L81.1662 218.715V213.415Z" fill="white" stroke="#263238" stroke-linecap="round" stroke-linejoin="round"/>
<path d="M158.79 221.51L197.124 220.929L201.053 220.288H241.031L239.719 222.982H157.805L158.79 221.51Z" fill="#263238" stroke="#263238" stroke-linecap="round" stroke-linejoin="round"/>
<path d="M249.399 211.48H200.246L207.136 162.036H256.284L249.399 211.48Z" fill="#263238" stroke="#263238" stroke-linecap="round" stroke-linejoin="round"/>
<path d="M251.595 211.48H202.442L209.332 162.036H258.486L251.595 211.48Z" fill="#3D3D3D" stroke="#263238" stroke-linecap="round" stroke-linejoin="round"/>
<path d="M236.87 196.067H221.457L224.051 177.455H239.464L236.87 196.067Z" fill="#3D3D3D" stroke="#263238" stroke-linecap="round" stroke-linejoin="round"/>
<path d="M224.051 177.455L209.332 162.036H258.486L239.464 177.455H224.051Z" fill="#595959" stroke="#263238" stroke-linecap="round" stroke-linejoin="round"/>
<path d="M221.457 196.067L203.534 211.32L251.595 211.48L236.87 196.067H221.457Z" fill="#2E2E2E" stroke="#263238" stroke-linecap="round" stroke-linejoin="round"/>
<path d="M232.425 199.456C237.519 199.456 241.648 195.326 241.648 190.233C241.648 185.139 237.519 181.01 232.425 181.01C227.331 181.01 223.202 185.139 223.202 190.233C223.202 195.326 227.331 199.456 232.425 199.456Z" fill="#263238" stroke="#263238" stroke-linecap="round" stroke-linejoin="round"/>
<path d="M233.268 185.556H233.861C235.458 185.556 236.988 186.19 238.117 187.319C239.245 188.447 239.88 189.978 239.88 191.574V224.217H227.25V191.574C227.25 189.978 227.884 188.447 229.013 187.319C230.141 186.19 231.672 185.556 233.268 185.556Z" fill="#595959" stroke="#263238" stroke-linecap="round" stroke-linejoin="round"/>
<path d="M239.88 224.21V191.871C239.712 190.463 238.992 189.18 237.879 188.304C236.765 187.427 235.349 187.029 233.942 187.197C232.534 187.364 231.251 188.084 230.375 189.198C229.498 190.311 229.1 191.727 229.268 193.135V224.21H239.88Z" fill="#595959" stroke="#263238" stroke-linecap="round" stroke-linejoin="round"/>
<path d="M235.529 208.038H235.381C234.515 208.038 233.814 208.739 233.814 209.604V214.809C233.814 215.675 234.515 216.376 235.381 216.376H235.529C236.395 216.376 237.096 215.675 237.096 214.809V209.604C237.096 208.739 236.395 208.038 235.529 208.038Z" fill="#263238" stroke="#263238" stroke-linecap="round" stroke-linejoin="round"/>
<path d="M240.129 221.178H216.887V224.211H240.129V221.178Z" fill="#595959" stroke="#263238" stroke-linecap="round" stroke-linejoin="round"/>
<path d="M280 222.946H1.94604V228.252H280V222.946Z" fill="#263238" stroke="#263238" stroke-linecap="round" stroke-linejoin="round"/>
</svg>
