<svg width="255" height="223" viewBox="0 0 255 223" fill="none" xmlns="http://www.w3.org/2000/svg">
<path d="M88.4046 27.1209C90.7478 24.7777 94.5468 24.7777 96.8899 27.1209L101.497 31.728C103.84 34.0711 103.84 37.8701 101.497 40.2133L96.8899 44.8203C94.5468 47.1635 90.7478 47.1635 88.4046 44.8203L83.7976 40.2133C81.4544 37.8701 81.4544 34.0711 83.7975 31.728L88.4046 27.1209Z" fill="#00FFC8"/>
<path d="M164.97 27.1209C162.627 24.7777 158.828 24.7777 156.485 27.1209L151.878 31.728C149.535 34.0711 149.535 37.8701 151.878 40.2133L156.485 44.8203C158.828 47.1635 162.627 47.1635 164.97 44.8203L169.577 40.2133C171.92 37.8701 171.92 34.0711 169.577 31.728L164.97 27.1209Z" fill="#00FFC8"/>
<path d="M130.93 59.8518C128.587 57.5087 124.788 57.5087 122.445 59.8518L117.838 64.4589C115.495 66.8021 115.495 70.6011 117.838 72.9442L122.445 77.5513C124.788 79.8944 128.587 79.8944 130.93 77.5513L135.537 72.9442C137.88 70.6011 137.88 66.8021 135.537 64.4589L130.93 59.8518Z" fill="#00FFC8"/>
<path d="M70.7298 46.7596C73.0729 44.4164 76.8719 44.4164 79.2151 46.7596L80.5491 48.0936C82.8922 50.4367 82.8922 54.2357 80.5491 56.5788L79.2151 57.9128C76.8719 60.256 73.0729 60.256 70.7298 57.9128L69.3958 56.5788C67.0526 54.2357 67.0526 50.4367 69.3958 48.0936L70.7298 46.7596Z" fill="#00FFC8"/>
<path d="M105.425 46.7596C107.768 44.4164 111.567 44.4164 113.91 46.7596L115.244 48.0936C117.587 50.4367 117.587 54.2357 115.244 56.5788L113.91 57.9128C111.567 60.256 107.768 60.256 105.425 57.9128L104.091 56.5788C101.748 54.2357 101.748 50.4367 104.091 48.0936L105.425 46.7596Z" fill="#00FFC8"/>
<path d="M182.902 46.5548C180.576 44.3037 176.883 44.3037 174.557 46.5548L173.038 48.0246C170.602 50.3826 170.602 54.2898 173.038 56.6478L174.557 58.1175C176.883 60.3687 180.576 60.3687 182.902 58.1175L184.421 56.6478C186.858 54.2898 186.858 50.3826 184.421 48.0246L182.902 46.5548Z" fill="#00FFC8"/>
<path d="M148.207 46.5548C145.881 44.3037 142.188 44.3037 139.862 46.5548L138.343 48.0246C135.907 50.3826 135.907 54.2898 138.343 56.6478L139.862 58.1175C142.188 60.3687 145.881 60.3687 148.207 58.1175L149.726 56.6478C152.163 54.2898 152.163 50.3826 149.726 48.0246L148.207 46.5548Z" fill="#00FFC8"/>
<path d="M182.902 12.5146C180.576 10.2634 176.883 10.2634 174.557 12.5146L173.038 13.9843C170.602 16.3423 170.602 20.2495 173.038 22.6075L174.557 24.0773C176.883 26.3284 180.576 26.3284 182.902 24.0773L184.421 22.6075C186.858 20.2495 186.858 16.3423 184.421 13.9843L182.902 12.5146Z" fill="#00D5FF"/>
<path d="M196.073 1.44326C194.062 -0.481087 190.892 -0.481087 188.88 1.44326C186.737 3.49245 186.737 6.91475 188.88 8.96394C190.892 10.8883 194.062 10.8883 196.073 8.96394C198.216 6.91475 198.216 3.49245 196.073 1.44326Z" fill="#00D5FF"/>
<path d="M169.234 95.7084C167.222 93.784 164.052 93.784 162.04 95.7084C159.898 97.7576 159.898 101.18 162.04 103.229C164.052 105.153 167.222 105.153 169.234 103.229C171.376 101.18 171.376 97.7576 169.234 95.7084Z" fill="#00D5FF"/>
<path d="M182.902 80.5949C180.576 78.3437 176.883 78.3437 174.557 80.5949L173.038 82.0646C170.602 84.4226 170.602 88.3298 173.038 90.6878L174.557 92.1576C176.883 94.4088 180.576 94.4088 182.902 92.1576L184.421 90.6878C186.858 88.3298 186.858 84.4226 184.421 82.0646L182.902 80.5949Z" fill="#00D5FF"/>
<path d="M54.3644 59.8518C56.7076 57.5087 60.5066 57.5087 62.8497 59.8518L67.4568 64.4589C69.8 66.8021 69.8 70.6011 67.4568 72.9442L62.8497 77.5513C60.5066 79.8944 56.7076 79.8944 54.3644 77.5513L49.7574 72.9442C47.4142 70.6011 47.4142 66.8021 49.7574 64.4589L54.3644 59.8518Z" fill="#00FFC8"/>
<path d="M199.665 59.8518C197.322 57.5087 193.523 57.5087 191.18 59.8518L186.573 64.4589C184.229 66.8021 184.229 70.6011 186.573 72.9442L191.18 77.5513C193.523 79.8944 197.322 79.8944 199.665 77.5513L204.272 72.9442C206.615 70.6011 206.615 66.8021 204.272 64.4589L199.665 59.8518Z" fill="#00FFC8"/>
<path d="M29.44 181.88C29.0133 182.222 28.4587 182.499 27.776 182.712C27.0933 182.926 26.304 183.032 25.408 183.032C24.2987 183.032 23.36 182.904 22.592 182.648C21.8667 182.35 21.3547 181.838 21.056 181.112C19.3067 176.76 17.8347 173.048 16.64 169.976C15.4453 166.904 14.4853 164.28 13.76 162.104H13.44C13.312 164.963 13.184 167.587 13.056 169.976C12.9707 172.366 12.8853 174.712 12.8 177.016C12.7147 179.278 12.608 181.582 12.48 183.928C12.3947 186.275 12.2667 188.814 12.096 191.544C11.6693 191.672 11.136 191.8 10.496 191.928C9.856 192.056 9.17333 192.12 8.448 192.12C5.58933 192.12 4.16 191.054 4.16 188.92C4.16 188.238 4.18133 187.192 4.224 185.784C4.30933 184.334 4.39467 182.67 4.48 180.792C4.608 178.872 4.736 176.782 4.864 174.52C5.03467 172.259 5.184 169.976 5.312 167.672C5.48267 165.368 5.65333 163.107 5.824 160.888C5.99467 158.627 6.144 156.536 6.272 154.616C6.61333 154.19 7.232 153.763 8.128 153.336C9.06667 152.867 10.2613 152.632 11.712 152.632C13.3333 152.632 14.6347 152.91 15.616 153.464C16.64 153.976 17.408 154.851 17.92 156.088C18.4747 157.411 19.0507 158.862 19.648 160.44C20.288 162.019 20.928 163.64 21.568 165.304C22.208 166.968 22.8267 168.611 23.424 170.232C24.064 171.811 24.6613 173.304 25.216 174.712H25.472C26.9227 170.702 28.352 166.819 29.76 163.064C31.2107 159.31 32.4693 156.131 33.536 153.528C34.048 153.272 34.7093 153.059 35.52 152.888C36.3307 152.718 37.1627 152.632 38.016 152.632C39.5947 152.632 40.8533 152.867 41.792 153.336C42.7307 153.806 43.3067 154.51 43.52 155.448C43.6907 156.259 43.8827 157.56 44.096 159.352C44.3093 161.102 44.5227 163.107 44.736 165.368C44.9493 167.63 45.1627 170.04 45.376 172.6C45.5893 175.16 45.7813 177.635 45.952 180.024C46.1227 182.371 46.272 184.526 46.4 186.488C46.528 188.451 46.6133 189.987 46.656 191.096C46.1013 191.438 45.504 191.694 44.864 191.864C44.2667 192.035 43.52 192.12 42.624 192.12C41.5147 192.12 40.5333 191.907 39.68 191.48C38.8693 191.011 38.4213 190.158 38.336 188.92C38.1653 186.232 38.016 183.608 37.888 181.048C37.76 178.446 37.6533 175.992 37.568 173.688C37.4827 171.384 37.3973 169.272 37.312 167.352C37.2267 165.39 37.1627 163.704 37.12 162.296H36.8C36.1173 164.302 35.1787 166.862 33.984 169.976C32.7893 173.048 31.2747 177.016 29.44 181.88ZM60.874 180.152C61.4713 182.328 62.5807 183.907 64.202 184.888C65.8233 185.87 67.8287 186.36 70.218 186.36C72.01 186.36 73.6527 186.104 75.146 185.592C76.682 185.038 77.9193 184.462 78.858 183.864C79.4553 184.206 79.946 184.675 80.33 185.272C80.714 185.87 80.906 186.51 80.906 187.192C80.906 188.046 80.6073 188.814 80.01 189.496C79.4553 190.136 78.666 190.691 77.642 191.16C76.6607 191.63 75.4873 191.992 74.122 192.248C72.7567 192.504 71.2847 192.632 69.706 192.632C67.1887 192.632 64.8847 192.291 62.794 191.608C60.746 190.926 58.9753 189.902 57.482 188.536C56.0313 187.128 54.8793 185.4 54.026 183.352C53.2153 181.304 52.81 178.915 52.81 176.184C52.81 173.539 53.2153 171.235 54.026 169.272C54.8367 167.31 55.9247 165.667 57.29 164.344C58.698 163.022 60.3193 162.04 62.154 161.4C63.9887 160.76 65.93 160.44 67.978 160.44C70.0687 160.44 71.9887 160.782 73.738 161.464C75.4873 162.104 76.9807 163.022 78.218 164.216C79.4553 165.368 80.4153 166.776 81.098 168.44C81.8233 170.062 82.186 171.832 82.186 173.752C82.186 174.947 81.866 175.843 81.226 176.44C80.6287 177.038 79.7753 177.422 78.666 177.592L60.874 180.152ZM67.978 166.52C65.8873 166.52 64.138 167.224 62.73 168.632C61.322 169.998 60.5327 171.96 60.362 174.52L74.57 172.408C74.3993 170.83 73.7807 169.464 72.714 168.312C71.6473 167.118 70.0687 166.52 67.978 166.52ZM116.566 185.784C116.566 186.766 116.352 187.555 115.926 188.152C115.499 188.75 114.859 189.326 114.006 189.88C112.939 190.563 111.531 191.182 109.782 191.736C108.032 192.334 106.006 192.632 103.702 192.632C98.5815 192.632 94.5068 191.331 91.4775 188.728C88.4908 186.083 86.9975 182.051 86.9975 176.632C86.9975 173.816 87.4028 171.406 88.2135 169.4C89.0242 167.352 90.1122 165.667 91.4775 164.344C92.8855 163.022 94.5282 162.04 96.4055 161.4C98.2828 160.76 100.31 160.44 102.486 160.44C103.638 160.44 104.726 160.568 105.75 160.824C106.774 161.038 107.691 161.315 108.502 161.656V150.072C108.843 149.944 109.334 149.838 109.974 149.752C110.656 149.624 111.382 149.56 112.15 149.56C113.686 149.56 114.795 149.838 115.478 150.392C116.203 150.947 116.566 151.928 116.566 153.336V185.784ZM108.502 168.184C107.862 167.8 107.115 167.48 106.262 167.224C105.408 166.968 104.491 166.84 103.51 166.84C101.12 166.84 99.1362 167.608 97.5575 169.144C95.9788 170.68 95.1895 173.198 95.1895 176.696C95.1895 179.982 95.9362 182.392 97.4295 183.928C98.9655 185.422 101.035 186.168 103.638 186.168C104.747 186.168 105.686 186.04 106.454 185.784C107.264 185.528 107.947 185.23 108.502 184.888V168.184Z" fill="#00FFC8"/>
<path d="M137.006 185.848C139.481 185.848 141.294 185.379 142.446 184.44C143.598 183.459 144.174 182.243 144.174 180.792C144.174 179.47 143.726 178.424 142.83 177.656C141.934 176.846 140.569 176.163 138.734 175.608L134.638 174.328C133.017 173.816 131.545 173.24 130.222 172.6C128.899 171.96 127.769 171.214 126.83 170.36C125.891 169.464 125.166 168.44 124.654 167.288C124.142 166.094 123.886 164.686 123.886 163.064C123.886 159.608 125.187 156.878 127.79 154.872C130.393 152.824 133.955 151.8 138.478 151.8C140.27 151.8 141.913 151.95 143.406 152.248C144.942 152.504 146.265 152.888 147.374 153.4C148.483 153.87 149.337 154.467 149.934 155.192C150.574 155.918 150.894 156.728 150.894 157.624C150.894 158.478 150.681 159.224 150.254 159.864C149.87 160.462 149.379 160.952 148.782 161.336C147.758 160.611 146.393 159.992 144.686 159.48C143.022 158.926 141.187 158.648 139.182 158.648C136.963 158.648 135.278 159.054 134.126 159.864C132.974 160.632 132.398 161.699 132.398 163.064C132.398 164.174 132.782 165.027 133.55 165.624C134.361 166.222 135.619 166.798 137.326 167.352L140.974 168.504C144.686 169.614 147.566 171.128 149.614 173.048C151.662 174.968 152.686 177.571 152.686 180.856C152.686 182.606 152.345 184.206 151.662 185.656C150.979 187.107 149.977 188.366 148.654 189.432C147.374 190.456 145.753 191.246 143.79 191.8C141.87 192.398 139.673 192.696 137.198 192.696C135.235 192.696 133.422 192.526 131.758 192.184C130.137 191.843 128.729 191.395 127.534 190.84C126.339 190.243 125.401 189.56 124.718 188.792C124.078 187.982 123.758 187.107 123.758 186.168C123.758 185.187 124.035 184.355 124.59 183.672C125.187 182.947 125.87 182.414 126.638 182.072C127.705 183.011 129.113 183.886 130.862 184.696C132.611 185.464 134.659 185.848 137.006 185.848ZM163.41 184.376C162.386 182.243 161.17 179.363 159.762 175.736C158.354 172.11 156.946 167.715 155.538 162.552C155.964 162.04 156.562 161.614 157.33 161.272C158.098 160.888 158.93 160.696 159.826 160.696C160.935 160.696 161.831 160.952 162.514 161.464C163.239 161.976 163.815 162.894 164.242 164.216C166.247 170.659 168.53 177.187 171.09 183.8H171.346C171.9 182.392 172.476 180.792 173.074 179C173.714 177.208 174.311 175.331 174.866 173.368C175.463 171.406 176.018 169.422 176.53 167.416C177.042 165.411 177.49 163.47 177.874 161.592C178.386 161.336 178.919 161.123 179.474 160.952C180.071 160.782 180.69 160.696 181.33 160.696C182.439 160.696 183.399 160.952 184.21 161.464C185.02 161.976 185.426 162.808 185.426 163.96C185.426 165.24 185.148 167.054 184.594 169.4C184.039 171.704 183.292 174.2 182.354 176.888C181.458 179.534 180.434 182.222 179.282 184.952C178.13 187.64 176.978 190.008 175.826 192.056C173.607 195.982 171.58 198.904 169.746 200.824C167.954 202.787 166.183 203.768 164.434 203.768C163.068 203.768 161.959 203.363 161.106 202.552C160.295 201.784 159.783 200.803 159.57 199.608C160.252 199.011 160.978 198.307 161.746 197.496C162.514 196.728 163.282 195.896 164.05 195C164.818 194.104 165.543 193.187 166.226 192.248C166.908 191.31 167.506 190.392 168.018 189.496C167.634 189.368 167.25 189.219 166.866 189.048C166.524 188.835 166.162 188.536 165.778 188.152C165.436 187.768 165.052 187.278 164.626 186.68C164.242 186.083 163.836 185.315 163.41 184.376ZM211.003 172.152C211.003 170.318 210.47 168.974 209.403 168.12C208.379 167.267 206.971 166.84 205.179 166.84C203.942 166.84 202.79 166.99 201.723 167.288C200.699 167.587 199.803 167.971 199.035 168.44V191.608C198.651 191.694 198.139 191.8 197.499 191.928C196.859 192.056 196.134 192.12 195.323 192.12C193.83 192.12 192.72 191.843 191.995 191.288C191.27 190.734 190.907 189.752 190.907 188.344V167.8C190.907 166.776 191.12 165.944 191.547 165.304C191.974 164.664 192.635 164.046 193.531 163.448C194.768 162.595 196.411 161.891 198.459 161.336C200.507 160.739 202.768 160.44 205.243 160.44C209.638 160.44 213.03 161.422 215.419 163.384C217.851 165.304 219.067 168.142 219.067 171.896V191.608C218.726 191.694 218.214 191.8 217.531 191.928C216.891 192.056 216.187 192.12 215.419 192.12C213.883 192.12 212.752 191.843 212.027 191.288C211.344 190.734 211.003 189.752 211.003 188.344V172.152ZM242.9 166.904C241.62 166.904 240.425 167.118 239.316 167.544C238.249 167.971 237.31 168.59 236.5 169.4C235.732 170.211 235.113 171.214 234.644 172.408C234.174 173.603 233.94 174.99 233.94 176.568C233.94 179.726 234.772 182.115 236.436 183.736C238.1 185.315 240.254 186.104 242.9 186.104C244.393 186.104 245.673 185.912 246.74 185.528C247.849 185.102 248.83 184.654 249.684 184.184C250.281 184.611 250.75 185.102 251.092 185.656C251.476 186.211 251.668 186.851 251.668 187.576C251.668 189.027 250.814 190.222 249.108 191.16C247.401 192.099 245.097 192.568 242.196 192.568C239.764 192.568 237.524 192.248 235.476 191.608C233.47 190.926 231.742 189.923 230.292 188.6C228.841 187.235 227.71 185.55 226.9 183.544C226.132 181.539 225.748 179.214 225.748 176.568C225.748 173.88 226.174 171.534 227.028 169.528C227.881 167.48 229.033 165.795 230.484 164.472C231.977 163.107 233.705 162.104 235.668 161.464C237.63 160.782 239.721 160.44 241.94 160.44C244.798 160.44 247.081 160.952 248.788 161.976C250.494 162.958 251.348 164.174 251.348 165.624C251.348 166.307 251.156 166.926 250.772 167.48C250.43 168.035 250.025 168.483 249.556 168.824C248.702 168.355 247.742 167.928 246.676 167.544C245.652 167.118 244.393 166.904 242.9 166.904Z" fill="#00D5FF"/>
</svg>
