<svg width="60" height="60" viewBox="0 0 60 60" fill="none" xmlns="http://www.w3.org/2000/svg">
<path d="M6 31.5C6 30.9091 6.1164 30.3239 6.34254 29.7779C6.56869 29.232 6.90016 28.7359 7.31802 28.318C7.73588 27.9002 8.23196 27.5687 8.77792 27.3425C9.32389 27.1164 9.90905 27 10.5 27C11.0909 27 11.6761 27.1164 12.2221 27.3425C12.768 27.5687 13.2641 27.9002 13.682 28.318C14.0998 28.7359 14.4313 29.232 14.6575 29.7779C14.8836 30.3239 15 30.9091 15 31.5V49.5C15 50.6935 14.5259 51.8381 13.682 52.682C12.8381 53.5259 11.6935 54 10.5 54C9.30653 54 8.16193 53.5259 7.31802 52.682C6.47411 51.8381 6 50.6935 6 49.5V31.5Z" fill="#14FFEC"/>
<path d="M18 30.999V47.289C17.9995 48.404 18.3097 49.4971 18.8957 50.4456C19.4818 51.3941 20.3206 52.1606 21.318 52.659L21.468 52.734C23.1327 53.566 24.968 53.9994 26.829 54H43.077C44.4646 54.0005 45.8095 53.5201 46.8827 52.6406C47.9559 51.761 48.691 50.5367 48.963 49.176L52.563 31.176C52.737 30.3056 52.7157 29.4075 52.5006 28.5463C52.2856 27.6852 51.8821 26.8824 51.3194 26.196C50.7567 25.5096 50.0487 24.9566 49.2464 24.5769C48.4441 24.1971 47.5676 24.0001 46.68 24H36V12C36 10.4087 35.3679 8.88258 34.2426 7.75736C33.1174 6.63214 31.5913 6 30 6C29.2044 6 28.4413 6.31607 27.8787 6.87868C27.3161 7.44129 27 8.20435 27 9V11.001C27 13.5974 26.1579 16.1238 24.6 18.201L20.4 23.799C18.8421 25.8762 18 28.4026 18 30.999Z" fill="#14FFEC"/>
</svg>
