<svg width="60" height="60" viewBox="0 0 60 60" fill="none" xmlns="http://www.w3.org/2000/svg">
<path d="M20 28.82V15C20 12.3478 21.0536 9.8043 22.9289 7.92893C24.8043 6.05357 27.3478 5 30 5C32.6522 5 35.1957 6.05357 37.0711 7.92893C38.9464 9.8043 40 12.3478 40 15V28.82C42.2643 30.8452 43.8603 33.5103 44.5768 36.4625C45.2933 39.4146 45.0966 42.5148 44.0126 45.3527C42.9286 48.1906 41.0085 50.6325 38.5063 52.3552C36.0042 54.0779 33.0379 55.0003 30 55.0003C26.9621 55.0003 23.9958 54.0779 21.4937 52.3552C18.9915 50.6325 17.0714 48.1906 15.9874 45.3527C14.9034 42.5148 14.7067 39.4146 15.4232 36.4625C16.1397 33.5103 17.7357 30.8452 20 28.82ZM25 25.85C26.6062 25.2844 28.2971 24.997 30 25C31.7525 25 33.435 25.3 35 25.8525V15C35 13.6739 34.4732 12.4021 33.5355 11.4645C32.5979 10.5268 31.3261 10 30 10C28.6739 10 27.4022 10.5268 26.4645 11.4645C25.5268 12.4021 25 13.6739 25 15V25.8525V25.85ZM30 45C31.3261 45 32.5979 44.4732 33.5355 43.5355C34.4732 42.5978 35 41.3261 35 40C35 38.6739 34.4732 37.4021 33.5355 36.4645C32.5979 35.5268 31.3261 35 30 35C28.6739 35 27.4022 35.5268 26.4645 36.4645C25.5268 37.4021 25 38.6739 25 40C25 41.3261 25.5268 42.5978 26.4645 43.5355C27.4022 44.4732 28.6739 45 30 45Z" fill="#14FFEC"/>
</svg>
