<svg width="86" height="60" viewBox="0 0 86 60" fill="none" xmlns="http://www.w3.org/2000/svg">
<g clip-path="url(#clip0)">
<path d="M33.8667 41.0665L56.9333 29.1332L33.8667 17.0999V41.0665V41.0665Z" fill="white"/>
<path opacity="0.12" d="M33.8667 17.0999L54.1 30.5999L56.9333 29.1332L33.8667 17.0999V17.0999Z" fill="#420000"/>
<path d="M84.4337 12.9333C84.4337 12.9333 83.6007 7.06667 81.035 4.46667C77.803 1.06667 74.171 1.06667 72.4717 0.866667C60.5767 0 42.6833 0 42.6833 0H42.65C42.65 0 24.757 0 12.795 0.866667C11.129 1.06667 7.497 1.06667 4.23167 4.46667C1.69933 7.06667 0.866333 12.9333 0.866333 12.9333C0.866333 12.9333 0 19.8667 0 26.7667V33.2333C0 40.1333 0.866333 47.0333 0.866333 47.0333C0.866333 47.0333 1.69933 52.9 4.265 55.5C7.497 58.9 11.762 58.8 13.6613 59.1333C20.492 59.8 42.65 60 42.65 60C42.65 60 60.5763 59.9667 72.505 59.1C74.171 58.9 77.803 58.9 81.0683 55.5C83.634 52.9 84.467 47.0333 84.467 47.0333C84.467 47.0333 85.3333 40.1333 85.3333 33.2333V26.7667C85.3 19.8667 84.4337 12.9333 84.4337 12.9333ZM33.8537 41.0667V17.1L56.911 29.1333L33.8533 41.0667H33.8537Z" fill="url(#paint0_linear)"/>
</g>
<defs>
<linearGradient id="paint0_linear" x1="42.6496" y1="0" x2="42.6496" y2="60.018" gradientUnits="userSpaceOnUse">
<stop stop-color="#E52D27"/>
<stop offset="1" stop-color="#BF171D"/>
</linearGradient>
<clipPath id="clip0">
<rect width="85.3333" height="60" fill="white"/>
</clipPath>
</defs>
</svg>
