<svg width="125" height="120" viewBox="0 0 125 120" fill="none" xmlns="http://www.w3.org/2000/svg">
<path d="M50.8721 10.9825C55.1561 14.5539 58.0567 19.2414 59.5739 25.045C61.0911 30.8485 61.0465 36.4289 59.44 41.786C57.655 46.6075 53.7727 49.0182 47.793 49.0182C41.8133 49.0182 37.9309 46.5182 36.1459 41.5182C34.3609 36.6968 33.9147 31.3843 34.8072 25.5807C35.6997 19.7771 37.9309 14.911 41.5009 10.9825C45.0709 7.76819 48.1946 7.76819 50.8721 10.9825ZM73.0952 1.60747C66.8477 4.64319 63.9025 12.6789 64.2595 25.7146C65.6875 38.7503 69.8822 45.3575 76.8437 45.536C85.5901 41.9646 88.7139 32.3218 86.2149 16.6075C85.6794 12.5003 84.296 8.83962 82.0648 5.62533C79.8335 2.41104 76.8437 1.07176 73.0952 1.60747ZM116.47 15.8039C108.973 14.1968 104.333 15.536 102.548 19.8218C100.584 23.5718 98.2636 30.8039 95.5861 41.5182C92.9086 52.2325 89.6956 60.0003 85.9471 64.8218C81.6632 70.0003 76.4421 73.9735 70.2838 76.7414C64.1256 79.5093 57.9228 80.3575 51.6753 79.286C44.1784 78.2146 38.4664 74.5539 34.5394 68.3039C32.3974 64.7325 29.9431 58.3039 27.1763 49.0182C24.4096 39.7325 21.4197 33.036 18.2068 28.9289C13.9228 26.786 10.5759 26.2503 8.1662 27.3218C5.75646 28.3932 3.97147 29.7325 2.81123 31.3396C1.65099 32.9468 0.936991 35.3128 0.669242 38.4378C0.401494 41.5628 0.356869 44.0182 0.535368 45.8039C0.713867 47.5896 0.892366 49.1968 1.07086 50.6253V51.161C2.67736 61.161 4.1946 67.411 5.62259 69.911C11.5131 82.2325 21.1966 91.161 34.6733 96.6968C48.15 102.232 61.4928 103.125 74.7017 99.3753C88.6246 95.4468 100.182 87.0985 109.375 74.3307C118.568 61.5628 123.343 47.6789 123.7 32.6789C123.7 23.7503 121.29 18.1253 116.47 15.8039Z" fill="#14FFEC"/>
</svg>
