<svg width="280" height="285" viewBox="0 0 280 285" fill="none" xmlns="http://www.w3.org/2000/svg">
<path d="M58.1843 183.26L52.8332 184.228L51.7821 178.431L45.4245 179.584L46.4756 185.381L41.1309 186.35L42.3221 192.93L47.6668 191.962L48.7179 197.759L55.0755 196.612L54.0244 190.809L59.3755 189.841L58.1843 183.26Z" stroke="#14FFEC" stroke-linecap="round" stroke-linejoin="round"/>
<path d="M111.606 94.4576L106.478 92.6484L108.44 87.0935L102.35 84.9403L100.388 90.4952L95.2595 88.6861L93.0363 94.9927L98.158 96.8019L96.1959 102.363L102.286 104.51L104.254 98.9551L109.376 100.764L111.606 94.4576Z" stroke="#14FFEC" stroke-linecap="round" stroke-linejoin="round"/>
<path d="M240.949 160.849L236.146 163.391L233.388 158.18L227.673 161.2L230.432 166.411L225.629 168.953L228.756 174.864L233.56 172.322L236.318 177.527L242.032 174.507L239.274 169.297L244.077 166.755L240.949 160.849Z" stroke="#14FFEC" stroke-linecap="round" stroke-linejoin="round"/>
<path d="M35.8371 169.449C37.9903 169.449 39.7358 167.704 39.7358 165.551C39.7358 163.398 37.9903 161.652 35.8371 161.652C33.684 161.652 31.9385 163.398 31.9385 165.551C31.9385 167.704 33.684 169.449 35.8371 169.449Z" stroke="#14FFEC" stroke-linecap="round" stroke-linejoin="round"/>
<path d="M96.5655 113.428C96.5655 113.633 96.5049 113.832 96.3915 114.002C96.2781 114.172 96.117 114.304 95.9284 114.382C95.7398 114.46 95.5323 114.48 95.3321 114.441C95.1319 114.401 94.9481 114.303 94.8037 114.158C94.6594 114.014 94.5611 113.83 94.5213 113.63C94.4815 113.43 94.5019 113.222 94.58 113.034C94.6581 112.845 94.7904 112.684 94.9601 112.57C95.1298 112.457 95.3294 112.396 95.5335 112.396C95.8072 112.396 96.0697 112.505 96.2632 112.699C96.4567 112.892 96.5655 113.155 96.5655 113.428V113.428Z" stroke="#14FFEC" stroke-linecap="round" stroke-linejoin="round"/>
<path d="M49.3422 95.7255C49.3422 96.4462 49.1285 97.1507 48.7281 97.7499C48.3277 98.3491 47.7587 98.8162 47.0928 99.092C46.427 99.3678 45.6944 99.4399 44.9875 99.2993C44.2807 99.1587 43.6314 98.8117 43.1218 98.3021C42.6122 97.7925 42.2652 97.1432 42.1246 96.4364C41.984 95.7295 42.0561 94.9969 42.3319 94.3311C42.6077 93.6652 43.0748 93.0961 43.674 92.6958C44.2732 92.2954 44.9777 92.0817 45.6984 92.0817C46.6643 92.0833 47.5901 92.4678 48.2731 93.1508C48.9561 93.8338 49.3406 94.7596 49.3422 95.7255V95.7255Z" stroke="#14FFEC" stroke-linecap="round" stroke-linejoin="round"/>
<path d="M209.894 145.083C209.894 145.491 209.773 145.89 209.546 146.229C209.319 146.569 208.997 146.833 208.62 146.99C208.243 147.146 207.828 147.187 207.427 147.107C207.027 147.027 206.659 146.831 206.37 146.542C206.082 146.254 205.885 145.886 205.806 145.485C205.726 145.085 205.767 144.67 205.923 144.293C206.079 143.916 206.344 143.593 206.683 143.367C207.023 143.14 207.422 143.019 207.83 143.019C208.377 143.019 208.902 143.236 209.289 143.623C209.676 144.01 209.894 144.535 209.894 145.083V145.083Z" stroke="#14FFEC" stroke-linecap="round" stroke-linejoin="round"/>
<path d="M189.031 82.1757C191.582 82.1757 193.649 80.1079 193.649 77.5572C193.649 75.0065 191.582 72.9387 189.031 72.9387C186.48 72.9387 184.412 75.0065 184.412 77.5572C184.412 80.1079 186.48 82.1757 189.031 82.1757Z" stroke="#14FFEC" stroke-linecap="round" stroke-linejoin="round"/>
<path d="M160.594 119.073C160.836 119.436 168.143 120.895 171.933 126.405C174.139 129.571 175.989 132.97 177.45 136.54C177.45 136.54 183.788 140.311 187.037 143.42C190.286 146.529 194.159 150.657 197.147 152.823C200.135 154.989 206.282 159.098 207.83 163.907C207.83 163.907 198.612 189.153 196.007 194.733C193.401 200.314 186.974 212.156 186.974 212.156L175.507 260.87H108.994L106.726 244.161C106.726 244.161 86.3413 240.16 77.8242 232.694C77.8242 232.694 77.0215 214.22 80.5826 197.74C84.1436 181.26 96.2536 146.994 104.459 136.527C104.459 136.527 117.562 130.259 129.125 128.246C129.125 128.246 136.629 122.315 141.54 121.685C146.452 121.054 160.594 119.073 160.594 119.073Z" fill="#FAFAFA"/>
<path d="M107.625 251.69C113.53 252.818 118.677 253.793 124.691 253.723C130.704 253.652 136.845 252.302 141.763 248.856C142.713 248.065 143.79 247.44 144.948 247.008C147.56 246.276 150.147 248.002 152.739 248.805C156.027 249.824 159.632 249.34 162.856 248.117C166.079 246.894 168.977 244.989 171.85 243.09C171.426 248.951 171.288 254.823 171.436 260.704L175.533 260.87L186.024 214.704C186.024 214.704 168.079 235.548 159.333 241.772L142.553 237.453C142.553 237.453 140.973 238.765 137.648 239.428C137.648 239.428 136.126 245.282 127.564 245.295C119.002 245.307 106.726 244.161 106.726 244.161L107.625 251.69Z" fill="#14FFEC"/>
<path opacity="0.5" d="M107.625 251.69C113.53 252.818 118.677 253.793 124.691 253.723C130.704 253.652 136.845 252.302 141.763 248.856C142.713 248.065 143.79 247.44 144.948 247.008C147.56 246.276 150.147 248.002 152.739 248.805C156.027 249.824 159.632 249.34 162.856 248.117C166.079 246.894 168.977 244.989 171.85 243.09C171.426 248.951 171.288 254.823 171.436 260.704L175.533 260.87L186.024 214.704C186.024 214.704 168.079 235.548 159.333 241.772L142.553 237.453C142.553 237.453 140.973 238.765 137.648 239.428C137.648 239.428 136.126 245.282 127.564 245.295C119.002 245.307 106.726 244.161 106.726 244.161L107.625 251.69Z" fill="#FAFAFA"/>
<path d="M90.4312 165.551C90.4312 165.551 82.6403 203.371 83.0352 216.361C83.0352 216.361 93.6227 213.392 101.012 216.361C101.012 216.361 88.4373 214.959 83.0225 220.724C77.6077 226.489 94.2725 241.638 127.615 238.561C127.615 238.561 134.265 240.644 137.642 239.421C137.642 239.421 136.737 245.447 127.558 245.288C118.416 244.925 91.6734 244.702 77.8179 232.7C77.8243 232.707 76.0788 197.937 90.4312 165.551Z" fill="#14FFEC"/>
<path opacity="0.6" d="M90.4312 165.551C90.4312 165.551 82.6403 203.371 83.0352 216.361C83.0352 216.361 93.6227 213.392 101.012 216.361C101.012 216.361 88.4373 214.959 83.0225 220.724C77.6077 226.489 94.2725 241.638 127.615 238.561C127.615 238.561 134.265 240.644 137.642 239.421C137.642 239.421 136.737 245.447 127.558 245.288C118.416 244.925 91.6734 244.702 77.8179 232.7C77.8243 232.707 76.0788 197.937 90.4312 165.551Z" fill="#FAFAFA"/>
<path d="M106.363 172.8C106.363 172.8 108.663 189.548 112.377 193.051C116.091 196.555 133.399 195.409 140.253 199.186C140.253 199.186 146.707 188.006 158.377 181.012L142.553 205.926L128.876 202.696L112.179 200.148L110.778 203.371H108.268C108.268 203.371 107.988 185.496 106.363 172.8Z" fill="#14FFEC"/>
<path opacity="0.5" d="M106.363 172.8C106.363 172.8 108.663 189.548 112.377 193.051C116.091 196.555 133.399 195.409 140.253 199.186C140.253 199.186 146.707 188.006 158.377 181.012L142.553 205.926L128.876 202.696L112.179 200.148L110.778 203.371H108.268C108.268 203.371 107.988 185.496 106.363 172.8Z" fill="#FAFAFA"/>
<path d="M171.78 138.687C178.934 142.898 179.737 147.644 181.209 151.033C177.488 151.772 173.641 152.562 170.57 154.785C166.748 157.562 164.677 162.162 163.072 166.627C161.554 170.853 160.277 175.162 159.25 179.534C162.708 173.287 167.623 167.968 173.577 164.028C177.01 161.76 181.253 159.932 185.171 161.212C181.884 162.608 178.163 164.493 177.469 167.997C177.333 168.578 177.357 169.186 177.539 169.755C178.125 171.405 180.177 171.851 181.731 172.654C184.763 174.214 186.343 177.75 186.477 181.177C186.611 184.604 185.559 187.917 184.521 191.159C183.608 194.001 182.695 196.842 181.782 199.683C180.616 203.314 179.431 206.996 177.323 210.181C175.214 213.366 172.048 216.036 168.283 216.66C166.709 216.963 165.08 216.779 163.614 216.131C162.502 215.527 161.469 214.789 160.537 213.933C156.02 210.286 150.592 207.942 144.84 207.155C152.243 212.048 155.746 220.934 158.817 229.26C157.407 226.792 155.375 224.737 152.924 223.298C152.296 222.86 151.549 222.625 150.784 222.622C148.771 222.782 148.134 225.349 146.923 226.954C145.471 228.865 142.814 229.547 140.432 229.241C138.049 228.936 135.858 227.821 133.718 226.693L106.637 212.729L104.726 218.463C104.726 218.463 126.296 235.663 159.345 241.746C159.345 241.746 180.814 224.782 188.42 209.742C196.026 194.701 207.843 163.875 207.843 163.875C207.843 163.875 203.517 155.683 196.102 151.408C196.102 151.408 190.567 148.79 189.401 145.554C188.235 142.318 177.832 136.731 177.832 136.731C177.832 136.731 179.183 140.184 171.78 138.687Z" fill="#14FFEC"/>
<path opacity="0.6" d="M171.78 138.687C178.934 142.898 179.737 147.644 181.209 151.033C177.488 151.772 173.641 152.562 170.57 154.785C166.748 157.562 164.677 162.162 163.072 166.627C161.554 170.853 160.277 175.162 159.25 179.534C162.708 173.287 167.623 167.968 173.577 164.028C177.01 161.76 181.253 159.932 185.171 161.212C181.884 162.608 178.163 164.493 177.469 167.997C177.333 168.578 177.357 169.186 177.539 169.755C178.125 171.405 180.177 171.851 181.731 172.654C184.763 174.214 186.343 177.75 186.477 181.177C186.611 184.604 185.559 187.917 184.521 191.159C183.608 194.001 182.695 196.842 181.782 199.683C180.616 203.314 179.431 206.996 177.323 210.181C175.214 213.366 172.048 216.036 168.283 216.66C166.709 216.963 165.08 216.779 163.614 216.131C162.502 215.527 161.469 214.789 160.537 213.933C156.02 210.286 150.592 207.942 144.84 207.155C152.243 212.048 155.746 220.934 158.817 229.26C157.407 226.792 155.375 224.737 152.924 223.298C152.296 222.86 151.549 222.625 150.784 222.622C148.771 222.782 148.134 225.349 146.923 226.954C145.471 228.865 142.814 229.547 140.432 229.241C138.049 228.936 135.858 227.821 133.718 226.693L106.637 212.729L104.726 218.463C104.726 218.463 126.296 235.663 159.345 241.746C159.345 241.746 180.814 224.782 188.42 209.742C196.026 194.701 207.843 163.875 207.843 163.875C207.843 163.875 203.517 155.683 196.102 151.408C196.102 151.408 190.567 148.79 189.401 145.554C188.235 142.318 177.832 136.731 177.832 136.731C177.832 136.731 179.183 140.184 171.78 138.687Z" fill="#FAFAFA"/>
<path d="M169.506 80.0479C169.506 80.0479 170.952 63.1856 163.684 61.5739C156.415 59.9622 152.332 53.2925 152.332 53.2925L126.545 60.491L122.544 75.9964L125.092 83.8446C125.092 83.8446 125.627 91.1259 125.729 94.7252C125.831 98.3244 125.729 101.096 128.456 105.466C131.182 109.836 133.718 114.174 139.61 117.951V127.883C139.61 127.883 135.966 138.515 137.979 145.038C137.979 145.038 139.183 146.312 142.509 144.401C145.834 142.49 160.059 132.985 165.021 123.06L166.563 97.8275C166.563 97.8275 170.659 98.4646 172.424 94.7316C175.016 91.0813 174.915 86.826 173.908 83.3605C172.901 79.895 168.57 82.1374 168.57 82.1374L169.506 80.0479Z" fill="#BFBFBF"/>
<path d="M139.89 104.771C140.62 103.977 141.518 103.358 142.519 102.959C143.521 102.559 144.599 102.391 145.675 102.465C145.675 102.465 148.777 97.5665 152.045 98.4647C152.045 98.4647 153.052 103.657 149.134 105.701C144.037 108.358 139.89 104.771 139.89 104.771Z" fill="#808080"/>
<path d="M130.31 58.3442C130.31 58.3442 124.137 66.4537 124.493 74.9071C124.85 83.3606 126.08 89.3551 125.723 95.8783C125.366 102.402 132.246 113.327 139.298 117.729C144.566 121.022 151.172 120.461 156.301 117.092C162.034 113.269 165.187 106.402 166.34 99.8088C166.455 99.1718 166.544 98.5347 166.608 97.8467" stroke="#323232" stroke-linecap="round" stroke-linejoin="round"/>
<path d="M139.298 117.735C139.298 117.735 140.298 126.87 139.298 129.998C138.196 133.431 136.865 141.426 138.024 145.038C139.183 148.65 160.874 133.47 165.066 123.054C165.066 123.054 165.646 102.816 167.092 97.7576" stroke="#323232" stroke-linecap="round" stroke-linejoin="round"/>
<path d="M138.699 104.548C138.699 104.548 148.567 107.339 152.606 97.1523" stroke="#323232" stroke-linecap="round" stroke-linejoin="round"/>
<path d="M139.495 119.933C139.495 119.933 141.598 126.45 146.133 126.838C150.669 127.227 162.015 118.136 165.881 107.428V102.07C165.881 102.07 162.696 116.085 153.37 118.633C144.044 121.181 139.68 117.939 139.68 117.939L139.495 119.933Z" fill="#323232"/>
<path d="M152.039 98.4646C147.656 98.1589 145.668 102.465 145.668 102.465C144.588 102.333 143.492 102.476 142.481 102.879C141.471 103.282 140.577 103.932 139.884 104.771C140.964 105.74 142.291 106.39 143.719 106.648C145.146 106.907 146.617 106.764 147.968 106.236C152.95 104.504 152.039 98.4646 152.039 98.4646Z" stroke="#323232" stroke-linecap="round" stroke-linejoin="round"/>
<path d="M141.05 79.2517C141.104 81.2728 141.015 83.2952 140.782 85.3035C140.546 87.1063 139.712 88.8327 139.018 90.5272C138.381 92.0688 137.317 94.4386 138.202 96.063C139.209 97.9041 142.553 96.063 142.553 96.063" stroke="#323232" stroke-linecap="round" stroke-linejoin="round"/>
<path d="M144.611 95.6808C145.738 95.8337 147.337 95.6808 147.656 93.7251" stroke="#323232" stroke-linecap="round" stroke-linejoin="round"/>
<path d="M148.255 76.818C149.345 75.7782 150.793 75.1981 152.3 75.1981C153.806 75.1981 155.255 75.7782 156.345 76.818" stroke="#323232" stroke-width="2" stroke-linecap="round" stroke-linejoin="round"/>
<path d="M135.399 78.4109C135.399 78.4109 132.412 74.5887 128.5 78.4109" stroke="#323232" stroke-width="2" stroke-linecap="round" stroke-linejoin="round"/>
<path d="M164.264 88.0746C164.264 88.0746 167.672 79.8887 172.118 81.6469C175.182 82.8636 175.367 88.151 173.743 91.8395C172.118 95.5279 171.303 99.2864 165.888 97.1842" stroke="#323232" stroke-linecap="round" stroke-linejoin="round"/>
<path d="M164.869 86.8198C164.869 86.8198 161.594 85.6604 160.989 80.3411C160.384 75.0219 163.646 69.6963 162.435 65.8741C161.225 62.0519 151.688 63.963 149.516 57.2996C149.516 57.2996 142.356 62.638 128.494 61.4913C128.494 61.4913 125.57 66.4729 125.06 69.5179C124.378 74.279 124.395 79.1142 125.111 83.8703C125.111 84.0359 125.169 84.1952 125.201 84.3608C126.194 89.5463 121.245 77.3025 121.378 72.0724C121.512 66.8424 118.359 60.1981 122.468 55.2484C126.577 50.2986 141.642 47.4001 144.611 45.0749C147.58 42.7498 153.351 48.9417 160.021 51.2223C166.691 53.5029 172.22 56.223 171.379 65.683C170.538 75.1429 171.424 76.4106 171.462 81.3922C171.462 81.405 168.379 80.2456 164.869 86.8198Z" fill="#323232"/>
<path d="M152.313 83.7108C152.313 84.9849 151.822 86.0423 151.21 86.0423C150.599 86.0423 150.115 84.9976 150.115 83.7108C150.115 82.424 150.605 81.3856 151.21 81.3856C151.816 81.3856 152.313 82.4367 152.313 83.7108Z" fill="#323232"/>
<path d="M135.399 83.7108C135.399 84.9849 134.909 86.0423 134.304 86.0423C133.698 86.0423 133.208 84.9976 133.208 83.7108C133.208 82.424 133.698 81.3856 134.304 81.3856C134.909 81.3856 135.399 82.4367 135.399 83.7108Z" fill="#323232"/>
<path d="M148.255 86.8196C148.255 86.8196 150.529 89.2339 153.408 89.5779" stroke="#323232" stroke-linecap="round" stroke-linejoin="round"/>
<path d="M132.762 89.5779C132.762 89.5779 136.922 89.2849 137.858 86.8196" stroke="#323232" stroke-linecap="round" stroke-linejoin="round"/>
<path d="M142.432 146.586C145.528 144.618 149.624 145.357 153.013 146.752C154.874 147.522 156.644 148.491 158.498 149.3C159.415 149.705 160.36 150.042 161.327 150.306C163.652 150.911 162.817 148.026 162.684 146.733C162.492 144.879 162.359 143.019 162.136 141.178C162.044 140.796 162.089 140.395 162.263 140.044C162.492 139.76 162.811 139.564 163.168 139.489C167.251 138.215 171.653 138.776 175.908 138.852C176.295 138.898 176.686 138.825 177.03 138.642C177.667 138.228 177.597 137.292 177.425 136.553C175.953 130.259 170.761 123.997 165.117 120.85" stroke="#323232" stroke-linecap="round" stroke-linejoin="round"/>
<path d="M139.655 121.869C136.846 123.042 133.96 124.258 131.539 126.055C130.661 126.695 129.852 127.425 129.125 128.233C128.539 128.791 128.171 129.538 128.086 130.342C128.102 130.716 128.201 131.082 128.376 131.412C128.552 131.743 128.799 132.03 129.099 132.253C129.527 132.605 129.998 132.9 130.501 133.132C131.673 133.686 133.049 134.228 133.546 135.406C133.666 135.653 133.711 135.93 133.673 136.203C133.61 136.442 133.487 136.661 133.316 136.84C132.348 138.018 130.641 138.929 130.768 140.452C130.851 141.63 132.042 142.363 133.1 142.885C134.157 143.408 135.393 143.949 135.756 145.077" stroke="#323232" stroke-linecap="round" stroke-linejoin="round"/>
<path d="M123.022 62.1346C123.436 59.5865 126.099 57.943 128.659 57.5289C131.22 57.1148 133.851 57.5289 136.431 57.3059C138.589 57.0927 140.676 56.4188 142.551 55.3297C144.426 54.2406 146.045 52.7617 147.299 50.9929" stroke="#FAFAFA" stroke-linecap="round" stroke-linejoin="round"/>
<path d="M125.92 54.9743C130.545 52.2414 137.043 55.0826 141.553 52.1649C142.829 51.2357 143.94 50.0987 144.84 48.8014" stroke="#FAFAFA" stroke-linecap="round" stroke-linejoin="round"/>
<path d="M184.916 159.518C168.353 162.824 162.174 175.011 162.174 175.011L142.553 205.913" stroke="#323232" stroke-linecap="round" stroke-linejoin="round"/>
<path d="M170.914 156.18C172.288 154.907 173.845 153.846 175.532 153.033" stroke="#323232" stroke-linecap="round" stroke-linejoin="round"/>
<path d="M159.333 179.508C159.333 179.508 161.422 168.347 167.423 160.123" stroke="#323232" stroke-linecap="round" stroke-linejoin="round"/>
<path d="M108.268 203.321C108.268 203.321 107.408 169.131 104.446 163.907" stroke="#323232" stroke-linecap="round" stroke-linejoin="round"/>
<path d="M177.45 136.54C177.45 136.54 187.005 142.274 191.248 147.663C195.491 153.052 205.518 156.632 207.811 163.907C207.811 163.907 194.605 205.518 180.769 220.559C166.932 235.599 159.313 241.772 159.313 241.772C159.313 241.772 126.028 235.988 104.439 217.858L112.16 200.116C112.16 200.116 133.928 202.868 142.534 205.926C151.14 208.984 159.313 227.502 159.313 227.502" stroke="#323232" stroke-linecap="round" stroke-linejoin="round"/>
<path d="M142.553 205.926C142.553 205.926 157.791 208.888 162.741 215.825" stroke="#323232" stroke-linecap="round" stroke-linejoin="round"/>
<path d="M186.4 213.061L175.533 260.87H108.994L106.726 244.161" stroke="#323232" stroke-linecap="round" stroke-linejoin="round"/>
<path d="M137.648 239.428C133.972 246.957 129.124 245.295 129.124 245.295C91.635 246.715 77.8241 232.707 77.8241 232.707C77.8241 232.707 75.913 213.003 83.2834 186.414C90.6539 159.824 104.458 136.54 104.458 136.54C110.58 132.47 124.238 129.291 128.092 128.45L129.124 128.233" stroke="#323232" stroke-linecap="round" stroke-linejoin="round"/>
<path d="M129.144 245.295C129.144 245.295 127.162 244.97 127.666 231.834" stroke="#323232" stroke-linecap="round" stroke-linejoin="round"/>
<path d="M105.471 218.698C105.471 218.698 96.107 215.399 84.5066 223.425" stroke="#323232" stroke-linecap="round" stroke-linejoin="round"/>
<path d="M86.609 215.825C86.609 215.825 98.8783 212.175 104.446 218.023" stroke="#323232" stroke-linecap="round" stroke-linejoin="round"/>
<path d="M103.121 217.692L104.713 218.488L110.778 203.34C110.778 203.34 104.497 202.314 94.5464 214.704C97.6535 214.74 100.664 215.789 103.121 217.692V217.692Z" fill="#BFBFBF" stroke="#323232" stroke-miterlimit="10"/>
<path d="M127.647 231.834V238.568C127.647 238.568 136.228 241.116 142.579 237.453L127.647 231.834Z" fill="#BFBFBF" stroke="#323232" stroke-miterlimit="10"/>
<path d="M174.157 138.782C174.163 138.907 174.15 139.031 174.118 139.152C173.851 140.203 167.308 164.901 146.369 175.89C146.187 175.987 145.983 176.038 145.777 176.036C145.492 176.036 145.216 175.94 144.992 175.765C144.767 175.589 144.609 175.344 144.541 175.067C144.472 174.791 144.499 174.5 144.615 174.24C144.732 173.98 144.932 173.767 145.184 173.635C164.295 163.614 171.029 140.776 171.615 138.674L174.157 138.782Z" fill="#323232"/>
<path d="M129.099 132.234C125.789 139.794 124.003 147.934 123.844 156.186C123.844 156.855 123.844 157.537 123.844 158.231C123.844 158.403 123.844 158.575 123.844 158.747C123.653 158.754 123.464 158.773 123.277 158.804C122.587 158.913 121.919 159.128 121.295 159.441C121.295 158.505 121.295 157.594 121.295 156.696C121.569 142.401 125.837 132.673 128.112 128.469L129.144 128.252C128.558 128.809 128.19 129.557 128.105 130.361C128.124 130.727 128.223 131.084 128.395 131.407C128.566 131.731 128.807 132.013 129.099 132.234V132.234Z" fill="#323232"/>
<path d="M154.185 170.144C155.676 172.214 154.453 175.654 151.446 177.826C148.439 179.999 144.796 180.075 143.299 178.005C141.801 175.934 143.025 172.494 146.031 170.322C149.038 168.15 152.714 168.073 154.185 170.144Z" fill="#FAFAFA" stroke="#323232" stroke-linecap="round" stroke-linejoin="round"/>
<path d="M150.478 168.914C151.535 170.379 150.669 172.813 148.567 174.348C146.465 175.883 143.859 175.941 142.833 174.476C141.808 173.01 142.642 170.577 144.745 169.042C146.847 167.506 149.42 167.456 150.478 168.914Z" fill="#FAFAFA" stroke="#323232" stroke-linecap="round" stroke-linejoin="round"/>
<path d="M133.641 194.771C133.37 194.952 133.04 195.021 132.719 194.966C132.398 194.91 132.11 194.734 131.915 194.473C131.72 194.212 131.633 193.886 131.67 193.562C131.708 193.239 131.869 192.942 132.119 192.733C132.227 192.644 136.502 189.006 134.629 176.756C134.469 175.718 134.266 174.609 133.992 173.444C133.183 169.73 131.934 165.028 129.38 161.576C128.772 160.665 127.94 159.926 126.963 159.431C125.987 158.935 124.899 158.7 123.806 158.747C123.615 158.754 123.426 158.773 123.239 158.805C122.549 158.913 121.881 159.128 121.257 159.442C119.354 160.425 117.91 162.111 117.231 164.143L117.002 164.78C115.557 168.686 114.376 172.685 113.466 176.75C112.447 181.75 112.103 186.993 113.912 190.656C114.397 191.661 115.088 192.553 115.939 193.274C116.791 193.995 117.785 194.529 118.856 194.842C119.143 194.936 119.388 195.13 119.546 195.388C119.703 195.647 119.764 195.953 119.716 196.252C119.669 196.551 119.516 196.823 119.286 197.02C119.056 197.217 118.764 197.325 118.461 197.326C118.327 197.326 118.193 197.304 118.066 197.262C116.673 196.844 115.382 196.141 114.274 195.198C113.167 194.255 112.267 193.092 111.632 191.784C109.593 187.662 109.861 182.05 110.893 176.75C111.808 172.391 113.047 168.107 114.6 163.933L114.83 163.296C115.331 161.779 116.169 160.397 117.283 159.252C118.396 158.108 119.755 157.232 121.257 156.69C121.777 156.509 122.312 156.377 122.856 156.295C123.181 156.25 123.493 156.218 123.825 156.199C125.316 156.158 126.793 156.492 128.122 157.169C129.451 157.847 130.589 158.847 131.431 160.079C134.272 163.901 135.623 168.952 136.482 172.915C136.782 174.278 137.011 175.559 137.183 176.769C139.196 190.503 133.89 194.593 133.641 194.771Z" fill="#323232" stroke="#323232" stroke-miterlimit="10"/>
<path d="M117.569 197.103C117.569 197.103 122.187 199.014 123.359 197.103C124.532 195.192 123.582 194.294 121.983 194.141C120.39 194.059 118.793 194.059 117.199 194.141L117.569 197.103Z" fill="#323232" stroke="#323232" stroke-miterlimit="10"/>
<path d="M119.69 196.466C119.607 196.721 119.445 196.944 119.228 197.102C119.01 197.26 118.748 197.345 118.48 197.345C118.346 197.345 118.212 197.323 118.085 197.281C116.692 196.863 115.4 196.16 114.293 195.217C113.185 194.274 112.286 193.112 111.651 191.803C109.612 187.681 109.88 182.069 110.912 176.769H113.46C112.441 181.77 112.097 187.012 113.906 190.675C114.391 191.68 115.081 192.572 115.933 193.293C116.784 194.014 117.778 194.548 118.849 194.861C119.01 194.91 119.16 194.991 119.29 195.099C119.42 195.206 119.527 195.338 119.605 195.488C119.683 195.637 119.731 195.8 119.745 195.968C119.76 196.136 119.741 196.305 119.69 196.466Z" fill="#FAFAFA" stroke="#323232" stroke-linecap="round" stroke-linejoin="round"/>
<path d="M129.386 193.389C129.194 193.617 129.052 193.883 128.97 194.17C128.887 194.456 128.866 194.757 128.908 195.052C129.035 195.488 129.311 195.866 129.689 196.12C130.066 196.374 130.52 196.487 130.972 196.441C131.877 196.32 132.704 195.866 133.291 195.166C133.928 194.453 136.138 189.784 134.093 190.586C132.609 191.147 130.38 192.096 129.386 193.389Z" fill="#323232" stroke="#323232" stroke-miterlimit="10"/>
<path d="M133.641 194.771C133.37 194.952 133.039 195.021 132.718 194.966C132.397 194.91 132.11 194.734 131.915 194.473C131.72 194.212 131.632 193.886 131.67 193.562C131.708 193.239 131.868 192.942 132.118 192.733C132.227 192.644 136.501 189.006 134.628 176.756H137.177C139.196 190.503 133.889 194.593 133.641 194.771Z" fill="#FAFAFA" stroke="#323232" stroke-linecap="round" stroke-linejoin="round"/>
<path opacity="0.2" d="M145.07 82.1757C145.07 82.1757 153.09 78.0095 160.46 82.1757C160.46 82.1757 160.581 88.3231 157.798 90.8522C156.81 91.7504 152.287 91.9033 150.574 91.7504C143.617 91.1197 145.07 82.1757 145.07 82.1757Z" fill="#FAFAFA"/>
<path opacity="0.2" d="M140.037 82.1757C140.037 82.1757 132.017 78.0095 124.653 82.1757C124.653 82.1757 124.532 88.3231 127.309 90.8522C128.296 91.7504 132.826 91.9033 134.533 91.7504C141.489 91.1197 140.037 82.1757 140.037 82.1757Z" fill="#FAFAFA"/>
<path d="M145.07 82.1757C145.07 82.1757 153.09 78.0095 160.46 82.1757C160.46 82.1757 160.581 88.3231 157.798 90.8522C156.81 91.7504 152.287 91.9033 150.574 91.7504C143.617 91.1197 145.07 82.1757 145.07 82.1757Z" stroke="#323232" stroke-miterlimit="10"/>
<path d="M140.037 82.1757C140.037 82.1757 132.017 78.0095 124.653 82.1757C124.653 82.1757 124.532 88.3231 127.309 90.8522C128.296 91.7504 132.826 91.9033 134.533 91.7504C141.489 91.1197 140.037 82.1757 140.037 82.1757Z" stroke="#323232" stroke-miterlimit="10"/>
<path d="M140.037 82.1758C140.037 82.1758 141.834 80.8571 145.07 82.1758" stroke="#323232" stroke-miterlimit="10"/>
<path d="M160.46 82.1755L163.811 83.7299" stroke="#323232" stroke-miterlimit="10"/>
<path d="M32.1996 277.828L55.7762 255.557H242.899L257.066 277.828H32.1996Z" fill="#FAFAFA" stroke="#323232" stroke-linecap="round" stroke-linejoin="round"/>
<path d="M257.066 277.828H32.1996V283.822H257.066V277.828Z" fill="#323232" stroke="#323232" stroke-linecap="round" stroke-linejoin="round"/>
<path d="M55.7764 272.324V267.705H92.7243V272.324H85.5959H55.7764Z" fill="#FAFAFA" stroke="#323232" stroke-miterlimit="10"/>
<path d="M55.7764 267.706L77.6012 253.067L106.726 253.755L92.7243 267.706H55.7764Z" fill="#FAFAFA" stroke="#323232" stroke-linecap="round" stroke-linejoin="round"/>
<path d="M92.7242 272.324L106.726 258.296V253.754L92.7242 267.705V272.324Z" fill="#FAFAFA" stroke="#323232" stroke-linecap="round" stroke-linejoin="round"/>
<path d="M91.7241 266.54C91.7241 266.54 88.7747 267.126 88.7747 269.68C88.7747 272.235 91.3228 272.986 91.3228 272.986" stroke="#323232" stroke-width="2" stroke-linecap="round" stroke-linejoin="round"/>
<path d="M88.7747 266.54C88.7747 266.54 85.8252 267.126 85.8252 269.68C85.8252 272.235 88.3733 272.986 88.3733 272.986" stroke="#323232" stroke-width="2" stroke-linecap="round" stroke-linejoin="round"/>
<path d="M85.8252 266.54C85.8252 266.54 82.8757 267.126 82.8757 269.68C82.8757 272.235 85.4239 272.986 85.4239 272.986" stroke="#323232" stroke-width="2" stroke-linecap="round" stroke-linejoin="round"/>
<path d="M82.8759 266.54C82.8759 266.54 79.9264 267.126 79.9264 269.68C79.9264 272.235 82.4745 272.986 82.4745 272.986" stroke="#323232" stroke-width="2" stroke-linecap="round" stroke-linejoin="round"/>
<path d="M79.9264 266.54C79.9264 266.54 76.9769 267.126 76.9769 269.68C76.9769 272.235 79.5251 272.986 79.5251 272.986" stroke="#323232" stroke-width="2" stroke-linecap="round" stroke-linejoin="round"/>
<path d="M76.9768 266.54C76.9768 266.54 74.0273 267.126 74.0273 269.68C74.0273 272.235 76.5755 272.986 76.5755 272.986" stroke="#323232" stroke-width="2" stroke-linecap="round" stroke-linejoin="round"/>
<path d="M74.0273 266.54C74.0273 266.54 71.0779 267.126 71.0779 269.68C71.0779 272.235 73.626 272.986 73.626 272.986" stroke="#323232" stroke-width="2" stroke-linecap="round" stroke-linejoin="round"/>
<path d="M71.078 266.54C71.078 266.54 68.1285 267.126 68.1285 269.68C68.1285 272.235 70.6767 272.986 70.6767 272.986" stroke="#323232" stroke-width="2" stroke-linecap="round" stroke-linejoin="round"/>
<path d="M67.7653 266.54C67.7653 266.54 64.8158 267.126 64.8158 269.68C64.8158 272.235 67.3639 272.986 67.3639 272.986" stroke="#323232" stroke-width="2" stroke-linecap="round" stroke-linejoin="round"/>
<path d="M64.4465 266.54C64.4465 266.54 61.4971 267.126 61.4971 269.68C61.4971 272.235 64.0452 272.986 64.0452 272.986" stroke="#323232" stroke-width="2" stroke-linecap="round" stroke-linejoin="round"/>
<path d="M60.7578 266.54C60.7578 266.54 57.8083 267.126 57.8083 269.68C57.8083 272.235 60.3565 272.986 60.3565 272.986" stroke="#323232" stroke-width="2" stroke-linecap="round" stroke-linejoin="round"/>
<path d="M79.455 256.653C77.4203 257.775 75.8076 259.531 74.8619 261.654C77.5439 260.807 79.6652 258.895 81.6973 256.984L79.4932 262.45C80.5079 262.368 81.4888 262.047 82.3565 261.515C83.2243 260.983 83.9543 260.253 84.4875 259.386C84.3129 259.461 84.1562 259.573 84.0276 259.713C83.899 259.853 83.8014 260.018 83.7413 260.199C83.6811 260.379 83.6598 260.57 83.6786 260.76C83.6974 260.949 83.756 261.132 83.8505 261.297C85.6979 261.029 86.8764 259.246 87.8065 257.628C87.9773 258.528 88.0436 259.445 88.004 260.361C89.5488 260.582 91.1248 260.382 92.5651 259.781" stroke="#323232" stroke-width="0.75" stroke-linecap="round" stroke-linejoin="round"/>
<path d="M241.65 233.248H177.431V268.508H241.65V233.248Z" fill="#FAFAFA" stroke="#323232" stroke-linecap="round" stroke-linejoin="round"/>
<path d="M177.182 268.502L166.856 258.685V223.425L177.182 233.248V268.502Z" fill="#FAFAFA" stroke="#323232" stroke-linecap="round" stroke-linejoin="round"/>
<path d="M241.649 233.248L231.323 223.425H167.11L177.43 233.248H241.649Z" fill="#FAFAFA" stroke="#323232" stroke-linecap="round" stroke-linejoin="round"/>
<path d="M218.035 246.473H212.359V240.536H204.358V246.473H198.166V254.474H204.358V260.405H212.359V254.474H218.035V246.473Z" fill="#14FFEC" stroke="#323232" stroke-miterlimit="10"/>
<path d="M208.983 233.248L198.657 223.425" stroke="#323232" stroke-linecap="round" stroke-linejoin="round"/>
<path d="M73.2414 83.3891C80.7321 75.8984 80.7321 63.7536 73.2414 56.263C65.7507 48.7723 53.6059 48.7723 46.1152 56.263C38.6245 63.7537 38.6245 75.8984 46.1152 83.3891C53.6059 90.8798 65.7507 90.8798 73.2414 83.3891Z" fill="#FAFAFA" stroke="#323232" stroke-linecap="round" stroke-linejoin="round"/>
<path d="M75.6326 66.8867C75.6324 68.1707 75.2298 69.4223 74.4814 70.4656C73.7329 71.5089 72.6763 72.2913 71.46 72.7029L62.8919 75.5886L52.4637 79.1114C50.9275 79.6165 49.2539 79.4938 47.8077 78.7703C46.3615 78.0467 45.26 76.7809 44.743 75.2486C44.2261 73.7164 44.3358 72.0419 45.0481 70.5902C45.7605 69.1384 47.0177 68.0271 48.5459 67.4983L58.0186 64.3131L67.5359 61.128C68.4567 60.8183 69.4378 60.7317 70.3986 60.8753C71.3593 61.0189 72.2722 61.3886 73.0622 61.954C73.8521 62.5194 74.4965 63.2643 74.9423 64.1274C75.388 64.9905 75.6225 65.9472 75.6263 66.9186L75.6326 66.8867Z" fill="#FAFAFA"/>
<path d="M75.6325 66.8869C75.6324 68.1709 75.2297 69.4225 74.4813 70.4658C73.7328 71.509 72.6762 72.2915 71.46 72.703L62.8919 75.5888C62.6634 71.3677 60.9352 67.3668 58.0186 64.3069L67.5358 61.1217C68.4566 60.812 69.4377 60.7254 70.3985 60.869C71.3592 61.0126 72.2722 61.3824 73.0621 61.9478C73.852 62.5132 74.4964 63.2581 74.9422 64.1212C75.388 64.9843 75.6224 65.9409 75.6262 66.9124L75.6325 66.8869Z" fill="#14FFEC"/>
<path d="M75.6326 66.8867C75.6324 68.1707 75.2298 69.4223 74.4814 70.4656C73.7329 71.5089 72.6763 72.2913 71.46 72.7029L62.8919 75.5886L52.4637 79.1114C50.9275 79.6165 49.2539 79.4938 47.8077 78.7703C46.3615 78.0467 45.26 76.7809 44.743 75.2486C44.2261 73.7164 44.3358 72.0419 45.0481 70.5902C45.7605 69.1384 47.0177 68.0271 48.5459 67.4983L58.0186 64.3131L67.5359 61.128C68.4567 60.8183 69.4378 60.7317 70.3986 60.8753C71.3593 61.0189 72.2722 61.3886 73.0622 61.954C73.8521 62.5194 74.4965 63.2643 74.9423 64.1274C75.388 64.9905 75.6225 65.9472 75.6263 66.9186L75.6326 66.8867Z" stroke="#323232" stroke-linecap="round" stroke-linejoin="round"/>
<path d="M62.8919 75.5888C62.6969 71.3598 60.9638 67.3478 58.0186 64.3069" stroke="#323232" stroke-linecap="round" stroke-linejoin="round"/>
<path d="M73.5814 64.5999C73.9836 65.2774 74.1868 66.0545 74.1675 66.8422" stroke="#FAFAFA" stroke-linecap="round" stroke-linejoin="round"/>
<path d="M60.4393 65.237L68.0837 62.6888C68.7694 62.4537 69.4986 62.3734 70.219 62.4539C70.9394 62.5343 71.633 62.7733 72.2499 63.1539" stroke="#FAFAFA" stroke-linecap="round" stroke-linejoin="round"/>
<path d="M190.008 43.8045C199.763 39.6755 204.324 28.4198 200.196 18.6642C196.067 8.90858 184.811 4.34727 175.055 8.47624C165.3 12.6052 160.738 23.8609 164.867 33.6165C168.996 43.3722 180.252 47.9335 190.008 43.8045Z" fill="#FAFAFA" stroke="#323232" stroke-linecap="round" stroke-linejoin="round"/>
<path d="M189.146 34.1688L172.417 28.5693C171.026 28.1017 169.878 27.1009 169.224 25.7869C168.571 24.4729 168.466 22.9532 168.933 21.5619V21.5619C169.4 20.1709 170.401 19.0225 171.715 18.3691C173.029 17.7157 174.549 17.6107 175.94 18.0773L192.668 23.6705C194.058 24.1395 195.206 25.1405 195.859 26.454C196.512 27.7676 196.618 29.2865 196.153 30.6778V30.6778C195.685 32.069 194.685 33.2178 193.371 33.8722C192.057 34.5267 190.538 34.6333 189.146 34.1688V34.1688Z" fill="#14FFEC"/>
<path d="M176.889 28.1233L179.692 21.4281" stroke="#323232" stroke-linecap="round" stroke-linejoin="round"/>
<path d="M186.107 31.1873L188.897 24.5112" stroke="#323232" stroke-linecap="round" stroke-linejoin="round"/>
<path d="M179.202 28.5183C179.515 28.5183 179.769 28.2645 179.769 27.9514C179.769 27.6382 179.515 27.3844 179.202 27.3844C178.889 27.3844 178.635 27.6382 178.635 27.9514C178.635 28.2645 178.889 28.5183 179.202 28.5183Z" fill="#323232"/>
<path d="M184.776 29.6205C184.776 29.7327 184.742 29.8423 184.68 29.9355C184.618 30.0288 184.529 30.1014 184.426 30.1444C184.322 30.1873 184.208 30.1985 184.098 30.1766C183.988 30.1547 183.887 30.1007 183.808 30.0215C183.728 29.9422 183.674 29.8411 183.652 29.7312C183.631 29.6212 183.642 29.5072 183.685 29.4036C183.728 29.3 183.8 29.2114 183.894 29.1491C183.987 29.0868 184.096 29.0536 184.209 29.0536C184.359 29.0536 184.503 29.1133 184.609 29.2197C184.716 29.326 184.776 29.4702 184.776 29.6205Z" fill="#323232"/>
<path d="M181.399 23.473C181.713 23.473 181.966 23.2192 181.966 22.9061C181.966 22.5929 181.713 22.3391 181.399 22.3391C181.086 22.3391 180.833 22.5929 180.833 22.9061C180.833 23.2192 181.086 23.473 181.399 23.473Z" fill="#323232"/>
<path d="M186.891 24.524C186.891 24.6361 186.857 24.7457 186.795 24.839C186.733 24.9322 186.644 25.0049 186.541 25.0478C186.437 25.0907 186.323 25.1019 186.213 25.0801C186.103 25.0582 186.002 25.0042 185.923 24.9249C185.844 24.8456 185.79 24.7446 185.768 24.6346C185.746 24.5246 185.757 24.4106 185.8 24.307C185.843 24.2034 185.916 24.1149 186.009 24.0526C186.102 23.9903 186.212 23.957 186.324 23.957C186.474 23.957 186.618 24.0168 186.725 24.1231C186.831 24.2294 186.891 24.3736 186.891 24.524V24.524Z" fill="#323232"/>
<path d="M189.146 34.1688L172.417 28.5693C171.026 28.1017 169.878 27.1009 169.224 25.7869C168.571 24.4729 168.466 22.9532 168.933 21.5619V21.5619C169.4 20.1709 170.401 19.0225 171.715 18.3691C173.029 17.7157 174.549 17.6107 175.94 18.0773L192.668 23.6705C194.058 24.1395 195.206 25.1405 195.859 26.454C196.512 27.7676 196.618 29.2865 196.153 30.6778V30.6778C195.685 32.069 194.685 33.2178 193.371 33.8722C192.057 34.5267 190.538 34.6333 189.146 34.1688V34.1688Z" stroke="#323232" stroke-linecap="round" stroke-linejoin="round"/>
<path d="M110.122 44.2785C120.715 44.2785 129.303 35.6908 129.303 25.0974C129.303 14.5039 120.715 5.91626 110.122 5.91626C99.5283 5.91626 90.9407 14.5039 90.9407 25.0974C90.9407 35.6908 99.5283 44.2785 110.122 44.2785Z" fill="#FAFAFA" stroke="#323232" stroke-linecap="round" stroke-linejoin="round"/>
<path d="M121.11 25.5879V33.4489C121.11 35.4429 119.836 37.0609 118.276 37.0609H101.968C100.401 37.0609 99.1328 35.4429 99.1328 33.4489V25.5879C99.1328 23.594 100.407 21.976 101.968 21.976H104.65V17.4148H115.479V21.976H118.257C119.836 21.976 121.11 23.594 121.11 25.5879Z" fill="#FAFAFA" stroke="#323232" stroke-linecap="round" stroke-linejoin="round"/>
<path d="M121.104 26.4927H99.1328V31.366H121.104V26.4927Z" fill="#14FFEC" stroke="#323232" stroke-miterlimit="10"/>
<path d="M106.147 12.0767H114.199C115.108 12.0767 115.979 12.4378 116.622 13.0805C117.265 13.7232 117.626 14.5949 117.626 15.5039V19.0649H102.713V15.5039C102.713 15.0533 102.802 14.6071 102.974 14.1909C103.147 13.7747 103.4 13.3966 103.719 13.0782C104.038 12.7599 104.416 12.5076 104.833 12.3357C105.25 12.1639 105.696 12.0758 106.147 12.0767V12.0767Z" fill="#14FFEC" stroke="#323232" stroke-miterlimit="10"/>
<path d="M105.318 12.2931V19.0648" stroke="#323232" stroke-linecap="round" stroke-linejoin="round"/>
<path d="M108.841 12.0767V19.0649" stroke="#323232" stroke-linecap="round" stroke-linejoin="round"/>
<path d="M112.364 12.0767V19.0649" stroke="#323232" stroke-linecap="round" stroke-linejoin="round"/>
<path d="M115.887 12.4714V19.0647" stroke="#323232" stroke-linecap="round" stroke-linejoin="round"/>
<path d="M60.9798 129.957C62.6936 119.503 55.6083 109.639 45.1544 107.925C34.7005 106.211 24.8367 113.297 23.1229 123.751C21.4092 134.205 28.4944 144.068 38.9483 145.782C49.4022 147.496 59.266 140.411 60.9798 129.957Z" fill="#FAFAFA" stroke="#323232" stroke-linecap="round" stroke-linejoin="round"/>
<path d="M51.7815 131.802C53.8707 127.384 50.9981 121.643 45.3654 118.979C39.7327 116.316 33.4729 117.738 31.3837 122.155C29.2945 126.573 32.167 132.314 37.7997 134.977C43.4324 137.641 49.6923 136.219 51.7815 131.802Z" fill="#14FFEC" stroke="#323232" stroke-linecap="round" stroke-linejoin="round"/>
<path d="M52.478 130.299C54.4379 126.155 51.4605 120.636 45.8278 117.972C40.1951 115.308 34.0401 116.508 32.0802 120.653C30.1204 124.797 33.0978 130.316 38.7305 132.98C44.3632 135.643 50.5182 134.443 52.478 130.299Z" fill="#14FFEC" stroke="#323232" stroke-linecap="round" stroke-linejoin="round"/>
<path d="M45.5327 119.805L38.5699 129.597" stroke="#323232" stroke-linecap="round" stroke-linejoin="round"/>
<path d="M41.3411 118.219C42.2742 118.345 43.1935 118.558 44.0867 118.856" stroke="#FAFAFA" stroke-linecap="round" stroke-linejoin="round"/>
<path d="M35.1555 127.437C35.1555 127.437 31.6008 123.545 35.0726 119.793C35.8738 118.976 36.9172 118.44 38.0476 118.264" stroke="#FAFAFA" stroke-linecap="round" stroke-linejoin="round"/>
<path d="M263.024 129.968C264.738 119.514 257.653 109.65 247.199 107.936C236.745 106.222 226.881 113.308 225.167 123.762C223.453 134.216 230.539 144.079 240.993 145.793C251.447 147.507 261.31 140.422 263.024 129.968Z" fill="#FAFAFA" stroke="#323232" stroke-linecap="round" stroke-linejoin="round"/>
<path d="M255.104 128.788C254.958 128.998 254.811 129.214 254.658 129.425C251.785 133.406 247.358 137.12 244.077 137.853V137.802C240.892 137.088 236.605 133.553 233.732 129.692C233.572 129.482 233.419 129.265 233.273 129.055C230.508 125.093 229.342 120.933 232.419 119.213C238.675 115.722 244.077 123.207 244.077 123.207C244.077 123.207 249.492 115.779 255.735 119.264C258.729 120.933 257.703 124.921 255.104 128.788Z" fill="#14FFEC" stroke="#323232" stroke-miterlimit="10"/>
<path d="M255.104 128.788C254.958 128.998 254.811 129.214 254.658 129.425H253.079L251.269 131.813L250.04 124.73L248.129 129.546H243.612L241.3 133.4L239.516 125.596L237.216 129.667H233.732C233.573 129.456 233.42 129.24 233.273 129.03H236.847L239.771 123.851L241.567 131.718L243.268 128.883H247.727L250.276 122.36L251.639 130.234L252.754 128.762L255.104 128.788Z" fill="#FAFAFA"/>
<path d="M225.629 89.2212C236.222 89.2212 244.81 80.6335 244.81 70.0401C244.81 59.4467 236.222 50.859 225.629 50.859C215.035 50.859 206.448 59.4467 206.448 70.0401C206.448 80.6335 215.035 89.2212 225.629 89.2212Z" fill="#FAFAFA" stroke="#323232" stroke-linecap="round" stroke-linejoin="round"/>
<path d="M224.189 61.1726C224.374 61.5867 223.221 62.504 221.641 63.2239C220.061 63.9437 218.583 64.1921 218.398 63.7717C218.213 63.3513 219.36 62.4403 220.946 61.7205C222.533 61.0006 223.998 60.7777 224.189 61.1726Z" fill="#FAFAFA" stroke="#323232" stroke-linecap="round" stroke-linejoin="round"/>
<path d="M232.821 78.9651L227.081 81.7426L221.934 71.1423L218.379 63.8164L224.119 61.0326L227.584 68.1801L232.821 78.9651Z" fill="#FAFAFA" stroke="#323232" stroke-linecap="round" stroke-linejoin="round"/>
<path d="M219.443 66.0014L221.934 64.8484Z" fill="#14FFEC"/>
<path d="M219.443 66.0014L221.934 64.8484" stroke="#323232" stroke-linecap="round" stroke-linejoin="round"/>
<path d="M220.526 68.3073L223.017 67.1543Z" fill="#14FFEC"/>
<path d="M220.526 68.3073L223.017 67.1543" stroke="#323232" stroke-linecap="round" stroke-linejoin="round"/>
<path d="M229.279 80.6788L232.241 84.5647L230.763 79.959L229.279 80.6788Z" fill="#FAFAFA" stroke="#323232" stroke-linecap="round" stroke-linejoin="round"/>
<path d="M232.821 78.965C231.477 80.3104 229.762 81.2242 227.896 81.5896L227.081 81.7425L221.934 71.1423L227.584 68.1801L232.821 78.965Z" fill="#14FFEC" stroke="#323232" stroke-miterlimit="10"/>
<path d="M223.017 73.1553L225.361 72.0724" stroke="#323232" stroke-linecap="round" stroke-linejoin="round"/>
<path d="M224.304 75.6207L226.603 74.5696Z" fill="#14FFEC"/>
<path d="M224.304 75.6207L226.603 74.5696" stroke="#323232" stroke-linecap="round" stroke-linejoin="round"/>
<path d="M220.367 62.848L218.551 58.7646L219.978 57.9556L221.934 62.0899L220.367 62.848Z" fill="#FAFAFA" stroke="#323232" stroke-linecap="round" stroke-linejoin="round"/>
<path d="M223.482 57.4588L223.049 56.5033L215.404 59.9242L215.838 60.8797C216.016 61.2874 217.87 60.8415 219.985 59.8987C222.1 58.9559 223.66 57.8602 223.482 57.4588Z" fill="#FAFAFA" stroke="#323232" stroke-linecap="round" stroke-linejoin="round"/>
<path d="M223.049 56.5033C222.87 56.102 221.01 56.5416 218.902 57.4844C216.793 58.4272 215.226 59.5229 215.404 59.9242C215.583 60.3256 217.443 59.886 219.552 58.9368C221.66 57.9876 223.227 56.9047 223.049 56.5033Z" fill="#FAFAFA" stroke="#323232" stroke-linecap="round" stroke-linejoin="round"/>
</svg>
