<svg width="281" height="280" viewBox="0 0 281 280" fill="none" xmlns="http://www.w3.org/2000/svg">
<path d="M38.5457 38.5635H21.5897V279.205H38.5457V38.5635Z" stroke="#0F0F0F" stroke-linecap="round" stroke-linejoin="round"/>
<path d="M50.051 102.917H10.0834V168.924H50.051V102.917Z" stroke="#0F0F0F" stroke-linecap="round" stroke-linejoin="round"/>
<path d="M17.8832 134.044H12.9962V140.021H17.8832V134.044Z" fill="#0F0F0F" stroke="#0F0F0F" stroke-linecap="round" stroke-linejoin="round"/>
<path d="M17.8832 151.659H12.9962V157.636H17.8832V151.659Z" fill="#0F0F0F" stroke="#0F0F0F" stroke-linecap="round" stroke-linejoin="round"/>
<path d="M17.8832 142.855H12.9962V148.832H17.8832V142.855Z" fill="#0F0F0F" stroke="#0F0F0F" stroke-linecap="round" stroke-linejoin="round"/>
<path d="M17.8832 106.69H12.9962V113.6H17.8832V106.69Z" fill="#0F0F0F" stroke="#0F0F0F" stroke-linecap="round" stroke-linejoin="round"/>
<path d="M17.8832 125.24H12.9962V131.216H17.8832V125.24Z" fill="#0F0F0F" stroke="#0F0F0F" stroke-linecap="round" stroke-linejoin="round"/>
<path d="M17.8832 160.464H12.9962V166.405H17.8832V160.464Z" fill="#0F0F0F" stroke="#0F0F0F" stroke-linecap="round" stroke-linejoin="round"/>
<path d="M17.8832 116.433H12.9962V122.41H17.8832V116.433Z" fill="#0F0F0F" stroke="#0F0F0F" stroke-linecap="round" stroke-linejoin="round"/>
<path d="M20.3787 21.1299H40.8469C42.1815 21.1299 43.4615 21.6601 44.4053 22.6038C45.349 23.5475 45.8792 24.8275 45.8792 26.1622V38.431H15.3706V26.1622C15.3706 24.8317 15.8974 23.5554 16.836 22.6123C17.7745 21.6693 19.0482 21.1363 20.3787 21.1299V21.1299Z" stroke="#0F0F0F" stroke-linecap="round" stroke-linejoin="round"/>
<path d="M137.054 46.8843V85.0109H90.976V46.8843" stroke="#0F0F0F" stroke-linecap="round" stroke-linejoin="round"/>
<path d="M141.692 1V46.8598H86.3365V1" stroke="#0F0F0F" stroke-linecap="round" stroke-linejoin="round"/>
<path d="M132.911 85.0476H95.1172V114.23H132.911V85.0476Z" stroke="#0F0F0F" stroke-linecap="round" stroke-linejoin="round"/>
<path d="M127.734 114.259H100.295V143.218H127.734V114.259Z" stroke="#0F0F0F" stroke-linecap="round" stroke-linejoin="round"/>
<path d="M151.986 118.384C147.65 118.384 143.491 120.106 140.425 123.173C137.359 126.239 135.636 130.398 135.636 134.734V143.212H93.2462V156.535H168.337V134.734C168.337 130.398 166.614 126.239 163.548 123.173C160.482 120.106 156.323 118.384 151.986 118.384V118.384Z" stroke="#0F0F0F" stroke-linecap="round" stroke-linejoin="round"/>
<path d="M238.583 111.819H234.344V68.4789C234.344 67.9167 234.567 67.3776 234.965 66.9802C235.362 66.5827 235.901 66.3594 236.463 66.3594H255.236V70.5984H238.583V111.819Z" fill="#0F0F0F"/>
<path d="M238.583 156.456H234.344V199.797C234.344 200.359 234.567 200.898 234.965 201.295C235.362 201.693 235.901 201.916 236.463 201.916H255.236V197.677H238.583V156.456Z" fill="#0F0F0F"/>
<path d="M262 111.722H206.288V156.534H262V111.722Z" stroke="#0F0F0F" stroke-linecap="round" stroke-linejoin="round"/>
<path d="M206.288 121.283H179.843V156.533H206.288V121.283Z" stroke="#0F0F0F" stroke-linecap="round" stroke-linejoin="round"/>
<path d="M206.288 86.1609H179.843V121.411H206.288V86.1609Z" stroke="#0F0F0F" stroke-linecap="round" stroke-linejoin="round"/>
<path d="M206.288 156.408H179.843V191.658H206.288V156.408Z" stroke="#0F0F0F" stroke-linecap="round" stroke-linejoin="round"/>
<path d="M206.288 86.1609H179.843V92.2166H206.288V86.1609Z" stroke="#0F0F0F" stroke-linecap="round" stroke-linejoin="round"/>
<path d="M179.842 156.535H168.337" stroke="#0F0F0F" stroke-linecap="round" stroke-linejoin="round"/>
<path d="M179.842 153.997H168.337" stroke="#0F0F0F" stroke-linecap="round" stroke-linejoin="round"/>
<path d="M203.26 129.363H183.476C183.155 129.363 182.847 129.235 182.62 129.008C182.393 128.781 182.265 128.473 182.265 128.152C182.265 127.831 182.393 127.523 182.62 127.295C182.847 127.068 183.155 126.941 183.476 126.941H203.26C203.582 126.941 203.89 127.068 204.117 127.295C204.344 127.523 204.471 127.831 204.471 128.152C204.471 128.473 204.344 128.781 204.117 129.008C203.89 129.235 203.582 129.363 203.26 129.363Z" stroke="#0F0F0F" stroke-miterlimit="10"/>
<path d="M203.26 136.223H183.476C183.155 136.223 182.847 136.095 182.62 135.868C182.393 135.641 182.265 135.333 182.265 135.012C182.265 134.691 182.393 134.383 182.62 134.156C182.847 133.928 183.155 133.801 183.476 133.801H203.26C203.582 133.801 203.89 133.928 204.117 134.156C204.344 134.383 204.471 134.691 204.471 135.012C204.471 135.333 204.344 135.641 204.117 135.868C203.89 136.095 203.582 136.223 203.26 136.223Z" stroke="#0F0F0F" stroke-miterlimit="10"/>
<path d="M203.26 143.085H183.476C183.155 143.085 182.847 142.957 182.62 142.73C182.393 142.503 182.265 142.195 182.265 141.874C182.265 141.553 182.393 141.244 182.62 141.017C182.847 140.79 183.155 140.663 183.476 140.663H203.26C203.582 140.663 203.89 140.79 204.117 141.017C204.344 141.244 204.471 141.553 204.471 141.874C204.471 142.195 204.344 142.503 204.117 142.73C203.89 142.957 203.582 143.085 203.26 143.085Z" stroke="#0F0F0F" stroke-miterlimit="10"/>
<path d="M203.26 149.951H183.476C183.155 149.951 182.847 149.823 182.62 149.596C182.393 149.369 182.265 149.061 182.265 148.74C182.265 148.419 182.393 148.111 182.62 147.884C182.847 147.656 183.155 147.529 183.476 147.529H203.26C203.582 147.529 203.89 147.656 204.117 147.884C204.344 148.111 204.471 148.419 204.471 148.74C204.471 149.061 204.344 149.369 204.117 149.596C203.89 149.823 203.582 149.951 203.26 149.951Z" stroke="#0F0F0F" stroke-miterlimit="10"/>
<path d="M212.344 118.463C213.571 118.463 214.566 117.468 214.566 116.241C214.566 115.013 213.571 114.018 212.344 114.018C211.117 114.018 210.122 115.013 210.122 116.241C210.122 117.468 211.117 118.463 212.344 118.463Z" stroke="#0F0F0F" stroke-miterlimit="10"/>
<path d="M228.694 116.241C228.694 116.68 228.563 117.11 228.319 117.475C228.075 117.841 227.728 118.126 227.322 118.294C226.915 118.462 226.469 118.506 226.038 118.42C225.606 118.334 225.21 118.123 224.9 117.812C224.589 117.501 224.377 117.105 224.291 116.674C224.206 116.243 224.25 115.796 224.418 115.39C224.586 114.984 224.871 114.637 225.236 114.393C225.602 114.148 226.032 114.018 226.471 114.018C226.763 114.018 227.052 114.076 227.322 114.187C227.591 114.299 227.836 114.463 228.043 114.669C228.249 114.875 228.413 115.12 228.524 115.39C228.636 115.66 228.694 115.949 228.694 116.241V116.241Z" stroke="#0F0F0F" stroke-miterlimit="10"/>
<path d="M242.822 116.241C242.822 116.68 242.692 117.11 242.447 117.476C242.203 117.841 241.855 118.126 241.449 118.294C241.042 118.462 240.595 118.506 240.164 118.42C239.733 118.334 239.337 118.121 239.026 117.81C238.715 117.498 238.504 117.102 238.419 116.67C238.334 116.239 238.379 115.792 238.548 115.386C238.717 114.98 239.003 114.633 239.369 114.39C239.736 114.146 240.166 114.017 240.606 114.018C240.897 114.018 241.186 114.076 241.455 114.187C241.725 114.299 241.969 114.463 242.175 114.669C242.381 114.876 242.544 115.121 242.655 115.39C242.766 115.66 242.823 115.949 242.822 116.241V116.241Z" stroke="#0F0F0F" stroke-miterlimit="10"/>
<path d="M254.734 118.463C255.961 118.463 256.956 117.468 256.956 116.241C256.956 115.013 255.961 114.018 254.734 114.018C253.507 114.018 252.512 115.013 252.512 116.241C252.512 117.468 253.507 118.463 254.734 118.463Z" stroke="#0F0F0F" stroke-miterlimit="10"/>
<path d="M151.987 118.383V90.2002H133.214" stroke="#0F0F0F" stroke-width="3" stroke-linejoin="round"/>
<path d="M245.777 124.058H212.471V149.546H245.777V124.058Z" fill="#0F0F0F" stroke="#0F0F0F" stroke-linecap="round" stroke-linejoin="round"/>
<path d="M229.124 126.067V133.104" stroke="#FAFAFA" stroke-linecap="round" stroke-linejoin="round"/>
<path d="M229.124 140.317V147.354" stroke="#FAFAFA" stroke-linecap="round" stroke-linejoin="round"/>
<path d="M239.764 136.708H232.733" stroke="#FAFAFA" stroke-linecap="round" stroke-linejoin="round"/>
<path d="M225.515 136.708H218.478" stroke="#FAFAFA" stroke-linecap="round" stroke-linejoin="round"/>
<path d="M209.922 226.333H163.705V264.72H209.922V226.333Z" stroke="#0F0F0F" stroke-linecap="round" stroke-linejoin="round"/>
<path d="M205.997 229.59H167.629V261.461H205.997V229.59Z" fill="#0F0F0F" stroke="#0F0F0F" stroke-linecap="round" stroke-linejoin="round"/>
<path d="M176.821 233.521H203.763" stroke="#FAFAFA" stroke-linecap="round" stroke-linejoin="round"/>
<path d="M171.129 233.521H173.593" stroke="#FAFAFA" stroke-linecap="round" stroke-linejoin="round"/>
<path d="M194.849 236.741H203.763" stroke="#FAFAFA" stroke-linecap="round" stroke-linejoin="round"/>
<path d="M177.96 236.741H191.24" stroke="#FAFAFA" stroke-linecap="round" stroke-linejoin="round"/>
<path d="M171.129 236.741H175.113" stroke="#FAFAFA" stroke-linecap="round" stroke-linejoin="round"/>
<path d="M171.129 239.969H203.763" stroke="#FAFAFA" stroke-linecap="round" stroke-linejoin="round"/>
<path d="M191.052 243.197H203.763" stroke="#FAFAFA" stroke-linecap="round" stroke-linejoin="round"/>
<path d="M171.129 243.197H184.221" stroke="#FAFAFA" stroke-linecap="round" stroke-linejoin="round"/>
<path d="M185.359 246.419H203.763" stroke="#FAFAFA" stroke-linecap="round" stroke-linejoin="round"/>
<path d="M171.129 246.419H181.563" stroke="#FAFAFA" stroke-linecap="round" stroke-linejoin="round"/>
<path d="M171.129 249.648H203.763" stroke="#FAFAFA" stroke-linecap="round" stroke-linejoin="round"/>
<path d="M188.394 252.875H203.763" stroke="#FAFAFA" stroke-linecap="round" stroke-linejoin="round"/>
<path d="M171.129 252.875H183.652" stroke="#FAFAFA" stroke-linecap="round" stroke-linejoin="round"/>
<path d="M183.004 279.137V264.707H189.562V279.125" stroke="#0F0F0F" stroke-linecap="round" stroke-linejoin="round"/>
<path d="M277.884 212.071H219.186V260.825H277.884V212.071Z" stroke="#0F0F0F" stroke-linecap="round" stroke-linejoin="round"/>
<path d="M272.901 216.208H224.171V256.684H272.901V216.208Z" fill="#0F0F0F" stroke="#0F0F0F" stroke-linecap="round" stroke-linejoin="round"/>
<path opacity="0.35" d="M249.41 226.326H225.484V255.908H249.41V226.326Z" fill="#FAFAFA"/>
<path opacity="0.35" d="M272.465 226.326H251.149V229.808H272.465V226.326Z" fill="#FAFAFA"/>
<path opacity="0.35" d="M272.465 231.402H251.149V234.884H272.465V231.402Z" fill="#FAFAFA"/>
<path opacity="0.35" d="M272.465 236.475H251.149V239.957H272.465V236.475Z" fill="#FAFAFA"/>
<path opacity="0.35" d="M272.465 241.556H251.149V245.038H272.465V241.556Z" fill="#FAFAFA"/>
<path opacity="0.35" d="M272.465 246.631H251.149V250.113H272.465V246.631Z" fill="#FAFAFA"/>
<path opacity="0.35" d="M272.18 218.787H225.484V223.861H272.18V218.787Z" fill="#FAFAFA"/>
<path d="M243.695 279.137V260.806H252.027V279.119" stroke="#0F0F0F" stroke-linecap="round" stroke-linejoin="round"/>
<path d="M271.689 279.138H276.534" stroke="#0F0F0F" stroke-linecap="round" stroke-linejoin="round"/>
<path d="M1 279.138H264.423" stroke="#0F0F0F" stroke-linecap="round" stroke-linejoin="round"/>
<path d="M8.57005 267.026H211.739C212.381 267.026 212.997 267.281 213.451 267.735C213.906 268.19 214.161 268.806 214.161 269.448V276.715C214.161 277.357 213.906 277.974 213.451 278.428C212.997 278.882 212.381 279.137 211.739 279.137H8.57005C8.00793 279.137 7.46883 278.914 7.07135 278.516C6.67386 278.119 6.45056 277.58 6.45056 277.018V269.145C6.45056 268.583 6.67386 268.044 7.07135 267.647C7.46883 267.249 8.00793 267.026 8.57005 267.026V267.026Z" fill="#FAFAFA" stroke="#0F0F0F" stroke-linecap="round" stroke-linejoin="round"/>
<path d="M98.0126 119.752C98.0126 119.752 100.58 114.938 100.58 111.407C100.58 107.877 99.1389 98.7389 99.2964 97.9335C99.4538 97.1281 103.626 91.357 104.141 90.7151C104.656 90.0732 108.628 89.1104 108.628 89.1104L109.27 91.5326C108.366 92.1026 107.509 92.7446 106.709 93.4523C105.903 94.2577 104.94 96.4801 104.94 96.4801C105.835 95.6735 106.858 95.0225 107.968 94.5544C109.409 94.07 110.53 93.749 110.53 93.749V99.3687C110.53 99.3687 110.851 105.14 110.209 108.349C109.567 111.559 102.827 122.174 102.663 122.629C102.5 123.083 98.0126 119.752 98.0126 119.752Z" fill="#FAFAFA" stroke="#0F0F0F" stroke-linecap="round" stroke-linejoin="round"/>
<path d="M96.074 56.5363C96.074 56.5363 102.172 73.0562 105.061 83.0057C107.949 92.9552 109.711 111.558 109.711 113.805V121.986C109.711 121.986 120.612 117.65 136.659 118.135C152.707 118.619 171.631 120.557 171.631 120.557L168.742 93.7485L163.129 69.0473L158.169 45.1455C158.169 45.1455 108.791 55.5613 96.074 56.5363Z" fill="#0F0F0F" stroke="#0F0F0F" stroke-linecap="round" stroke-linejoin="round"/>
<path opacity="0.4" d="M117.366 56.0167C117.366 56.0167 117.366 57.6699 115.713 60.1527C114.06 62.6356 103.305 67.1834 103.305 67.1834L107.78 86.8462L111.577 87.034C111.577 87.034 116.131 101.507 116.955 104.402C117.778 107.296 119.849 115.986 119.849 115.986C124.638 115.141 129.473 114.578 134.328 114.303C142.201 113.891 158.727 115.962 158.727 115.962L156.662 80.3909L162.863 79.1797L158.727 58.4995L138.876 54.7813L138.047 51.8867L117.366 56.0167Z" fill="#FAFAFA" stroke="#FAFAFA" stroke-miterlimit="10"/>
<path d="M127.443 69.2477C127.443 69.2477 123.325 62.2231 117.833 66.3531C112.34 70.483 114.06 82.0979 115.411 88.2747C116.761 94.4515 118.499 106.06 119.529 107.296C120.558 108.531 121.951 106.084 122.611 103.577C123.271 101.07 129.157 96.1349 129.157 96.1349V83.309C129.157 79.5908 129.502 73.3837 127.443 69.2477Z" fill="#0F0F0F"/>
<g opacity="0.4">
<path opacity="0.4" d="M114.06 77.2956C113.933 77.2944 113.81 77.2535 113.708 77.1787C113.606 77.1039 113.53 76.999 113.49 76.8787C113.451 76.7584 113.45 76.6288 113.488 76.508C113.526 76.3873 113.601 76.2815 113.703 76.2056C113.793 76.139 123.119 69.3869 130.556 74.9944C130.684 75.0908 130.769 75.2343 130.792 75.3933C130.814 75.5523 130.773 75.7138 130.677 75.8423C130.58 75.9707 130.437 76.0557 130.278 76.0784C130.119 76.1011 129.957 76.0597 129.829 75.9634C123.107 70.9129 114.508 77.1442 114.417 77.1745C114.314 77.2519 114.189 77.2943 114.06 77.2956V77.2956Z" fill="#FAFAFA" stroke="#FAFAFA" stroke-miterlimit="10"/>
</g>
<g opacity="0.4">
<path opacity="0.4" d="M114.472 84.3259C114.341 84.3259 114.213 84.2834 114.108 84.2047C113.981 84.1075 113.897 83.9636 113.875 83.8046C113.854 83.6457 113.896 83.4847 113.993 83.3569C114.157 83.1389 118.135 77.9795 123.277 77.7009C125.79 77.5616 128.121 78.6153 130.217 80.8257C130.327 80.9421 130.387 81.0978 130.383 81.2585C130.379 81.4192 130.312 81.5717 130.195 81.6825C130.079 81.7934 129.923 81.8534 129.762 81.8494C129.602 81.8454 129.449 81.7778 129.338 81.6614C127.522 79.7175 125.487 78.797 123.349 78.9121C118.765 79.1543 114.992 84.0412 114.956 84.0897C114.899 84.1638 114.826 84.2237 114.742 84.2646C114.658 84.3056 114.565 84.3266 114.472 84.3259Z" fill="#FAFAFA" stroke="#FAFAFA" stroke-miterlimit="10"/>
</g>
<g opacity="0.4">
<path opacity="0.4" d="M114.89 90.5326C114.774 90.5323 114.66 90.4986 114.563 90.4357C114.428 90.3488 114.333 90.212 114.299 90.0554C114.265 89.8987 114.295 89.735 114.381 89.6C114.545 89.3396 118.547 83.1991 123.501 82.8782C125.657 82.7389 127.655 83.726 129.411 85.8152C129.515 85.938 129.565 86.097 129.552 86.2571C129.538 86.4173 129.462 86.5654 129.339 86.669C129.216 86.7726 129.057 86.8232 128.897 86.8095C128.737 86.7959 128.588 86.7192 128.485 86.5964C126.989 84.816 125.336 83.9742 123.58 84.0893C119.238 84.3618 115.435 90.1934 115.398 90.254C115.344 90.3393 115.269 90.4095 115.18 90.4581C115.091 90.5068 114.991 90.5324 114.89 90.5326V90.5326Z" fill="#FAFAFA" stroke="#FAFAFA" stroke-miterlimit="10"/>
</g>
<g opacity="0.4">
<path opacity="0.4" d="M116.954 96.741C116.833 96.7412 116.715 96.7054 116.615 96.638C116.549 96.5935 116.492 96.5365 116.448 96.4701C116.404 96.4037 116.374 96.3293 116.359 96.2511C116.343 96.1729 116.344 96.0925 116.36 96.0144C116.376 95.9364 116.407 95.8622 116.452 95.7963C116.609 95.5661 120.327 90.1766 124.929 89.9525C127.037 89.8435 128.95 90.8245 130.646 92.8532C130.699 92.913 130.74 92.9828 130.767 93.0586C130.793 93.1344 130.804 93.2146 130.798 93.2945C130.793 93.3745 130.772 93.4527 130.737 93.5246C130.701 93.5964 130.652 93.6605 130.592 93.7131C130.53 93.7641 130.46 93.8025 130.384 93.8262C130.308 93.8498 130.228 93.8582 130.148 93.8509C130.069 93.8436 129.992 93.8207 129.921 93.7835C129.851 93.7464 129.789 93.6957 129.738 93.6344C128.303 91.9146 126.71 91.0849 125.014 91.1637C120.999 91.3635 117.505 96.4321 117.469 96.4866C117.411 96.5683 117.333 96.6343 117.244 96.6787C117.154 96.7231 117.054 96.7445 116.954 96.741V96.741Z" fill="#FAFAFA" stroke="#FAFAFA" stroke-miterlimit="10"/>
</g>
<g opacity="0.4">
<path opacity="0.4" d="M121.09 105.825C120.93 105.825 120.776 105.761 120.662 105.647C120.548 105.534 120.485 105.38 120.485 105.219C120.485 104.983 120.751 99.4419 123.991 96.7955C124.723 96.2147 125.574 95.8018 126.483 95.5863C127.393 95.3707 128.338 95.3576 129.253 95.5481C129.414 95.5737 129.558 95.6622 129.653 95.7939C129.748 95.9257 129.788 96.0899 129.762 96.2505C129.736 96.4111 129.648 96.5549 129.516 96.6503C129.384 96.7457 129.22 96.7849 129.059 96.7592C128.314 96.6011 127.542 96.6081 126.8 96.7797C126.057 96.9513 125.361 97.2832 124.76 97.7523C121.944 100.047 121.696 105.231 121.696 105.286C121.679 105.434 121.608 105.572 121.496 105.671C121.385 105.771 121.24 105.825 121.09 105.825V105.825Z" fill="#FAFAFA" stroke="#FAFAFA" stroke-miterlimit="10"/>
</g>
<g opacity="0.4">
<path opacity="0.4" d="M127.709 72.3364C127.617 72.3369 127.526 72.3165 127.443 72.2766C127.36 72.2367 127.288 72.1785 127.231 72.1063C123.052 66.7834 115.259 70.98 115.18 71.0223C115.039 71.1027 114.871 71.1235 114.714 71.0804C114.558 71.0372 114.424 70.9336 114.344 70.7922C114.264 70.6509 114.243 70.4835 114.286 70.3267C114.329 70.17 114.433 70.0368 114.574 69.9565C114.659 69.9081 123.349 65.2331 128.163 71.3554C128.213 71.4181 128.25 71.49 128.271 71.567C128.293 71.6439 128.299 71.7244 128.29 71.8038C128.28 71.8832 128.255 71.9599 128.216 72.0295C128.176 72.0991 128.123 72.1602 128.06 72.2093C127.96 72.2876 127.837 72.3321 127.709 72.3364V72.3364Z" fill="#FAFAFA" stroke="#FAFAFA" stroke-miterlimit="10"/>
</g>
<path d="M135.733 66.7404C135.733 66.7404 138.307 58.868 144.999 61.4538C151.69 64.0396 152.701 75.7331 152.78 82.1037C152.859 88.4743 153.864 100.162 153.101 101.627C152.338 103.093 150.309 101.022 149.001 98.8114C147.693 96.601 140.445 93.2704 140.445 93.2704C140.445 93.2704 138.246 84.4412 137.35 80.826C136.454 77.2107 134.601 71.3064 135.733 66.7404Z" fill="#0F0F0F"/>
<g opacity="0.4">
<path opacity="0.4" d="M135.594 73.0631C135.444 73.0627 135.299 73.0066 135.188 72.9056C135.069 72.7979 134.998 72.6475 134.99 72.4875C134.983 72.3274 135.038 72.1707 135.146 72.0518C141.371 65.1483 151.817 69.9807 151.92 70.0292C151.993 70.062 152.06 70.1092 152.115 70.1679C152.17 70.2266 152.212 70.2957 152.241 70.3711C152.269 70.4466 152.281 70.5268 152.278 70.6072C152.275 70.6877 152.255 70.7666 152.221 70.8394C152.187 70.9123 152.138 70.9776 152.079 71.0315C152.019 71.0854 151.949 71.1269 151.873 71.1535C151.797 71.1801 151.717 71.1913 151.636 71.1865C151.556 71.1816 151.477 71.1608 151.405 71.1252C151.308 71.0768 141.662 66.6319 136.048 72.8632C135.991 72.9267 135.921 72.9774 135.842 73.0118C135.764 73.0462 135.679 73.0637 135.594 73.0631V73.0631Z" fill="#FAFAFA" stroke="#FAFAFA" stroke-miterlimit="10"/>
</g>
<g opacity="0.4">
<path opacity="0.4" d="M137.113 78.6644C137 78.6648 136.889 78.6333 136.792 78.5736C136.725 78.5311 136.667 78.4757 136.621 78.4107C136.575 78.3456 136.543 78.2722 136.525 78.1946C136.508 78.117 136.506 78.0368 136.52 77.9584C136.533 77.88 136.562 77.8051 136.605 77.7379C138.234 75.1642 140.323 73.6867 142.812 73.3354C147.917 72.6209 152.804 76.9204 153.01 77.1021C153.07 77.1551 153.119 77.2195 153.154 77.2916C153.189 77.3636 153.209 77.4419 153.213 77.5219C153.218 77.6019 153.206 77.682 153.18 77.7575C153.153 77.833 153.112 77.9025 153.058 77.962C152.951 78.0814 152.801 78.1536 152.641 78.1627C152.481 78.1718 152.324 78.117 152.204 78.0104C152.162 77.968 147.523 73.8986 142.975 74.5344C140.856 74.8372 139.057 76.1271 137.628 78.3859C137.573 78.472 137.497 78.5427 137.407 78.5915C137.317 78.6402 137.216 78.6653 137.113 78.6644Z" fill="#FAFAFA" stroke="#FAFAFA" stroke-miterlimit="10"/>
</g>
<g opacity="0.4">
<path opacity="0.4" d="M153.392 84.3268C153.31 84.3273 153.23 84.3114 153.155 84.2802C153.08 84.249 153.012 84.2031 152.956 84.1451C152.907 84.0967 148.069 79.1068 143.745 79.6639C141.995 79.888 140.535 81.0325 139.409 83.0672C139.369 83.1368 139.316 83.1978 139.253 83.2469C139.189 83.296 139.117 83.3321 139.04 83.3532C138.962 83.3743 138.882 83.3799 138.802 83.3698C138.723 83.3597 138.646 83.334 138.576 83.2943C138.507 83.2545 138.446 83.2014 138.397 83.1381C138.348 83.0747 138.311 83.0023 138.29 82.925C138.269 82.8477 138.264 82.767 138.274 82.6874C138.284 82.6079 138.309 82.5312 138.349 82.4616C139.675 80.0757 141.438 78.7192 143.587 78.4406C148.505 77.8351 153.616 83.0611 153.834 83.2852C153.89 83.3415 153.935 83.4085 153.966 83.4823C153.997 83.5561 154.013 83.6352 154.013 83.7152C154.013 83.7951 153.997 83.8742 153.966 83.948C153.935 84.0218 153.89 84.0888 153.834 84.1451C153.776 84.2038 153.707 84.2502 153.631 84.2814C153.555 84.3126 153.474 84.3281 153.392 84.3268Z" fill="#FAFAFA" stroke="#FAFAFA" stroke-miterlimit="10"/>
</g>
<g opacity="0.4">
<path opacity="0.4" d="M152.556 90.8127C152.398 90.8137 152.246 90.7528 152.132 90.6432C152.083 90.5947 147.669 86.2891 143.702 86.8705C142.019 87.1127 140.62 88.2391 139.542 90.2011C139.502 90.2707 139.449 90.3318 139.386 90.3808C139.323 90.4299 139.25 90.466 139.173 90.4871C139.096 90.5082 139.015 90.5138 138.935 90.5037C138.856 90.4936 138.779 90.468 138.709 90.4282C138.64 90.3884 138.579 90.3354 138.53 90.272C138.481 90.2086 138.445 90.1362 138.423 90.0589C138.402 89.9816 138.397 89.9009 138.407 89.8214C138.417 89.7419 138.443 89.6651 138.482 89.5955C139.754 87.2762 141.45 85.9621 143.533 85.6472C148.105 84.9811 152.786 89.5592 152.98 89.753C153.036 89.8093 153.082 89.8763 153.112 89.9501C153.143 90.0239 153.159 90.103 153.159 90.1829C153.159 90.2629 153.143 90.342 153.112 90.4158C153.082 90.4896 153.036 90.5566 152.98 90.6129C152.926 90.6727 152.861 90.7212 152.788 90.7555C152.715 90.7898 152.636 90.8093 152.556 90.8127V90.8127Z" fill="#FAFAFA" stroke="#FAFAFA" stroke-miterlimit="10"/>
</g>
<g opacity="0.4">
<path opacity="0.4" d="M150.243 100.537C150.104 100.541 149.967 100.496 149.857 100.411C149.747 100.326 149.669 100.206 149.637 100.071C149.637 100.022 148.39 94.9839 145.18 93.2701C144.502 92.9218 143.755 92.7276 142.993 92.7014C142.231 92.6753 141.472 92.8178 140.772 93.1187C140.696 93.1541 140.613 93.1733 140.53 93.1752C140.446 93.177 140.363 93.1616 140.285 93.1297C140.208 93.0978 140.138 93.0502 140.08 92.9899C140.022 92.9296 139.977 92.8579 139.948 92.7794C139.919 92.7008 139.906 92.6171 139.911 92.5336C139.916 92.45 139.939 92.3684 139.977 92.2939C140.015 92.2193 140.068 92.1535 140.133 92.1006C140.198 92.0476 140.273 92.0087 140.354 91.9863C141.215 91.6223 142.145 91.4531 143.079 91.4908C144.013 91.5284 144.927 91.7721 145.755 92.2043C149.443 94.1785 150.763 99.562 150.818 99.7921C150.854 99.9479 150.828 100.112 150.744 100.248C150.66 100.384 150.525 100.481 150.37 100.519L150.243 100.537Z" fill="#FAFAFA" stroke="#FAFAFA" stroke-miterlimit="10"/>
</g>
<g opacity="0.4">
<path opacity="0.4" d="M137.314 68.9336C137.219 68.9352 137.125 68.9123 137.042 68.8669C136.899 68.7943 136.791 68.6682 136.741 68.5162C136.691 68.3641 136.703 68.1985 136.775 68.0555C140.324 61.1217 149.752 64.0406 149.843 64.0708C149.919 64.0949 149.99 64.1338 150.051 64.1852C150.112 64.2366 150.162 64.2996 150.199 64.3705C150.235 64.4414 150.257 64.5189 150.264 64.5984C150.271 64.6779 150.261 64.7579 150.237 64.8339C150.213 64.9099 150.174 64.9805 150.123 65.0415C150.071 65.1024 150.008 65.1527 149.937 65.1893C149.866 65.2258 149.789 65.248 149.709 65.2546C149.63 65.2612 149.55 65.2519 149.474 65.2275C149.129 65.1124 140.935 62.5872 137.859 68.6066C137.807 68.7062 137.729 68.7896 137.633 68.8473C137.537 68.905 137.426 68.9349 137.314 68.9336V68.9336Z" fill="#FAFAFA" stroke="#FAFAFA" stroke-miterlimit="10"/>
</g>
<g opacity="0.4">
<path opacity="0.4" d="M128.951 70.7018C128.624 70.7018 120.951 70.2597 115.568 68.6065C110.523 67.0562 107.017 69.3332 106.981 69.3574C106.847 69.4362 106.689 69.4609 106.538 69.4266C106.387 69.3922 106.255 69.3014 106.169 69.1727C106.083 69.044 106.05 68.8873 106.075 68.7347C106.101 68.5821 106.185 68.4452 106.308 68.3521C106.472 68.2431 110.335 65.73 115.925 67.4498C121.169 69.0607 128.933 69.4846 129.011 69.4906C129.091 69.4926 129.169 69.5102 129.242 69.5425C129.315 69.5748 129.38 69.621 129.435 69.6787C129.49 69.7363 129.533 69.8042 129.561 69.8784C129.59 69.9527 129.604 70.0318 129.602 70.1113C129.6 70.1908 129.582 70.2692 129.55 70.3419C129.518 70.4146 129.471 70.4803 129.414 70.5351C129.356 70.5899 129.288 70.6329 129.214 70.6615C129.14 70.69 129.061 70.7037 128.981 70.7018H128.951Z" fill="#FAFAFA" stroke="#FAFAFA" stroke-miterlimit="10"/>
</g>
<g opacity="0.4">
<path opacity="0.4" d="M133.499 70.2655C133.419 70.2738 133.339 70.2664 133.262 70.2437C133.185 70.221 133.114 70.1834 133.052 70.1331C132.99 70.0827 132.938 70.0207 132.9 69.9504C132.862 69.8801 132.838 69.803 132.829 69.7235C132.821 69.644 132.828 69.5636 132.851 69.4869C132.874 69.4102 132.911 69.3388 132.962 69.2767C133.063 69.1512 133.211 69.0712 133.371 69.0543C133.426 69.0543 139.094 67.8008 143.06 65.0152C147.184 62.1266 154.712 60.3523 158.297 60.3523C158.457 60.3523 158.611 60.4161 158.725 60.5297C158.838 60.6432 158.902 60.7973 158.902 60.9579C158.902 61.1185 158.838 61.2725 158.725 61.3861C158.611 61.4996 158.457 61.5634 158.297 61.5634C154.875 61.5634 147.681 63.253 143.763 66.0023C139.578 68.9393 133.862 70.1867 133.62 70.2412C133.581 70.2548 133.54 70.2629 133.499 70.2655V70.2655Z" fill="#FAFAFA" stroke="#FAFAFA" stroke-miterlimit="10"/>
</g>
<path opacity="0.4" d="M126.056 54.3508C126.056 54.3508 127.34 61.8174 128.121 65.5175C129.986 74.3346 133.619 102.923 133.619 105.824C133.619 108.725 132.669 113.915 132.669 113.915L138.464 113.509L133.498 73.8017L130.791 59.4012L130.131 53.5696L126.056 54.3508Z" fill="#FAFAFA" stroke="#FAFAFA" stroke-miterlimit="10"/>
<path opacity="0.4" d="M129.829 75.94C129.829 75.94 128.37 86.0409 128.37 89.2626C128.37 92.4842 130.792 94.1071 133.214 94.9125C135.637 95.7179 142.504 96.5294 142.504 94.5129C142.504 92.4963 141.692 85.2355 141.692 85.2355L138.87 81.2024C138.87 81.2024 138.465 75.4798 136.048 72.8698C133.632 70.2598 129.266 68.2796 129.829 75.94Z" fill="#FAFAFA" stroke="#FAFAFA" stroke-miterlimit="10"/>
<path opacity="0.4" d="M153.682 115.325C153.682 115.325 156.632 105.418 144.926 100.186C133.22 94.9541 131.682 96.7769 127.159 100.186C122.635 103.596 122.314 110.681 122.314 110.681L122.72 115.525C122.72 115.525 134.764 112.758 153.682 115.325Z" fill="#FAFAFA" stroke="#FAFAFA" stroke-miterlimit="10"/>
<path d="M74.9152 147.166C74.9152 147.166 77.3375 141.716 84.0593 135.14C90.7811 128.563 97.2123 119.395 97.2123 119.395L98.0116 118.59C98.0116 118.59 98.6535 117.948 102.021 119.395C103.94 120.153 105.57 121.499 106.677 123.24C106.677 123.24 104.11 128.376 101.058 133.668C98.0056 138.961 94.1602 145.223 93.5183 147.142C92.8764 149.062 91.2777 151.987 91.096 152.441C90.9144 152.895 82.7573 155.002 78.4215 154.04C74.0856 153.077 72.5051 150.86 74.9152 147.166Z" fill="#0F0F0F" stroke="#0F0F0F" stroke-linecap="round" stroke-linejoin="round"/>
<path d="M77.7134 103.916C78.4081 105.139 79.3863 106.178 80.5657 106.944C82.2794 107.895 86.6516 107.326 86.6516 109.415C86.6516 111.504 83.6238 114.932 83.6238 115.501C83.6238 116.07 84.95 124.052 84.95 126.904C84.95 129.756 84.95 130.325 83.2423 131.47C81.5346 132.614 76.2056 132.99 76.2056 132.99C76.2056 132.99 74.8733 139.651 74.8733 142.497C74.8325 144.052 75.0915 145.6 75.6363 147.057C75.6363 147.057 68.0304 149.34 63.4704 149.34C58.9105 149.34 49.9723 147.057 49.9723 147.057C49.9723 147.057 53.2 145.156 51.3045 139.833C49.4091 134.51 38.739 120.836 43.8742 110.378C49.0094 99.9196 62.8891 99.9196 67.2613 100.083C71.6335 100.247 77.7134 103.916 77.7134 103.916Z" fill="#FAFAFA" stroke="#0F0F0F" stroke-linecap="round" stroke-linejoin="round"/>
<path d="M79.6154 109.045L81.1354 110.377C81.1354 110.377 80.9476 112.66 79.0461 112.66" stroke="#0F0F0F" stroke-linecap="round" stroke-linejoin="round"/>
<path d="M78.2824 98.2123C78.2824 98.2123 79.427 103.535 77.144 112.661C74.861 121.787 73.1533 123.307 73.1533 123.307C73.376 124.618 73.8959 125.861 74.6733 126.94C75.0366 127.341 75.4759 127.664 75.9655 127.893C76.4552 128.122 76.9855 128.251 77.5255 128.273C77.4113 129.139 77.0106 129.943 76.387 130.556C75.6958 131.061 74.9239 131.446 74.104 131.694C74.2707 132.228 74.6038 132.695 75.0548 133.026C75.6881 133.399 76.4093 133.595 77.144 133.596C77.144 133.596 77.144 135.116 74.6733 137.017C73.0772 138.166 71.1221 138.706 69.1626 138.537L71.058 140.439C71.058 140.439 70.6825 141.771 66.8796 143.103C63.0766 144.435 60.9874 143.291 60.9874 143.291L61.3628 145.005C61.3628 145.005 56.6152 146.143 55.6644 145.192L52.9999 142.534L52.6184 145.192L48.985 144.623L44.9943 142.909C44.9943 142.909 47.0835 142.534 47.2712 141.389C47.459 140.245 47.0835 139.112 45.7513 138.162C44.419 137.211 35.8684 132.645 34.3423 126.371C32.8163 120.098 36.2438 107.169 40.4283 102.039C44.6128 96.9103 49.5542 95.9535 49.5542 95.9535C49.5542 95.9535 57.1602 90.249 64.5724 90.249C71.9845 90.249 75.624 89.2741 78.2824 98.2123Z" fill="#BFBFBF" stroke="#0F0F0F" stroke-linecap="round" stroke-linejoin="round"/>
<path d="M73.9103 118.742C73.9103 118.742 71.4395 125.591 68.0181 129.769" stroke="#0F0F0F" stroke-linecap="round" stroke-linejoin="round"/>
<path d="M68.5877 119.503C68.5877 119.503 67.2615 126.346 64.2155 131.481" stroke="#0F0F0F" stroke-linecap="round" stroke-linejoin="round"/>
<path d="M50.5297 97.6426C46.1637 100.071 42.8969 104.084 41.4038 108.852" stroke="#0F0F0F" stroke-linecap="round" stroke-linejoin="round"/>
<path d="M48.4403 101.821C48.4403 101.821 50.5295 96.4985 58.735 96.4985" stroke="#0F0F0F" stroke-linecap="round" stroke-linejoin="round"/>
<path d="M41.7854 114.563C41.7854 114.563 40.6409 121.569 44.2562 129.963" stroke="#0F0F0F" stroke-linecap="round" stroke-linejoin="round"/>
<path d="M46.1876 126.026C47.2292 128.927 48.9187 132.263 51.4803 134.334" stroke="#0F0F0F" stroke-linecap="round" stroke-linejoin="round"/>
<path d="M44.8252 120.456C44.9263 121.528 45.1291 122.589 45.4308 123.623" stroke="#0F0F0F" stroke-linecap="round" stroke-linejoin="round"/>
<path d="M61.4602 130.385C61.1685 131.034 60.8179 131.654 60.4126 132.239" stroke="#0F0F0F" stroke-linecap="round" stroke-linejoin="round"/>
<path d="M63.8404 111.516C63.8404 111.516 64.446 120.696 62.4718 127.6" stroke="#0F0F0F" stroke-linecap="round" stroke-linejoin="round"/>
<path d="M104.11 101.131C104.11 101.131 107.32 96.8009 108.282 95.1961C109.287 93.3593 110.099 91.4233 110.705 89.419C110.862 88.6196 112.309 88.1352 112.63 91.3447C112.951 94.5542 111.504 98.2421 110.541 99.3685C109.998 99.9569 109.612 100.674 109.421 101.452C109.421 101.452 109.899 106.587 109.1 108.827C108.74 109.976 108.198 111.06 107.495 112.037" fill="#FAFAFA"/>
<path d="M104.11 101.131C104.11 101.131 107.32 96.8009 108.282 95.1961C109.287 93.3593 110.099 91.4233 110.705 89.419C110.862 88.6196 112.309 88.1352 112.63 91.3447C112.951 94.5542 111.504 98.2421 110.541 99.3685C109.998 99.9569 109.612 100.674 109.421 101.452C109.421 101.452 109.899 106.587 109.1 108.827C108.74 109.976 108.198 111.06 107.495 112.037" stroke="#0F0F0F" stroke-linecap="round" stroke-linejoin="round"/>
<path d="M164.582 117.008C164.582 117.008 166.35 112.2 166.35 110.432C166.35 108.664 165.224 105.944 164.746 104.176C164.106 101.322 163.621 98.4353 163.292 95.5287C163.135 93.7604 162.971 91.9982 162.971 89.4306C162.971 86.863 162.814 85.2582 164.255 86.4028C165.696 87.5473 165.702 89.7697 165.539 91.3745C165.375 92.9793 165.381 93.3002 165.86 94.0996C166.338 94.8989 167.786 96.6672 167.786 96.6672C167.786 96.6672 168.106 92.1799 168.106 91.538C168.106 90.8961 166.508 84.6284 166.508 84.6284C166.508 84.6284 169.075 82.7027 169.717 84.7859C170.359 86.869 170.838 86.8691 171.479 88.1529C172.451 89.8464 173.7 91.3652 175.173 92.6462C176.772 94.0874 177.899 96.8186 177.414 98.9017C176.93 100.985 174.047 111.255 173.405 114.144C172.763 117.032 171.643 120.557 171.643 120.557L164.582 117.008Z" fill="#FAFAFA" stroke="#0F0F0F" stroke-linecap="round" stroke-linejoin="round"/>
<path d="M171.001 87.4939C171.001 87.4939 172.606 90.0615 172.606 92.3384" stroke="#0F0F0F" stroke-linecap="round" stroke-linejoin="round"/>
<path d="M168.276 85.7319C168.276 85.7319 167.792 88.7598 168.113 90.5765" stroke="#0F0F0F" stroke-linecap="round" stroke-linejoin="round"/>
<path d="M133.165 152.399L143.732 149.868C143.732 149.868 152.695 136.77 157.055 130.108C161.415 123.447 165.109 114.715 165.109 114.715C165.109 114.715 169.475 115.865 170.856 116.532C172.237 117.198 175.446 121.812 175.446 121.812C175.446 121.812 168.095 137.206 164.879 149.844C161.663 162.482 157.757 168.683 155.456 169.604C153.155 170.524 135.236 174.254 135.236 174.254C135.236 174.254 135.236 157.904 133.165 152.399Z" fill="#0F0F0F" stroke="#0F0F0F" stroke-linecap="round" stroke-linejoin="round"/>
<path d="M36.7591 248.89C35.124 253.794 34.3057 258.933 34.3368 264.102C34.3049 269.139 34.7102 274.17 35.548 279.138H105.479C107.178 270.029 107.99 260.777 107.901 251.512L107.726 246.789C107.726 246.789 61.9145 243.991 51.9468 242.416C41.9791 240.842 40.0534 240.666 40.0534 240.666L36.7591 248.89Z" fill="#14FFEC" stroke="#0F0F0F" stroke-linecap="round" stroke-linejoin="round"/>
<path d="M52.516 256.648C52.516 256.648 68.4001 262.146 80.0088 262.146H101.809L104.456 259.724L105.273 261.965H107.308L109.349 246.892L101.404 246.286L52.516 256.648Z" fill="#0F0F0F" stroke="#0F0F0F" stroke-linecap="round" stroke-linejoin="round"/>
<path d="M102.312 263.454C101.864 267.372 100.95 273.143 99.2115 277.382" stroke="#0F0F0F" stroke-linecap="round" stroke-linejoin="round"/>
<path d="M102.7 259.149C102.7 259.149 102.657 259.839 102.56 260.966" stroke="#0F0F0F" stroke-linecap="round" stroke-linejoin="round"/>
<path d="M50.2568 256.284C49.6331 258.225 49.1593 260.212 48.8397 262.225" stroke="#0F0F0F" stroke-linecap="round" stroke-linejoin="round"/>
<path d="M94.5054 273.318C93.6395 273.421 92.9673 273.487 92.6887 273.487" stroke="#0F0F0F" stroke-linecap="round" stroke-linejoin="round"/>
<path d="M103.517 272.053C103.517 272.053 100.144 272.568 97.1222 272.979" stroke="#0F0F0F" stroke-linecap="round" stroke-linejoin="round"/>
<path d="M99.4167 271.03L93.682 271.847" stroke="#0F0F0F" stroke-linecap="round" stroke-linejoin="round"/>
<path d="M41.2164 151.848C41.2164 151.848 36.8442 156.008 35.6997 157.904C34.5552 159.799 34.749 166.648 34.749 170.257C34.749 173.866 33.6105 179.946 35.512 185.275C37.4135 190.604 39.6904 195.921 39.6904 195.921C39.6904 195.921 45.9641 215.905 46.3517 218.545C46.7392 221.186 38.3642 241.369 37.4135 244.978C36.4627 248.588 36.0812 250.683 36.0812 250.683C36.0812 250.683 44.6379 254.674 58.136 258.095C71.6342 261.517 93.3075 260.19 97.2861 259.639L101.277 259.034L103.56 250.289L105.268 258.658C107.296 258.331 109.277 257.755 111.166 256.944C112.807 256.049 114.338 254.964 115.726 253.711C115.726 253.711 110.403 230.899 109.452 225.388C108.501 219.878 106.218 211.696 106.424 205.616C106.63 199.536 107.756 183.943 107.756 183.943L133.227 182.799H135.128C135.128 182.799 138.156 166.83 137.03 160.556C135.903 154.282 134.177 151.848 134.177 151.848C134.177 151.848 113.836 152.986 111.553 152.986C109.27 152.986 96.9167 150.516 94.2583 150.516C91.5998 150.516 81.1356 151.848 81.1356 151.848C81.1356 151.848 71.0589 152.229 61.1518 152.229C55.216 152.233 49.2939 151.659 43.4692 150.516L41.2164 151.848Z" fill="#14FFEC" stroke="#0F0F0F" stroke-linecap="round" stroke-linejoin="round"/>
<path d="M52.0854 181.811C52.0961 182.59 52.1466 183.368 52.2368 184.142" stroke="#0F0F0F" stroke-linecap="round" stroke-linejoin="round"/>
<path d="M58.7047 160.186C58.7047 160.186 53.5513 168.857 52.3402 177.923" stroke="#0F0F0F" stroke-linecap="round" stroke-linejoin="round"/>
<path d="M53.382 163.42C50.7459 169.126 49.5702 175.398 49.9605 181.672" stroke="#0F0F0F" stroke-linecap="round" stroke-linejoin="round"/>
<path d="M89.8855 185.282L107.756 183.955" stroke="#0F0F0F" stroke-linecap="round" stroke-linejoin="round"/>
<path d="M103.947 184.548C103.947 184.548 91.9684 192.342 88.9285 193.293" stroke="#0F0F0F" stroke-linecap="round" stroke-linejoin="round"/>
<path d="M91.4118 202.546C90.8325 203.189 90.1938 203.774 89.5043 204.296" stroke="#0F0F0F" stroke-linecap="round" stroke-linejoin="round"/>
<path d="M100.919 187.758C100.919 187.758 97.1043 195.388 93.0955 200.565" stroke="#0F0F0F" stroke-linecap="round" stroke-linejoin="round"/>
<path d="M73.5353 175.966C73.5353 175.966 76.1937 184.711 81.8982 188.683" stroke="#0F0F0F" stroke-linecap="round" stroke-linejoin="round"/>
<path d="M73.3417 184.712C73.3417 184.712 77.1446 188.515 80.1846 190.035" stroke="#0F0F0F" stroke-linecap="round" stroke-linejoin="round"/>
<path d="M72.4995 224.904C72.9719 225.225 73.4442 225.51 73.9105 225.776" stroke="#0F0F0F" stroke-linecap="round" stroke-linejoin="round"/>
<path d="M54.8955 203.726C54.8955 203.726 62.556 216.733 70.4405 223.34" stroke="#0F0F0F" stroke-linecap="round" stroke-linejoin="round"/>
<path d="M104.359 184.306L104.601 184.161L101.119 184.494L99.8718 184.567V184.615L91.9327 185.372L99.4781 187.189V187.504C99.9505 187.897 100.659 188.89 99.4055 190.84L106.557 200.209L107.823 185.76L108.065 184.076L104.359 184.306Z" fill="#0F0F0F" stroke="#0F0F0F" stroke-linecap="round" stroke-linejoin="round"/>
<path d="M45.3939 143.647C45.3939 143.647 50.7168 146.499 62.5073 146.312C74.2977 146.124 76.1931 144.786 77.7131 144.979C79.2331 145.173 82.2791 151.641 82.2791 151.641C82.2791 151.641 76.7624 155.062 63.8395 155.274C56.1594 155.408 48.5114 154.249 41.2155 151.847C41.2155 151.847 44.0677 143.647 45.3939 143.647Z" fill="#14FFEC" stroke="#0F0F0F" stroke-linecap="round" stroke-linejoin="round"/>
</svg>
