<svg width="536" height="543" viewBox="0 0 536 543" fill="none" xmlns="http://www.w3.org/2000/svg">
<path d="M111.298 349.639L101.063 351.491L99.0519 340.402L86.8907 342.607L88.9013 353.696L78.6776 355.549L80.9563 368.136L91.18 366.284L93.1907 377.373L105.352 375.18L103.341 364.078L113.577 362.226L111.298 349.639Z" stroke="#14FFEC" stroke-linecap="round" stroke-linejoin="round"/>
<path d="M213.487 179.772L203.677 176.311L207.43 165.685L195.781 161.567L192.028 172.192L182.219 168.732L177.966 180.795L187.763 184.256L184.01 194.894L195.659 199.001L199.425 188.375L209.222 191.836L213.487 179.772Z" stroke="#14FFEC" stroke-linecap="round" stroke-linejoin="round"/>
<path d="M460.903 306.77L451.715 311.632L446.438 301.664L435.508 307.44L440.784 317.408L431.596 322.27L437.579 333.578L446.767 328.716L452.044 338.672L462.974 332.896L457.698 322.928L466.886 318.066L460.903 306.77Z" stroke="#14FFEC" stroke-linecap="round" stroke-linejoin="round"/>
<path d="M68.5515 323.22C72.6702 323.22 76.009 319.881 76.009 315.763C76.009 311.644 72.6702 308.305 68.5515 308.305C64.4328 308.305 61.0939 311.644 61.0939 315.763C61.0939 319.881 64.4328 323.22 68.5515 323.22Z" stroke="#14FFEC" stroke-linecap="round" stroke-linejoin="round"/>
<path d="M184.717 216.06C184.717 216.451 184.601 216.832 184.384 217.157C184.167 217.482 183.859 217.735 183.498 217.884C183.137 218.033 182.74 218.073 182.357 217.996C181.974 217.92 181.623 217.732 181.347 217.456C181.071 217.18 180.883 216.828 180.806 216.445C180.73 216.062 180.769 215.666 180.919 215.305C181.068 214.944 181.321 214.636 181.646 214.419C181.97 214.202 182.352 214.086 182.743 214.086C183.266 214.086 183.768 214.294 184.138 214.664C184.509 215.035 184.717 215.537 184.717 216.06V216.06Z" stroke="#14FFEC" stroke-linecap="round" stroke-linejoin="round"/>
<path d="M94.3849 182.197C94.3849 183.575 93.9761 184.923 93.2102 186.069C92.4443 187.215 91.3557 188.109 90.0821 188.636C88.8085 189.164 87.407 189.302 86.0549 189.033C84.7028 188.764 83.4609 188.1 82.4861 187.125C81.5113 186.15 80.8475 184.908 80.5785 183.556C80.3096 182.204 80.4476 180.803 80.9752 179.529C81.5027 178.256 82.3961 177.167 83.5423 176.401C84.6886 175.635 86.0362 175.226 87.4147 175.226C89.2623 175.23 91.0333 175.965 92.3398 177.272C93.6463 178.578 94.3817 180.349 94.3849 182.197V182.197Z" stroke="#14FFEC" stroke-linecap="round" stroke-linejoin="round"/>
<path d="M401.498 276.611C401.498 277.391 401.266 278.155 400.833 278.804C400.399 279.453 399.782 279.959 399.061 280.258C398.339 280.557 397.545 280.635 396.78 280.483C396.014 280.331 395.31 279.954 394.758 279.402C394.206 278.85 393.83 278.147 393.678 277.381C393.525 276.615 393.603 275.821 393.902 275.1C394.201 274.378 394.707 273.762 395.356 273.328C396.006 272.894 396.769 272.662 397.55 272.662C398.597 272.662 399.601 273.078 400.342 273.819C401.082 274.559 401.498 275.563 401.498 276.611V276.611Z" stroke="#14FFEC" stroke-linecap="round" stroke-linejoin="round"/>
<path d="M361.59 156.278C366.469 156.278 370.425 152.323 370.425 147.443C370.425 142.564 366.469 138.609 361.59 138.609C356.711 138.609 352.756 142.564 352.756 147.443C352.756 152.323 356.711 156.278 361.59 156.278Z" stroke="#14FFEC" stroke-linecap="round" stroke-linejoin="round"/>
<path d="M307.194 226.857C307.657 227.551 321.634 230.342 328.884 240.882C333.102 246.938 336.641 253.439 339.437 260.27C339.437 260.27 351.561 267.483 357.776 273.43C363.991 279.377 371.4 287.273 377.115 291.416C382.83 295.559 394.589 303.419 397.55 312.619C397.55 312.619 379.917 360.91 374.933 371.585C369.949 382.259 357.654 404.912 357.654 404.912L335.72 498.095H208.491L204.153 466.133C204.153 466.133 165.159 458.48 148.867 444.199C148.867 444.199 147.331 408.86 154.143 377.336C160.955 345.812 184.119 280.266 199.814 260.245C199.814 260.245 224.88 248.255 246.997 244.404C246.997 244.404 261.352 233.059 270.747 231.853C280.142 230.646 307.194 226.857 307.194 226.857Z" fill="#FAFAFA"/>
<path d="M205.871 480.536C217.167 482.693 227.013 484.557 238.516 484.423C250.019 484.289 261.766 481.706 271.173 475.114C272.991 473.601 275.051 472.406 277.266 471.58C282.262 470.178 287.209 473.481 292.169 475.016C298.457 476.966 305.354 476.04 311.52 473.7C317.686 471.36 323.23 467.717 328.726 464.086C327.913 475.296 327.649 486.527 327.934 497.779L335.769 498.096L355.839 409.787C355.839 409.787 321.512 449.658 304.781 461.563L272.684 453.301C272.684 453.301 269.662 455.812 263.301 457.079C263.301 457.079 260.389 468.278 244.012 468.302C227.634 468.326 204.153 466.133 204.153 466.133L205.871 480.536Z" fill="#14FFEC"/>
<path opacity="0.5" d="M205.871 480.536C217.167 482.693 227.013 484.557 238.516 484.423C250.019 484.289 261.766 481.706 271.173 475.114C272.991 473.601 275.051 472.406 277.266 471.58C282.262 470.178 287.209 473.481 292.169 475.016C298.457 476.966 305.354 476.04 311.52 473.7C317.686 471.36 323.23 467.717 328.726 464.086C327.913 475.296 327.649 486.527 327.934 497.779L335.769 498.096L355.839 409.787C355.839 409.787 321.512 449.658 304.781 461.563L272.684 453.301C272.684 453.301 269.662 455.812 263.301 457.079C263.301 457.079 260.389 468.278 244.012 468.302C227.634 468.326 204.153 466.133 204.153 466.133L205.871 480.536Z" fill="#FAFAFA"/>
<path d="M172.982 315.763C172.982 315.763 158.079 388.108 158.834 412.955C158.834 412.955 179.087 407.276 193.222 412.955C193.222 412.955 169.168 410.274 158.81 421.302C148.452 432.33 180.33 461.307 244.109 455.422C244.109 455.422 256.831 459.406 263.289 457.067C263.289 457.067 261.559 468.594 243.999 468.29C226.513 467.595 175.358 467.168 148.854 444.211C148.867 444.223 145.528 377.714 172.982 315.763Z" fill="#14FFEC"/>
<path opacity="0.6" d="M172.982 315.763C172.982 315.763 158.079 388.108 158.834 412.955C158.834 412.955 179.087 407.276 193.222 412.955C193.222 412.955 169.168 410.274 158.81 421.302C148.452 432.33 180.33 461.307 244.109 455.422C244.109 455.422 256.831 459.406 263.289 457.067C263.289 457.067 261.559 468.594 243.999 468.29C226.513 467.595 175.358 467.168 148.854 444.211C148.867 444.223 145.528 377.714 172.982 315.763Z" fill="#FAFAFA"/>
<path d="M203.458 329.63C203.458 329.63 207.857 361.666 214.961 368.368C222.065 375.07 255.174 372.877 268.285 380.103C268.285 380.103 280.629 358.717 302.953 345.337L272.684 392.995L246.522 386.817L214.583 381.943L211.903 388.109H207.101C207.101 388.109 206.565 353.916 203.458 329.63Z" fill="#14FFEC"/>
<path opacity="0.5" d="M203.458 329.63C203.458 329.63 207.857 361.666 214.961 368.368C222.065 375.07 255.174 372.877 268.285 380.103C268.285 380.103 280.629 358.717 302.953 345.337L272.684 392.995L246.522 386.817L214.583 381.943L211.903 388.109H207.101C207.101 388.109 206.565 353.916 203.458 329.63Z" fill="#FAFAFA"/>
<path d="M328.592 264.376C342.276 272.431 343.812 281.509 346.626 287.992C339.51 289.405 332.15 290.916 326.276 295.169C318.965 300.482 315.005 309.28 311.934 317.822C309.029 325.906 306.588 334.148 304.623 342.51C311.237 330.562 320.638 320.387 332.028 312.85C338.596 308.512 346.712 305.015 354.206 307.464C347.918 310.133 340.802 313.74 339.473 320.442C339.212 321.555 339.259 322.717 339.607 323.805C340.729 326.961 344.652 327.814 347.626 329.35C353.426 332.335 356.448 339.098 356.704 345.654C356.96 352.21 354.949 358.546 352.963 364.749C351.216 370.184 349.47 375.618 347.723 381.053C345.493 387.999 343.227 395.042 339.193 401.135C335.16 407.228 329.104 412.334 321.902 413.528C318.891 414.108 315.775 413.756 312.97 412.516C310.844 411.36 308.867 409.949 307.084 408.312C298.444 401.335 288.062 396.851 277.059 395.347C291.219 404.705 297.921 421.704 303.794 437.631C301.097 432.91 297.211 428.978 292.522 426.225C291.321 425.388 289.892 424.938 288.428 424.933C284.577 425.238 283.359 430.149 281.044 433.22C278.265 436.875 273.184 438.179 268.627 437.594C264.069 437.009 259.877 434.877 255.783 432.72L203.982 406.009L200.326 416.976C200.326 416.976 241.587 449.877 304.805 461.514C304.805 461.514 345.871 429.064 360.42 400.294C374.97 371.524 397.574 312.558 397.574 312.558C397.574 312.558 389.3 296.887 375.116 288.711C375.116 288.711 364.527 283.703 362.297 277.512C360.067 271.322 340.168 260.635 340.168 260.635C340.168 260.635 342.751 267.24 328.592 264.376Z" fill="#14FFEC"/>
<path opacity="0.6" d="M328.592 264.376C342.276 272.431 343.812 281.509 346.626 287.992C339.51 289.405 332.15 290.916 326.276 295.169C318.965 300.482 315.005 309.28 311.934 317.822C309.029 325.906 306.588 334.148 304.623 342.51C311.237 330.562 320.638 320.387 332.028 312.85C338.596 308.512 346.712 305.015 354.206 307.464C347.918 310.133 340.802 313.74 339.473 320.442C339.212 321.555 339.259 322.717 339.607 323.805C340.729 326.961 344.652 327.814 347.626 329.35C353.426 332.335 356.448 339.098 356.704 345.654C356.96 352.21 354.949 358.546 352.963 364.749C351.216 370.184 349.47 375.618 347.723 381.053C345.493 387.999 343.227 395.042 339.193 401.135C335.16 407.228 329.104 412.334 321.902 413.528C318.891 414.108 315.775 413.756 312.97 412.516C310.844 411.36 308.867 409.949 307.084 408.312C298.444 401.335 288.062 396.851 277.059 395.347C291.219 404.705 297.921 421.704 303.794 437.631C301.097 432.91 297.211 428.978 292.522 426.225C291.321 425.388 289.892 424.938 288.428 424.933C284.577 425.238 283.359 430.149 281.044 433.22C278.265 436.875 273.184 438.179 268.627 437.594C264.069 437.009 259.877 434.877 255.783 432.72L203.982 406.009L200.326 416.976C200.326 416.976 241.587 449.877 304.805 461.514C304.805 461.514 345.871 429.064 360.42 400.294C374.97 371.524 397.574 312.558 397.574 312.558C397.574 312.558 389.3 296.887 375.116 288.711C375.116 288.711 364.527 283.703 362.297 277.512C360.067 271.322 340.168 260.635 340.168 260.635C340.168 260.635 342.751 267.24 328.592 264.376Z" fill="#FAFAFA"/>
<path d="M324.241 152.208C324.241 152.208 327.008 119.953 313.104 116.87C299.2 113.787 291.389 101.028 291.389 101.028L242.062 114.798L234.409 144.458L239.284 159.47C239.284 159.47 240.307 173.399 240.502 180.283C240.697 187.168 240.502 192.469 245.718 200.828C250.933 209.188 255.783 217.486 267.055 224.712V243.709C267.055 243.709 260.084 264.047 263.935 276.525C263.935 276.525 266.238 278.962 272.599 275.307C278.96 271.651 306.17 253.47 315.663 234.485L318.612 186.218C318.612 186.218 326.447 187.436 329.822 180.296C334.782 173.313 334.587 165.173 332.662 158.544C330.736 151.915 322.45 156.205 322.45 156.205L324.241 152.208Z" fill="#BFBFBF"/>
<path d="M267.591 199.5C268.986 197.981 270.704 196.796 272.62 196.033C274.535 195.269 276.598 194.946 278.655 195.089C278.655 195.089 284.59 185.718 290.841 187.436C290.841 187.436 292.766 197.368 285.272 201.279C275.524 206.361 267.591 199.5 267.591 199.5Z" fill="#808080"/>
<path d="M249.264 110.692C249.264 110.692 237.456 126.204 238.138 142.374C238.821 158.545 241.172 170.011 240.49 182.489C239.808 194.967 252.968 215.865 266.458 224.286C276.535 230.586 289.171 229.513 298.981 223.067C309.948 215.756 315.98 202.62 318.185 190.008C318.405 188.789 318.575 187.571 318.697 186.255" stroke="#323232" stroke-linecap="round" stroke-linejoin="round"/>
<path d="M266.457 224.298C266.457 224.298 268.371 241.772 266.457 247.755C264.349 254.323 261.802 269.616 264.02 276.525C266.238 283.434 307.73 254.396 315.748 234.473C315.748 234.473 316.857 195.759 319.623 186.084" stroke="#323232" stroke-linecap="round" stroke-linejoin="round"/>
<path d="M265.312 199.074C265.312 199.074 284.187 204.411 291.913 184.926" stroke="#323232" stroke-linecap="round" stroke-linejoin="round"/>
<path d="M266.835 228.502C266.835 228.502 270.856 240.968 279.533 241.711C288.209 242.454 309.911 225.066 317.308 204.582V194.334C317.308 194.334 311.215 221.142 293.375 226.016C275.536 230.89 267.189 224.688 267.189 224.688L266.835 228.502Z" fill="#323232"/>
<path d="M290.829 187.437C282.445 186.852 278.643 195.089 278.643 195.089C276.577 194.837 274.48 195.109 272.547 195.88C270.613 196.651 268.905 197.896 267.578 199.5C269.644 201.353 272.183 202.596 274.913 203.091C277.644 203.586 280.458 203.313 283.042 202.303C292.571 198.989 290.829 187.437 290.829 187.437Z" stroke="#323232" stroke-linecap="round" stroke-linejoin="round"/>
<path d="M269.808 150.685C269.913 154.551 269.741 158.419 269.297 162.261C268.846 165.71 267.249 169.012 265.921 172.253C264.703 175.202 262.668 179.735 264.362 182.843C266.287 186.364 272.684 182.843 272.684 182.843" stroke="#323232" stroke-linecap="round" stroke-linejoin="round"/>
<path d="M276.62 182.111C278.777 182.404 281.836 182.111 282.445 178.37" stroke="#323232" stroke-linecap="round" stroke-linejoin="round"/>
<path d="M283.59 146.03C285.676 144.041 288.447 142.931 291.328 142.931C294.21 142.931 296.981 144.041 299.066 146.03" stroke="#323232" stroke-width="2" stroke-linecap="round" stroke-linejoin="round"/>
<path d="M259 149.076C259 149.076 253.285 141.765 245.803 149.076" stroke="#323232" stroke-width="2" stroke-linecap="round" stroke-linejoin="round"/>
<path d="M314.213 167.562C314.213 167.562 320.732 151.903 329.238 155.267C335.099 157.594 335.452 167.708 332.345 174.763C329.238 181.819 327.678 189.008 317.32 184.987" stroke="#323232" stroke-linecap="round" stroke-linejoin="round"/>
<path d="M315.37 165.161C315.37 165.161 309.107 162.944 307.949 152.769C306.792 142.594 313.031 132.406 310.715 125.095C308.4 117.784 290.158 121.439 286.003 108.693C286.003 108.693 272.306 118.905 245.791 116.711C245.791 116.711 240.197 126.241 239.223 132.065C237.917 141.172 237.95 150.422 239.32 159.519C239.32 159.836 239.43 160.141 239.491 160.458C241.392 170.377 231.923 146.956 232.179 136.952C232.435 126.947 226.403 114.238 234.263 104.77C242.123 95.3014 270.942 89.7569 276.62 85.3092C282.299 80.8615 293.339 92.7058 306.097 97.0683C318.855 101.431 329.432 106.634 327.824 124.73C326.215 142.825 327.909 145.25 327.982 154.779C327.982 154.804 322.085 152.586 315.37 165.161Z" fill="#323232"/>
<path d="M291.353 159.215C291.353 161.652 290.414 163.674 289.244 163.674C288.075 163.674 287.149 161.676 287.149 159.215C287.149 156.753 288.087 154.767 289.244 154.767C290.402 154.767 291.353 156.777 291.353 159.215Z" fill="#323232"/>
<path d="M259 159.215C259 161.652 258.062 163.674 256.904 163.674C255.746 163.674 254.808 161.676 254.808 159.215C254.808 156.753 255.746 154.767 256.904 154.767C258.062 154.767 259 156.777 259 159.215Z" fill="#323232"/>
<path d="M283.59 165.161C283.59 165.161 287.941 169.779 293.449 170.437" stroke="#323232" stroke-linecap="round" stroke-linejoin="round"/>
<path d="M253.955 170.437C253.955 170.437 261.912 169.877 263.703 165.161" stroke="#323232" stroke-linecap="round" stroke-linejoin="round"/>
<path d="M272.453 279.486C278.375 275.721 286.21 277.134 292.693 279.803C296.251 281.277 299.639 283.13 303.185 284.677C304.938 285.452 306.746 286.096 308.595 286.603C313.043 287.76 311.447 282.24 311.191 279.766C310.825 276.22 310.569 272.662 310.143 269.141C309.968 268.411 310.054 267.644 310.386 266.972C310.824 266.429 311.435 266.055 312.117 265.911C319.928 263.474 328.348 264.547 336.488 264.693C337.227 264.78 337.975 264.64 338.633 264.291C339.851 263.499 339.717 261.707 339.388 260.294C336.573 248.255 326.642 236.276 315.846 230.256" stroke="#323232" stroke-linecap="round" stroke-linejoin="round"/>
<path d="M267.14 232.206C261.766 234.448 256.246 236.776 251.615 240.212C249.935 241.437 248.388 242.834 246.997 244.38C245.877 245.445 245.173 246.875 245.011 248.413C245.041 249.128 245.23 249.828 245.566 250.46C245.901 251.093 246.373 251.642 246.948 252.069C247.766 252.742 248.667 253.307 249.629 253.75C251.871 254.811 254.503 255.846 255.454 258.101C255.685 258.573 255.77 259.103 255.698 259.624C255.577 260.081 255.342 260.5 255.015 260.842C253.163 263.097 249.897 264.839 250.141 267.752C250.299 270.006 252.578 271.407 254.601 272.407C256.624 273.406 258.988 274.442 259.682 276.598" stroke="#323232" stroke-linecap="round" stroke-linejoin="round"/>
<path d="M235.323 117.942C236.115 113.068 241.209 109.924 246.108 109.132C251.006 108.34 256.039 109.132 260.974 108.705C265.101 108.298 269.093 107.008 272.68 104.925C276.266 102.842 279.363 100.013 281.763 96.6295" stroke="#FAFAFA" stroke-linecap="round" stroke-linejoin="round"/>
<path d="M240.868 104.246C249.714 99.018 262.144 104.453 270.771 98.8717C273.213 97.0943 275.338 94.9193 277.059 92.4377" stroke="#FAFAFA" stroke-linecap="round" stroke-linejoin="round"/>
<path d="M353.718 304.223C322.036 310.547 310.216 333.858 310.216 333.858L272.684 392.97" stroke="#323232" stroke-linecap="round" stroke-linejoin="round"/>
<path d="M326.934 297.838C329.563 295.403 332.541 293.374 335.769 291.818" stroke="#323232" stroke-linecap="round" stroke-linejoin="round"/>
<path d="M304.781 342.461C304.781 342.461 308.778 321.112 320.257 305.381" stroke="#323232" stroke-linecap="round" stroke-linejoin="round"/>
<path d="M207.101 388.011C207.101 388.011 205.456 322.611 199.79 312.619" stroke="#323232" stroke-linecap="round" stroke-linejoin="round"/>
<path d="M339.437 260.27C339.437 260.27 357.715 271.237 365.831 281.546C373.946 291.855 393.127 298.703 397.513 312.619C397.513 312.619 372.253 392.215 345.786 420.985C319.319 449.756 304.745 461.563 304.745 461.563C304.745 461.563 241.075 450.499 199.778 415.819L214.547 381.882C214.547 381.882 256.185 387.146 272.648 392.995C289.11 398.844 304.745 434.268 304.745 434.268" stroke="#323232" stroke-linecap="round" stroke-linejoin="round"/>
<path d="M272.684 392.995C272.684 392.995 301.832 398.661 311.3 411.931" stroke="#323232" stroke-linecap="round" stroke-linejoin="round"/>
<path d="M356.558 406.643L335.769 498.095H208.491L204.153 466.133" stroke="#323232" stroke-linecap="round" stroke-linejoin="round"/>
<path d="M263.301 457.079C256.27 471.482 246.997 468.302 246.997 468.302C175.285 471.019 148.867 444.223 148.867 444.223C148.867 444.223 145.211 406.533 159.31 355.671C173.408 304.808 199.815 260.27 199.815 260.27C211.525 252.483 237.651 246.402 245.023 244.794L246.997 244.38" stroke="#323232" stroke-linecap="round" stroke-linejoin="round"/>
<path d="M247.034 468.302C247.034 468.302 243.244 467.68 244.206 442.554" stroke="#323232" stroke-linecap="round" stroke-linejoin="round"/>
<path d="M201.752 417.427C201.752 417.427 183.839 411.115 161.649 426.469" stroke="#323232" stroke-linecap="round" stroke-linejoin="round"/>
<path d="M165.671 411.931C165.671 411.931 189.14 404.949 199.79 416.135" stroke="#323232" stroke-linecap="round" stroke-linejoin="round"/>
<path d="M197.256 415.502L200.302 417.025L211.903 388.048C211.903 388.048 199.888 386.086 180.854 409.787C186.797 409.856 192.556 411.862 197.256 415.502V415.502Z" fill="#BFBFBF" stroke="#323232" stroke-miterlimit="10"/>
<path d="M244.17 442.554V455.434C244.17 455.434 260.584 460.308 272.733 453.301L244.17 442.554Z" fill="#BFBFBF" stroke="#323232" stroke-miterlimit="10"/>
<path d="M333.137 264.559C333.149 264.797 333.124 265.035 333.064 265.266C332.552 267.276 320.037 314.52 279.983 335.54C279.635 335.727 279.245 335.823 278.85 335.82C278.306 335.82 277.777 335.637 277.348 335.301C276.92 334.965 276.616 334.496 276.485 333.967C276.355 333.438 276.405 332.881 276.629 332.384C276.852 331.887 277.235 331.48 277.717 331.226C314.274 312.058 327.154 268.373 328.275 264.352L333.137 264.559Z" fill="#323232"/>
<path d="M246.948 252.032C240.616 266.495 237.2 282.065 236.895 297.85C236.895 299.129 236.895 300.433 236.895 301.761C236.895 302.09 236.895 302.419 236.895 302.749C236.532 302.761 236.169 302.798 235.811 302.858C234.492 303.066 233.214 303.477 232.021 304.077C232.021 302.285 232.021 300.543 232.021 298.825C232.545 271.48 240.709 252.873 245.06 244.83L247.034 244.416C245.913 245.482 245.209 246.912 245.047 248.45C245.084 249.149 245.273 249.833 245.601 250.451C245.929 251.07 246.389 251.61 246.948 252.032V252.032Z" fill="#323232"/>
<path d="M294.935 324.549C297.787 328.509 295.447 335.089 289.695 339.244C283.944 343.4 276.974 343.546 274.11 339.586C271.246 335.625 273.586 329.045 279.338 324.89C285.089 320.735 292.12 320.588 294.935 324.549Z" fill="#FAFAFA" stroke="#323232" stroke-linecap="round" stroke-linejoin="round"/>
<path d="M287.843 322.197C289.866 324.999 288.209 329.654 284.187 332.591C280.166 335.528 275.182 335.637 273.22 332.835C271.259 330.032 272.855 325.377 276.876 322.44C280.897 319.504 285.82 319.406 287.843 322.197Z" fill="#FAFAFA" stroke="#323232" stroke-linecap="round" stroke-linejoin="round"/>
<path d="M255.637 371.658C255.118 372.003 254.486 372.136 253.872 372.03C253.258 371.924 252.708 371.586 252.335 371.087C251.962 370.587 251.794 369.964 251.867 369.345C251.939 368.726 252.246 368.158 252.724 367.759C252.931 367.588 261.108 360.63 257.525 337.197C257.221 335.211 256.831 333.091 256.307 330.861C254.759 323.756 252.371 314.763 247.484 308.159C246.322 306.417 244.73 305.004 242.862 304.056C240.995 303.108 238.914 302.658 236.822 302.748C236.459 302.761 236.096 302.798 235.738 302.858C234.419 303.066 233.141 303.477 231.948 304.077C228.308 305.957 225.545 309.184 224.247 313.07L223.808 314.288C221.045 321.761 218.785 329.41 217.045 337.185C215.095 346.751 214.437 356.779 217.898 363.786C218.825 365.709 220.146 367.415 221.775 368.794C223.404 370.173 225.305 371.195 227.354 371.792C227.904 371.973 228.372 372.344 228.673 372.838C228.975 373.332 229.091 373.918 229 374.49C228.909 375.062 228.617 375.583 228.177 375.959C227.737 376.336 227.177 376.543 226.598 376.544C226.342 376.544 226.087 376.503 225.843 376.422C223.178 375.622 220.708 374.278 218.59 372.474C216.471 370.67 214.75 368.446 213.535 365.943C209.636 358.059 210.148 347.323 212.122 337.185C213.872 328.847 216.243 320.652 219.214 312.668L219.653 311.449C220.611 308.549 222.215 305.904 224.345 303.715C226.475 301.526 229.075 299.85 231.948 298.813C232.942 298.468 233.966 298.215 235.006 298.057C235.628 297.972 236.225 297.911 236.859 297.874C239.711 297.796 242.537 298.434 245.079 299.73C247.621 301.027 249.797 302.94 251.408 305.295C256.843 312.607 259.426 322.27 261.071 329.849C261.644 332.457 262.083 334.906 262.412 337.221C266.262 363.494 256.112 371.317 255.637 371.658Z" fill="#323232" stroke="#323232" stroke-miterlimit="10"/>
<path d="M224.892 376.118C224.892 376.118 233.727 379.774 235.969 376.118C238.211 372.462 236.396 370.744 233.337 370.452C230.289 370.296 227.234 370.296 224.186 370.452L224.892 376.118Z" fill="#323232" stroke="#323232" stroke-miterlimit="10"/>
<path d="M228.95 374.899C228.791 375.388 228.481 375.814 228.065 376.116C227.65 376.418 227.149 376.581 226.635 376.581C226.378 376.58 226.123 376.539 225.88 376.459C223.215 375.659 220.745 374.315 218.626 372.511C216.508 370.707 214.787 368.483 213.572 365.98C209.673 358.095 210.185 347.36 212.159 337.222H217.033C215.083 346.787 214.425 356.816 217.886 363.823C218.813 365.745 220.134 367.451 221.763 368.831C223.392 370.21 225.293 371.231 227.342 371.829C227.65 371.923 227.937 372.078 228.185 372.284C228.433 372.489 228.638 372.743 228.787 373.028C228.937 373.314 229.028 373.626 229.056 373.947C229.084 374.269 229.048 374.592 228.95 374.899Z" fill="#FAFAFA" stroke="#323232" stroke-linecap="round" stroke-linejoin="round"/>
<path d="M247.497 369.014C247.129 369.45 246.858 369.959 246.701 370.507C246.543 371.055 246.503 371.63 246.583 372.194C246.826 373.029 247.355 373.752 248.076 374.237C248.797 374.723 249.666 374.94 250.531 374.851C252.262 374.62 253.844 373.751 254.966 372.414C256.185 371.049 260.413 362.117 256.502 363.652C253.663 364.724 249.398 366.54 247.497 369.014Z" fill="#323232" stroke="#323232" stroke-miterlimit="10"/>
<path d="M255.637 371.658C255.118 372.003 254.486 372.136 253.872 372.03C253.258 371.924 252.708 371.586 252.335 371.087C251.962 370.587 251.794 369.964 251.867 369.345C251.939 368.726 252.246 368.158 252.724 367.759C252.931 367.588 261.108 360.63 257.525 337.197H262.4C266.262 363.494 256.112 371.317 255.637 371.658Z" fill="#FAFAFA" stroke="#323232" stroke-linecap="round" stroke-linejoin="round"/>
<path opacity="0.2" d="M277.498 156.278C277.498 156.278 292.839 148.309 306.938 156.278C306.938 156.278 307.169 168.037 301.844 172.875C299.956 174.593 291.304 174.885 288.026 174.593C274.719 173.387 277.498 156.278 277.498 156.278Z" fill="#FAFAFA"/>
<path opacity="0.2" d="M267.871 156.278C267.871 156.278 252.529 148.309 238.443 156.278C238.443 156.278 238.211 168.037 243.524 172.875C245.413 174.593 254.077 174.885 257.343 174.593C270.649 173.387 267.871 156.278 267.871 156.278Z" fill="#FAFAFA"/>
<path d="M277.498 156.278C277.498 156.278 292.839 148.309 306.938 156.278C306.938 156.278 307.169 168.037 301.844 172.875C299.956 174.593 291.304 174.885 288.026 174.593C274.719 173.387 277.498 156.278 277.498 156.278Z" stroke="#323232" stroke-miterlimit="10"/>
<path d="M267.871 156.278C267.871 156.278 252.529 148.309 238.443 156.278C238.443 156.278 238.211 168.037 243.524 172.875C245.413 174.593 254.077 174.885 257.343 174.593C270.649 173.387 267.871 156.278 267.871 156.278Z" stroke="#323232" stroke-miterlimit="10"/>
<path d="M267.871 156.278C267.871 156.278 271.307 153.756 277.498 156.278" stroke="#323232" stroke-miterlimit="10"/>
<path d="M306.938 156.278L313.348 159.251" stroke="#323232" stroke-miterlimit="10"/>
<path d="M61.5935 530.533L106.692 487.933H464.631L491.732 530.533H61.5935Z" fill="#FAFAFA" stroke="#323232" stroke-linecap="round" stroke-linejoin="round"/>
<path d="M491.732 530.533H61.5935V542H491.732V530.533Z" fill="#323232" stroke="#323232" stroke-linecap="round" stroke-linejoin="round"/>
<path d="M106.692 520.005V511.171H177.369V520.005H163.733H106.692Z" fill="#FAFAFA" stroke="#323232" stroke-miterlimit="10"/>
<path d="M106.692 511.171L148.44 483.168L204.153 484.484L177.369 511.171H106.692Z" fill="#FAFAFA" stroke="#323232" stroke-linecap="round" stroke-linejoin="round"/>
<path d="M177.369 520.005L204.153 493.172V484.484L177.369 511.17V520.005Z" fill="#FAFAFA" stroke="#323232" stroke-linecap="round" stroke-linejoin="round"/>
<path d="M175.456 508.941C175.456 508.941 169.814 510.062 169.814 514.948C169.814 519.834 174.688 521.272 174.688 521.272" stroke="#323232" stroke-width="2" stroke-linecap="round" stroke-linejoin="round"/>
<path d="M169.814 508.941C169.814 508.941 164.172 510.062 164.172 514.948C164.172 519.834 169.046 521.272 169.046 521.272" stroke="#323232" stroke-width="2" stroke-linecap="round" stroke-linejoin="round"/>
<path d="M164.172 508.941C164.172 508.941 158.53 510.062 158.53 514.948C158.53 519.834 163.404 521.272 163.404 521.272" stroke="#323232" stroke-width="2" stroke-linecap="round" stroke-linejoin="round"/>
<path d="M158.53 508.941C158.53 508.941 152.888 510.062 152.888 514.948C152.888 519.834 157.762 521.272 157.762 521.272" stroke="#323232" stroke-width="2" stroke-linecap="round" stroke-linejoin="round"/>
<path d="M152.888 508.941C152.888 508.941 147.246 510.062 147.246 514.948C147.246 519.834 152.12 521.272 152.12 521.272" stroke="#323232" stroke-width="2" stroke-linecap="round" stroke-linejoin="round"/>
<path d="M147.246 508.941C147.246 508.941 141.604 510.062 141.604 514.948C141.604 519.834 146.478 521.272 146.478 521.272" stroke="#323232" stroke-width="2" stroke-linecap="round" stroke-linejoin="round"/>
<path d="M141.604 508.941C141.604 508.941 135.962 510.062 135.962 514.948C135.962 519.834 140.836 521.272 140.836 521.272" stroke="#323232" stroke-width="2" stroke-linecap="round" stroke-linejoin="round"/>
<path d="M135.962 508.941C135.962 508.941 130.32 510.062 130.32 514.948C130.32 519.834 135.194 521.272 135.194 521.272" stroke="#323232" stroke-width="2" stroke-linecap="round" stroke-linejoin="round"/>
<path d="M129.626 508.941C129.626 508.941 123.984 510.062 123.984 514.948C123.984 519.834 128.858 521.272 128.858 521.272" stroke="#323232" stroke-width="2" stroke-linecap="round" stroke-linejoin="round"/>
<path d="M123.277 508.941C123.277 508.941 117.635 510.062 117.635 514.948C117.635 519.834 122.509 521.272 122.509 521.272" stroke="#323232" stroke-width="2" stroke-linecap="round" stroke-linejoin="round"/>
<path d="M116.221 508.941C116.221 508.941 110.579 510.062 110.579 514.948C110.579 519.834 115.454 521.272 115.454 521.272" stroke="#323232" stroke-width="2" stroke-linecap="round" stroke-linejoin="round"/>
<path d="M151.986 490.029C148.094 492.175 145.009 495.534 143.2 499.594C148.33 497.974 152.388 494.318 156.275 490.662L152.059 501.117C154 500.96 155.877 500.347 157.536 499.329C159.196 498.31 160.593 496.915 161.613 495.256C161.279 495.4 160.979 495.613 160.733 495.881C160.487 496.149 160.3 496.466 160.185 496.811C160.07 497.156 160.029 497.522 160.065 497.884C160.101 498.246 160.213 498.596 160.394 498.912C163.928 498.4 166.182 494.988 167.961 491.893C168.288 493.615 168.415 495.369 168.339 497.121C171.294 497.544 174.309 497.161 177.064 496.012" stroke="#323232" stroke-width="0.75" stroke-linecap="round" stroke-linejoin="round"/>
<path d="M462.243 445.259H339.4V512.706H462.243V445.259Z" fill="#FAFAFA" stroke="#323232" stroke-linecap="round" stroke-linejoin="round"/>
<path d="M338.925 512.694L319.172 493.916V426.469L338.925 445.259V512.694Z" fill="#FAFAFA" stroke="#323232" stroke-linecap="round" stroke-linejoin="round"/>
<path d="M462.242 445.259L442.489 426.469H319.659L339.399 445.259H462.242Z" fill="#FAFAFA" stroke="#323232" stroke-linecap="round" stroke-linejoin="round"/>
<path d="M417.071 470.556H406.214V459.199H390.909V470.556H379.064V485.861H390.909V497.206H406.214V485.861H417.071V470.556Z" fill="#14FFEC" stroke="#323232" stroke-miterlimit="10"/>
<path d="M399.755 445.259L380.003 426.469" stroke="#323232" stroke-linecap="round" stroke-linejoin="round"/>
<path d="M140.101 158.599C154.429 144.27 154.429 121.039 140.101 106.71C125.772 92.3816 102.541 92.3816 88.2121 106.71C73.8835 121.039 73.8835 144.27 88.2121 158.599C102.541 172.927 125.772 172.927 140.101 158.599Z" fill="#FAFAFA" stroke="#323232" stroke-linecap="round" stroke-linejoin="round"/>
<path d="M144.675 127.032C144.674 129.489 143.904 131.883 142.473 133.878C141.041 135.874 139.02 137.371 136.693 138.158L120.304 143.678L100.356 150.417C97.4172 151.383 94.216 151.148 91.4496 149.764C88.6832 148.38 86.5761 145.959 85.5873 143.028C84.5985 140.097 84.8083 136.894 86.1709 134.117C87.5335 131.34 89.9384 129.214 92.8617 128.202L110.982 122.11L129.187 116.017C130.948 115.424 132.825 115.259 134.663 115.533C136.501 115.808 138.247 116.515 139.758 117.597C141.269 118.678 142.501 120.103 143.354 121.754C144.207 123.405 144.655 125.235 144.663 127.093L144.675 127.032Z" fill="#FAFAFA"/>
<path d="M144.675 127.032C144.674 129.488 143.904 131.883 142.473 133.878C141.041 135.874 139.02 137.371 136.693 138.158L120.304 143.678C119.867 135.603 116.561 127.95 110.982 122.097L129.187 116.004C130.948 115.412 132.825 115.246 134.663 115.521C136.501 115.796 138.247 116.503 139.758 117.584C141.269 118.666 142.502 120.091 143.354 121.742C144.207 123.393 144.655 125.223 144.663 127.081L144.675 127.032Z" fill="#14FFEC"/>
<path d="M144.675 127.032C144.674 129.489 143.904 131.883 142.473 133.878C141.041 135.874 139.02 137.371 136.693 138.158L120.304 143.678L100.356 150.417C97.4172 151.383 94.216 151.148 91.4496 149.764C88.6832 148.38 86.5761 145.959 85.5873 143.028C84.5985 140.097 84.8083 136.894 86.1709 134.117C87.5335 131.34 89.9384 129.214 92.8617 128.202L110.982 122.11L129.187 116.017C130.948 115.424 132.825 115.259 134.663 115.533C136.501 115.808 138.247 116.515 139.758 117.597C141.269 118.678 142.501 120.103 143.354 121.754C144.207 123.405 144.655 125.235 144.663 127.093L144.675 127.032Z" stroke="#323232" stroke-linecap="round" stroke-linejoin="round"/>
<path d="M120.304 143.678C119.931 135.589 116.616 127.914 110.982 122.097" stroke="#323232" stroke-linecap="round" stroke-linejoin="round"/>
<path d="M140.751 122.658C141.52 123.954 141.909 125.44 141.872 126.947" stroke="#FAFAFA" stroke-linecap="round" stroke-linejoin="round"/>
<path d="M115.612 123.876L130.235 119.002C131.546 118.552 132.941 118.399 134.319 118.553C135.697 118.707 137.024 119.164 138.204 119.892" stroke="#FAFAFA" stroke-linecap="round" stroke-linejoin="round"/>
<path d="M363.458 82.8789C382.119 74.9808 390.844 53.4502 382.946 34.789C375.048 16.1278 353.517 7.4027 334.856 15.3008C316.195 23.199 307.47 44.7295 315.368 63.3907C323.266 82.0519 344.797 90.777 363.458 82.8789Z" fill="#FAFAFA" stroke="#323232" stroke-linecap="round" stroke-linejoin="round"/>
<path d="M361.81 64.4473L329.81 53.7362C327.149 52.8417 324.953 50.9274 323.703 48.4139C322.453 45.9004 322.252 42.9935 323.145 40.3321V40.3321C324.039 37.6713 325.954 35.4746 328.467 34.2247C330.981 32.9748 333.887 32.7741 336.549 33.6666L368.548 44.3655C371.207 45.2627 373.402 47.1775 374.651 49.6901C375.901 52.2027 376.103 55.1081 375.214 57.7696V57.7696C374.319 60.4307 372.405 62.6282 369.892 63.8801C367.38 65.1319 364.473 65.3359 361.81 64.4473V64.4473Z" fill="#14FFEC"/>
<path d="M338.365 52.8832L343.726 40.0762" stroke="#323232" stroke-linecap="round" stroke-linejoin="round"/>
<path d="M355.997 58.7444L361.334 45.9739" stroke="#323232" stroke-linecap="round" stroke-linejoin="round"/>
<path d="M342.788 53.6387C343.387 53.6387 343.872 53.1531 343.872 52.5542C343.872 51.9552 343.387 51.4697 342.788 51.4697C342.189 51.4697 341.703 51.9552 341.703 52.5542C341.703 53.1531 342.189 53.6387 342.788 53.6387Z" fill="#323232"/>
<path d="M353.45 55.7469C353.45 55.9614 353.387 56.1711 353.267 56.3494C353.148 56.5277 352.979 56.6668 352.781 56.7488C352.582 56.8309 352.364 56.8524 352.154 56.8106C351.944 56.7687 351.75 56.6654 351.599 56.5137C351.447 56.3621 351.344 56.1688 351.302 55.9585C351.26 55.7481 351.282 55.53 351.364 55.3318C351.446 55.1337 351.585 54.9643 351.763 54.8451C351.941 54.726 352.151 54.6624 352.366 54.6624C352.653 54.6624 352.929 54.7766 353.133 54.98C353.336 55.1834 353.45 55.4592 353.45 55.7469Z" fill="#323232"/>
<path d="M346.992 43.9878C347.591 43.9878 348.076 43.5023 348.076 42.9033C348.076 42.3043 347.591 41.8188 346.992 41.8188C346.393 41.8188 345.907 42.3043 345.907 42.9033C345.907 43.5023 346.393 43.9878 346.992 43.9878Z" fill="#323232"/>
<path d="M357.496 45.9984C357.496 46.2129 357.432 46.4226 357.313 46.6009C357.194 46.7793 357.025 46.9183 356.826 47.0004C356.628 47.0824 356.41 47.1039 356.2 47.0621C355.989 47.0202 355.796 46.9169 355.644 46.7653C355.493 46.6136 355.39 46.4203 355.348 46.21C355.306 45.9996 355.327 45.7815 355.409 45.5834C355.491 45.3852 355.63 45.2158 355.809 45.0967C355.987 44.9775 356.197 44.9139 356.411 44.9139C356.699 44.9139 356.975 45.0281 357.178 45.2315C357.382 45.4349 357.496 45.7108 357.496 45.9984V45.9984Z" fill="#323232"/>
<path d="M361.81 64.4473L329.81 53.7362C327.149 52.8417 324.953 50.9274 323.703 48.4139C322.453 45.9004 322.252 42.9935 323.145 40.3321V40.3321C324.039 37.6713 325.954 35.4746 328.467 34.2247C330.981 32.9748 333.887 32.7741 336.549 33.6666L368.548 44.3655C371.207 45.2627 373.402 47.1775 374.651 49.6901C375.901 52.2027 376.103 55.1081 375.214 57.7696V57.7696C374.319 60.4307 372.405 62.6282 369.892 63.8801C367.38 65.1319 364.473 65.3359 361.81 64.4473V64.4473Z" stroke="#323232" stroke-linecap="round" stroke-linejoin="round"/>
<path d="M210.648 83.7857C230.911 83.7857 247.338 67.3587 247.338 47.095C247.338 26.8312 230.911 10.4042 210.648 10.4042C190.384 10.4042 173.957 26.8312 173.957 47.095C173.957 67.3587 190.384 83.7857 210.648 83.7857Z" fill="#FAFAFA" stroke="#323232" stroke-linecap="round" stroke-linejoin="round"/>
<path d="M231.668 48.0333V63.0703C231.668 66.8844 229.23 69.9795 226.245 69.9795H195.05C192.052 69.9795 189.627 66.8844 189.627 63.0703V48.0333C189.627 44.2192 192.064 41.124 195.05 41.124H200.18V32.3992H220.896V41.124H226.208C229.23 41.124 231.668 44.2192 231.668 48.0333Z" fill="#FAFAFA" stroke="#323232" stroke-linecap="round" stroke-linejoin="round"/>
<path d="M231.655 49.7638H189.627V59.0858H231.655V49.7638Z" fill="#14FFEC" stroke="#323232" stroke-miterlimit="10"/>
<path d="M203.044 22.1879H218.446C220.185 22.1879 221.853 22.8786 223.082 24.108C224.311 25.3375 225.002 27.005 225.002 28.7437V35.5555H196.476V28.7437C196.476 27.8818 196.646 27.0283 196.976 26.2321C197.306 25.4359 197.79 24.7127 198.4 24.1037C199.01 23.4948 199.734 23.0122 200.531 22.6834C201.328 22.3547 202.182 22.1863 203.044 22.1879V22.1879Z" fill="#14FFEC" stroke="#323232" stroke-miterlimit="10"/>
<path d="M201.46 22.6022V35.5554" stroke="#323232" stroke-linecap="round" stroke-linejoin="round"/>
<path d="M208.198 22.1879V35.5554" stroke="#323232" stroke-linecap="round" stroke-linejoin="round"/>
<path d="M214.937 22.1879V35.5554" stroke="#323232" stroke-linecap="round" stroke-linejoin="round"/>
<path d="M221.675 22.9432V35.5553" stroke="#323232" stroke-linecap="round" stroke-linejoin="round"/>
<path d="M116.646 247.676C119.924 227.679 106.371 208.811 86.3742 205.533C66.3774 202.255 47.5093 215.808 44.2311 235.805C40.9529 255.802 54.506 274.67 74.5029 277.948C94.4997 281.226 113.368 267.673 116.646 247.676Z" fill="#FAFAFA" stroke="#323232" stroke-linecap="round" stroke-linejoin="round"/>
<path d="M99.0508 251.205C103.047 242.755 97.5523 231.774 86.7777 226.678C76.0032 221.583 64.029 224.303 60.0326 232.753C56.0363 241.204 61.5311 252.185 72.3057 257.28C83.0802 262.376 95.0544 259.656 99.0508 251.205Z" fill="#14FFEC" stroke="#323232" stroke-linecap="round" stroke-linejoin="round"/>
<path d="M100.383 248.331C104.132 240.404 98.4368 229.847 87.6622 224.752C76.8876 219.656 65.114 221.952 61.3651 229.879C57.6162 237.807 63.3116 248.364 74.0862 253.459C84.8607 258.554 96.6343 256.259 100.383 248.331Z" fill="#14FFEC" stroke="#323232" stroke-linecap="round" stroke-linejoin="round"/>
<path d="M87.0979 228.258L73.7791 246.987" stroke="#323232" stroke-linecap="round" stroke-linejoin="round"/>
<path d="M79.0798 225.224C80.8648 225.465 82.6232 225.873 84.3318 226.442" stroke="#FAFAFA" stroke-linecap="round" stroke-linejoin="round"/>
<path d="M67.2476 242.856C67.2476 242.856 60.4481 235.411 67.0892 228.234C68.6218 226.672 70.6176 225.646 72.7799 225.309" stroke="#FAFAFA" stroke-linecap="round" stroke-linejoin="round"/>
<path d="M503.129 247.697C506.407 227.701 492.854 208.832 472.857 205.554C452.86 202.276 433.992 215.829 430.714 235.826C427.436 255.823 440.989 274.691 460.986 277.969C480.982 281.247 499.85 267.694 503.129 247.697Z" fill="#FAFAFA" stroke="#323232" stroke-linecap="round" stroke-linejoin="round"/>
<path d="M487.979 245.44C487.699 245.842 487.418 246.256 487.126 246.658C481.63 254.274 473.161 261.378 466.886 262.78V262.682C460.793 261.317 452.592 254.554 447.096 247.17C446.792 246.768 446.499 246.354 446.219 245.951C440.931 238.372 438.701 230.415 444.586 227.125C456.552 220.447 466.886 234.765 466.886 234.765C466.886 234.765 477.244 220.557 489.185 227.222C494.913 230.415 492.951 238.043 487.979 245.44Z" fill="#14FFEC" stroke="#323232" stroke-miterlimit="10"/>
<path d="M487.979 245.44C487.699 245.842 487.419 246.256 487.126 246.658H484.104L480.643 251.228L478.292 237.677L474.636 246.89H465.996L461.573 254.262L458.161 239.335L453.762 247.121H447.096C446.792 246.719 446.499 246.305 446.219 245.903H453.055L458.648 235.996L462.085 251.045L465.338 245.622H473.868L478.742 233.144L481.35 248.206L483.483 245.391L487.979 245.44Z" fill="#FAFAFA"/>
<path d="M431.596 169.755C451.86 169.755 468.287 153.328 468.287 133.064C468.287 112.8 451.86 96.3734 431.596 96.3734C411.333 96.3734 394.906 112.8 394.906 133.064C394.906 153.328 411.333 169.755 431.596 169.755Z" fill="#FAFAFA" stroke="#323232" stroke-linecap="round" stroke-linejoin="round"/>
<path d="M428.842 116.102C429.196 116.894 426.99 118.649 423.968 120.026C420.946 121.403 418.119 121.878 417.766 121.074C417.412 120.269 419.606 118.527 422.64 117.15C425.674 115.773 428.477 115.346 428.842 116.102Z" fill="#FAFAFA" stroke="#323232" stroke-linecap="round" stroke-linejoin="round"/>
<path d="M445.354 150.136L434.375 155.449L424.529 135.172L417.729 121.159L428.708 115.834L435.337 129.506L445.354 150.136Z" fill="#FAFAFA" stroke="#323232" stroke-linecap="round" stroke-linejoin="round"/>
<path d="M419.764 125.339L424.529 123.133Z" fill="#14FFEC"/>
<path d="M419.764 125.339L424.529 123.133" stroke="#323232" stroke-linecap="round" stroke-linejoin="round"/>
<path d="M421.836 129.75L426.6 127.544Z" fill="#14FFEC"/>
<path d="M421.836 129.75L426.6 127.544" stroke="#323232" stroke-linecap="round" stroke-linejoin="round"/>
<path d="M438.579 153.414L444.245 160.848L441.418 152.037L438.579 153.414Z" fill="#FAFAFA" stroke="#323232" stroke-linecap="round" stroke-linejoin="round"/>
<path d="M445.354 150.136C442.783 152.71 439.504 154.458 435.934 155.157L434.375 155.449L424.529 135.172L435.337 129.506L445.354 150.136Z" fill="#14FFEC" stroke="#323232" stroke-miterlimit="10"/>
<path d="M426.6 139.023L431.085 136.952" stroke="#323232" stroke-linecap="round" stroke-linejoin="round"/>
<path d="M429.062 143.739L433.461 141.728Z" fill="#14FFEC"/>
<path d="M429.062 143.739L433.461 141.728" stroke="#323232" stroke-linecap="round" stroke-linejoin="round"/>
<path d="M421.531 119.307L418.058 111.496L420.788 109.948L424.529 117.857L421.531 119.307Z" fill="#FAFAFA" stroke="#323232" stroke-linecap="round" stroke-linejoin="round"/>
<path d="M427.49 108.998L426.661 107.17L412.039 113.714L412.867 115.542C413.208 116.321 416.754 115.468 420.8 113.665C424.846 111.861 427.831 109.766 427.49 108.998Z" fill="#FAFAFA" stroke="#323232" stroke-linecap="round" stroke-linejoin="round"/>
<path d="M426.661 107.17C426.32 106.402 422.762 107.243 418.728 109.047C414.695 110.85 411.697 112.946 412.039 113.714C412.38 114.481 415.938 113.641 419.971 111.825C424.005 110.009 427.002 107.938 426.661 107.17Z" fill="#FAFAFA" stroke="#323232" stroke-linecap="round" stroke-linejoin="round"/>
</svg>
