<svg width="500" height="522" viewBox="0 0 500 522" fill="none" xmlns="http://www.w3.org/2000/svg">
<path opacity="0.1" d="M367.754 254.802C367.442 245.761 366.854 236.12 365.881 226.142C364.572 206.211 362.075 187.6 357.549 175.894C332.622 170.791 203.13 180.3 203.034 180.3L202.229 176.698L201.905 175.269L201.329 172.76L201.173 172.184C200.332 168.798 199.384 165.448 198.279 162.122C198.279 162.122 100.112 153.357 67.5495 161.858C67.5495 162.146 67.5495 162.422 67.5495 162.71L67.6456 170.743C67.7416 186.292 67.3814 200.88 68.1859 216.897V217.017C68.0301 217.003 67.8734 217.003 67.7176 217.017C66.454 217.184 65.2613 217.697 64.2716 218.501C63.2819 219.304 62.5339 220.365 62.1105 221.567C61.7874 222.5 61.6686 223.491 61.7623 224.473L62.1945 229.528C62.1945 229.612 62.1945 229.684 62.1945 229.768C63.3952 242.519 64.5958 255.15 64.5958 255.15C64.5958 255.15 65.2202 255.21 66.2408 255.258L71.6318 255.643C60.1533 256.699 47.6183 271.852 48.1706 284.879C48.7229 297.906 36.1639 322.436 39.2976 336.508C41.699 347.506 54.0539 365.192 60.0693 378.628L59.601 381.293L32.7419 435.227C34.543 432.586 50.7521 503.066 126.034 488.141L179.596 400.876C185.571 396.371 191.038 391.23 195.902 385.544C197.955 383.504 199.662 381.144 200.957 378.556V378.556C202.869 375.5 204.329 372.184 205.291 368.71C205.531 367.798 205.783 366.897 206.047 365.973C210.418 354.842 216.253 339.654 220.527 329.136C276.959 327.455 336.213 324.009 365.965 317.009H366.025C368.907 297.438 368.967 275.478 367.754 254.802ZM77.9474 304.114C77.4815 300.862 77.2009 297.587 77.1069 294.304C77.7672 297.762 78.4877 301.208 79.2441 304.666C78.8118 304.474 78.3796 304.282 77.9474 304.114Z" fill="#0F0F0F"/>
<path d="M26.6065 431.782C26.6065 431.782 50.7161 503.066 126.034 488.141C126.034 488.141 142.748 409.677 156.748 398.091C165.777 390.646 185.72 377.295 189.982 367.63C194.245 357.964 211.366 312.062 214.68 306.539C217.994 301.016 178.756 237.464 178.756 237.464L96.1016 280.112L50.1158 361.758C50.1158 361.758 41.2908 414.588 26.6065 431.782Z" fill="#FAFAFA"/>
<path d="M49.3112 368.122C49.3112 368.122 43.4159 412.199 23.929 435.228" stroke="#0F0F0F" stroke-linecap="round" stroke-linejoin="round"/>
<path d="M126.034 488.142C126.034 488.142 142.652 412.223 156.748 398.091C156.748 398.091 188.59 379.577 194.329 357.784C198.303 342.692 205.531 325.294 208.989 317.394" stroke="#0F0F0F" stroke-linecap="round" stroke-linejoin="round"/>
<path d="M132.734 319.831C131.533 319.062 152.005 335.439 152.797 357.82" stroke="#0F0F0F" stroke-linecap="round" stroke-linejoin="round"/>
<path d="M355.063 306.107C288.69 321.716 74.9217 319.663 74.9217 319.663C73.1207 315.869 70.9474 306.311 68.8463 295.241C64.6439 273.016 60.7177 244.693 60.7177 244.693L53.6457 244.2C53.6457 244.2 52.445 231.569 51.2444 218.818C50.0437 206.067 57.2477 206.079 57.2477 206.079L56.7314 161.942L56.5994 150.92C89.1617 142.419 187.329 151.184 187.329 151.184L190.391 161.822L192.096 169.362L346.598 165.004C360.766 201.636 355.063 306.107 355.063 306.107Z" fill="#14FFEC"/>
<path d="M329.394 199.036L228.057 204.103C223.886 204.312 220.674 207.862 220.882 212.033L221.912 232.625C222.12 236.796 225.671 240.008 229.842 239.799L331.179 234.733C335.35 234.524 338.562 230.974 338.353 226.803L337.324 206.211C337.115 202.04 333.565 198.828 329.394 199.036Z" fill="#0F0F0F"/>
<path d="M337.797 248.187L338.122 251.608L221.44 256.123L221.344 253.049L337.797 248.187Z" fill="#0F0F0F"/>
<path d="M338.374 260.085L338.482 263.159L221.812 267.469L221.704 264.407L338.374 260.085Z" fill="#0F0F0F"/>
<path opacity="0.3" d="M346.574 165.004C346.574 165.004 363.792 246.65 355.063 306.107C355.063 306.107 246.186 318.882 208.905 316.817L207.38 296.946L210.502 296.466C210.502 296.466 195.469 183.05 192.059 169.362C192.059 169.362 321.72 159.889 346.574 165.004Z" fill="#0F0F0F"/>
<path opacity="0.8" d="M203.79 296.658L205.075 311.678C205.075 311.678 95.3331 316.481 85.6797 312.987C76.0263 309.493 86.196 303.922 111.722 301.917C137.249 299.912 203.79 296.658 203.79 296.658Z" fill="#FAFAFA"/>
<path d="M138.269 232.95C143.806 232.95 148.295 228.886 148.295 223.873C148.295 218.859 143.806 214.795 138.269 214.795C132.732 214.795 128.244 218.859 128.244 223.873C128.244 228.886 132.732 232.95 138.269 232.95Z" fill="#0F0F0F"/>
<path d="M60.7177 244.68C62.9795 270.079 67.733 295.194 74.9097 319.663C121.46 319.266 167.998 318.75 214.536 317.261C261.074 315.772 308.897 312.627 355.015 306.107C355.015 306.107 363.276 233.154 346.526 165.004C328.012 161.149 192.528 169.338 192.528 169.338" stroke="#0F0F0F" stroke-linecap="round" stroke-linejoin="round"/>
<path d="M203.79 296.658L205.075 311.678L100.616 314.079C96.3057 314.452 89.5939 315.016 85.6317 312.987C83.8307 312.062 82.534 309.805 83.3864 307.956C84.1549 306.299 86.172 305.711 87.973 305.35C100.748 302.721 113.788 301.616 126.791 300.656C154.63 298.591 182.514 297.194 210.442 296.465C209.853 296.465 203.046 240.286 202.289 235.099C199.336 214.808 196.526 194.432 192.876 174.249C191.559 166.434 189.677 158.726 187.245 151.184C144.213 148.11 99.2714 145.264 56.5033 150.92C56.8995 169.974 56.1911 186.94 57.1637 206.079" stroke="#0F0F0F" stroke-linecap="round" stroke-linejoin="round"/>
<path d="M73.3128 314.007C73.0558 313.23 72.9023 312.423 72.8565 311.606" stroke="#0F0F0F" stroke-linecap="round" stroke-linejoin="round"/>
<path d="M73.5529 307.056C75.1498 303.057 79.9405 298.543 92.9678 297.102C116.729 294.461 168.526 289.706 198.915 288.553" stroke="#0F0F0F" stroke-linecap="round" stroke-linejoin="round" stroke-dasharray="3.91 3.91"/>
<path d="M201.269 288.469L203.67 288.385L203.346 285.983" stroke="#0F0F0F" stroke-linecap="round" stroke-linejoin="round"/>
<path d="M202.673 281.385C197.21 242.087 191.159 203.077 184.231 163.995" stroke="#0F0F0F" stroke-linecap="round" stroke-linejoin="round" stroke-dasharray="3.88 3.88"/>
<path d="M183.847 161.702L183.415 159.3L181.013 159.132" stroke="#0F0F0F" stroke-linecap="round" stroke-linejoin="round"/>
<path d="M176.163 158.821C156.195 157.488 99.4154 154.162 61.5341 156.755" stroke="#0F0F0F" stroke-linecap="round" stroke-linejoin="round" stroke-dasharray="4.07 4.07"/>
<path d="M59.0848 156.935L56.6834 157.127" stroke="#0F0F0F" stroke-linecap="round" stroke-linejoin="round"/>
<path d="M53.6457 244.2L50.7761 213.583C50.689 212.663 50.7883 211.736 51.0681 210.856C51.3478 209.975 51.8022 209.16 52.4042 208.46C53.0061 207.759 53.7432 207.187 54.5713 206.778C55.3994 206.369 56.3015 206.131 57.2237 206.079C74.8736 205.058 120.523 202.657 138.041 204.062C146.446 204.734 155.583 207.436 159.653 215.48C163.039 222.108 163.543 232.049 157.864 237.5C149.219 245.785 132.818 245.149 121.676 245.545C100.928 246.337 53.6577 244.38 53.6457 244.2Z" stroke="#0F0F0F" stroke-linecap="round" stroke-linejoin="round"/>
<path d="M162.187 225.482C162.187 224.629 166.557 243.072 150.588 249.159C134.619 255.246 60.7177 253.325 60.7177 253.325V244.681C60.7177 244.681 112.995 245.785 121.7 245.545C130.405 245.305 161.25 248.198 162.187 225.482Z" fill="#0F0F0F"/>
<path d="M146.83 328.5C146.83 328.5 159.893 336.148 164.78 350.52" stroke="#0F0F0F" stroke-linecap="round" stroke-linejoin="round"/>
<path d="M51.1363 210.677C51.1363 210.677 115.204 207.664 131.509 208.204C147.815 208.744 155.799 212.334 157.42 222.552C159.041 232.77 149.159 239.133 141.283 240.334C133.406 241.535 53.6337 241.883 53.6337 241.883" stroke="#0F0F0F" stroke-linecap="round" stroke-linejoin="round" stroke-dasharray="4 4"/>
<path d="M95.1651 334.455C95.1651 334.455 85.2475 300.007 66.9972 293.224C66.9972 293.224 63.3952 269.714 71.1756 268.418C78.956 267.121 100.928 252.641 95.1891 234.571C89.4499 216.5 72.2202 243.636 60.7417 244.68C49.2633 245.725 36.7282 260.889 37.2445 273.929C37.7608 286.968 25.2378 311.498 28.3715 325.558C31.5053 339.618 50.8242 364.7 52.385 377.751" fill="#FAFAFA"/>
<path d="M95.1651 334.455C95.1651 334.455 85.2475 300.007 66.9972 293.224C66.9972 293.224 63.3952 269.714 71.1756 268.418C78.956 267.121 100.928 252.641 95.1891 234.571C89.4499 216.5 72.2202 243.636 60.7417 244.68C49.2633 245.725 36.7282 260.889 37.2445 273.929C37.7608 286.968 25.2378 311.498 28.3715 325.558C31.5053 339.618 50.8242 364.7 52.385 377.751" stroke="#0F0F0F" stroke-linecap="round" stroke-linejoin="round"/>
<path d="M71.1396 239.386C71.1396 239.386 84.8873 241.883 92.3555 233.154C99.8237 224.425 91.2268 223.873 91.2268 223.873L71.1396 239.386Z" fill="#FAFAFA" stroke="#0F0F0F" stroke-linecap="round" stroke-linejoin="round"/>
<path d="M46.5858 258.836C49.0953 259.009 51.5221 259.805 53.6457 261.154" stroke="#0F0F0F" stroke-linecap="round" stroke-linejoin="round"/>
<path d="M46.1655 263.832C48.6653 264.069 51.0466 265.009 53.0333 266.545" stroke="#0F0F0F" stroke-linecap="round" stroke-linejoin="round"/>
<path d="M83.2784 309.973C83.2784 309.973 142.111 306.935 157.6 307.824" stroke="#0F0F0F" stroke-linecap="round" stroke-linejoin="round"/>
<path d="M143.276 303.333C143.276 303.333 158.08 302.133 167.29 303.333" stroke="#0F0F0F" stroke-linecap="round" stroke-linejoin="round"/>
<path d="M180.785 307.656H204.739" stroke="#0F0F0F" stroke-linecap="round" stroke-linejoin="round"/>
<path d="M195.277 176.086C195.277 176.086 300.492 166.685 342.768 172.052C342.768 172.052 354.175 193.028 351.689 300.524C304.173 306.615 256.367 310.17 208.473 311.174" stroke="#0F0F0F" stroke-linecap="round" stroke-linejoin="round" stroke-dasharray="4 4"/>
<g opacity="0.1">
<path opacity="0.1" d="M480.101 324.85C477.112 312.134 472.729 307.356 468.335 303.682C468.335 303.682 468.239 296.478 462.608 292.371C461.104 291.046 459.498 289.842 457.805 288.769C452.522 284.807 446.699 280.364 446.699 280.364C443.961 272.44 440.251 262.847 436.241 253.409L436.445 255.559C432.339 245.533 428.316 235.555 427.188 232.241V232.169C428.388 235.363 429.589 238.449 430.91 241.295L415.877 188.165C415.517 186.027 415.145 183.926 414.773 181.897C414.052 175.894 412.095 164.583 407.376 163.779C407.201 163.767 407.024 163.767 406.848 163.779C406.848 163.779 401.289 161.378 401.289 171.235C394.673 173.444 392.116 178.439 391.48 184.31C391.135 186.173 391.095 188.078 391.359 189.954C391.48 192.127 391.732 194.348 392.068 196.557L370.768 168.558L368.715 165.892L342.444 131.313L307.132 84.7265C305.818 82.9972 304.177 81.5437 302.301 80.449C300.425 79.3543 298.352 78.64 296.2 78.3467C294.048 78.0535 291.859 78.1871 289.759 78.7399C287.659 79.2928 285.688 80.254 283.959 81.5687L240.122 114.863L223.013 127.855C209.889 134.687 213.311 148.182 216.949 152.973L293.396 253.601C292.998 253.551 292.597 253.531 292.196 253.541C292.196 253.541 290.011 248.391 284.607 249.207C283.457 249.26 282.343 249.63 281.39 250.276C280.518 250.734 279.778 251.408 279.24 252.233C278.642 252.956 278.104 253.727 277.632 254.538C274.882 259.245 277.427 270.759 281.402 284.819C281.654 285.731 281.906 286.608 282.146 287.424V287.557L283.167 291.075C287.057 304.57 294.333 331.069 295.678 344.06C295.774 345.261 295.834 346.546 295.858 347.746C295.942 362.707 289.302 387.753 292.16 398.103C292.532 399.459 292.916 400.756 293.3 402.041C295.426 408.957 297.323 415.5 300.66 421.996C304.719 429.921 309.558 437.521 314.084 445.193C322.393 459.289 330.99 473.217 339.875 486.977C343.969 493.292 348.76 499.055 353.394 504.987C355.519 507.712 360.154 511.807 360.958 515.301C360.958 515.301 402.058 518.698 425.062 504.086L422.901 471.38L438.33 382.71C442.736 376.022 456.34 362.959 459.054 358.829C460.458 356.775 461.827 354.734 463.16 352.741C473.306 343.268 478.384 335.932 480.618 327.395C480.666 327.419 480.51 326.446 480.101 324.85ZM337.821 344.216L337.617 343.832C341.815 345.733 346.262 347.026 350.825 347.674C346.034 347.122 340.619 346.354 337.821 344.216ZM355.159 348.191L357.368 348.347C356.629 348.344 355.891 348.292 355.159 348.191V348.191ZM337.389 343.316L334.628 337.841C330.785 326.819 322.105 300.836 322.069 300.728C320.369 293.241 318.097 285.895 315.273 278.756C317.315 279.476 319.505 279.677 321.645 279.342C323.784 279.007 325.807 278.145 327.532 276.834L348.543 260.878C350.717 262.186 352.938 263.363 355.111 264.396L374.79 279.776L359.181 343.928L337.389 343.316ZM417.042 195.561C418.675 203.221 421.256 214.243 424.678 224.917C421.356 215.349 418.795 205.533 417.018 195.561H417.042Z" fill="#0F0F0F"/>
<path opacity="0.1" d="M327.844 503.822L327.964 504.399C327.964 504.399 327.928 504.182 327.844 503.822Z" fill="#0F0F0F"/>
</g>
<path d="M400.785 197.914C401.985 197.122 419.587 187.54 428.4 216.273C437.213 245.005 447.551 293.896 447.551 293.896L426.611 297.967C426.611 297.967 407.208 287.641 389.823 261.778C389.823 261.778 365.449 255.463 354.835 240.454C345.23 226.815 374.862 176.734 374.862 176.734L400.785 197.914Z" fill="#FAFAFA"/>
<path d="M393.257 233.67C398.443 241.451 408.265 257.816 421.52 262.979" stroke="#0F0F0F" stroke-linecap="round" stroke-linejoin="round"/>
<path d="M378.584 242.039C380.986 243.012 386.989 246.47 389.823 246.602C389.823 246.602 402.057 270.819 422.241 278.684" stroke="#0F0F0F" stroke-linecap="round" stroke-linejoin="round"/>
<path d="M367.358 250.96C374.862 257.239 383.807 261.526 389.823 261.766C389.823 261.766 402.058 285.984 422.241 293.848" stroke="#0F0F0F" stroke-linecap="round" stroke-linejoin="round"/>
<path d="M304.204 75.4707L237.811 125.902C232.045 130.282 230.921 138.508 235.301 144.274L327.515 265.672C331.895 271.439 340.12 272.562 345.886 268.182L412.279 217.751C418.046 213.371 419.169 205.146 414.789 199.379L322.576 77.9808C318.196 72.2144 309.971 71.0906 304.204 75.4707Z" fill="#0F0F0F"/>
<path d="M410.39 215.12L349.468 261.406C347.74 262.723 345.768 263.686 343.667 264.24C341.566 264.793 339.376 264.927 337.223 264.632C335.07 264.338 332.997 263.621 331.121 262.524C329.246 261.426 327.606 259.969 326.295 258.236L238.225 142.299C236.791 140.426 235.783 138.263 235.272 135.959C234.562 132.867 234.761 129.635 235.845 126.652C236.93 123.67 238.853 121.065 241.383 119.15L258.505 106.159L302.329 72.8519C304.059 71.5379 306.03 70.5774 308.131 70.0255C310.232 69.4736 312.421 69.3411 314.573 69.6354C316.725 69.9298 318.798 70.6453 320.673 71.7411C322.548 72.8369 324.189 74.2915 325.502 76.0217L360.838 122.536L387.109 157.115L413.524 191.935C414.842 193.662 415.806 195.633 416.362 197.734C416.918 199.834 417.054 202.024 416.763 204.177C416.472 206.33 415.759 208.405 414.666 210.283C413.572 212.16 412.119 213.804 410.39 215.12V215.12Z" fill="#14FFEC"/>
<path opacity="0.1" d="M360.79 122.536L258.469 106.147L302.329 72.8519C304.059 71.5379 306.03 70.5774 308.131 70.0255C310.232 69.4736 312.421 69.3411 314.573 69.6354C316.725 69.9298 318.798 70.6453 320.673 71.7411C322.548 72.8369 324.189 74.2915 325.502 76.0217L360.79 122.536Z" fill="#0F0F0F"/>
<path opacity="0.1" d="M410.39 215.12L349.468 261.406C347.74 262.723 345.768 263.686 343.667 264.24C341.566 264.793 339.376 264.927 337.223 264.632C335.07 264.338 332.997 263.621 331.121 262.524C329.246 261.426 327.606 259.969 326.295 258.236L238.225 142.299C236.791 140.426 235.783 138.263 235.272 135.959L389.126 159.889L413.524 192.007C416.163 195.491 417.315 199.879 416.727 204.21C416.14 208.542 413.862 212.464 410.39 215.12V215.12Z" fill="#0F0F0F"/>
<path d="M310.976 84.6233L300.22 92.7937C298.065 94.4302 297.646 97.5034 299.282 99.6578L312.304 116.801C313.94 118.955 317.014 119.375 319.168 117.739L329.924 109.568C332.079 107.932 332.499 104.859 330.862 102.704L317.84 85.5611C316.204 83.4066 313.131 82.9868 310.976 84.6233Z" fill="#FAFAFA" stroke="#0F0F0F" stroke-linecap="round" stroke-linejoin="round"/>
<path d="M305.823 88.521L324.398 113.759" stroke="#0F0F0F" stroke-linecap="round" stroke-linejoin="round"/>
<path d="M305.823 108.272L324.398 94.188" stroke="#0F0F0F" stroke-linecap="round" stroke-linejoin="round"/>
<path d="M341.796 253.854L338.626 256.183L299.952 205.274L303.098 202.897L341.796 253.854Z" fill="#0F0F0F"/>
<path d="M347.163 249.879L343.993 252.233L305.271 201.24L308.393 198.863L347.163 249.879Z" fill="#0F0F0F"/>
<path d="M352.518 245.929L349.36 248.259L310.578 197.218L313.712 194.829L352.518 245.929Z" fill="#0F0F0F"/>
<path d="M357.885 241.955L354.715 244.284L316.449 193.916L319.571 191.527L357.885 241.955Z" fill="#0F0F0F"/>
<path d="M363.672 237.681L360.502 240.022L322.177 189.57L325.31 187.18L363.672 237.681Z" fill="#0F0F0F"/>
<path d="M363.672 178.319L360.502 180.649L322.177 130.196L325.31 127.819L363.672 178.319Z" fill="#0F0F0F"/>
<path d="M280.204 89.7914L275.299 93.5171L383.294 235.692L388.199 231.966L280.204 89.7914Z" fill="#0F0F0F"/>
<path d="M410.39 215.12L349.468 261.406C347.74 262.723 345.768 263.686 343.667 264.24C341.566 264.793 339.376 264.927 337.223 264.632C335.07 264.338 332.997 263.621 331.121 262.524C329.246 261.426 327.606 259.969 326.295 258.236L238.225 142.299C236.791 140.426 235.783 138.263 235.272 135.959C234.562 132.867 234.761 129.635 235.845 126.652C236.93 123.67 238.853 121.065 241.383 119.15L258.505 106.159L302.329 72.8519C304.059 71.5379 306.03 70.5774 308.131 70.0255C310.232 69.4736 312.421 69.3411 314.573 69.6354C316.725 69.9298 318.798 70.6453 320.673 71.7411C322.548 72.8369 324.189 74.2915 325.502 76.0217L360.838 122.536L387.109 157.115L413.524 191.935C414.842 193.662 415.806 195.633 416.362 197.734C416.918 199.834 417.054 202.024 416.763 204.177C416.472 206.33 415.759 208.405 414.666 210.283C413.572 212.16 412.119 213.804 410.39 215.12V215.12Z" stroke="#0F0F0F" stroke-linecap="round" stroke-linejoin="round"/>
<path d="M361.006 515.289C361.006 515.289 431.918 540.503 453.374 485.584C453.374 485.584 419.815 444.761 438.138 411.406C449.664 390.394 481.542 344.012 481.542 344.012C481.542 344.012 494.858 331.369 499 318.666C499 318.666 496.719 304.51 486.681 294.929C486.681 294.929 486.573 287.725 480.942 283.618C475.311 279.512 464.985 271.612 464.985 271.612C464.985 271.612 448.007 230.885 445.486 223.525C442.964 216.164 437.898 202.249 435.364 186.88C432.831 171.511 430.489 154.966 425.11 155.014C425.11 155.014 419.563 152.613 419.563 162.47C419.563 162.47 407.917 168.474 409.634 181.177C411.351 193.88 412.936 200.448 412.479 207.592C412.023 214.736 414.316 239.542 420.056 247.322C420.056 247.322 421.977 282.142 424.858 291.207C424.954 291.483 425.038 291.735 425.122 291.963C428.148 299.635 397.915 329.184 381.55 337.18C381.55 337.18 379.833 340.374 373.481 339.498C367.13 338.621 356.384 338.213 354.535 333.494C352.686 328.776 340.379 291.963 340.379 291.963C340.379 291.963 330.425 244.777 310.542 244.789C310.542 244.789 307.528 237.584 299.736 241.523C291.944 245.461 297.046 266.929 300.492 278.672C303.938 290.414 312.667 321.284 314.084 335.488C315.501 349.691 307.456 378.147 310.482 389.338C313.508 400.528 316.87 408.08 326.523 426.403C336.176 444.725 357.56 499.356 361.006 515.289Z" fill="#FAFAFA"/>
<path d="M361.006 515.289C361.006 515.289 345.83 458.161 323.521 421.216C301.213 384.271 314.336 371.208 314.336 340.458C314.336 309.709 289.278 257.36 296.038 245.821C302.798 234.283 312.019 243.516 315.873 254.286C319.727 265.056 314.336 271.215 303.53 271.984" stroke="#0F0F0F" stroke-linecap="round" stroke-linejoin="round"/>
<path d="M310.542 244.837C310.542 244.837 323.497 244.044 331.458 264.756C339.418 285.467 352.169 337.997 365.449 353.978" stroke="#0F0F0F" stroke-linecap="round" stroke-linejoin="round"/>
<path d="M354.967 334.575C355.039 334.743 373.517 345.045 402.19 336.016" stroke="#0F0F0F" stroke-linecap="round" stroke-linejoin="round"/>
<path d="M313.003 305.627C314.444 303.864 316.323 302.511 318.451 301.704C320.58 300.897 322.883 300.664 325.13 301.028" stroke="#0F0F0F" stroke-linecap="round" stroke-linejoin="round"/>
<path d="M315.465 312.146C316.71 310.658 318.349 309.549 320.194 308.949C322.039 308.348 324.016 308.278 325.899 308.748" stroke="#0F0F0F" stroke-linecap="round" stroke-linejoin="round"/>
<path d="M419.563 162.434C400.713 168.714 414.761 197.182 412.479 207.567C410.198 217.953 416.081 237.836 420.608 248.619C420.608 261.262 425.11 291.939 425.11 291.939C422.325 301.7 399.08 330.469 376.495 339.474" stroke="#0F0F0F" stroke-linecap="round" stroke-linejoin="round"/>
<path d="M433.395 176.771C433.395 176.771 431.99 154.979 425.11 154.979C418.231 154.979 418.651 169.663 421.508 180.565C424.366 191.467 435.484 189.906 433.395 176.771Z" stroke="#0F0F0F" stroke-linecap="round" stroke-linejoin="round"/>
<path d="M433.395 176.771C433.395 176.771 439.254 211.026 449.184 232.542" stroke="#0F0F0F" stroke-linecap="round" stroke-linejoin="round"/>
<path d="M460.891 312.771C465.693 304.99 467.818 297.63 469.595 288.265C469.151 282.394 462.391 263.231 454.539 244.668" stroke="#0F0F0F" stroke-linecap="round" stroke-linejoin="round"/>
<path d="M465.621 273.425C473.414 279.284 486.969 283.787 485.408 293.896C483.686 304.01 480.147 313.728 474.962 322.58" stroke="#0F0F0F" stroke-linecap="round" stroke-linejoin="round"/>
<path d="M455.103 488.141C455.103 488.141 427.956 450.452 433.395 424.421C437.393 405.271 463.1 371.784 481.542 344.048C491.7 334.575 496.779 327.239 499 318.702C495.746 302.673 490.463 298.002 485.384 293.896" stroke="#0F0F0F" stroke-linecap="round" stroke-linejoin="round"/>
<path d="M462.343 279.644C459.32 278.794 456.153 278.574 453.041 278.997C449.928 279.421 446.936 280.479 444.249 282.106" stroke="#0F0F0F" stroke-linecap="round" stroke-linejoin="round"/>
<path d="M460.819 286.092C457.131 285.533 453.361 286.195 450.085 287.977" stroke="#0F0F0F" stroke-linecap="round" stroke-linejoin="round"/>
</svg>
