<svg width="281" height="293" viewBox="0 0 281 293" fill="none" xmlns="http://www.w3.org/2000/svg">
<path opacity="0.1" d="M206.355 142.811C206.18 137.738 205.85 132.328 205.304 126.73C204.57 115.546 203.168 105.103 200.628 98.5343C186.642 95.6709 113.981 101.007 113.927 101.007L113.475 98.9857L113.293 98.1839L112.97 96.7758L112.882 96.4524C112.411 94.5525 111.879 92.6728 111.259 90.8066C111.259 90.8066 56.1749 85.8884 37.9035 90.6584C37.9035 90.8201 37.9035 90.9751 37.9035 91.1368L37.9574 95.644C38.0113 104.369 37.8092 112.554 38.2606 121.542V121.609C38.1732 121.601 38.0852 121.601 37.9978 121.609C37.2888 121.703 36.6195 121.991 36.0642 122.442C35.5089 122.893 35.0891 123.488 34.8515 124.163C34.6702 124.686 34.6036 125.242 34.6561 125.793L34.8987 128.63C34.8987 128.677 34.8987 128.717 34.8987 128.764C35.5724 135.919 36.2461 143.007 36.2461 143.007C36.2461 143.007 36.5965 143.041 37.1691 143.067L40.1942 143.283C33.7533 143.876 26.7196 152.378 27.0296 159.688C27.3395 166.998 20.2923 180.762 22.0507 188.659C23.3982 194.83 30.3308 204.754 33.7062 212.293L33.4434 213.788L18.3722 244.052C19.3828 242.57 28.4781 282.118 70.7207 273.743L100.776 224.777C104.128 222.249 107.196 219.364 109.925 216.173C111.077 215.029 112.035 213.705 112.761 212.252V212.252C113.834 210.538 114.653 208.677 115.193 206.728C115.328 206.216 115.469 205.711 115.618 205.192C118.07 198.946 121.344 190.424 123.743 184.522C155.408 183.579 188.656 181.645 205.351 177.717H205.385C207.002 166.735 207.035 154.413 206.355 142.811ZM43.738 170.481C43.4766 168.657 43.3191 166.819 43.2663 164.977C43.6369 166.917 44.0411 168.851 44.4656 170.791C44.223 170.683 43.9805 170.576 43.738 170.481Z" fill="#0F0F0F"/>
<path d="M14.9294 242.118C14.9294 242.118 28.4578 282.117 70.7206 273.743C70.7206 273.743 80.0989 229.715 87.9545 223.214C93.021 219.036 104.212 211.545 106.603 206.121C108.995 200.698 118.602 174.941 120.462 171.842C122.321 168.743 100.304 133.083 100.304 133.083L53.9247 157.013L28.121 202.827C28.121 202.827 23.1691 232.471 14.9294 242.118Z" fill="#FAFAFA"/>
<path d="M27.6697 206.397C27.6697 206.397 24.3617 231.13 13.4271 244.052" stroke="#0F0F0F" stroke-linecap="round" stroke-linejoin="round"/>
<path d="M70.7207 273.743C70.7207 273.743 80.0451 231.143 87.9546 223.214C87.9546 223.214 105.822 212.825 109.042 200.597C111.272 192.128 115.328 182.366 117.268 177.933" stroke="#0F0F0F" stroke-linecap="round" stroke-linejoin="round"/>
<path d="M74.48 179.3C73.8063 178.869 85.2933 188.059 85.738 200.617" stroke="#0F0F0F" stroke-linecap="round" stroke-linejoin="round"/>
<path d="M199.234 171.6C161.99 180.358 42.0402 179.206 42.0402 179.206C41.0296 177.077 39.8102 171.714 38.6312 165.503C36.2731 153.032 34.07 137.139 34.07 137.139L30.1018 136.862C30.1018 136.862 29.4281 129.775 28.7543 122.62C28.0806 115.465 32.123 115.472 32.123 115.472L31.8333 90.7055L31.7591 84.5207C50.0306 79.7507 105.114 84.6689 105.114 84.6689L106.832 90.6381L107.789 94.8691L194.484 92.4235C202.434 112.979 199.234 171.6 199.234 171.6Z" fill="#14FFEC"/>
<path d="M184.83 111.52L127.968 114.363C125.627 114.48 123.825 116.472 123.942 118.813L124.52 130.367C124.637 132.708 126.629 134.51 128.969 134.393L185.832 131.55C188.172 131.433 189.975 129.441 189.858 127.1L189.28 115.546C189.163 113.206 187.171 111.403 184.83 111.52Z" fill="#0F0F0F"/>
<path d="M189.546 139.099L189.727 141.019L124.255 143.552L124.201 141.828L189.546 139.099Z" fill="#0F0F0F"/>
<path d="M189.869 145.775L189.93 147.5L124.464 149.919L124.403 148.201L189.869 145.775Z" fill="#0F0F0F"/>
<path opacity="0.3" d="M194.471 92.4236C194.471 92.4236 204.132 138.237 199.234 171.6C199.234 171.6 138.14 178.768 117.221 177.609L116.366 166.459L118.117 166.19C118.117 166.19 109.682 102.55 107.769 94.8692C107.769 94.8692 180.524 89.5535 194.471 92.4236Z" fill="#0F0F0F"/>
<path opacity="0.8" d="M114.351 166.297L115.072 174.726C115.072 174.726 53.4936 177.421 48.0768 175.46C42.66 173.499 48.3665 170.373 62.6899 169.248C77.0133 168.123 114.351 166.297 114.351 166.297Z" fill="#FAFAFA"/>
<path d="M77.5859 130.55C80.6929 130.55 83.2115 128.269 83.2115 125.456C83.2115 122.643 80.6929 120.363 77.5859 120.363C74.479 120.363 71.9603 122.643 71.9603 125.456C71.9603 128.269 74.479 130.55 77.5859 130.55Z" fill="#0F0F0F"/>
<path d="M34.0701 137.132C35.3392 151.384 38.0065 165.476 42.0335 179.206C68.1538 178.984 94.2674 178.694 120.381 177.859C146.495 177.023 173.329 175.258 199.207 171.6C199.207 171.6 203.842 130.664 194.444 92.4235C184.055 90.2608 108.032 94.8556 108.032 94.8556" stroke="#0F0F0F" stroke-linecap="round" stroke-linejoin="round"/>
<path d="M114.351 166.297L115.072 174.726L56.4579 176.073C54.0392 176.282 50.2731 176.599 48.0498 175.46C47.0392 174.941 46.3116 173.675 46.7899 172.637C47.2211 171.707 48.353 171.377 49.3635 171.175C56.532 169.7 63.8486 169.08 71.1451 168.541C86.7665 167.382 102.413 166.598 118.084 166.19C117.753 166.19 113.933 134.666 113.509 131.756C111.852 120.37 110.275 108.936 108.227 97.6111C107.488 93.2263 106.432 88.9009 105.067 84.6688C80.9208 82.9441 55.7033 81.3474 31.7052 84.5206C31.9275 95.2126 31.53 104.732 32.0757 115.472" stroke="#0F0F0F" stroke-linecap="round" stroke-linejoin="round"/>
<path d="M41.1374 176.033C40.9932 175.597 40.9071 175.144 40.8813 174.685" stroke="#0F0F0F" stroke-linecap="round" stroke-linejoin="round"/>
<path d="M41.2721 172.132C42.1681 169.889 44.8563 167.355 52.1662 166.547C65.4993 165.065 94.5638 162.397 111.616 161.75" stroke="#0F0F0F" stroke-linecap="round" stroke-linejoin="round" stroke-dasharray="3.91 3.91"/>
<path d="M112.936 161.702L114.284 161.655L114.102 160.308" stroke="#0F0F0F" stroke-linecap="round" stroke-linejoin="round"/>
<path d="M113.725 157.728C110.659 135.677 107.264 113.787 103.376 91.8574" stroke="#0F0F0F" stroke-linecap="round" stroke-linejoin="round" stroke-dasharray="3.88 3.88"/>
<path d="M103.161 90.5707L102.918 89.2232L101.571 89.1289" stroke="#0F0F0F" stroke-linecap="round" stroke-linejoin="round"/>
<path d="M98.8486 88.954C87.6446 88.2062 55.7841 86.3399 34.5281 87.7952" stroke="#0F0F0F" stroke-linecap="round" stroke-linejoin="round" stroke-dasharray="4.07 4.07"/>
<path d="M33.1537 87.896L31.8063 88.0038" stroke="#0F0F0F" stroke-linecap="round" stroke-linejoin="round"/>
<path d="M30.1017 136.862L28.4915 119.682C28.4427 119.166 28.4984 118.646 28.6554 118.152C28.8123 117.658 29.0673 117.201 29.4051 116.808C29.7429 116.415 30.1564 116.094 30.6211 115.864C31.0858 115.635 31.592 115.501 32.1094 115.472C42.0132 114.899 67.6282 113.552 77.4579 114.34C82.174 114.717 87.301 116.233 89.5849 120.747C91.4849 124.466 91.7678 130.044 88.5811 133.103C83.7303 137.752 74.5272 137.395 68.275 137.617C56.633 138.062 30.1085 136.964 30.1017 136.862Z" stroke="#0F0F0F" stroke-linecap="round" stroke-linejoin="round"/>
<path d="M91.0066 126.359C91.0066 125.88 93.459 136.229 84.4984 139.645C75.5379 143.06 34.0701 141.983 34.0701 141.983V137.132C34.0701 137.132 63.4041 137.752 68.2886 137.617C73.1731 137.482 90.4811 139.106 91.0066 126.359Z" fill="#0F0F0F"/>
<path d="M82.3896 184.165C82.3896 184.165 89.7198 188.456 92.4618 196.521" stroke="#0F0F0F" stroke-linecap="round" stroke-linejoin="round"/>
<path d="M28.6937 118.052C28.6937 118.052 64.6437 116.361 73.7929 116.664C82.9421 116.967 87.4224 118.981 88.3319 124.715C89.2414 130.448 83.6967 134.019 79.277 134.693C74.8574 135.366 30.0951 135.562 30.0951 135.562" stroke="#0F0F0F" stroke-linecap="round" stroke-linejoin="round" stroke-dasharray="4 4"/>
<path d="M53.3993 187.506C53.3993 187.506 47.8343 168.177 37.5937 164.371C37.5937 164.371 35.5725 151.179 39.9382 150.451C44.304 149.724 56.6332 141.599 53.4128 131.459C50.1923 121.32 40.5244 136.546 34.0836 137.132C27.6428 137.718 20.6091 146.227 20.8988 153.544C21.1885 160.861 14.1615 174.625 15.9199 182.514C17.6784 190.403 28.5186 204.478 29.3944 211.801" fill="#FAFAFA"/>
<path d="M53.3993 187.506C53.3993 187.506 47.8343 168.177 37.5937 164.371C37.5937 164.371 35.5725 151.179 39.9382 150.451C44.304 149.724 56.6332 141.599 53.4128 131.459C50.1923 121.32 40.5244 136.546 34.0836 137.132C27.6428 137.718 20.6091 146.227 20.8988 153.544C21.1885 160.861 14.1615 174.625 15.9199 182.514C17.6784 190.403 28.5186 204.478 29.3944 211.801" stroke="#0F0F0F" stroke-linecap="round" stroke-linejoin="round"/>
<path d="M39.918 134.161C39.918 134.161 47.6321 135.562 51.8227 130.664C56.0133 125.766 51.1894 125.457 51.1894 125.457L39.918 134.161Z" fill="#FAFAFA" stroke="#0F0F0F" stroke-linecap="round" stroke-linejoin="round"/>
<path d="M26.1403 145.075C27.5484 145.172 28.9101 145.619 30.1018 146.375" stroke="#0F0F0F" stroke-linecap="round" stroke-linejoin="round"/>
<path d="M25.9044 147.878C27.3071 148.011 28.6433 148.539 29.7581 149.401" stroke="#0F0F0F" stroke-linecap="round" stroke-linejoin="round"/>
<path d="M46.7294 173.769C46.7294 173.769 79.7419 172.064 88.433 172.563" stroke="#0F0F0F" stroke-linecap="round" stroke-linejoin="round"/>
<path d="M80.3954 170.043C80.3954 170.043 88.7024 169.369 93.8699 170.043" stroke="#0F0F0F" stroke-linecap="round" stroke-linejoin="round"/>
<path d="M101.443 172.469H114.883" stroke="#0F0F0F" stroke-linecap="round" stroke-linejoin="round"/>
<path d="M109.574 98.6418C109.574 98.6418 168.613 93.3665 192.335 96.3781C192.335 96.3781 198.735 108.148 197.341 168.467C170.678 171.884 143.853 173.879 116.979 174.443" stroke="#0F0F0F" stroke-linecap="round" stroke-linejoin="round" stroke-dasharray="4 4"/>
<g opacity="0.1">
<path opacity="0.1" d="M269.396 182.117C267.718 174.982 265.259 172.3 262.793 170.239C262.793 170.239 262.739 166.196 259.579 163.892C258.735 163.149 257.834 162.473 256.884 161.871C253.92 159.648 250.652 157.155 250.652 157.155C249.116 152.708 247.035 147.325 244.784 142.03L244.899 143.236C242.595 137.61 240.338 132.012 239.704 130.152V130.112C240.378 131.904 241.052 133.635 241.793 135.232L233.358 105.42C233.156 104.22 232.947 103.041 232.738 101.903C232.334 98.5342 231.236 92.1877 228.588 91.7363C228.489 91.7296 228.39 91.7296 228.292 91.7363C228.292 91.7363 225.172 90.3888 225.172 95.9201C221.46 97.1598 220.025 99.9625 219.668 103.257C219.475 104.302 219.452 105.371 219.6 106.423C219.668 107.643 219.809 108.889 219.998 110.129L208.046 94.4177L206.894 92.922L192.153 73.5187L172.339 47.3782C171.601 46.4078 170.68 45.5922 169.628 44.978C168.575 44.3637 167.412 43.9629 166.204 43.7983C164.997 43.6338 163.769 43.7088 162.59 44.019C161.412 44.3292 160.306 44.8686 159.336 45.6063L134.738 64.2887L125.137 71.5784C117.774 75.4119 119.694 82.9846 121.735 85.6727L164.631 142.138C164.408 142.109 164.183 142.098 163.958 142.104C163.958 142.104 162.731 139.214 159.7 139.672C159.054 139.702 158.429 139.909 157.894 140.271C157.405 140.529 156.99 140.907 156.688 141.37C156.352 141.775 156.05 142.208 155.785 142.663C154.242 145.304 155.671 151.765 157.901 159.655C158.042 160.167 158.184 160.658 158.318 161.117V161.191L158.891 163.165C161.074 170.737 165.157 185.606 165.911 192.896C165.965 193.57 165.999 194.291 166.012 194.964C166.06 203.359 162.334 217.413 163.937 223.221C164.146 223.982 164.362 224.709 164.577 225.43C165.77 229.311 166.834 232.983 168.707 236.628C170.984 241.074 173.7 245.339 176.24 249.644C180.902 257.554 185.726 265.369 190.711 273.09C193.009 276.633 195.697 279.867 198.297 283.196C199.49 284.725 202.09 287.022 202.542 288.983C202.542 288.983 225.603 290.89 238.512 282.69L237.299 264.338L245.957 214.583C248.429 210.831 256.063 203.501 257.585 201.183C258.373 200.031 259.141 198.886 259.889 197.767C265.582 192.451 268.432 188.335 269.685 183.545C269.712 183.558 269.625 183.013 269.396 182.117ZM189.559 192.984L189.445 192.768C191.8 193.835 194.295 194.561 196.856 194.924C194.167 194.614 191.129 194.183 189.559 192.984ZM199.288 195.214L200.527 195.301C200.113 195.3 199.698 195.271 199.288 195.214V195.214ZM189.317 192.478L187.767 189.406C185.611 183.221 180.74 168.642 180.72 168.581C179.766 164.38 178.491 160.258 176.907 156.252C178.053 156.656 179.281 156.769 180.482 156.581C181.683 156.393 182.818 155.91 183.785 155.174L195.575 146.22C196.795 146.955 198.041 147.615 199.261 148.194L210.303 156.825L201.545 192.822L189.317 192.478ZM234.011 109.57C234.928 113.868 236.376 120.053 238.296 126.042C236.432 120.673 234.995 115.165 233.998 109.57H234.011Z" fill="#0F0F0F"/>
<path opacity="0.1" d="M183.96 282.542L184.028 282.865C184.028 282.865 184.008 282.744 183.96 282.542Z" fill="#0F0F0F"/>
</g>
<path d="M224.889 110.89C225.563 110.446 235.44 105.069 240.385 121.192C245.33 137.314 251.131 164.748 251.131 164.748L239.381 167.032C239.381 167.032 228.494 161.238 218.738 146.726C218.738 146.726 205.062 143.182 199.106 134.76C193.716 127.107 210.344 99.0059 210.344 99.0059L224.889 110.89Z" fill="#FAFAFA"/>
<path d="M220.665 130.954C223.576 135.319 229.087 144.502 236.525 147.399" stroke="#0F0F0F" stroke-linecap="round" stroke-linejoin="round"/>
<path d="M212.432 135.65C213.779 136.196 217.148 138.136 218.738 138.21C218.738 138.21 225.603 151.799 236.929 156.212" stroke="#0F0F0F" stroke-linecap="round" stroke-linejoin="round"/>
<path d="M206.133 140.655C210.344 144.179 215.363 146.584 218.738 146.719C218.738 146.719 225.603 160.308 236.929 164.721" stroke="#0F0F0F" stroke-linecap="round" stroke-linejoin="round"/>
<path d="M170.696 42.1842L133.441 70.4825C130.206 72.9402 129.575 77.5556 132.033 80.7912L183.776 148.911C186.234 152.146 190.849 152.777 194.085 150.319L231.339 122.021C234.575 119.563 235.205 114.948 232.748 111.712L181.005 43.5927C178.547 40.3571 173.932 39.7265 170.696 42.1842Z" fill="#0F0F0F"/>
<path d="M230.279 120.545L196.094 146.517C195.124 147.256 194.018 147.796 192.839 148.107C191.66 148.418 190.432 148.493 189.223 148.327C188.015 148.162 186.852 147.76 185.8 147.144C184.747 146.528 183.827 145.711 183.091 144.738L133.674 79.6834C132.868 78.6326 132.303 77.4185 132.016 76.1262C131.618 74.3907 131.73 72.5771 132.338 70.9037C132.946 69.2303 134.026 67.7684 135.445 66.694L145.053 59.4043L169.644 40.7151C170.614 39.9778 171.72 39.4389 172.899 39.1292C174.078 38.8195 175.306 38.7451 176.514 38.9103C177.721 39.0755 178.884 39.477 179.937 40.0918C180.989 40.7067 181.91 41.5229 182.647 42.4938L202.474 68.5939L217.216 87.9972L232.037 107.535C232.777 108.505 233.318 109.61 233.63 110.789C233.942 111.968 234.018 113.196 233.855 114.405C233.692 115.613 233.292 116.777 232.678 117.831C232.065 118.884 231.249 119.807 230.279 120.545V120.545Z" fill="#14FFEC"/>
<path opacity="0.1" d="M202.447 68.5939L145.033 59.3976L169.644 40.7151C170.614 39.9778 171.72 39.4389 172.899 39.1292C174.078 38.8195 175.306 38.7451 176.514 38.9103C177.721 39.0755 178.884 39.477 179.937 40.0918C180.989 40.7067 181.91 41.5229 182.647 42.4938L202.447 68.5939Z" fill="#0F0F0F"/>
<path opacity="0.1" d="M230.279 120.545L196.094 146.517C195.125 147.256 194.018 147.796 192.839 148.107C191.66 148.418 190.432 148.492 189.224 148.327C188.015 148.162 186.852 147.76 185.8 147.144C184.747 146.528 183.827 145.711 183.091 144.738L133.674 79.6832C132.868 78.6324 132.303 77.4184 132.016 76.126L218.347 89.5533L232.038 107.575C233.518 109.531 234.165 111.993 233.835 114.423C233.506 116.853 232.227 119.054 230.279 120.545V120.545Z" fill="#0F0F0F"/>
<path d="M174.496 47.3201L168.46 51.9047C167.251 52.823 167.016 54.5474 167.934 55.7563L175.241 65.3758C176.159 66.5847 177.883 66.8203 179.092 65.902L185.128 61.3174C186.337 60.3991 186.572 58.6747 185.654 57.4658L178.347 47.8463C177.429 46.6374 175.705 46.4018 174.496 47.3201Z" fill="#FAFAFA" stroke="#0F0F0F" stroke-linecap="round" stroke-linejoin="round"/>
<path d="M171.604 49.5073L182.027 63.669" stroke="#0F0F0F" stroke-linecap="round" stroke-linejoin="round"/>
<path d="M171.604 60.5898L182.027 52.687" stroke="#0F0F0F" stroke-linecap="round" stroke-linejoin="round"/>
<path d="M191.789 142.279L190.011 143.586L168.31 115.02L170.075 113.686L191.789 142.279Z" fill="#0F0F0F"/>
<path d="M194.801 140.049L193.022 141.369L171.294 112.756L173.046 111.422L194.801 140.049Z" fill="#0F0F0F"/>
<path d="M197.805 137.832L196.034 139.139L174.272 110.499L176.031 109.159L197.805 137.832Z" fill="#0F0F0F"/>
<path d="M200.817 135.603L199.038 136.91L177.567 108.647L179.318 107.306L200.817 135.603Z" fill="#0F0F0F"/>
<path d="M204.064 133.204L202.286 134.518L180.78 106.208L182.539 104.867L204.064 133.204Z" fill="#0F0F0F"/>
<path d="M204.064 99.895L202.286 101.202L180.78 72.8921L182.539 71.5581L204.064 99.895Z" fill="#0F0F0F"/>
<path d="M157.229 50.22L154.477 52.3105L215.075 132.088L217.827 129.998L157.229 50.22Z" fill="#0F0F0F"/>
<path d="M230.279 120.545L196.094 146.517C195.124 147.256 194.018 147.796 192.839 148.107C191.66 148.418 190.432 148.493 189.223 148.327C188.015 148.162 186.852 147.76 185.8 147.144C184.747 146.528 183.827 145.711 183.091 144.738L133.674 79.6834C132.868 78.6326 132.303 77.4185 132.016 76.1262C131.618 74.3907 131.73 72.5771 132.338 70.9037C132.946 69.2303 134.026 67.7684 135.445 66.694L145.053 59.4043L169.644 40.7151C170.614 39.9778 171.72 39.4389 172.899 39.1292C174.078 38.8195 175.306 38.7451 176.514 38.9103C177.721 39.0755 178.884 39.477 179.937 40.0918C180.989 40.7067 181.91 41.5229 182.647 42.4938L202.474 68.5939L217.216 87.9972L232.037 107.535C232.777 108.505 233.318 109.61 233.63 110.789C233.942 111.968 234.018 113.196 233.855 114.405C233.692 115.613 233.292 116.777 232.678 117.831C232.065 118.884 231.249 119.807 230.279 120.545V120.545Z" stroke="#0F0F0F" stroke-linecap="round" stroke-linejoin="round"/>
<path d="M202.569 288.976C202.569 288.976 242.359 303.124 254.398 272.308C254.398 272.308 235.568 249.401 245.849 230.685C252.317 218.895 270.204 192.869 270.204 192.869C270.204 192.869 277.676 185.775 280 178.647C280 178.647 278.72 170.704 273.088 165.327C273.088 165.327 273.027 161.285 269.867 158.981C266.707 156.677 260.913 152.243 260.913 152.243C260.913 152.243 251.387 129.391 249.972 125.261C248.557 121.131 245.714 113.322 244.293 104.699C242.871 96.0749 241.557 86.791 238.539 86.818C238.539 86.818 235.426 85.4705 235.426 91.0018C235.426 91.0018 228.891 94.3704 229.855 101.498C230.818 108.626 231.707 112.312 231.451 116.32C231.195 120.329 232.482 134.248 235.703 138.614C235.703 138.614 236.781 158.152 238.397 163.239C238.451 163.394 238.499 163.535 238.546 163.663C240.243 167.968 223.279 184.549 214.096 189.036C214.096 189.036 213.133 190.828 209.569 190.336C206.005 189.844 199.975 189.615 198.937 186.967C197.9 184.32 190.994 163.663 190.994 163.663C190.994 163.663 185.409 137.186 174.252 137.192C174.252 137.192 172.561 133.15 168.189 135.36C163.816 137.57 166.679 149.616 168.613 156.205C170.547 162.794 175.445 180.115 176.24 188.086C177.035 196.056 172.521 212.023 174.218 218.302C175.916 224.581 177.803 228.819 183.219 239.1C188.636 249.381 200.635 280.036 202.569 288.976Z" fill="#FAFAFA"/>
<path d="M202.569 288.976C202.569 288.976 194.053 256.92 181.535 236.19C169.017 215.459 176.381 208.129 176.381 190.875C176.381 173.621 162.32 144.246 166.113 137.772C169.906 131.297 175.081 136.478 177.243 142.521C179.406 148.565 176.381 152.021 170.317 152.452" stroke="#0F0F0F" stroke-linecap="round" stroke-linejoin="round"/>
<path d="M174.252 137.22C174.252 137.22 181.522 136.775 185.988 148.397C190.455 160.018 197.61 189.494 205.062 198.461" stroke="#0F0F0F" stroke-linecap="round" stroke-linejoin="round"/>
<path d="M199.18 187.574C199.22 187.668 209.589 193.449 225.678 188.382" stroke="#0F0F0F" stroke-linecap="round" stroke-linejoin="round"/>
<path d="M175.633 171.33C176.442 170.341 177.496 169.582 178.69 169.129C179.884 168.676 181.177 168.545 182.438 168.75" stroke="#0F0F0F" stroke-linecap="round" stroke-linejoin="round"/>
<path d="M177.014 174.989C177.713 174.153 178.633 173.531 179.668 173.194C180.703 172.857 181.813 172.818 182.869 173.082" stroke="#0F0F0F" stroke-linecap="round" stroke-linejoin="round"/>
<path d="M235.426 90.9814C224.849 94.505 232.731 110.479 231.451 116.307C230.171 122.135 233.473 133.291 236.012 139.341C236.012 146.436 238.539 163.649 238.539 163.649C236.976 169.127 223.933 185.269 211.26 190.322" stroke="#0F0F0F" stroke-linecap="round" stroke-linejoin="round"/>
<path d="M243.188 99.026C243.188 99.026 242.399 86.7979 238.539 86.7979C234.678 86.7979 234.914 95.0375 236.518 101.155C238.121 107.272 244.36 106.397 243.188 99.026Z" stroke="#0F0F0F" stroke-linecap="round" stroke-linejoin="round"/>
<path d="M243.188 99.0259C243.188 99.0259 246.475 118.247 252.047 130.32" stroke="#0F0F0F" stroke-linecap="round" stroke-linejoin="round"/>
<path d="M258.616 175.339C261.311 170.973 262.503 166.843 263.501 161.588C263.251 158.293 259.458 147.541 255.052 137.125" stroke="#0F0F0F" stroke-linecap="round" stroke-linejoin="round"/>
<path d="M261.27 153.261C265.643 156.549 273.249 159.075 272.373 164.748C271.407 170.423 269.421 175.876 266.512 180.843" stroke="#0F0F0F" stroke-linecap="round" stroke-linejoin="round"/>
<path d="M255.369 273.743C255.369 273.743 240.136 252.595 243.188 237.988C245.431 227.242 259.856 208.452 270.204 192.889C275.904 187.573 278.754 183.457 280 178.667C278.174 169.672 275.21 167.052 272.36 164.748" stroke="#0F0F0F" stroke-linecap="round" stroke-linejoin="round"/>
<path d="M259.431 156.751C257.734 156.274 255.958 156.15 254.211 156.388C252.465 156.626 250.786 157.219 249.278 158.132" stroke="#0F0F0F" stroke-linecap="round" stroke-linejoin="round"/>
<path d="M258.576 160.368C256.506 160.055 254.391 160.427 252.552 161.426" stroke="#0F0F0F" stroke-linecap="round" stroke-linejoin="round"/>
</svg>
